<svg width="916" height="155" viewBox="0 0 916 155" fill="none" xmlns="http://www.w3.org/2000/svg">
<path d="M129.576 204.951C132.13 206.336 101.223 203.238 64.0582 176.617C45.2331 163.118 1.78456 123.023 6.3312 115.543C10.8523 108.089 43.6494 126.297 79.5117 151.684C98.5156 165.133 117.136 182.712 129.576 204.951Z" fill="#FFD25A"/>
<path d="M138.26 205.681C138.439 208.552 124.467 181.201 127.226 135.968C128.631 113.075 139.563 55.3757 148.375 55.1238C157.188 54.872 159.257 91.9195 156.856 135.389C155.579 158.459 150.598 183.392 138.26 205.681Z" fill="#FFD25A"/>
<path d="M125.157 195.582C126.97 198.478 96.9831 177.7 74.3265 129.143C62.8578 104.537 41.6571 38.5517 50.6738 33.4643C59.6904 28.3769 82.7557 65.777 104.825 112.294C116.523 136.951 125.387 165.611 125.157 195.582Z" fill="#FFD25A"/>
<path d="M124.467 207.646C124.467 207.646 23.7769 142.441 18.8216 127.582C13.8662 112.698 102.449 178.608 124.467 207.646Z" fill="#F99441"/>
<path d="M114.735 189.311C114.735 189.311 60.2778 83.3566 63.4707 68.044C66.6891 52.7061 110.291 153.321 114.735 189.311Z" fill="#F99441"/>
<path d="M133.867 204.573C133.867 204.573 135.067 94.2617 144.391 83.0038C153.688 71.746 145.847 173.041 133.867 204.573Z" fill="#F99441"/>
<path d="M684.43 149.958C683.379 152.6 682.427 122.552 703.888 83.5152C714.756 63.7378 748.662 16.924 756.6 20.3066C764.538 23.6893 750.816 57.4417 730.457 95.12C719.639 115.046 704.739 135.169 684.43 149.958Z" fill="#FFD25A"/>
<path d="M684.831 158.379C682.026 158.922 707.193 141.984 752.093 138.799C774.855 137.194 833.127 140.181 834.504 148.601C835.882 157.021 799.647 163.786 756.475 167.119C733.612 168.872 708.395 167.317 684.831 158.379Z" fill="#FFD25A"/>
<path d="M693.095 144.527C690.465 146.651 707.093 115.194 752.018 87.2195C774.78 73.0469 837.084 44.1833 843.269 52.1832C849.454 60.1831 815.573 87.1208 772.552 114.256C749.764 128.651 722.669 140.848 693.095 144.527Z" fill="#FFD25A"/>
<path d="M681.125 145.416C681.125 145.416 732.36 40.4791 746.383 33.8126C760.381 27.1707 706.892 120.552 681.125 145.416Z" fill="#F99441"/>
<path d="M697.903 133.737C697.903 133.737 795.289 67.8368 810.815 68.9232C826.341 70.0096 732.811 124.799 697.903 133.737Z" fill="#F99441"/>
<path d="M685.332 154.033C685.332 154.033 794.212 140.922 806.508 148.379C818.828 155.835 717.986 161.415 685.332 154.033Z" fill="#F99441"/>
<path d="M0.291138 219.997H916C855.558 194.56 793.979 182.886 731.041 187.552C731.041 187.552 752.606 168.533 745.797 157.35C738.988 146.168 715.167 161.819 715.167 161.819C715.167 161.819 733.317 147.27 724.252 131.618C715.167 115.947 669.781 143.923 669.781 143.923C669.781 143.923 743.541 98.0505 714.029 68.9715C684.517 39.8728 540.412 101.417 540.412 101.417C540.412 101.417 569.924 21.9765 504.111 2.95803C438.298 -16.0605 356.591 104.764 356.591 104.764C356.591 104.764 342.973 -2.63332 287.384 5.18277C231.774 13.0185 248.806 87.9703 248.806 87.9703C248.806 87.9703 188.664 59.9938 171.652 76.7876C154.64 93.5616 167.119 127.129 167.119 127.129C167.119 127.129 152.363 109.233 142.16 118.171C131.957 127.129 145.555 146.148 145.555 146.148C145.555 146.148 92.2214 124.885 84.2744 134.965C76.3273 145.026 109.234 165.166 109.234 165.166C51.348 170.994 17.8426 190.898 0.291138 219.997Z" fill="#71BF9D"/>
<path d="M90.4843 219.997H675.512C675.512 219.997 711.952 193.3 685.356 171.939C658.759 150.578 600.654 172.904 600.654 172.904C600.654 172.904 662.712 130.181 650.892 115.612C639.071 101.043 502.174 133.095 502.174 133.095C502.174 133.095 537.636 47.6298 494.287 29.1822C450.937 10.7347 350.481 156.405 350.481 156.405C350.481 156.405 327.838 31.1313 293.354 35.9942C258.89 40.8571 283.51 136.993 283.51 136.993C283.51 136.993 217.517 85.5289 196.831 104.941C176.145 124.373 207.673 183.594 207.673 183.594C207.673 183.594 141.122 168.041 90.4843 219.997Z" fill="#3C8460"/>
<path d="M20.3385 210.153C39.2477 190.702 68.8595 179.125 110.232 174.971L139.365 172.038L114.485 156.819C107.177 152.33 99.869 146.502 95.8955 142.23C109.433 143.372 133.195 151.857 141.781 155.283L173.25 167.805L153.681 140.478C149.768 134.926 147.132 126.972 148.749 125.535C148.749 125.535 148.749 125.535 148.769 125.515" stroke="white" stroke-miterlimit="10"/>
<path d="M176.464 123.743C173.629 116.045 168.517 93.7782 178.681 83.7571C180.278 82.1821 184.052 81.2764 189.024 81.2764C210.649 81.2764 244.194 96.7314 244.534 96.8889L262.983 105.453L258.531 85.8243C258.451 85.4699 250.524 49.1261 265.04 28.4538C270.391 20.8543 278.139 16.4246 288.781 14.9283C290.239 14.7314 291.677 14.6133 293.074 14.6133C327.458 14.6133 343.432 80.5677 346.667 105.985L350.022 132.17L364.878 110.218C383.607 82.5561 442.491 10.7544 489.455 10.7544C493.548 10.7544 497.521 11.3057 501.275 12.3885C515.612 16.5427 525.376 23.965 531.107 35.128C544.385 60.9585 531.147 97.6568 531.007 98.0308L523.12 119.491L544.365 110.434C545.284 110.04 637.354 70.9796 686.334 70.9796C699.932 70.9796 705.083 74.0706 706.96 75.9016C710.135 79.032 711.353 82.182 710.914 86.1196C709.077 102.224 681.442 125.003 664.45 135.576" stroke="white" stroke-miterlimit="10"/>
</svg>
