<svg width="760" height="189" viewBox="0 0 760 189" fill="none" xmlns="http://www.w3.org/2000/svg">
<path d="M149.725 140.241C151.309 141.1 132.142 139.178 109.094 122.658C97.4197 114.28 70.4749 89.3985 73.2945 84.7566C76.0983 80.1303 96.4376 91.4303 118.678 107.185C130.463 115.531 142.011 126.44 149.725 140.241Z" fill="#FFD25A"/>
<path d="M155.111 140.694C155.222 142.476 146.557 125.502 148.268 97.432C149.139 83.2249 155.919 47.418 161.384 47.2617C166.849 47.1054 168.132 70.0962 166.643 97.0725C165.851 111.389 162.762 126.862 155.111 140.694Z" fill="#FFD25A"/>
<path d="M146.985 134.427C148.11 136.224 129.513 123.33 115.462 93.1964C108.35 77.9265 95.2021 36.9776 100.794 33.8204C106.386 30.6633 120.69 53.8729 134.376 82.7403C141.631 98.0415 147.128 115.828 146.985 134.427Z" fill="#FFD25A"/>
<path d="M146.557 141.913C146.557 141.913 84.1136 101.449 81.0405 92.2274C77.9674 82.9904 132.903 123.892 146.557 141.913Z" fill="#F99441"/>
<path d="M140.522 130.535C140.522 130.535 106.75 64.7822 108.73 55.2795C110.726 45.7613 137.766 108.201 140.522 130.535Z" fill="#F99441"/>
<path d="M152.387 140.006C152.387 140.006 153.131 71.5498 158.913 64.5635C164.679 57.5772 159.816 120.438 152.387 140.006Z" fill="#F99441"/>
<path d="M607.93 156.948C607.265 158.621 606.663 139.6 620.238 114.89C627.113 102.371 648.561 72.7376 653.583 74.8788C658.604 77.0201 649.924 98.3853 637.045 122.236C630.202 134.849 620.777 147.586 607.93 156.948Z" fill="#FFD25A"/>
<path d="M608.184 162.278C606.41 162.622 622.329 151.9 650.732 149.884C665.131 148.868 701.992 150.759 702.863 156.089C703.734 161.419 680.813 165.701 653.504 167.811C639.041 168.921 623.09 167.936 608.184 162.278Z" fill="#FFD25A"/>
<path d="M613.411 153.51C611.748 154.854 622.266 134.942 650.684 117.234C665.083 108.263 704.495 89.9925 708.407 95.0564C712.32 100.12 690.888 117.172 663.673 134.349C649.258 143.46 632.119 151.181 613.411 153.51Z" fill="#FFD25A"/>
<path d="M605.839 154.073C605.839 154.073 638.249 87.6479 647.12 83.428C655.975 79.2237 622.139 138.334 605.839 154.073Z" fill="#F99441"/>
<path d="M616.453 146.68C616.453 146.68 678.057 104.965 687.878 105.653C697.699 106.341 638.534 141.022 616.453 146.68Z" fill="#F99441"/>
<path d="M608.5 159.527C608.5 159.527 677.375 151.228 685.153 155.948C692.947 160.668 629.157 164.201 608.5 159.527Z" fill="#F99441"/>
<path d="M0.094991 112.733C0.253397 108.998 14.5891 107.966 16.8385 107.857C24.838 107.466 32.8533 108.873 40.536 110.967C39.3163 110.639 37.3837 107.263 36.8768 106.075C35.9739 103.918 36.1482 100.73 38.1916 99.1355C40.9162 97.0255 45.2565 98.9167 47.791 100.401C54.1273 104.121 59.8932 108.794 64.8196 114.187C63.3623 111.53 61.8891 108.794 61.4614 105.809C60.5585 99.4481 66.0235 94.5405 72.3281 96.9474C78.4901 99.2918 83.2581 106.2 86.8064 111.389C90.7824 117.234 94.9009 123.799 97.5622 130.332C95.5029 125.283 93.4119 119.954 94.1089 114.562C94.8059 109.17 99.3838 103.84 104.881 104.309C110.456 104.778 113.91 110.576 115.256 115.953C117.585 125.299 116.333 135.458 111.819 143.976C114.955 143.429 117.901 142.194 120.959 141.319C126.044 139.866 136.166 140.022 135.881 147.774C135.548 156.808 118.408 157.167 113.197 152.885C116.856 155.886 120.404 159.027 123.826 162.294C124.317 162.763 124.618 163.841 123.937 163.872C119.882 160.809 115.826 157.746 111.771 154.698C117.553 159.058 118.092 171.89 111.629 175.938C103.914 180.768 102.552 169.811 102.489 165.107C102.473 163.435 101.871 157.214 103.106 156.011C96.4691 162.45 88.5013 167.545 79.8207 170.89C76.8268 172.046 73.2785 172.953 70.5223 171.328C64.7246 167.92 68.0828 160.356 71.6311 156.761C75.5121 152.822 80.6761 150.118 86.1569 149.165C78.6485 150.478 71.14 151.822 63.6316 153.119C58.6893 153.963 50.9274 156.183 47.3316 151.306C43.2131 145.711 50.6898 137.084 56.4083 136.068C51.862 136.88 26.7389 142.851 29.7644 131.957C30.6357 128.831 33.7562 126.846 36.8135 125.659C34.7225 126.471 28.8773 124.268 26.6755 123.767C20.0541 122.236 12.9892 120.126 6.62132 117.406C5.33823 116.859 0.015788 114.624 0.094991 112.733Z" fill="#71BF9D"/>
<path d="M2.2019 113.03C42.0252 115.109 80.9613 129.722 112.437 153.807C113.118 155.683 113.751 157.558 114.132 159.543C114.512 161.528 114.733 163.528 114.718 165.498C114.733 169.186 113.054 175.547 108.223 175.172C105.388 174.985 104.849 169.702 104.485 164.513C104.342 161.887 104.342 159.246 104.358 157.246C104.374 155.276 104.39 153.932 104.39 153.932C104.39 153.932 101.111 156.276 97.1821 159.059C93.2536 161.825 88.7232 165.045 85.9194 166.561C83.7176 167.764 80.898 169.264 78.2209 170.108C75.5439 170.937 73.0094 171.077 71.0293 169.718C66.8157 166.654 69.5244 160.262 73.4054 157.042C75.0053 155.714 76.6527 154.417 78.9654 153.026C80.1218 152.338 81.4524 151.619 83.0523 150.884C84.6364 150.15 86.5056 149.384 88.6599 148.681C87.456 148.556 84.7948 148.821 81.4999 149.228C79.8683 149.446 78.0784 149.681 76.1775 149.915C74.2924 150.197 72.2965 150.556 70.3323 150.884C68.3681 151.197 66.4038 151.494 64.5346 151.791C62.6338 152.119 60.8121 152.4 59.133 152.588C57.4539 152.791 55.949 152.838 54.6184 152.854C53.2878 152.869 52.1473 152.76 51.2919 152.447C50.3732 152.119 49.5653 151.556 48.9475 150.728C47.1575 148.321 47.6169 145.461 49.5653 142.929C50.4682 141.741 51.577 140.803 52.7334 139.959C53.6046 139.303 58.9904 135.505 60.226 135.536C57.8816 135.239 54.7768 135.318 51.6879 135.615C48.5673 135.974 45.5259 136.396 43.2766 136.427C41.6291 136.474 38.9046 137.084 36.481 137.037C35.2612 137.037 34.1207 136.834 33.1861 136.427C32.2357 136.021 31.507 135.318 31.1427 134.177C30.1764 131.238 33.3445 129.175 35.4988 128.066C36.7186 127.456 38.0016 127.018 39.2847 126.55C40.2035 126.206 42.2152 124.924 43.1182 125.112C43.1182 125.112 40.5203 124.565 37.6532 123.971C34.7702 123.424 31.6179 122.955 30.5407 122.705C29.5586 122.486 28.6082 122.267 27.6894 122.033C26.7548 121.829 25.8519 121.626 24.9648 121.439C23.1907 121.032 21.5274 120.579 19.9434 120.11C18.3752 119.594 16.8861 119.235 15.4922 118.782C14.0982 118.344 12.8151 117.891 11.6112 117.438C9.21929 116.484 7.20753 115.718 5.62347 114.953C4.08693 114.234 2.91473 113.546 2.2019 113.03Z" fill="#3C8460"/>
<path opacity="0.7" d="M113.023 154.307C113.039 154.385 113.07 154.464 113.086 154.542C103.344 152.822 94.9961 146.899 86.6481 141.663C71.457 132.145 55.0619 124.502 37.9699 118.938C35.4038 118.11 32.7267 117.422 30.2239 116.547C48.2505 118.703 65.9286 123.892 82.5454 131.066C86.3788 132.723 90.1647 134.489 93.9031 136.365C97.9741 138.412 102.029 140.6 105.498 143.523C108.904 146.383 111.755 150.056 113.023 154.307Z" fill="#7D9C8B"/>
<path d="M74.7993 129.675C63.0614 124.377 50.7849 120.251 38.2233 117.453C25.6776 114.562 12.815 113.108 0 112.905C12.815 113.718 25.4558 115.922 37.8115 119.079C50.1513 122.33 62.1743 126.659 73.7063 132.02C85.2224 137.412 96.1682 143.898 106.528 151.181C116.84 158.543 126.582 166.686 135.611 175.626C136.799 176.86 137.734 176.032 136.53 174.797C128.214 165.091 118.662 156.386 108.223 148.884C97.8315 141.304 86.553 134.942 74.7993 129.675Z" fill="#71BF9D"/>
<path opacity="0.3" d="M100.35 154.964C100.493 154.87 97.3721 157.089 93.6654 159.637C91.812 160.903 89.8161 162.263 87.9786 163.45C86.1253 164.654 84.4145 165.701 83.1631 166.264C78.1258 168.53 74.2448 170.108 71.2351 167.342C68.2888 164.513 73.532 157.433 80.7553 153.807C80.7553 153.807 79.1871 155.245 77.9515 157.105C76.7001 158.965 75.7655 161.247 76.8743 162.856C77.4446 163.654 78.2208 164.216 79.298 164.451C80.391 164.669 81.8008 164.544 83.6224 163.966C85.4441 163.403 87.7093 162.356 90.4339 160.887C93.1743 159.434 96.4375 157.48 100.35 154.964Z" fill="white"/>
<path opacity="0.3" d="M82.6721 147.258C82.5929 147.274 81.69 147.415 79.995 147.665C79.1555 147.79 78.1417 147.946 77.0328 148.118C75.924 148.29 74.7043 148.54 73.4529 148.774C70.9817 149.243 68.3522 149.743 66.0395 150.181C63.7109 150.666 61.6992 151.103 60.4478 151.259C55.4421 151.806 50.4682 151.072 49.4702 148.399C48.2663 145.211 52.8443 139.819 62.7763 136.521C62.7763 136.521 62.3328 136.818 61.6675 137.334C61.0022 137.865 60.1151 138.631 59.2439 139.537C57.5014 141.335 55.8223 143.695 55.854 145.82C55.8698 146.758 56.1074 147.508 56.8203 148.024C57.5331 148.524 58.6578 148.884 60.527 148.946C61.4615 148.978 62.5704 148.946 63.901 148.853C65.1999 148.743 66.7365 148.618 68.5581 148.477C72.1064 148.196 76.7477 147.587 82.6721 147.258Z" fill="white"/>
<path opacity="0.3" d="M53.0659 134.317C53.0659 134.317 48.2979 134.802 43.5457 135.005C41.138 135.192 38.7302 135.349 36.8452 135.271C34.9601 135.192 33.5979 134.911 33.2494 134.333C31.8871 131.926 34.2632 129.8 39.9658 127.784C39.9658 127.784 38.3184 128.784 36.8293 130.003C35.3403 131.207 33.9939 132.692 34.4374 133.504C34.8809 134.364 39.443 134.395 44.0051 134.302C48.5197 134.427 53.0659 134.317 53.0659 134.317Z" fill="white"/>
<path opacity="0.3" d="M112.991 160.403C112.991 160.403 113.529 163.716 113.213 167.061C112.912 170.421 111.74 173.781 108.793 174.297C108.793 174.297 108.08 174.157 107.415 172.734C106.718 171.312 106.148 168.53 105.91 163.372C105.91 163.372 106.48 164.357 107.257 165.435C108.049 166.498 108.952 167.811 109.807 168.28C110.662 168.764 111.486 166.826 112.056 164.732C112.658 162.653 112.991 160.403 112.991 160.403Z" fill="white"/>
<path opacity="0.3" d="M109.997 141.429C109.965 141.6 110.947 137.928 111.771 133.395C112.183 131.129 112.563 128.659 112.769 126.378C112.959 124.127 112.991 122.064 112.769 120.595C111.898 114.734 110.599 109.685 105.055 107.904C99.5264 106.059 97.2929 114.812 98.576 123.111C98.576 123.111 98.877 119.782 99.7165 116.5C100.572 113.233 101.998 110.014 104.548 110.42C105.815 110.623 107.035 111.498 108.096 112.968C109.126 114.499 109.997 116.656 110.599 119.329C111.201 122.017 111.549 125.205 111.486 128.909C111.391 132.66 110.932 136.865 109.997 141.429Z" fill="white"/>
<path opacity="0.3" d="M93.6495 127.972C93.697 128.05 93.1901 127.034 92.3506 125.362C91.9229 124.533 91.4002 123.533 90.8299 122.439C90.2438 121.36 89.5626 120.22 88.8498 119.016C87.4242 116.609 85.8243 114.03 84.3194 111.748C82.7829 109.529 81.3255 107.638 80.3117 106.481C76.3041 101.777 70.3005 98.7448 67.3383 99.8388C63.6474 101.214 64.9463 108.716 70.5381 118C70.5381 118 70.2529 117.203 69.8094 115.968C69.3817 114.749 68.8273 113.077 68.3679 111.295C67.4333 107.747 66.7839 103.777 68.4313 102.277C69.1599 101.605 70.1896 101.527 71.5994 102.089C72.2964 102.371 73.0884 102.808 73.9755 103.434C74.419 103.746 74.8942 104.09 75.3853 104.481C75.8764 104.903 76.3833 105.356 76.906 105.872C77.9673 106.888 79.1395 108.091 80.3909 109.482C81.0246 110.17 81.674 110.92 82.3552 111.702C83.0363 112.483 83.7333 113.327 84.4303 114.265C87.2024 117.985 90.418 122.376 93.6495 127.972Z" fill="white"/>
<path opacity="0.3" d="M60.7962 112.815C60.7962 112.815 56.836 109.501 52.3373 106.329C47.791 103.375 42.7221 100.515 41.3598 101.327C38.6352 102.906 40.3935 105.641 44.718 110.486C44.718 110.486 43.9893 107.563 45.7793 106.61C46.2228 106.376 47.4109 106.61 48.9316 107.11C49.6919 107.36 50.5315 107.673 51.4027 108.017C52.2739 108.392 53.161 108.829 54.0481 109.267C57.5488 110.971 60.7962 112.815 60.7962 112.815Z" fill="white"/>
<path opacity="0.3" d="M119.565 152.447C119.565 152.447 122.986 152.463 126.471 151.791C129.94 151.103 133.473 149.728 133.251 146.571C133.251 146.571 132.902 145.82 131.128 145.18C129.354 144.57 126.202 143.992 120.594 144.851C120.594 144.851 121.782 145.258 123.176 145.883C124.586 146.477 126.091 147.43 126.836 148.259C127.564 149.103 125.711 150.119 123.715 150.963C121.719 151.791 119.565 152.447 119.565 152.447Z" fill="white"/>
<path d="M590.838 1.2645C589.08 -2.04892 575.663 3.04625 573.588 3.90587C566.19 6.92233 559.553 11.5642 553.502 16.6907C554.468 15.8779 554.753 12.0019 554.69 10.7202C554.579 8.39147 553.043 5.57818 550.492 4.99989C547.118 4.23405 544.014 7.7663 542.366 10.1889C538.248 16.2218 535.048 22.8643 532.925 29.835C533.084 26.8185 533.242 23.7239 532.339 20.8481C530.406 14.7058 523.342 12.5801 518.669 17.4096C514.107 22.1297 512.776 30.382 511.825 36.5556C510.748 43.5106 509.861 51.1847 510.289 58.2179C509.972 52.7789 509.56 47.0898 506.598 42.4948C503.636 37.9154 497.189 35.0239 492.421 37.7591C487.574 40.5411 486.956 47.2305 488.065 52.6539C489.997 62.0784 495.526 70.7526 503.303 76.5511C500.23 77.3795 497.03 77.5045 493.878 77.989C488.651 78.8174 479.558 83.2093 483.17 90.1018C487.368 98.1353 503.034 91.2428 505.901 85.1786C503.889 89.4454 502.052 93.7747 500.373 98.1666C500.135 98.7917 500.325 99.8858 500.959 99.6357C503.303 95.1657 505.648 90.6801 507.992 86.2101C504.65 92.5869 509.703 104.418 517.306 105.356C526.367 106.481 522.866 95.9941 520.886 91.7273C520.173 90.1956 518.035 84.3189 516.388 83.7563C525.179 86.7884 534.588 88.0387 543.887 87.4135C547.102 87.1947 550.698 86.5383 552.488 83.8969C556.258 78.3798 549.954 72.9564 545.186 71.1903C539.974 69.2522 534.145 68.9865 528.759 70.4244C536.125 68.4551 543.491 66.5015 550.841 64.5165C555.672 63.2037 563.656 61.9533 564.796 56.0298C566.111 49.231 555.609 44.5734 550.001 46.0739C554.452 44.9017 579.766 39.7127 572.321 31.1478C570.182 28.6784 566.507 28.2095 563.228 28.4127C565.478 28.272 569.802 23.8177 571.576 22.4267C576.899 18.238 582.379 13.3772 586.957 8.23518C587.876 7.18802 591.725 2.93684 590.838 1.2645Z" fill="#71BF9D"/>
<path d="M589.064 2.42645C553.946 21.0723 525.052 50.6743 506.994 85.7154C507.2 87.6847 507.438 89.654 507.929 91.6233C508.436 93.5926 509.101 95.4837 509.972 97.2499C511.556 100.595 515.817 105.643 520.031 103.267C522.518 101.907 520.728 96.8904 518.795 92.0609C517.782 89.6383 516.657 87.2314 515.77 85.4184C514.899 83.6367 514.312 82.4332 514.312 82.4332C514.312 82.4332 518.288 83.1678 523.041 84.043C527.793 84.887 533.274 85.9029 536.474 86.0905C538.992 86.2624 542.176 86.4343 544.964 86.0592C547.752 85.6841 550.096 84.7463 551.3 82.6676C553.787 78.1195 548.576 73.4776 543.681 72.2116C541.653 71.6958 539.61 71.1957 536.917 70.93C535.571 70.7893 534.066 70.7112 532.307 70.7112C530.549 70.7112 528.537 70.8049 526.288 71.0863C527.333 70.4611 529.836 69.5859 533.004 68.57C534.573 68.0854 536.299 67.5384 538.105 66.9601C539.927 66.4131 541.891 65.913 543.808 65.366C545.724 64.8189 547.625 64.2719 549.447 63.7405C551.316 63.2403 553.09 62.7245 554.674 62.1931C556.274 61.6774 557.652 61.0835 558.872 60.5364C560.092 59.9894 561.058 59.4112 561.708 58.7704C562.389 58.0827 562.88 57.2387 563.086 56.2228C563.672 53.3001 562.009 50.9088 559.157 49.4396C557.827 48.7519 556.417 48.3612 555.007 48.0955C553.946 47.861 547.419 46.7044 546.326 47.2515C548.306 46.0011 551.158 44.7664 554.088 43.7349C557.05 42.7502 559.997 41.8437 562.04 40.9372C563.561 40.2964 566.285 39.6869 568.456 38.6397C569.549 38.124 570.499 37.4675 571.164 36.7016C571.846 35.9358 572.194 34.9981 572.036 33.8103C571.64 30.7469 567.87 30.2155 565.446 30.1217C564.068 30.0748 562.737 30.2311 561.359 30.3405C560.377 30.4187 558.017 30.1061 557.272 30.6531C557.272 30.6531 559.395 29.0745 561.723 27.324C564.084 25.6204 566.745 23.8699 567.616 23.1823C568.408 22.5727 569.168 21.9788 569.913 21.3692C570.673 20.791 571.402 20.2283 572.131 19.6813C573.556 18.556 574.871 17.4463 576.091 16.3679C577.295 15.2426 578.483 14.2892 579.544 13.2889C580.621 12.3042 581.588 11.3508 582.475 10.4443C584.217 8.5688 585.706 7.03714 586.815 5.67739C587.876 4.302 588.637 3.19229 589.064 2.42645Z" fill="#3C8460"/>
<path opacity="0.7" d="M506.677 86.3977C506.693 86.4758 506.709 86.5539 506.725 86.6321C514.804 80.9743 519.778 72.0968 525.068 63.8445C534.699 48.8403 546.215 35.024 559.268 22.8018C561.216 20.9732 563.355 19.2383 565.24 17.3784C549.875 26.928 536.125 39.0563 524.197 52.5288C521.441 55.6391 518.78 58.8274 516.213 62.094C513.41 65.6575 510.701 69.346 508.832 73.4565C506.978 77.5045 505.98 82.0214 506.677 86.3977Z" fill="#7D9C8B"/>
<path d="M530.581 48.0304C538.913 38.2933 548.227 29.4002 558.381 21.5699C568.472 13.6771 579.481 6.94082 590.981 1.36115C579.75 7.48785 569.264 14.818 559.442 22.8671C549.685 30.9944 540.687 39.9813 532.577 49.6715C524.498 59.3929 517.386 69.8646 511.176 80.8208C505.03 91.8238 499.739 103.296 495.446 115.174C494.908 116.784 493.704 116.424 494.258 114.799C497.585 102.53 502.448 90.6204 508.657 79.4454C514.788 68.2391 522.233 57.7362 530.581 48.0304Z" fill="#71BF9D"/>
<path opacity="0.3" d="M518.415 81.662C518.241 81.6464 522.027 82.3184 526.478 83.0687C528.711 83.4438 531.103 83.8345 533.274 84.1158C535.475 84.4284 537.471 84.6472 538.849 84.6316C544.394 84.5691 548.576 84.3503 550.112 80.5836C551.554 76.7856 543.744 72.5812 535.666 72.3468C535.666 72.3468 537.693 72.9876 539.626 74.1442C541.558 75.3008 543.396 76.9575 543.079 78.8956C542.905 79.849 542.461 80.693 541.574 81.365C540.687 82.0215 539.356 82.4904 537.456 82.7404C535.57 83.0061 533.068 83.0061 529.963 82.8342C526.842 82.6779 523.056 82.2716 518.415 81.662Z" fill="white"/>
<path opacity="0.3" d="M531.088 67.2516C531.167 67.236 532.038 66.9703 533.685 66.4858C534.509 66.2513 535.475 65.9544 536.553 65.6418C537.63 65.3449 538.849 65.0479 540.085 64.7353C542.524 64.1101 545.122 63.4537 547.388 62.8754C549.7 62.344 551.712 61.8908 552.916 61.5001C557.684 59.8746 561.85 57.1239 561.612 54.295C561.327 50.9034 554.848 47.9495 544.441 49.1529C544.441 49.1529 544.964 49.2311 545.788 49.4343C546.627 49.6375 547.752 49.95 548.924 50.4033C551.284 51.2941 553.819 52.7164 554.722 54.6544C555.118 55.5141 555.229 56.2955 554.801 57.0457C554.373 57.7959 553.502 58.593 551.839 59.437C551.015 59.859 549.985 60.2966 548.75 60.7811C547.53 61.2343 546.073 61.7657 544.378 62.3909C541.051 63.6413 536.584 65.0479 531.088 67.2516Z" fill="white"/>
<path opacity="0.3" d="M552.266 43.0887C552.266 43.0887 556.797 41.5102 561.169 39.7128C563.418 38.8688 565.684 37.9935 567.347 37.1339C569.01 36.2743 570.135 35.446 570.198 34.7739C570.388 32.0231 567.315 31.101 561.296 31.6793C561.296 31.6793 563.212 31.8981 565.097 32.367C566.967 32.8359 568.836 33.6017 568.772 34.5395C568.741 35.4929 564.622 37.4465 560.456 39.2908C556.417 41.2601 552.266 43.0887 552.266 43.0887Z" fill="white"/>
<path opacity="0.3" d="M509.354 91.8991C509.354 91.8991 510.305 95.1188 512.031 98.0259C513.758 100.933 516.261 103.496 519.144 102.699C519.144 102.699 519.73 102.277 519.714 100.699C519.73 99.12 519.049 96.3692 517.021 91.6022C517.021 91.6022 516.926 92.7275 516.704 94.0404C516.451 95.3376 516.197 96.9006 515.627 97.6821C515.073 98.4792 513.489 97.0725 512.047 95.4314C510.622 93.7903 509.354 91.8991 509.354 91.8991Z" fill="white"/>
<path opacity="0.3" d="M503.842 73.4721C503.953 73.6128 501.466 70.7057 498.757 66.9547C497.411 65.0792 496.001 63.0004 494.813 61.0311C493.672 59.0775 492.753 57.2176 492.31 55.7953C490.567 50.1218 489.554 45.0111 493.799 41.0725C497.997 37.0714 503.794 44.0577 506.234 52.0911C506.234 52.0911 504.523 49.1997 502.337 46.5896C500.151 43.9952 497.474 41.682 495.351 43.1356C494.29 43.8545 493.561 45.1517 493.244 46.9335C492.975 48.7465 493.134 51.0596 493.736 53.7479C494.353 56.4361 495.43 59.4682 497.078 62.7816C498.789 66.1419 501.022 69.7367 503.842 73.4721Z" fill="white"/>
<path opacity="0.3" d="M512.808 54.42C512.808 54.5138 512.808 53.3728 512.855 51.5129C512.887 50.5751 512.918 49.4654 512.966 48.2307C513.029 46.996 513.156 45.6832 513.283 44.2922C513.536 41.5258 513.869 38.5093 514.249 35.821C514.677 33.164 515.184 30.8509 515.596 29.3818C517.195 23.4426 521.298 18.1599 524.45 17.9098C528.379 17.6129 530.454 24.943 529.409 35.6804C529.409 35.6804 529.313 34.852 529.187 33.5392C529.044 32.2576 528.822 30.5071 528.474 28.7097C527.777 25.115 526.668 21.2389 524.514 20.5824C523.563 20.2855 522.597 20.645 521.567 21.739C521.061 22.2861 520.538 23.0206 519.999 23.9584C519.73 24.4273 519.461 24.9431 519.176 25.5057C518.922 26.084 518.653 26.7248 518.399 27.3968C517.877 28.7566 517.338 30.3351 516.799 32.1169C516.53 33.0078 516.261 33.9611 515.992 34.9458C515.706 35.9304 515.453 36.9933 515.231 38.1342C514.328 42.6667 513.315 47.9963 512.808 54.42Z" fill="white"/>
<path opacity="0.3" d="M535.967 26.881C535.967 26.881 538.121 22.2235 540.814 17.4409C543.649 12.8459 546.992 8.12579 548.576 8.29771C551.728 8.57904 551.316 11.7987 549.495 17.9879C549.495 17.9879 548.893 15.034 546.849 14.9246C546.342 14.8933 545.376 15.6123 544.22 16.7063C543.633 17.2534 543.016 17.8942 542.366 18.5662C541.748 19.2696 541.131 20.0354 540.513 20.8012C538.105 23.849 535.967 26.881 535.967 26.881Z" fill="white"/>
<path opacity="0.3" d="M499.961 87.4604C499.961 87.4604 496.872 88.914 493.435 89.7736C489.997 90.6176 486.211 90.8677 485.039 87.898C485.039 87.898 485.023 87.0697 486.354 85.7568C487.684 84.4595 490.282 82.6153 495.731 81.0367C495.731 81.0367 494.828 81.9119 493.831 83.0529C492.817 84.1782 491.866 85.6787 491.55 86.7415C491.249 87.8199 493.371 87.9606 495.541 87.8668C497.727 87.773 499.961 87.4604 499.961 87.4604Z" fill="white"/>
<path d="M33.5504 188.301H760C712.051 168.108 663.198 158.84 613.269 162.544C613.269 162.544 630.376 147.446 624.975 138.568C619.573 129.691 600.675 142.116 600.675 142.116C600.675 142.116 615.074 130.566 607.883 118.141C600.675 105.7 564.67 127.909 564.67 127.909C564.67 127.909 623.185 91.4928 599.772 68.4083C576.36 45.3081 462.038 94.1655 462.038 94.1655C462.038 94.1655 485.451 31.101 433.24 16.0031C381.03 0.905133 316.21 96.8224 316.21 96.8224C316.21 96.8224 305.407 11.5644 261.306 17.7692C217.19 23.9897 230.702 83.4906 230.702 83.4906C230.702 83.4906 182.991 61.2813 169.494 74.6131C155.998 87.9293 165.899 114.577 165.899 114.577C165.899 114.577 154.192 100.37 146.098 107.466C138.003 114.577 148.791 129.675 148.791 129.675C148.791 129.675 106.481 112.796 100.176 120.798C93.8714 128.784 119.977 144.773 119.977 144.773C74.0548 149.4 47.4743 165.201 33.5504 188.301Z" fill="#71BF9D"/>
<path d="M105.102 188.301H569.216C569.216 188.301 598.125 167.108 577.025 150.15C555.926 133.192 509.829 150.916 509.829 150.916C509.829 150.916 559.062 117 549.684 105.434C540.307 93.8685 431.704 119.313 431.704 119.313C431.704 119.313 459.837 51.466 425.447 36.8213C391.057 22.1766 311.363 137.818 311.363 137.818C311.363 137.818 293.399 38.3686 266.043 42.2291C238.702 46.0895 258.233 122.408 258.233 122.408C258.233 122.408 205.88 81.5525 189.469 96.9631C173.058 112.389 198.071 159.402 198.071 159.402C198.071 159.402 145.274 147.055 105.102 188.301Z" fill="#3C8460"/>
<path d="M49.4543 180.486C64.4554 165.044 87.947 155.854 120.769 152.557L143.88 150.228L124.143 138.146C118.345 134.583 112.547 129.957 109.395 126.565C120.135 127.472 138.985 134.208 145.797 136.927L170.762 146.868L155.238 125.174C152.133 120.767 150.042 114.452 151.325 113.311C151.325 113.311 151.325 113.311 151.341 113.296" stroke="white" stroke-miterlimit="10"/>
<path d="M605.063 148.618C608.279 146.524 614.488 143.429 618.068 143.195C617.498 146.102 612.873 152.416 607.994 156.714L590.617 172.062L613.871 170.343C620.825 169.827 627.874 169.561 634.828 169.561C660.838 169.561 687.244 173.219 713.73 180.486" stroke="white" stroke-miterlimit="10"/>
<path d="M173.312 111.889C171.063 105.778 167.007 88.1012 175.07 80.1459C176.338 78.8955 179.331 78.1766 183.276 78.1766C200.431 78.1766 227.043 90.4456 227.313 90.5706L241.949 97.3694L238.417 81.7869C238.354 81.5056 232.065 52.6538 243.581 36.243C247.826 30.2101 253.972 26.6935 262.415 25.5057C263.572 25.3494 264.712 25.2556 265.821 25.2556C293.099 25.2556 305.771 77.6139 308.337 97.7914L310.998 118.578L322.784 101.152C337.642 79.1925 384.356 22.1922 421.613 22.1922C424.861 22.1922 428.013 22.6298 430.991 23.4895C442.364 26.7873 450.111 32.6795 454.657 41.5413C465.191 62.0471 454.688 91.1802 454.578 91.4772L448.321 108.513L465.175 101.324C465.904 101.011 538.945 70.0024 577.802 70.0024C588.589 70.0024 592.676 72.4562 594.165 73.9097C596.684 76.3948 597.65 78.8955 597.301 82.0214C595.844 94.8062 573.921 112.889 560.44 121.282" stroke="white" stroke-miterlimit="10"/>
</svg>
