<svg width="611" height="334" viewBox="0 0 611 334" fill="none" xmlns="http://www.w3.org/2000/svg">
<path d="M29.392 326.858C79.0523 356.945 344.24 277.97 366.417 277.97C388.609 277.97 530.177 340.018 588.28 308.056C639.176 280.064 585.112 217.812 584.05 147.308C583.844 133.945 628.42 44.8422 600.952 20.3979C573.485 -4.04638 386.186 -12.158 280.83 29.7912C-11.8094 146.371 -32.6398 289.285 29.392 326.858Z" fill="#F4F2ED"/>
<path opacity="0.3" d="M566.927 246.649C511.675 266.31 502.202 201.699 487.993 162.375C476.936 134.289 432.741 137.087 407.475 151.138C347.487 182.037 312.749 238.224 240.135 248.055C203.829 252.275 162.786 235.411 159.617 207.325C151.729 118.832 259.081 59.8466 349.055 38.7626C382.209 30.3383 504.23 6.00344 532.283 2.95572C460.858 -4.04623 352.112 1.42404 280.846 29.8069C-11.8094 146.371 -32.6398 289.285 29.392 326.858C79.0523 356.945 344.24 277.97 366.416 277.97C388.609 277.97 530.176 340.018 588.28 308.056C618.519 291.427 611.708 262.7 600.984 227.346C591.337 235.224 580.058 241.788 566.927 246.649Z" fill="#DCE4E5"/>
<path d="M67.9005 326.671C47.4028 326.671 38.0568 323.607 33.8274 321.06C15.7057 310.088 6.72411 289.504 9.21108 264.607C12.4901 231.722 35.4906 193.993 73.9833 158.343C122.345 113.565 193.025 72.4749 284.061 36.2305C330.316 17.8035 398.795 7.23804 471.947 7.23804C539.602 7.23804 585.254 16.3656 595.392 25.3837C612.088 40.2472 593.697 92.5899 583.829 120.707C578.617 135.555 576.114 142.901 576.178 147.402C576.589 174.394 584.462 200.089 591.416 222.751C604.041 263.919 609.934 287.894 584.145 302.07C574.372 307.447 560.812 310.166 543.831 310.166C501.172 310.166 445.778 293.115 409.139 281.83C385.885 274.672 373.434 270.936 366.432 270.936C359.843 270.936 341.784 275.219 304.812 284.143C238.884 300.054 128.538 326.671 67.9005 326.671ZM67.9005 326.671C67.9163 326.671 67.9005 326.671 67.9005 326.671Z" stroke="white" stroke-width="0.9464" stroke-miterlimit="10"/>
</svg>
