<svg width="166" height="148" viewBox="0 0 166 148" fill="none" xmlns="http://www.w3.org/2000/svg">
<path d="M165.914 72.8901L61.3031 113.839L0 31.2535L102.061 0.494934L165.914 72.8901Z" fill="#F4F2ED"/>
<path d="M0 31.2535V66.3102L59.8141 147.473L61.3031 113.839L0 31.2535Z" fill="#A1ABAD"/>
<path d="M61.3031 113.839L165.914 72.8901L162.825 106.525L59.8141 147.473L61.3031 113.839Z" fill="#DCE4E5"/>
<path d="M10.7716 80.9862L12.625 48.2427L114.512 14.6395L102.061 0.494934L0 31.2535V66.3102L10.7716 80.9862Z" fill="#FD6141"/>
<path d="M77.9832 54.6194C80.3752 58.2923 79.6306 62.0121 77.0011 64.6222L77.1437 64.8254C82.4186 64.2471 87.5509 66.5446 90.6399 71.2647C95.4712 78.673 91.5269 84.9716 84.1452 88.0193C78.6485 90.2856 70.4431 92.0673 68.764 89.4885C68.1145 88.4882 68.0353 85.3936 69.1917 84.9091C70.2847 84.4558 74.5617 85.2998 79.6782 83.1899C83.274 81.7051 85.5709 78.5636 82.8621 74.4062C80.1534 70.2488 76.3675 69.5454 71.1242 71.7023L69.2867 72.4525C68.1937 72.9057 67.2591 72.4212 66.2295 70.8427L65.7226 70.0612C64.693 68.4826 64.7405 67.6074 65.8335 67.1541L67.2433 66.5758C72.0588 64.5909 72.4549 61.0274 70.7441 58.4017C69.2075 56.0417 66.277 54.51 62.0001 56.2761C56.9944 58.3392 56.3925 60.7305 55.2836 61.1837C54.3015 61.5901 51.1176 59.9021 50.3255 58.683C48.884 56.4793 54.3807 52.6813 59.5606 50.5401C67.0532 47.4611 74.1815 48.7896 77.9832 54.6194Z" fill="black"/>
<path d="M119.787 49.5243C127.802 61.8246 126.218 70.6708 117.743 74.1718C109.379 77.6102 99.3205 73.5622 91.2893 61.2619C83.274 48.9617 84.9214 40.0842 93.2694 36.6457C101.76 33.1448 111.771 37.224 119.787 49.5243ZM99.0512 58.0736C105.118 67.373 110.599 70.452 114.385 68.8891C118.171 67.3261 118.234 61.9653 112.167 52.6658C106.1 43.3663 100.556 40.3186 96.7702 41.8659C92.9843 43.4289 92.9843 48.7741 99.0512 58.0736Z" fill="black"/>
</svg>
