<svg width="166" height="147" viewBox="0 0 166 147" fill="none" xmlns="http://www.w3.org/2000/svg">
<path d="M165.914 72.3952L61.3031 113.344L0 30.7586L102.061 0L165.914 72.3952Z" fill="#F4F2ED"/>
<path d="M0 30.7585V65.8152L59.8141 146.978L61.3031 113.344L0 30.7585Z" fill="#A1ABAD"/>
<path d="M61.3031 113.344L165.914 72.3953L162.825 106.03L59.8141 146.979L61.3031 113.344Z" fill="#DCE4E5"/>
<path d="M10.7716 80.4913L12.625 47.7477L114.512 14.1446L102.061 0L0 30.7586V65.8153L10.7716 80.4913Z" fill="#FD6141"/>
<path d="M77.9832 54.1245C80.3752 57.7974 79.6306 61.5172 77.0011 64.1273L77.1437 64.3305C82.4186 63.7522 87.5509 66.0497 90.6399 70.7698C95.4712 78.1781 91.5269 84.4767 84.1452 87.5245C78.6485 89.7907 70.4431 91.5725 68.764 88.9936C68.1145 87.9933 68.0353 84.8987 69.1917 84.4142C70.2847 83.961 74.5617 84.805 79.6782 82.695C83.274 81.2102 85.5709 78.0687 82.8621 73.9113C80.1534 69.7539 76.3675 69.0505 71.1242 71.2074L69.2867 71.9576C68.1937 72.4109 67.2591 71.9264 66.2295 70.3478L65.7226 69.5663C64.693 67.9878 64.7405 67.1125 65.8335 66.6593L67.2433 66.081C72.0588 64.096 72.4549 60.5326 70.7441 57.9068C69.2075 55.5468 66.277 54.0151 62.0001 55.7812C56.9944 57.8443 56.3925 60.2356 55.2836 60.6888C54.3015 61.0952 51.1176 59.4073 50.3255 58.1882C48.884 55.9844 54.3807 52.1865 59.5606 50.0453C67.0532 46.9663 74.1815 48.2948 77.9832 54.1245Z" fill="black"/>
<path d="M119.787 49.0293C127.802 61.3296 126.218 70.1758 117.743 73.6768C109.379 77.1152 99.3205 73.0673 91.2893 60.767C83.274 48.4667 84.9214 39.5892 93.2694 36.1507C101.76 32.6498 111.771 36.729 119.787 49.0293ZM99.0512 57.5786C105.118 66.878 110.599 69.957 114.385 68.3941C118.171 66.8312 118.234 61.4703 112.167 52.1708C106.1 42.8713 100.556 39.8236 96.7702 41.3709C92.9843 42.9339 92.9843 48.2791 99.0512 57.5786Z" fill="black"/>
</svg>
