<svg width="94" height="116" viewBox="0 0 94 116" fill="none" xmlns="http://www.w3.org/2000/svg">
<path d="M87.5715 32.6503L38.2122 11.0193C37.2459 10.5973 36.8024 9.47195 37.2301 8.51856L40.113 2.11051C40.5407 1.15712 41.6813 0.719499 42.6475 1.14149L92.0068 22.7725C92.9731 23.1945 93.4166 24.3199 92.9889 25.2732L90.106 31.6813C89.6941 32.6347 88.5536 33.0723 87.5715 32.6503Z" fill="#F99441"/>
<path d="M5.58053 83.5551L54.9398 105.186C55.9061 105.608 56.3496 106.733 55.9219 107.687L53.0389 114.095C52.6112 115.048 51.4707 115.486 50.5044 115.064L1.14516 93.4328C0.178879 93.0108 -0.26465 91.8855 0.163046 90.9321L3.04602 84.5241C3.45788 83.5707 4.59841 83.1331 5.58053 83.5551Z" fill="#F99441"/>
<path d="M84.2766 43.2001L89.0287 32.6347L37.2617 9.94083L32.5095 20.5063C27.7732 31.0092 38.0854 46.326 43.6455 53.4686L41.1268 59.0639C32.0343 59.7672 13.6117 62.5024 8.87535 73.0209L4.12317 83.5864L55.9061 106.265L60.6582 95.6991C65.3946 85.1962 55.0823 69.8794 49.5223 62.7368L52.041 57.1415C61.1176 56.4382 79.5402 53.703 84.2766 43.2001Z" fill="#FFD25A"/>
<path d="M9.11304 81.6796L12.3287 74.5213C15.1008 68.379 25.9674 63.9872 41.412 62.7837C42.7901 62.6743 44.0099 61.8303 44.5643 60.58L47.0829 54.9847C47.6532 53.7343 47.4631 52.2808 46.6236 51.1867C37.1667 39.074 33.1749 28.1647 35.947 22.0223L39.1626 14.8641L84.0232 34.5258L80.8076 41.6841C78.0355 47.8264 67.1688 52.2183 51.7242 53.4217C50.3461 53.5311 49.1264 54.3751 48.572 55.6255L46.0533 61.2208C45.483 62.4711 45.6731 63.9246 46.5127 65.0187C55.9695 77.1314 59.9614 88.0407 57.1892 94.1831L53.9736 101.341L9.11304 81.6796Z" fill="#FFEDD7"/>
<path d="M46.0531 61.2208L48.5718 55.6255C49.1421 54.3751 50.3459 53.5311 51.7241 53.4217C56.4604 53.0466 60.7691 52.3746 64.5391 51.4524C52.8488 45.4977 42.6474 37.1359 35.139 25.5546C34.7113 31.9157 38.7823 41.1371 46.6234 51.1867C47.4629 52.2652 47.653 53.7187 47.0828 54.9847L44.58 60.5644C44.3265 61.1426 36.2161 72.0207 35.7251 72.3801C36.5013 72.8647 36.232 74.1306 37.0399 74.4901C36.929 73.8337 45.768 61.8772 46.0531 61.2208Z" fill="#E57E55"/>
<path d="M21.3102 67.1599C16.764 69.1292 13.6434 71.6299 12.3444 74.5213L9.12878 81.6796L53.9893 101.341L55.2249 98.5905C48.6194 82.1016 38.5764 65.0187 21.3102 67.1599Z" fill="#E57E55"/>
<path opacity="0.4" d="M39.7328 20.178C37.7211 21.9754 35.9152 34.1038 47.5106 44.7943C59.09 55.4848 76.9741 43.4814 76.4672 41.7934C75.9603 40.1055 64.0323 44.216 54.7339 36.3075C45.4196 28.3991 41.6812 18.4275 39.7328 20.178Z" fill="white"/>
<path opacity="0.4" d="M54.0844 94.777C56.0644 92.9483 57.6802 80.8043 45.9423 70.2702C34.2044 59.736 16.4947 72.0207 17.0332 73.7086C17.5718 75.3966 29.4364 71.1141 38.8616 78.8819C48.2709 86.6497 52.1518 96.5587 54.0844 94.777Z" fill="white"/>
<path d="M16.1462 80.4761C15.1799 81.7109 13.8335 82.2891 13.1523 81.7734C12.4712 81.2576 12.7088 79.8197 13.6751 78.585C14.6413 77.3502 15.9878 76.772 16.6689 77.2877C17.3501 77.8035 17.1125 79.2258 16.1462 80.4761Z" fill="white"/>
<path d="M80.2689 38.9802C79.4927 40.3399 78.2413 41.1058 77.4968 40.6994C76.7523 40.2774 76.7682 38.8395 77.5443 37.4798C78.3205 36.12 79.5719 35.3542 80.3164 35.7605C81.0768 36.1669 81.0451 37.6204 80.2689 38.9802Z" fill="white"/>
</svg>
