<svg width="231" height="298" viewBox="0 0 231 298" fill="none" xmlns="http://www.w3.org/2000/svg">
<path d="M95.8809 50.7954C95.8809 50.7954 69.8674 61.118 65.2659 60.3716C60.6564 59.6332 38.9397 38.0191 38.9397 38.0191C38.138 36.9233 43.1083 31.2221 44.6073 31.9367L67.6788 47.0554C67.6788 47.0554 88.7222 33.9298 98.831 32.1114C108.948 30.293 105.012 48.3259 95.8809 50.7954Z" fill="#3E2344"/>
<path d="M44.8649 48.31L12.8229 52.0738L0.269043 15.1426L29.3369 14.1262C29.7938 14.1103 30.2107 14.3723 30.3951 14.7932L44.8649 48.31Z" fill="#C1C9CB"/>
<path d="M0.260086 15.1445L0.051655 16.2244C-0.0445431 16.7087 -0.0044566 17.209 0.155874 17.6775L12.4853 53.4653L12.8139 52.0837L0.260086 15.1445Z" fill="#9894A2"/>
<path d="M12.4854 53.4633L43.7016 49.7075C44.2628 49.6361 44.7197 49.2073 44.8079 48.6515L44.864 48.318L12.822 52.0817L12.4854 53.4633Z" fill="#75707F"/>
<path d="M42.1943 45.7605L14.0483 49.0875L2.97754 16.5156L29.2717 15.5945L42.1943 45.7605Z" fill="#A4A2A7"/>
<path d="M41.7136 45.8158L13.9604 49.1032L3.03394 16.9839L28.9754 16.0707L41.7136 45.8158Z" fill="white"/>
<path opacity="0.1" d="M28.382 38.6456C24.4459 33.4525 30.4102 25.5676 29.817 18.0638L28.9672 16.0707L25.4399 16.1978C24.8627 24.8609 16.8543 32.1661 10.8098 39.8684L13.9523 49.1032L41.7054 45.8238L38.571 38.4788C35.9095 41.3056 31.0916 42.3379 28.382 38.6456Z" fill="#3C8460"/>
<path d="M26.378 48.5954L26.7147 49.3891C26.7708 49.5241 26.9151 49.6034 27.0594 49.5955L32.1659 49.0875C32.3904 49.0637 32.6549 48.8732 32.4625 48.5002L32.0777 47.8176C32.0216 47.6827 31.8773 47.6113 31.733 47.6192L26.5383 48.0319C26.3219 48.0557 26.2898 48.3891 26.378 48.5954Z" fill="#75707F"/>
<path d="M26.3777 48.3811L26.7144 49.1748C26.7705 49.3097 26.9148 49.3891 27.0591 49.3811L32.1656 48.8732C32.3901 48.8494 32.5344 48.6113 32.4382 48.4049L32.0774 47.6033C32.0213 47.4683 31.877 47.3969 31.7327 47.4048L26.6503 47.9128C26.4258 47.9446 26.2895 48.1747 26.3777 48.3811Z" fill="white"/>
<path d="M12.7178 23.4153L7.49903 23.6931L6.28052 20.1691L11.5233 19.9152L12.7178 23.4153Z" stroke="#5E8AAF" stroke-width="0.3036" stroke-miterlimit="10"/>
<path d="M14.3449 28.1461L9.15821 28.4557L7.9397 24.9555L13.1504 24.6777L14.3449 28.1461Z" stroke="#5E8AAF" stroke-width="0.3036" stroke-miterlimit="10"/>
<path d="M15.9484 32.8404L10.7938 33.1737L9.59131 29.7132L14.7699 29.3957L15.9484 32.8404Z" stroke="#5E8AAF" stroke-width="0.3036" stroke-miterlimit="10"/>
<path d="M17.5436 37.5015L12.421 37.8586L11.2266 34.422L16.3732 34.0807L17.5436 37.5015Z" stroke="#5E8AAF" stroke-width="0.3036" stroke-miterlimit="10"/>
<path d="M19.1229 42.115L14.0324 42.5039L12.854 39.0989L17.9685 38.7259L19.1229 42.115Z" stroke="#5E8AAF" stroke-width="0.3036" stroke-miterlimit="10"/>
<path d="M20.6941 46.6966L15.6357 47.1093L14.4573 43.7361L19.5478 43.3393L20.6941 46.6966Z" stroke="#5E8AAF" stroke-width="0.3036" stroke-miterlimit="10"/>
<path d="M7.71558 22.3437L8.91805 22.1054L10.7137 23.2172C11.1466 21.8275 11.9643 20.4061 12.9503 18.9767C12.1647 20.6046 11.5555 22.5263 11.0584 24.6068L7.71558 22.3437Z" fill="#B53333"/>
<path d="M9.35083 27.3156L10.5533 27.0773L12.349 28.1891C12.7819 26.7994 13.5996 25.378 14.5856 23.9486C13.8 25.5765 13.1907 27.4982 12.6937 29.5787L9.35083 27.3156Z" fill="#B53333"/>
<path d="M11.0183 31.8258L12.2208 31.5875L14.0165 32.6993C14.4494 31.3096 15.2671 29.8882 16.2531 28.4588C15.4675 30.0867 14.8582 32.0084 14.3612 34.089L11.0183 31.8258Z" fill="#B53333"/>
<path d="M12.6699 36.5106L13.8724 36.2724L15.6681 37.3841C16.101 35.9945 16.9187 34.573 17.9047 33.1436C17.1191 34.7716 16.5098 36.6933 16.0128 38.7738L12.6699 36.5106Z" fill="#B53333"/>
<path d="M13.7922 41.0924L14.9947 40.8541L16.7904 41.9659C17.2233 40.5762 18.041 39.1548 19.027 37.7254C18.2414 39.3533 17.6321 41.275 17.1351 43.3555L13.7922 41.0924Z" fill="#B53333"/>
<path d="M15.4436 45.7693L16.6461 45.531L18.4418 46.6428C18.8747 45.2531 19.6924 43.8317 20.6784 42.4023C19.8928 44.0302 19.2835 45.9519 18.7865 48.0324L15.4436 45.7693Z" fill="#B53333"/>
<path d="M43.3731 31.6588C43.3731 31.6588 41.7858 28.0459 41.0643 27.0851C40.3428 26.1243 37.6252 24.6394 36.5991 24.4727C35.573 24.3059 34.7393 24.83 33.7292 24.7982C32.8073 24.7744 31.8373 24.6156 30.8513 24.3138C30.5547 24.2741 30.2741 24.4647 30.21 24.7585C29.9615 25.8622 29.9695 28.3159 35.2844 27.6886L39.445 35.6291C40.5432 36.709 44.4794 32.7387 43.3731 31.6588Z" fill="#FFB072"/>
<path d="M81.7642 143.318L85.7724 154.665C85.7724 154.665 87.1352 156.849 87.4559 157.643C87.7765 158.421 88.3136 160.898 88.3136 160.898C87.6162 162.01 84.5699 163.495 82.7983 163.678L82.3894 163.543C82.3894 163.543 82.157 163.844 80.1368 165.25C78.0766 166.687 71.3828 169.514 70.052 169.101C70.052 169.101 67.8475 166.107 70.3647 164.305C76.6657 159.795 76.9382 157.532 76.5694 155.205C76.1045 152.275 74.1004 145.287 74.1004 145.287L81.7642 143.318Z" fill="#A1ABAD"/>
<path d="M75.864 158.532C75.864 158.532 77.6517 157.579 79.1107 158.191C80.4895 158.77 81.6038 159.287 82.9826 158.397C86.5179 156.118 85.115 153.252 87.2955 153.927L90.446 161.621L69.6191 171.062L67.1741 165.25L75.864 158.532Z" fill="#3E2344"/>
<path d="M69.2263 168.466C69.2263 168.466 69.9157 169.355 76.4492 166.354C82.9826 163.36 82.9586 161.621 88.2094 159.652L88.6824 161.558L69.8837 171.126L69.2263 168.466Z" fill="#7C4284"/>
<path d="M99.0877 87.8141C86.133 88.7034 47.5977 100.05 46.6036 105.037C44.9362 113.438 63.9674 141.643 75.4711 156.158L86.1491 152.227C80.8822 138.744 74.469 126.373 66.9175 115.114C66.9175 115.114 108.764 114.042 115.746 101.106C122.728 88.1714 114.039 86.7897 99.0877 87.8141Z" fill="#19323A"/>
<path d="M88.8189 102.115C88.8189 102.115 60.0877 108.809 59.3101 110.357C58.5325 111.905 79.0708 150.655 79.0708 150.655" stroke="#234159" stroke-width="0.5" stroke-miterlimit="10"/>
<path opacity="0.2" d="M171.813 291.79C171.813 294.759 141.126 297.173 103.264 297.173C65.4023 297.173 34.7151 294.767 34.7151 291.79C34.7151 288.82 65.4023 286.406 103.264 286.406C141.118 286.406 171.813 288.812 171.813 291.79Z" fill="#3E2344"/>
<path d="M81.7719 166.742C80.1846 166.265 80.7939 164.264 82.3812 164.733L102.479 171.879C104.859 172.586 103.785 176.135 101.404 175.421L81.7719 166.742Z" fill="#DD4026"/>
<path d="M85.9326 166.179L78.7899 168.37C77.7076 168.704 76.5613 168.1 76.2246 167.028L76.0242 166.393L87.087 162.995L87.2874 163.63C87.616 164.71 87.0148 165.845 85.9326 166.179Z" fill="#FFBE57"/>
<path d="M83.1908 165.614C83.3671 166.296 82.9422 166.995 82.2528 167.162C81.5634 167.336 80.8579 166.916 80.6896 166.233C80.5132 165.55 80.9381 164.852 81.6275 164.685C82.317 164.519 83.0224 164.931 83.1908 165.614Z" fill="#7C4284"/>
<path d="M101.036 174.309C100.611 173.746 100.723 172.944 101.292 172.515C101.861 172.095 102.671 172.206 103.104 172.769C103.529 173.333 103.416 174.134 102.847 174.563C102.27 174.984 101.46 174.873 101.036 174.309Z" fill="#7C4284"/>
<path d="M132.813 267.738C143.317 251.025 138.128 229.084 121.222 218.732C104.317 208.379 82.0972 213.535 71.5934 230.248C61.0895 246.961 66.279 268.902 83.1844 279.255C100.09 289.608 122.309 284.451 132.813 267.738Z" fill="white"/>
<path d="M130.135 245.828C129.855 245.895 129.58 245.935 129.31 245.949C129.045 245.961 128.822 245.946 128.641 245.904C128.465 245.861 128.366 245.794 128.344 245.702C128.325 245.627 128.34 245.524 128.388 245.393C128.44 245.255 128.492 245.18 128.546 245.167C128.573 245.161 128.655 245.167 128.79 245.185C128.962 245.213 129.131 245.229 129.298 245.235C129.47 245.239 129.661 245.216 129.871 245.166C130.151 245.099 130.376 244.959 130.547 244.748C130.721 244.529 130.765 244.243 130.679 243.888C130.592 243.533 130.433 243.304 130.203 243.199C129.976 243.089 129.675 243.078 129.298 243.168L129.047 243.228C128.983 243.244 128.929 243.234 128.886 243.199C128.848 243.157 128.816 243.085 128.791 242.982L128.765 242.878C128.74 242.775 128.736 242.7 128.752 242.65C128.774 242.599 128.817 242.566 128.882 242.551L129.092 242.501C129.324 242.445 129.503 242.351 129.63 242.218C129.756 242.08 129.833 241.93 129.862 241.77C129.897 241.608 129.896 241.454 129.861 241.309C129.812 241.11 129.703 240.954 129.533 240.841C129.363 240.728 129.122 240.709 128.81 240.784C128.594 240.835 128.421 240.897 128.291 240.968C128.16 241.039 128.04 241.119 127.93 241.208C127.853 241.266 127.801 241.298 127.775 241.305C127.721 241.318 127.642 241.274 127.537 241.174C127.433 241.074 127.371 240.983 127.352 240.902C127.319 240.768 127.455 240.616 127.761 240.446C128.067 240.276 128.385 240.151 128.713 240.073C129.214 239.953 129.642 239.981 129.999 240.157C130.355 240.334 130.589 240.651 130.701 241.108C130.766 241.377 130.748 241.626 130.644 241.856C130.541 242.085 130.382 242.277 130.169 242.43L130.177 242.463C130.478 242.482 130.755 242.6 131.007 242.819C131.264 243.031 131.438 243.325 131.53 243.701C131.622 244.077 131.614 244.415 131.504 244.715C131.394 245.009 131.216 245.25 130.972 245.44C130.726 245.624 130.447 245.753 130.135 245.828Z" fill="black"/>
<path d="M75.0464 258.989C74.9549 259.011 74.8644 258.968 74.775 258.858C74.691 258.747 74.6385 258.649 74.6175 258.563C74.603 258.504 74.6181 258.46 74.6626 258.432C75.1132 258.131 75.458 257.77 75.697 257.348C75.9401 256.92 76.0744 256.466 76.1001 255.988C75.85 256.224 75.5366 256.387 75.1598 256.478C74.8906 256.542 74.6219 256.538 74.3535 256.466C74.0851 256.394 73.8454 256.252 73.6343 256.04C73.4272 255.823 73.2817 255.541 73.1977 255.197C73.1111 254.842 73.117 254.517 73.2155 254.22C73.3127 253.918 73.4795 253.667 73.7158 253.468C73.9575 253.268 74.2399 253.129 74.5629 253.052C75.1174 252.919 75.594 252.993 75.9929 253.273C76.3958 253.546 76.6787 254.016 76.8415 254.683C77.0292 255.452 77.0096 256.154 76.7828 256.789C76.5614 257.423 76.2654 257.938 75.8949 258.334C75.523 258.724 75.2402 258.943 75.0464 258.989ZM75.2347 255.734C75.5308 255.663 75.8092 255.508 76.07 255.269C76.0416 255.06 76.0156 254.907 75.992 254.81C75.8765 254.337 75.7009 254.026 75.4652 253.877C75.2337 253.722 74.9779 253.678 74.698 253.745C74.5526 253.78 74.4171 253.855 74.2914 253.971C74.1699 254.079 74.0817 254.22 74.0269 254.393C73.9722 254.565 73.9704 254.756 74.0216 254.966C74.1029 255.299 74.2555 255.527 74.4792 255.65C74.7029 255.773 74.9548 255.801 75.2347 255.734Z" fill="black"/>
<path d="M109.447 225.831C109.383 225.847 109.329 225.837 109.286 225.801C109.247 225.76 109.215 225.687 109.191 225.585L109.165 225.48C109.14 225.378 109.136 225.302 109.152 225.253C109.172 225.197 109.215 225.161 109.28 225.146L110.588 224.833L109.576 220.695L108.297 221.232C108.238 221.246 108.179 221.203 108.12 221.103C108.062 221.003 108.019 220.9 107.993 220.792C107.971 220.701 108.01 220.629 108.111 220.576L109.927 219.715C109.991 219.7 110.058 219.704 110.126 219.727C110.193 219.745 110.233 219.778 110.244 219.827L111.42 224.634L112.494 224.377C112.558 224.362 112.61 224.375 112.649 224.417C112.692 224.452 112.725 224.521 112.75 224.623L112.776 224.728C112.801 224.83 112.803 224.909 112.783 224.965C112.766 225.015 112.726 225.047 112.661 225.063L109.447 225.831Z" fill="black"/>
<path d="M122.403 233.238C122.355 233.25 122.299 233.209 122.237 233.116C122.173 233.017 122.129 232.919 122.105 232.823C122.09 232.758 122.09 232.713 122.106 232.686L123.55 229.609C123.685 229.298 123.766 229.068 123.792 228.919C123.819 228.771 123.811 228.61 123.769 228.438C123.709 228.196 123.577 228.026 123.37 227.927C123.169 227.827 122.926 227.812 122.641 227.88C122.441 227.927 122.276 227.998 122.145 228.092C122.019 228.179 121.893 228.283 121.769 228.404C121.686 228.486 121.632 228.531 121.605 228.537C121.54 228.553 121.457 228.516 121.355 228.426C121.258 228.33 121.2 228.244 121.181 228.169C121.152 228.051 121.207 227.924 121.345 227.788C121.488 227.652 121.669 227.529 121.887 227.42C122.109 227.304 122.32 227.222 122.519 227.175C123.058 227.046 123.512 227.074 123.882 227.259C124.252 227.443 124.491 227.756 124.599 228.197C124.658 228.439 124.675 228.662 124.651 228.867C124.627 229.072 124.551 229.33 124.421 229.639C124.297 229.948 124.078 230.427 123.764 231.077L123.166 232.338L125.355 231.815C125.42 231.8 125.471 231.81 125.508 231.847C125.551 231.882 125.585 231.951 125.61 232.053L125.635 232.158C125.66 232.26 125.663 232.339 125.642 232.395C125.626 232.445 125.585 232.477 125.521 232.493L122.403 233.238Z" fill="black"/>
<path d="M131.697 259.649C131.487 259.699 131.365 259.657 131.332 259.523L131.062 258.418L128.704 258.981C128.656 258.993 128.592 258.943 128.514 258.831C128.435 258.718 128.384 258.617 128.362 258.525C128.35 258.477 128.348 258.446 128.356 258.433L130.039 254.163C130.084 254.067 130.187 254 130.349 253.961L130.502 253.924C130.712 253.874 130.834 253.916 130.867 254.051L131.718 257.535L132.195 257.421C132.259 257.406 132.311 257.419 132.35 257.461C132.393 257.496 132.427 257.565 132.452 257.667L132.477 257.772C132.502 257.874 132.504 257.953 132.484 258.009C132.468 258.059 132.427 258.091 132.362 258.107L131.886 258.221L132.156 259.326C132.189 259.46 132.1 259.552 131.891 259.603L131.697 259.649ZM130.895 257.732L130.459 255.949C130.391 255.67 130.356 255.448 130.356 255.283L130.32 255.274L129.231 258.13L130.895 257.732Z" fill="black"/>
<path d="M122.992 272.287C122.706 272.355 122.439 272.393 122.19 272.401C121.94 272.404 121.738 272.381 121.584 272.333C121.435 272.283 121.351 272.218 121.331 272.137C121.311 272.057 121.328 271.95 121.381 271.818C121.433 271.68 121.488 271.605 121.548 271.59C121.569 271.585 121.601 271.586 121.642 271.593C121.689 271.599 121.728 271.604 121.757 271.609C121.931 271.641 122.098 271.661 122.259 271.668C122.42 271.675 122.606 271.653 122.816 271.603C123.139 271.526 123.385 271.367 123.554 271.128C123.728 270.881 123.772 270.586 123.688 270.242C123.606 269.903 123.432 269.671 123.168 269.547C122.904 269.422 122.551 269.413 122.11 269.518L121.367 269.696C121.275 269.718 121.206 269.714 121.159 269.686C121.116 269.65 121.083 269.584 121.059 269.487L120.621 267.099C120.604 267.007 120.612 266.934 120.644 266.88C120.682 266.826 120.747 266.788 120.838 266.766L123.051 266.237C123.116 266.221 123.167 266.234 123.206 266.276C123.249 266.312 123.283 266.38 123.308 266.483L123.339 266.612C123.362 266.703 123.362 266.774 123.34 266.825C123.324 266.874 123.283 266.907 123.219 266.922L121.507 267.332L121.78 268.871L122.136 268.786C122.696 268.652 123.197 268.675 123.64 268.853C124.086 269.026 124.384 269.418 124.534 270.031C124.689 270.666 124.607 271.169 124.288 271.541C123.973 271.907 123.541 272.155 122.992 272.287Z" fill="black"/>
<path d="M94.9887 279.711C94.8595 279.742 94.7599 279.754 94.6901 279.748C94.6256 279.741 94.5868 279.71 94.5736 279.657C94.571 279.646 94.5726 279.606 94.5783 279.536L95.6618 274.283L93.2472 274.86C93.1826 274.875 93.1289 274.865 93.086 274.83C93.0473 274.788 93.0154 274.716 92.9905 274.614L92.9648 274.509C92.9398 274.407 92.9356 274.331 92.952 274.282C92.9724 274.226 93.015 274.19 93.0796 274.174L96.2694 273.412C96.3071 273.403 96.3626 273.455 96.4359 273.568C96.5079 273.676 96.5551 273.776 96.5774 273.867C96.5853 273.9 96.5878 273.933 96.5849 273.968L95.4801 279.448C95.4594 279.55 95.3467 279.625 95.1421 279.674L94.9887 279.711Z" fill="black"/>
<path d="M83.1836 271.945C82.6291 272.078 82.1541 272.035 81.7588 271.816C81.3635 271.598 81.1008 271.222 80.9706 270.69C80.8773 270.308 80.8817 269.988 80.984 269.731C81.0849 269.467 81.2548 269.242 81.4938 269.054C80.9933 268.894 80.6766 268.543 80.5439 268C80.4374 267.565 80.5007 267.182 80.7337 266.854C80.9654 266.519 81.3208 266.295 81.7999 266.18C82.2629 266.07 82.6734 266.105 83.0313 266.287C83.3892 266.469 83.6207 266.775 83.7259 267.205C83.8021 267.517 83.7966 267.786 83.7093 268.012C83.6207 268.232 83.4725 268.43 83.2645 268.605C83.5935 268.668 83.869 268.793 84.0911 268.979C84.3119 269.16 84.4716 269.452 84.5702 269.855C84.6964 270.371 84.6341 270.816 84.3834 271.189C84.1327 271.562 83.7327 271.814 83.1836 271.945ZM82.5211 268.501C82.8751 268.154 83.0068 267.796 82.9161 267.425C82.857 267.183 82.7396 267.017 82.564 266.928C82.3871 266.834 82.1856 266.814 81.9595 266.868C81.7334 266.922 81.5627 267.028 81.4476 267.187C81.3325 267.345 81.3051 267.548 81.3656 267.795C81.409 267.973 81.4855 268.111 81.5952 268.21C81.7036 268.304 81.8282 268.37 81.9691 268.411C82.1141 268.444 82.2981 268.474 82.5211 268.501ZM83.016 271.259C83.2906 271.194 83.495 271.051 83.6293 270.831C83.7676 270.604 83.8 270.341 83.7264 270.04C83.6738 269.824 83.5826 269.661 83.4528 269.55C83.3285 269.437 83.1877 269.363 83.0307 269.327C82.8723 269.285 82.6581 269.248 82.3881 269.216C82.3599 269.217 82.2927 269.21 82.1866 269.195C82.0122 269.368 81.8875 269.557 81.8125 269.763C81.7428 269.967 81.7408 270.204 81.8065 270.473C81.8854 270.796 82.0354 271.024 82.2564 271.159C82.4775 271.294 82.7306 271.328 83.016 271.259Z" fill="black"/>
<path d="M73.283 245.635C73.2184 245.65 73.1647 245.641 73.1218 245.605C73.0831 245.563 73.0512 245.491 73.0261 245.389L73.0004 245.284C72.9754 245.182 72.9711 245.106 72.9875 245.057C73.0079 245.001 73.0504 244.965 73.1151 244.95L74.4235 244.637L73.4097 240.5L72.1304 241.036C72.0712 241.05 72.0123 241.007 71.9536 240.907C71.8949 240.808 71.8524 240.704 71.8261 240.596C71.8037 240.505 71.8431 240.433 71.9442 240.38L73.7595 239.521C73.8241 239.505 73.8907 239.509 73.9591 239.533C74.0262 239.551 74.0657 239.584 74.0776 239.632L75.2554 244.439L76.3296 244.183C76.3942 244.167 76.4459 244.181 76.4846 244.223C76.5275 244.258 76.5614 244.327 76.5865 244.429L76.6121 244.534C76.6372 244.636 76.6395 244.715 76.619 244.771C76.6026 244.82 76.5621 244.853 76.4975 244.868L73.283 245.635ZM77.1791 255.046C76.8237 255.131 76.4803 255.102 76.149 254.959C75.8163 254.81 75.5165 254.541 75.2495 254.149C74.9813 253.752 74.7701 253.239 74.616 252.61C74.4618 251.981 74.4128 251.432 74.469 250.963C74.5238 250.489 74.6655 250.114 74.8941 249.838C75.1214 249.556 75.4127 249.372 75.7681 249.288C76.1235 249.203 76.4675 249.235 76.8002 249.383C77.137 249.525 77.4395 249.794 77.7077 250.191C77.98 250.581 78.1932 251.091 78.3474 251.72C78.5015 252.349 78.5485 252.901 78.4883 253.376C78.4321 253.845 78.2877 254.221 78.055 254.504C77.8264 254.78 77.5344 254.961 77.1791 255.046ZM77.0111 254.36C77.3126 254.288 77.5162 254.049 77.6217 253.643C77.7273 253.236 77.6892 252.662 77.5074 251.92C77.3256 251.178 77.0936 250.65 76.8115 250.336C76.5294 250.022 76.2376 249.901 75.9361 249.973C75.6399 250.044 75.4391 250.282 75.3335 250.689C75.2333 251.094 75.2741 251.668 75.4559 252.41C75.6377 253.151 75.867 253.68 76.1437 253.995C76.4258 254.309 76.715 254.431 77.0111 254.36Z" fill="black"/>
<path d="M80.8253 233.065C80.7607 233.081 80.7069 233.071 80.6641 233.035C80.6253 232.993 80.5934 232.921 80.5684 232.819L80.5427 232.714C80.5177 232.612 80.5133 232.536 80.5297 232.487C80.5502 232.431 80.5927 232.395 80.6573 232.38L81.9657 232.068L80.952 227.93L79.6727 228.466C79.6134 228.48 79.5545 228.437 79.4958 228.338C79.4372 228.238 79.3947 228.134 79.3683 228.027C79.3459 227.935 79.3853 227.863 79.4864 227.811L81.3017 226.951C81.3664 226.935 81.4329 226.939 81.5013 226.963C81.5685 226.981 81.608 227.014 81.6198 227.063L82.7976 231.869L83.8718 231.613C83.9364 231.598 83.9881 231.611 84.0269 231.653C84.0697 231.688 84.1037 231.757 84.1287 231.859L84.1544 231.964C84.1794 232.066 84.1817 232.145 84.1613 232.201C84.1449 232.251 84.1044 232.283 84.0398 232.298L80.8253 233.065ZM83.2053 242.778C83.1406 242.793 83.0869 242.783 83.0441 242.748C83.0053 242.706 82.9734 242.634 82.9483 242.532L82.9227 242.427C82.8976 242.325 82.8933 242.249 82.9097 242.2C82.9301 242.144 82.9727 242.108 83.0373 242.092L84.3457 241.78L83.3319 237.643L82.0526 238.179C81.9934 238.193 81.9345 238.15 81.8758 238.05C81.8172 237.95 81.7747 237.847 81.7483 237.739C81.7259 237.648 81.7653 237.576 81.8664 237.523L83.6817 236.663C83.7463 236.648 83.8129 236.652 83.8813 236.676C83.9485 236.694 83.9879 236.727 83.9998 236.775L85.1776 241.582L86.2518 241.326C86.3164 241.31 86.3681 241.324 86.4069 241.365C86.4497 241.401 86.4836 241.47 86.5087 241.572L86.5344 241.677C86.5594 241.779 86.5617 241.858 86.5412 241.914C86.5249 241.963 86.4844 241.996 86.4197 242.011L83.2053 242.778Z" fill="black"/>
<path d="M110.062 279.508C109.513 279.64 109.037 279.568 108.634 279.295C108.235 279.015 107.954 278.541 107.791 277.874C107.603 277.105 107.619 276.404 107.84 275.771C108.062 275.137 108.358 274.625 108.73 274.235C109.1 273.839 109.385 273.617 109.585 273.57C109.671 273.549 109.759 273.596 109.85 273.711C109.939 273.821 109.994 273.916 110.014 273.996C110.028 274.055 110.013 274.099 109.969 274.127C109.519 274.433 109.173 274.798 108.928 275.221C108.684 275.643 108.549 276.094 108.524 276.572C108.779 276.335 109.095 276.171 109.472 276.081C109.741 276.016 110.01 276.021 110.278 276.093C110.547 276.165 110.785 276.311 110.992 276.528C111.203 276.74 111.351 277.018 111.435 277.362C111.521 277.717 111.516 278.045 111.419 278.347C111.321 278.644 111.151 278.892 110.909 279.092C110.673 279.291 110.39 279.43 110.062 279.508ZM109.927 278.815C110.072 278.78 110.205 278.708 110.327 278.6C110.453 278.484 110.543 278.34 110.598 278.168C110.652 277.996 110.654 277.804 110.603 277.595C110.521 277.261 110.369 277.033 110.145 276.91C109.926 276.786 109.677 276.757 109.397 276.824C109.096 276.896 108.815 277.052 108.554 277.291C108.562 277.346 108.572 277.412 108.585 277.488C108.598 277.565 108.616 277.651 108.64 277.748C108.756 278.221 108.929 278.535 109.161 278.691C109.397 278.839 109.652 278.881 109.927 278.815Z" fill="black"/>
<path d="M129.962 267.293C140.161 252.06 135.962 231.521 120.583 221.419C105.204 211.316 84.4687 215.476 74.2695 230.709C64.0703 245.942 68.2694 266.481 83.6485 276.583C99.0275 286.686 119.763 282.526 129.962 267.293Z" stroke="#E2E2E2" stroke-width="1.0306" stroke-miterlimit="10"/>
<path d="M93.7181 226.178C93.6535 226.193 93.5997 226.183 93.5569 226.148C93.5181 226.106 93.4862 226.034 93.4612 225.932L93.4355 225.827C93.4105 225.725 93.4061 225.649 93.4225 225.599C93.443 225.543 93.4855 225.508 93.5501 225.492L94.8585 225.18L93.8448 221.043L92.5655 221.578C92.5063 221.593 92.4473 221.55 92.3887 221.45C92.33 221.35 92.2875 221.246 92.2612 221.139C92.2388 221.047 92.2781 220.975 92.3792 220.923L94.1946 220.063C94.2592 220.048 94.3257 220.052 94.3942 220.075C94.4613 220.093 94.5008 220.127 94.5126 220.175L95.6904 224.982L96.7646 224.725C96.8292 224.71 96.8809 224.723 96.9197 224.765C96.9625 224.8 96.9965 224.869 97.0215 224.971L97.0472 225.076C97.0722 225.178 97.0745 225.257 97.0541 225.314C97.0377 225.363 96.9972 225.395 96.9326 225.411L93.7181 226.178ZM96.0011 235.913C95.9527 235.925 95.8971 235.884 95.8344 235.791C95.7703 235.692 95.7264 235.595 95.7027 235.498C95.6869 235.434 95.6871 235.388 95.7034 235.361L97.1467 232.285C97.2814 231.974 97.3619 231.745 97.3882 231.596C97.4145 231.448 97.4065 231.287 97.3644 231.115C97.3051 230.873 97.1722 230.703 96.9656 230.604C96.7645 230.504 96.5212 230.488 96.2358 230.557C96.0366 230.604 95.8715 230.675 95.7407 230.769C95.6138 230.856 95.4883 230.96 95.364 231.08C95.2815 231.163 95.2269 231.207 95.1999 231.213C95.1353 231.229 95.0522 231.192 94.9504 231.102C94.8528 231.006 94.7947 230.92 94.7763 230.845C94.7473 230.727 94.8017 230.6 94.9395 230.465C95.0827 230.328 95.2635 230.205 95.4819 230.096C95.7043 229.981 95.9151 229.899 96.1143 229.851C96.6528 229.723 97.1071 229.751 97.4772 229.936C97.8474 230.121 98.0865 230.434 98.1945 230.875C98.2538 231.117 98.2715 231.34 98.2476 231.545C98.2237 231.75 98.1471 232.007 98.0178 232.317C97.8939 232.625 97.675 233.104 97.3612 233.754L96.7639 235.014L98.9527 234.492C99.0173 234.477 99.0684 234.487 99.1058 234.524C99.1487 234.559 99.1826 234.628 99.2076 234.73L99.2333 234.835C99.2584 234.937 99.2606 235.016 99.2402 235.072C99.2238 235.122 99.1833 235.154 99.1187 235.17L96.0011 235.913Z" fill="black"/>
<path d="M102.118 249.022V249.014L102.11 249.006" stroke="black" stroke-width="2.7052" stroke-miterlimit="10" stroke-linecap="round" stroke-linejoin="round"/>
<path d="M102.119 249.015L102.11 249.006" stroke="black" stroke-width="2.7052" stroke-miterlimit="10" stroke-linecap="round" stroke-linejoin="round"/>
<path d="M102.119 249.024V249.015" stroke="black" stroke-width="2.7052" stroke-miterlimit="10" stroke-linecap="round" stroke-linejoin="round"/>
<path d="M92.1853 208.367C69.5227 213.799 55.59 236.397 61.0733 258.853C66.5566 281.301 89.3715 295.101 112.042 289.67C134.705 284.239 148.638 261.64 143.154 239.184C137.671 216.729 114.856 202.936 92.1853 208.367ZM110.295 282.539C91.6001 287.018 72.7854 275.639 68.2641 257.122C63.7428 238.605 75.2304 219.968 93.9249 215.49C112.619 211.011 131.434 222.39 135.955 240.907C140.477 259.425 128.989 278.061 110.295 282.539Z" fill="#A1ABAD"/>
<path d="M110.346 254.318C113.307 249.807 112.015 243.772 107.46 240.84C102.906 237.907 96.8136 239.187 93.8529 243.698C90.8923 248.21 92.1844 254.244 96.7389 257.177C101.293 260.11 107.386 258.83 110.346 254.318Z" fill="#A1ABAD"/>
<path d="M107.824 253.02C110.06 249.897 109.317 245.57 106.164 243.355C103.011 241.141 98.6427 241.877 96.4067 245C94.1708 248.122 94.914 252.45 98.0668 254.664C101.22 256.879 105.588 256.143 107.824 253.02Z" fill="#3E2344"/>
<path d="M91.536 205.681C67.3742 211.469 52.5276 235.561 58.3717 259.494C64.2157 283.426 88.5378 298.132 112.7 292.343C136.861 286.555 151.708 262.463 145.864 238.531C140.012 214.606 115.69 199.892 91.536 205.681ZM110.84 284.752C90.9107 289.525 70.8534 277.392 66.0354 257.659C61.2175 237.919 73.4667 218.052 93.3878 213.28C113.317 208.508 133.374 220.641 138.192 240.373C143.01 260.105 130.761 279.98 110.84 284.752Z" fill="#3E2344"/>
<g opacity="0.5">
<g opacity="0.5">
<g opacity="0.5">
<path opacity="0.5" d="M70.5807 277.6C70.7971 277.719 70.9494 277.894 71.1178 278.06C71.2621 278.243 71.4304 278.394 71.5427 278.616C71.6709 278.862 71.5827 279.092 71.3503 279.124C71.2541 279.14 71.1498 279.108 71.0456 279.06C70.8212 278.949 70.6368 278.79 70.4765 278.624C70.3242 278.441 70.1718 278.259 70.0756 278.036C69.9634 277.775 70.0596 277.552 70.2921 277.529C70.3803 277.513 70.4845 277.544 70.5807 277.6Z" fill="white"/>
</g>
<g opacity="0.5">
<path opacity="0.5" d="M72.4243 279.481C72.6488 279.592 72.8171 279.751 72.9935 279.902C73.1618 280.06 73.3382 280.211 73.4584 280.425C73.6027 280.664 73.5306 280.902 73.3061 280.941C73.2099 280.957 73.1057 280.941 73.0015 280.902C72.769 280.806 72.5846 280.656 72.3922 280.505C72.2319 280.33 72.0636 280.164 71.9513 279.941C71.8231 279.687 71.9032 279.457 72.1357 279.425C72.2239 279.41 72.3281 279.433 72.4243 279.481Z" fill="white"/>
</g>
<g opacity="0.5">
<path opacity="0.5" d="M74.4123 281.243C74.6448 281.338 74.8212 281.489 75.0055 281.624C75.1819 281.775 75.3663 281.918 75.5106 282.116C75.6709 282.346 75.6228 282.584 75.3903 282.648C75.2941 282.672 75.1899 282.664 75.0777 282.624C74.8372 282.545 74.6448 282.402 74.4444 282.267C74.268 282.108 74.0917 281.949 73.9634 281.735C73.8111 281.489 73.8832 281.251 74.1077 281.203C74.2039 281.187 74.3081 281.203 74.4123 281.243Z" fill="white"/>
</g>
<g opacity="0.5">
<path opacity="0.5" d="M78.2446 284.024C78.4851 284.088 78.6855 284.207 78.894 284.326C79.0864 284.461 79.2788 284.596 79.4311 284.779C79.6235 284.985 79.5994 285.223 79.383 285.311C79.2948 285.342 79.1826 285.35 79.0703 285.326C78.8218 285.263 78.6214 285.136 78.413 285.017C78.2206 284.882 78.0202 284.747 77.8598 284.556C77.6755 284.334 77.7155 284.096 77.932 284.016C78.0282 283.993 78.1324 283.993 78.2446 284.024Z" fill="white"/>
</g>
<g opacity="0.5">
<path opacity="0.5" d="M81.1624 285.739C81.3227 285.739 81.451 285.803 81.5873 285.866C81.7075 285.946 81.8278 286.017 81.916 286.153C82.0843 286.407 81.9961 286.654 81.6995 286.718C81.6675 286.725 81.6274 286.725 81.5873 286.725C81.4189 286.725 81.2907 286.654 81.1624 286.598C81.0422 286.519 80.9139 286.447 80.8337 286.312C80.6654 286.049 80.7696 285.803 81.0582 285.755C81.0822 285.739 81.1223 285.739 81.1624 285.739Z" fill="white"/>
</g>
<g opacity="0.5">
<path opacity="0.5" d="M83.7356 287.025C83.904 287.017 84.0323 287.073 84.1685 287.121C84.2968 287.192 84.417 287.256 84.5132 287.383C84.6976 287.63 84.6175 287.893 84.3289 287.956C84.2968 287.964 84.2567 287.972 84.2166 287.972C84.0483 287.98 83.92 287.924 83.7837 287.869C83.6555 287.797 83.5272 287.733 83.431 287.598C83.2466 287.352 83.3348 287.097 83.6234 287.033C83.6555 287.033 83.6956 287.033 83.7356 287.025Z" fill="white"/>
</g>
</g>
<g opacity="0.5">
<g opacity="0.5">
<path opacity="0.5" d="M60.3276 255.406C60.6402 257.312 61.0972 259.186 61.6102 261.044C62.1233 262.902 62.7886 264.721 63.5181 266.499C64.2957 268.262 65.1134 270.017 66.1315 271.661C67.1015 273.336 68.2479 274.908 69.4343 276.441C69.6107 276.647 69.6347 276.901 69.4824 277.004C69.3381 277.108 69.0816 277.036 68.9052 276.846C67.6386 275.329 66.4281 273.749 65.4181 272.058C64.3599 270.39 63.5101 268.611 62.7085 266.817C61.979 264.998 61.3136 263.148 60.8086 261.251C60.3116 259.361 59.9027 257.439 59.6542 255.502C59.6141 255.232 59.7344 255.001 59.9187 254.978C60.1111 254.97 60.2875 255.152 60.3276 255.406Z" fill="white"/>
</g>
<g opacity="0.5">
<path opacity="0.5" d="M59.5514 254.151C59.4472 253.969 59.4151 253.77 59.383 253.58C59.367 253.381 59.3429 253.191 59.4071 252.984C59.4872 252.707 59.7197 252.587 59.9201 252.722C59.9843 252.762 60.0404 252.834 60.0805 252.905C60.1766 253.088 60.2087 253.278 60.2408 253.468C60.2568 253.659 60.2728 253.857 60.2167 254.056C60.1446 254.334 59.9201 254.461 59.7117 254.326C59.6476 254.294 59.5914 254.223 59.5514 254.151Z" fill="white"/>
</g>
<g opacity="0.5">
<path opacity="0.5" d="M59.3101 251.928C59.2139 251.737 59.1899 251.547 59.1578 251.348C59.1578 251.15 59.1498 250.951 59.2139 250.753C59.3021 250.475 59.5426 250.364 59.735 250.507C59.7991 250.555 59.8472 250.618 59.8873 250.698C59.9755 250.888 59.9995 251.078 60.0236 251.269C60.0236 251.459 60.0396 251.658 59.9835 251.856C59.9033 252.134 59.6708 252.245 59.4704 252.11C59.3983 252.071 59.3502 252.007 59.3101 251.928Z" fill="white"/>
</g>
<g opacity="0.5">
<path opacity="0.5" d="M59.1493 249.704C59.0451 248.918 58.997 248.116 58.989 247.322C58.989 246.528 59.0131 245.726 59.1173 244.932C59.1574 244.662 59.3337 244.479 59.5181 244.519C59.6704 244.551 59.7746 244.733 59.7906 244.94C59.8468 245.726 59.8307 246.512 59.8548 247.298C59.8387 248.084 59.8708 248.87 59.8227 249.657C59.8147 249.927 59.6544 250.125 59.462 250.093C59.3097 250.077 59.1814 249.911 59.1493 249.704Z" fill="white"/>
</g>
<g opacity="0.5">
<path opacity="0.5" d="M59.2219 242.909C59.1497 242.789 59.1577 242.67 59.1577 242.551C59.1818 242.431 59.1898 242.312 59.278 242.2C59.4784 241.938 59.775 241.954 59.9433 242.224L59.9514 242.24C60.0235 242.36 60.0155 242.479 60.0155 242.598C59.9914 242.718 59.9834 242.829 59.8952 242.948C59.6948 243.211 59.3982 243.203 59.2299 242.932L59.2219 242.909Z" fill="white"/>
</g>
<g opacity="0.5">
<path opacity="0.5" d="M59.4383 240.52C59.3742 240.392 59.3902 240.273 59.3902 240.154C59.4143 240.034 59.4383 239.915 59.5345 239.804C59.759 239.549 60.0476 239.597 60.1919 239.875L60.1999 239.891C60.264 240.018 60.248 240.13 60.248 240.249C60.2239 240.36 60.1999 240.48 60.1037 240.583C59.8952 240.83 59.5986 240.814 59.4463 240.535L59.4383 240.52Z" fill="white"/>
</g>
</g>
</g>
<g opacity="0.5">
<g opacity="0.5">
<g opacity="0.5">
<path opacity="0.5" d="M133.767 220.452C133.55 220.332 133.398 220.166 133.238 220.007C133.093 219.832 132.925 219.682 132.821 219.467C132.701 219.221 132.781 218.999 133.013 218.967C133.109 218.951 133.214 218.975 133.318 219.023C133.542 219.134 133.719 219.285 133.887 219.444C134.031 219.618 134.184 219.793 134.28 220.015C134.392 220.269 134.288 220.491 134.063 220.507C133.967 220.531 133.863 220.507 133.767 220.452Z" fill="white"/>
</g>
<g opacity="0.5">
<path opacity="0.5" d="M131.931 218.626C131.707 218.522 131.546 218.364 131.37 218.221C131.202 218.07 131.033 217.919 130.905 217.713C130.761 217.475 130.833 217.253 131.065 217.205C131.161 217.189 131.266 217.205 131.37 217.245C131.602 217.34 131.787 217.483 131.971 217.626C132.131 217.792 132.3 217.959 132.404 218.173C132.532 218.419 132.452 218.649 132.22 218.681C132.14 218.689 132.035 218.673 131.931 218.626Z" fill="white"/>
</g>
<g opacity="0.5">
<path opacity="0.5" d="M129.959 216.918C129.727 216.831 129.558 216.68 129.366 216.553C129.189 216.41 129.005 216.275 128.869 216.077C128.708 215.854 128.765 215.616 128.989 215.561C129.085 215.537 129.189 215.545 129.302 215.585C129.542 215.664 129.735 215.799 129.935 215.926C130.111 216.077 130.288 216.235 130.416 216.442C130.56 216.68 130.496 216.91 130.272 216.958C130.167 216.973 130.063 216.966 129.959 216.918Z" fill="white"/>
</g>
<g opacity="0.5">
<path opacity="0.5" d="M126.159 214.234C125.919 214.171 125.718 214.052 125.518 213.94C125.326 213.813 125.133 213.678 124.981 213.495C124.797 213.297 124.813 213.058 125.037 212.979C125.125 212.947 125.237 212.939 125.35 212.963C125.59 213.019 125.799 213.146 125.999 213.257C126.191 213.392 126.392 213.519 126.544 213.702C126.721 213.917 126.688 214.155 126.464 214.227C126.376 214.266 126.264 214.258 126.159 214.234Z" fill="white"/>
</g>
<g opacity="0.5">
<path opacity="0.5" d="M123.249 212.587C123.089 212.587 122.96 212.523 122.832 212.467C122.712 212.396 122.592 212.324 122.512 212.189C122.343 211.942 122.431 211.704 122.736 211.64C122.768 211.632 122.808 211.632 122.848 211.632C123.017 211.632 123.145 211.696 123.273 211.759C123.393 211.839 123.514 211.91 123.602 212.038C123.77 212.292 123.658 212.531 123.369 212.579C123.329 212.579 123.289 212.587 123.249 212.587Z" fill="white"/>
</g>
<g opacity="0.5">
<path opacity="0.5" d="M120.692 211.338C120.523 211.346 120.395 211.29 120.267 211.243C120.147 211.171 120.018 211.115 119.922 210.988C119.738 210.742 119.818 210.495 120.107 210.431C120.139 210.423 120.179 210.415 120.219 210.415C120.387 210.407 120.515 210.463 120.652 210.511C120.78 210.582 120.908 210.646 121.004 210.773C121.189 211.012 121.101 211.267 120.812 211.33C120.772 211.33 120.732 211.338 120.692 211.338Z" fill="white"/>
</g>
</g>
<g opacity="0.5">
<g opacity="0.5">
<path opacity="0.5" d="M143.867 242.035C143.563 240.176 143.122 238.35 142.625 236.54C142.128 234.729 141.47 232.966 140.749 231.235C139.987 229.52 139.178 227.813 138.168 226.217C137.214 224.589 136.075 223.065 134.897 221.572C134.721 221.373 134.705 221.127 134.849 221.016C134.993 220.913 135.25 220.984 135.426 221.167C136.685 222.644 137.887 224.168 138.881 225.82C139.923 227.44 140.765 229.171 141.551 230.918C142.272 232.689 142.921 234.491 143.41 236.333C143.891 238.175 144.292 240.041 144.533 241.931C144.573 242.193 144.453 242.424 144.26 242.44C144.084 242.455 143.916 242.273 143.867 242.035Z" fill="white"/>
</g>
<g opacity="0.5">
<path opacity="0.5" d="M144.637 243.249C144.741 243.424 144.765 243.614 144.805 243.805C144.813 243.995 144.838 244.186 144.773 244.384C144.685 244.662 144.461 244.773 144.26 244.638C144.196 244.599 144.14 244.535 144.1 244.464C144.004 244.281 143.972 244.099 143.94 243.916C143.924 243.726 143.908 243.543 143.964 243.345C144.036 243.075 144.268 242.948 144.469 243.075C144.541 243.114 144.597 243.178 144.637 243.249Z" fill="white"/>
</g>
<g opacity="0.5">
<path opacity="0.5" d="M144.869 245.409C144.966 245.592 144.99 245.782 145.014 245.973C145.014 246.163 145.022 246.354 144.95 246.552C144.853 246.822 144.621 246.933 144.429 246.79C144.364 246.742 144.316 246.679 144.276 246.608C144.188 246.425 144.172 246.235 144.148 246.052C144.148 245.861 144.132 245.679 144.196 245.481C144.284 245.211 144.509 245.1 144.709 245.227C144.773 245.274 144.829 245.338 144.869 245.409Z" fill="white"/>
</g>
<g opacity="0.5">
<path opacity="0.5" d="M145.014 247.585C145.118 248.355 145.15 249.133 145.158 249.903C145.158 250.682 145.126 251.46 145.022 252.23C144.982 252.492 144.805 252.675 144.621 252.635C144.469 252.603 144.364 252.428 144.348 252.23C144.3 251.46 144.316 250.697 144.3 249.927C144.316 249.157 144.292 248.395 144.348 247.625C144.364 247.363 144.525 247.172 144.709 247.196C144.853 247.22 144.982 247.378 145.014 247.585Z" fill="white"/>
</g>
<g opacity="0.5">
<path opacity="0.5" d="M144.902 254.208C144.974 254.327 144.966 254.446 144.966 254.558C144.942 254.669 144.926 254.788 144.837 254.9C144.637 255.154 144.34 255.138 144.172 254.876L144.164 254.86C144.092 254.741 144.1 254.629 144.1 254.51C144.124 254.399 144.14 254.279 144.228 254.168C144.429 253.913 144.725 253.913 144.893 254.176L144.902 254.208Z" fill="white"/>
</g>
<g opacity="0.5">
<path opacity="0.5" d="M144.669 256.542C144.733 256.662 144.717 256.781 144.717 256.9C144.693 257.012 144.669 257.131 144.573 257.242C144.348 257.489 144.06 257.449 143.916 257.179L143.908 257.163C143.851 257.043 143.859 256.932 143.867 256.813C143.892 256.701 143.916 256.59 144.012 256.479C144.22 256.232 144.517 256.248 144.669 256.518V256.542Z" fill="white"/>
</g>
</g>
</g>
<path d="M102.11 148.162V199.442" stroke="black" stroke-width="0.2392" stroke-miterlimit="10"/>
<path d="M102.11 173.803V173.794" stroke="black" stroke-width="1.9133" stroke-miterlimit="10" stroke-linecap="round" stroke-linejoin="round"/>
<path d="M102.11 173.803V173.794" stroke="black" stroke-width="1.9133" stroke-miterlimit="10" stroke-linecap="round" stroke-linejoin="round"/>
<path d="M102.11 144.215C85.6201 144.215 72.2485 157.459 72.2485 173.793C72.2485 190.127 85.6201 203.371 102.11 203.371C118.6 203.371 131.972 190.127 131.972 173.793C131.972 157.459 118.608 144.215 102.11 144.215ZM102.11 198.194C88.506 198.194 77.4833 187.268 77.4833 173.801C77.4833 160.326 88.514 149.408 102.11 149.408C115.714 149.408 126.737 160.334 126.737 173.801C126.745 187.268 115.714 198.194 102.11 198.194Z" fill="#A1ABAD"/>
<path d="M107.188 178.5C109.81 175.722 109.662 171.366 106.858 168.769C104.053 166.172 99.6551 166.319 97.0336 169.097C94.4122 171.874 94.5603 176.231 97.3645 178.827C100.169 181.424 104.567 181.277 107.188 178.5Z" fill="#A1ABAD"/>
<path d="M107.064 173.802C107.064 176.509 104.851 178.701 102.118 178.701C99.3842 178.701 97.1716 176.509 97.1716 173.802C97.1716 171.094 99.3842 168.902 102.118 168.902C104.843 168.895 107.064 171.094 107.064 173.802Z" fill="#3E2344"/>
<path d="M102.11 142.27C84.5297 142.27 70.2764 156.388 70.2764 173.802C70.2764 191.215 84.5297 205.333 102.11 205.333C119.69 205.333 133.943 191.215 133.943 173.802C133.943 156.388 119.69 142.27 102.11 142.27ZM102.11 199.799C87.608 199.799 75.8558 188.158 75.8558 173.794C75.8558 159.429 87.608 147.789 102.11 147.789C116.612 147.789 128.364 159.429 128.364 173.794C128.364 188.158 116.612 199.799 102.11 199.799Z" fill="#3E2344"/>
<path d="M102.11 251.38C103.008 251.38 103.729 250.658 103.729 249.776V110.127C103.729 109.237 103 108.523 102.11 108.523C101.212 108.523 100.49 109.245 100.49 110.127V249.776C100.49 250.666 101.212 251.38 102.11 251.38Z" fill="#FFD25A"/>
<path d="M77.4109 107.665C77.4109 107.665 92.7144 115.114 103.994 115.114C115.273 115.114 126.817 104.473 126.817 104.473C126.817 104.473 127.081 93.0389 121.446 92.7689C115.81 92.5069 111.513 101.813 102.919 103.139C94.3257 104.465 84.6578 99.4151 81.4352 101.011C78.2125 102.607 77.4109 107.665 77.4109 107.665Z" fill="#FFD25A"/>
<path d="M78.0121 105.466C77.5632 106.689 77.4109 107.665 77.4109 107.665C77.4109 107.665 92.7144 115.113 103.994 115.113C115.273 115.113 126.817 104.473 126.817 104.473C126.817 104.473 126.841 103.417 126.72 101.94C113.285 112.501 102.142 115.915 78.0121 105.466Z" fill="#F99441"/>
<path d="M105.068 173.651C105.068 175.287 103.729 176.613 102.078 176.613C100.426 176.613 99.0876 175.287 99.0876 173.651C99.0876 172.015 100.426 170.689 102.078 170.689C103.729 170.681 105.068 172.007 105.068 173.651Z" fill="#F99441"/>
<path d="M105.068 248.808C105.068 250.444 103.729 251.77 102.078 251.77C100.426 251.77 99.0876 250.444 99.0876 248.808C99.0876 247.172 100.426 245.846 102.078 245.846C103.729 245.846 105.068 247.172 105.068 248.808Z" fill="#F99441"/>
<path d="M102.495 248.824L122.039 245.687L126.961 241.685L120.724 241.399L102.406 248.506C102.23 248.578 102.302 248.856 102.495 248.824Z" fill="#DD4026"/>
<path d="M102.615 248.427L82.285 260.623L77.3389 265.483L83.728 262.791L102.831 248.752C103.016 248.601 102.823 248.315 102.615 248.427Z" fill="#DD4026"/>
<path d="M121.807 181.973C123.362 182.56 122.608 184.513 121.053 183.934L101.244 175.31C98.9194 174.437 100.242 170.975 102.575 171.856L121.807 181.973Z" fill="#DD4026"/>
<path d="M125.254 182.044L119.201 186.404C118.287 187.063 117.005 186.864 116.339 185.959L115.938 185.419L125.302 178.67L125.703 179.21C126.376 180.115 126.168 181.385 125.254 182.044Z" fill="#FFBE57"/>
<path d="M122.48 182.391C122.864 182.987 122.696 183.772 122.095 184.161C121.494 184.542 120.7 184.376 120.307 183.78C119.922 183.185 120.091 182.399 120.692 182.01C121.293 181.622 122.095 181.796 122.48 182.391Z" fill="#7C4284"/>
<path d="M103.2 172.945C103.585 173.54 103.417 174.326 102.815 174.715C102.214 175.096 101.421 174.929 101.028 174.334C100.635 173.739 100.811 172.953 101.413 172.564C102.014 172.175 102.815 172.35 103.2 172.945Z" fill="#7C4284"/>
<path d="M86.005 87.3534C86.005 87.3534 85.7084 106.196 101.517 106.776C117.326 107.356 116.74 90.8314 116.74 90.8314L86.005 87.3534Z" fill="#19323A"/>
<path d="M114.103 162.05L125.181 169.53C125.181 169.53 126.969 171.388 127.45 172.095C127.923 172.793 128.965 175.104 128.965 175.104C128.516 176.335 125.839 178.407 124.147 178.947L123.722 178.9C123.722 178.9 123.554 179.241 121.871 181.028C120.155 182.854 114.191 186.991 112.804 186.856C112.804 186.856 110.03 184.379 112.115 182.1C117.341 176.398 117.133 174.127 116.291 171.928C115.225 169.157 107.633 167.489 107.633 167.489L114.103 162.05Z" fill="#A1ABAD"/>
<path d="M116.291 175.343C116.291 175.343 117.838 174.048 119.393 174.342C120.868 174.628 122.063 174.906 123.225 173.755C126.207 170.801 124.235 168.284 126.512 168.498L131.194 175.382L112.78 188.873L109.172 183.688L116.291 175.343Z" fill="#3E2344"/>
<path d="M111.866 186.411C111.866 186.411 112.732 187.142 118.496 182.87C124.268 178.606 123.883 176.907 128.612 173.913L129.478 175.684L113.076 188.881L111.866 186.411Z" fill="#7C4284"/>
<path d="M93.4281 89.5212C86.117 100.146 65.715 134.48 66.8052 140.269C67.9516 146.383 95.809 164.233 112.644 171.952L119.834 164.345L87.6562 135.957C87.6562 135.957 122.929 103.711 116.989 90.2676C111.048 76.8323 101.861 77.2532 93.4281 89.5212Z" fill="#1C3742"/>
<path d="M115.097 93.0229C115.097 93.0229 101.99 117.964 81.299 136.799C81.299 136.799 80.0004 139.118 82.5977 141.563C83.1749 142.111 115.225 168.728 115.225 168.728" stroke="#234159" stroke-width="0.5" stroke-miterlimit="10"/>
<path d="M115.337 30.5312C114.479 30.5312 98.7189 30.301 95.5684 34.8429C92.4821 39.2896 85.9406 63.794 84.6499 88.3937C84.2571 95.8658 103.657 94.3888 116.956 92.8642C118.295 92.9834 119.49 91.9987 119.586 90.6647C119.923 86.1466 121.358 76.1098 127.378 67.4467C137.375 53.0505 139.491 49.3185 139.13 46.9999C137.984 39.6231 115.337 30.5312 115.337 30.5312Z" fill="#EFE9DA"/>
<path d="M120.78 20.8279C120.78 20.8279 119.963 24.6314 120.195 27.8553C120.436 31.0791 122.384 33.9695 122.384 33.9695C122.384 33.9695 118.055 37.908 111.169 37.2966C108.796 35.3988 108.034 33.4295 107.553 31.7382C110.535 29.3243 111.297 29.2131 111.778 24.9411C112.195 21.225 113.349 19.4701 113.349 19.4701L120.78 20.8279Z" fill="#FFB072"/>
<path fill-rule="evenodd" clip-rule="evenodd" d="M120.123 21.2716C120.123 21.2716 119.714 24.1301 118.279 25.0274C116.836 25.9326 114.071 28.283 109.549 26.7743C103.505 24.7574 108.419 15.6894 108.419 15.6894C108.419 15.6894 108.114 11.735 109.726 8.92409C112.86 3.45309 119.442 3.23869 123.418 7.7886C124.733 9.29729 122.472 16.4676 122.472 16.4676C122.472 16.4676 122.881 15.4432 124.115 16.5867C125.053 17.4522 124.805 18.8815 124.091 20.1043C123.233 21.5812 121.213 22.5182 120.123 21.2716Z" fill="#FFB072"/>
<path d="M120.788 20.8264L121.702 19.5327L120.877 18.9136C120.877 18.9136 122.175 16.3976 123.418 17.7627C124.444 18.8898 122.191 21.755 120.788 20.8264Z" fill="#E57E55"/>
<path d="M108.411 15.6984C108.411 15.6984 104.162 19.5416 104.323 23.4245C104.483 27.3154 108.652 29.9992 113.854 28.7367C119.049 27.4742 120.003 23.8692 120.155 21.4791C120.195 20.82 120.011 18.8508 120.011 18.8508L120.428 17.2547L116.34 22.7893C116.34 22.7893 115.065 19.9466 110.528 19.224C107.064 18.6761 106.616 20.6771 106.616 20.6771C106.968 19.0731 107.577 17.4135 108.411 15.6984Z" fill="#3E2344"/>
<path fill-rule="evenodd" clip-rule="evenodd" d="M111.947 8.08343C112.492 8.18666 113.774 8.64721 113.774 8.64721L117.59 8.4487C117.59 8.4487 120.733 9.04423 121.198 10.1718C121.663 11.2993 120.332 14.1738 120.332 14.1738L120.428 17.2627C120.428 17.2627 121.679 15.7619 122.801 15.8492C125.511 16.0478 127.467 10.8944 125.326 7.12263C122.32 1.82632 117.518 3.64469 116.492 2.62037C115.466 1.60398 114.881 0 114.881 0C114.881 0 113.782 1.81838 114.664 3.12856C114.664 3.12856 112.901 1.74691 109.822 2.32657C109.822 2.32657 110.993 3.20796 111.722 4.07348C111.722 4.07348 108.94 3.55735 106.447 6.82883L109.229 6.6065C109.229 6.6065 106.88 7.40849 105.926 9.58419C105.926 9.59213 110.303 7.76581 111.947 8.08343Z" fill="#3E2344"/>
<path d="M108.813 20.7732C108.829 21.7812 111.523 22.559 112.893 22.0669C111.466 21.2097 110.529 20.9319 108.813 20.7732Z" fill="white"/>
<path d="M108.845 20.812C108.909 21.0898 109.229 21.3914 109.558 21.5502C109.887 21.7327 110.248 21.8518 110.616 21.9391C111.346 22.1057 112.139 22.1772 112.837 21.9391L112.813 22.1851C112.204 21.8121 111.57 21.4867 110.897 21.2644C110.56 21.1533 110.215 21.066 109.863 21.0025C109.526 20.9152 109.133 20.8835 108.845 20.812ZM108.773 20.7327C109.205 20.7247 109.526 20.7724 109.895 20.812C110.256 20.8597 110.616 20.939 110.969 21.0343C111.674 21.2327 112.332 21.574 112.957 21.9391C113.021 21.9787 113.045 22.0581 113.005 22.1216C112.989 22.1534 112.965 22.1692 112.933 22.1772C112.54 22.32 112.131 22.3438 111.739 22.328C111.338 22.3121 110.945 22.2565 110.56 22.1454C110.175 22.0422 109.807 21.8994 109.462 21.693C109.294 21.5898 109.133 21.4629 108.997 21.3121C108.869 21.1613 108.732 21.0263 108.773 20.7327Z" fill="#E57E55"/>
<path opacity="0.5" d="M110.527 19.2158C110.527 19.2158 111.802 19.4936 111.866 19.1444C111.93 18.7952 109.373 17.7396 109.164 17.9539C108.948 18.1682 109.998 18.9142 110.527 19.2158Z" fill="#E57E55"/>
<path d="M111.667 13.9503C111.667 13.9503 111.627 15.6178 111.29 16.1339C110.953 16.65 109.462 17.6267 109.366 17.8887C109.27 18.1508 110.44 19.1512 110.528 19.2148C110.617 19.2783 108.685 18.4604 108.909 17.857C109.125 17.2535 111.025 16.0863 111.162 15.7925C111.282 15.5066 111.667 13.9503 111.667 13.9503Z" fill="#E57E55"/>
<path d="M117.414 14.7062C117.414 14.7617 116.404 14.1665 115.898 14.0474C115.401 13.9284 113.437 13.7458 113.325 13.5236C113.213 13.3013 113.51 12.206 113.51 12.206C113.51 12.206 116.323 12.4521 116.82 12.714C117.317 12.9839 117.382 14.2379 117.414 14.7062Z" fill="#3E2344"/>
<path d="M115.122 16.651C115.025 17.0169 114.673 16.9533 114.24 16.8419C113.807 16.7226 113.462 16.5953 113.558 16.2294C113.655 15.8634 114.088 15.6645 114.52 15.7759C114.953 15.8952 115.218 16.2851 115.122 16.651Z" fill="#3E2344"/>
<path d="M108.571 13.0852C108.555 13.1328 109.181 12.8074 109.533 12.8312C109.886 12.855 111.489 13.4106 111.618 13.2281C111.754 13.0455 111.97 11.855 111.97 11.855C111.97 11.855 109.702 11.3312 109.309 11.4502C108.916 11.5693 108.724 12.6487 108.571 13.0852Z" fill="#3E2344"/>
<path d="M110.472 15.738C110.384 16.0881 110.119 16.0006 109.734 15.9131C109.349 15.8176 109.005 15.7619 109.085 15.4119C109.173 15.0618 109.55 14.847 109.927 14.9425C110.319 15.03 110.56 15.388 110.472 15.738Z" fill="#3E2344"/>
<path d="M229.556 25.3848L229.765 23.2171C229.829 22.5104 229.187 21.9307 228.482 22.0657L192.688 28.9263L187.886 76.879L224.225 72.6229C224.73 72.5673 225.123 72.1623 225.171 71.6621L228.458 36.9383L228.899 36.8747C229.548 36.7795 230.045 36.2554 230.109 35.6122L230.991 26.9412C231.087 26.0677 230.374 25.3769 229.556 25.3848Z" fill="#DD4026"/>
<path d="M185.385 61.9201C185.385 61.9201 188.656 62.9444 190.187 62.1424C191.71 61.3404 193.594 53.2093 190.772 52.4153C187.943 51.6133 184.271 54.8133 183.91 56.457C183.55 58.1007 185.385 61.9201 185.385 61.9201Z" fill="#FFB072"/>
<path d="M187.886 76.8786L223.271 71.4314L227.889 22.8356L192.304 30.7761L187.886 76.8786Z" fill="white"/>
<path d="M192.48 28.9352L187.886 76.888L220.842 70.2735C221.564 70.1306 222.101 69.5112 222.173 68.7569L226.422 21.7649C226.526 20.5739 225.46 19.6448 224.346 19.9545L192.48 28.9352Z" fill="#FD6141"/>
<path d="M197.803 35.4226L197.009 42.9423L218.085 38.1938L218.678 30.174L197.803 35.4226Z" fill="white"/>
<path d="M183.886 55.5914C183.886 55.5914 185.578 52.2882 186.307 51.4306C187.037 50.5731 189.666 49.3264 190.644 49.2311C191.614 49.1279 192.368 49.6678 193.314 49.6996C194.179 49.7234 195.093 49.6361 196.039 49.4058C196.32 49.382 196.576 49.5805 196.616 49.8584C196.785 50.9066 196.64 53.2093 191.694 52.32L187.341 59.5379C186.259 60.4749 182.796 56.5364 183.886 55.5914Z" fill="#FFB072"/>
<path d="M125.654 55.8059C125.654 55.8059 146.577 74.2596 151.171 75.1171C155.756 75.9668 185.818 62.8014 185.818 62.8014C186.949 62.0391 184.704 54.4322 183.053 54.591L153.464 61.7692C153.464 61.7692 141.423 44.451 132.541 39.3373C123.65 34.2236 117.918 50.4143 125.654 55.8059Z" fill="#3E2344"/>
<path d="M108.715 30.6742C108.715 30.6742 98.1016 48.715 92.7866 63.5955C87.5438 78.2775 84.8503 89.9024 84.8503 89.9024C84.8503 89.9024 80.9943 54.5195 94.9992 33.2151C96.9552 30.2295 108.715 30.6742 108.715 30.6742Z" fill="#3E2344"/>
<path d="M109.188 35.7401C109.188 35.7401 109.694 38.6291 111.297 38.9228C112.908 39.2244 114.816 36.7322 114.816 36.7322C114.816 36.7322 114.88 34.9861 112.331 34.7163C109.79 34.4464 109.188 35.7401 109.188 35.7401Z" fill="#3E2344"/>
<path d="M110.415 29.1351C110.207 30.8502 110.944 32.6209 112.347 34.741L106.968 39.418C106.174 36.4006 105.95 33.3673 107.353 30.6517L110.415 29.1351Z" fill="white"/>
<path d="M120.484 28.4111C119.329 31.4126 116.468 33.4295 112.331 34.7238L115.722 41.3145C119.265 39.6073 121.823 37.2013 122.833 33.6995L120.484 28.4111Z" fill="white"/>
<path d="M110.72 37.8762C110.72 37.8762 96.7949 60.8402 94.887 82.6051L98.6387 89.5848L103.745 82.7957C105.212 67.7246 107.818 52.7806 112.235 38.2733L110.72 37.8762Z" fill="#3E2344"/>
<path d="M120.788 20.8264L121.702 19.5327L120.877 18.9136C120.877 18.9136 122.175 16.3976 123.418 17.7627C124.444 18.8898 122.191 21.755 120.788 20.8264Z" fill="#E57E55"/>
<g opacity="0.5">
<g opacity="0.5">
<g opacity="0.5">
<path opacity="0.5" d="M76.0002 187.944C76.1285 188.063 76.2087 188.206 76.2888 188.341C76.361 188.484 76.4491 188.627 76.4812 188.794C76.5213 188.985 76.4251 189.128 76.2648 189.112C76.2006 189.104 76.1285 189.073 76.0644 189.017C75.9281 188.898 75.8319 188.763 75.7437 188.619C75.6715 188.468 75.5994 188.317 75.5673 188.15C75.5353 187.952 75.6395 187.817 75.7998 187.84C75.88 187.856 75.9441 187.888 76.0002 187.944Z" fill="white"/>
</g>
<g opacity="0.5">
<path opacity="0.5" d="M76.9543 189.539C77.0905 189.651 77.1787 189.786 77.2749 189.921C77.3631 190.056 77.4593 190.191 77.5074 190.359C77.5635 190.549 77.4753 190.701 77.315 190.693C77.2509 190.693 77.1787 190.661 77.1146 190.613C76.9703 190.51 76.8661 190.374 76.7619 190.239C76.6817 190.096 76.5935 189.953 76.5534 189.778C76.5053 189.579 76.6015 189.436 76.7619 189.452C76.826 189.46 76.8981 189.491 76.9543 189.539Z" fill="white"/>
</g>
<g opacity="0.5">
<path opacity="0.5" d="M78.0204 191.071C78.1647 191.174 78.2609 191.31 78.3651 191.429C78.4613 191.556 78.5655 191.691 78.6296 191.851C78.7018 192.034 78.6216 192.193 78.4613 192.193C78.3891 192.193 78.317 192.169 78.2528 192.129C78.1005 192.034 77.9883 191.906 77.8761 191.779C77.7799 191.644 77.6917 191.501 77.6356 191.333C77.5714 191.143 77.6596 190.991 77.82 190.991C77.8841 190.999 77.9562 191.023 78.0204 191.071Z" fill="white"/>
</g>
<g opacity="0.5">
<path opacity="0.5" d="M80.177 193.606C80.3293 193.693 80.4496 193.805 80.5698 193.924C80.682 194.051 80.7863 194.171 80.8664 194.33C80.9626 194.505 80.9065 194.664 80.7462 194.688C80.682 194.696 80.6019 194.68 80.5297 194.648C80.3694 194.568 80.2572 194.441 80.1289 194.33C80.0167 194.202 79.9044 194.075 79.8323 193.924C79.7441 193.741 79.8082 193.582 79.9766 193.566C80.0327 193.55 80.1129 193.566 80.177 193.606Z" fill="white"/>
</g>
<g opacity="0.5">
<path opacity="0.5" d="M81.8923 195.257C82.0045 195.289 82.0767 195.353 82.1568 195.417C82.229 195.488 82.2931 195.56 82.3332 195.663C82.4054 195.862 82.3011 196.021 82.0927 196.013C82.0687 196.013 82.0446 196.005 82.0126 196.005C81.9003 195.973 81.8202 195.91 81.74 195.846C81.6678 195.775 81.5957 195.703 81.5636 195.592C81.4915 195.385 81.6037 195.234 81.8121 195.249C81.8362 195.249 81.8683 195.257 81.8923 195.257Z" fill="white"/>
</g>
<g opacity="0.5">
<path opacity="0.5" d="M83.4396 196.567C83.5518 196.591 83.632 196.647 83.7202 196.702C83.7923 196.774 83.8725 196.838 83.9126 196.941C83.9927 197.14 83.8965 197.307 83.6961 197.307C83.6721 197.307 83.648 197.307 83.616 197.299C83.5037 197.275 83.4156 197.219 83.3354 197.156C83.2632 197.084 83.1831 197.021 83.135 196.917C83.0468 196.718 83.151 196.559 83.3594 196.559C83.3835 196.559 83.4156 196.559 83.4396 196.567Z" fill="white"/>
</g>
</g>
<g opacity="0.5">
<g opacity="0.5">
<path opacity="0.5" d="M72.6895 171.054C72.5853 172.412 72.5853 173.77 72.6254 175.128C72.6655 176.486 72.8178 177.835 73.0182 179.177C73.2507 180.511 73.5233 181.845 73.9481 183.14C74.3329 184.45 74.854 185.712 75.4152 186.959C75.5033 187.126 75.4713 187.308 75.351 187.356C75.2308 187.404 75.0704 187.316 74.9823 187.15C74.365 185.903 73.8038 184.625 73.395 183.298C72.9541 181.98 72.6655 180.623 72.417 179.265C72.2166 177.899 72.0723 176.517 72.0482 175.144C72.0242 173.762 72.0643 172.388 72.2166 171.015C72.2326 170.824 72.3529 170.681 72.4891 170.697C72.6174 170.721 72.7056 170.88 72.6895 171.054Z" fill="white"/>
</g>
<g opacity="0.5">
<path opacity="0.5" d="M72.3699 170.071C72.3299 169.928 72.3379 169.793 72.3459 169.65C72.37 169.514 72.386 169.371 72.4661 169.244C72.5704 169.061 72.7467 169.021 72.859 169.149C72.899 169.188 72.9231 169.244 72.9391 169.3C72.9712 169.443 72.9632 169.578 72.9551 169.713C72.9311 169.848 72.9151 169.984 72.8429 170.111C72.7467 170.294 72.5704 170.341 72.4501 170.214C72.418 170.182 72.386 170.135 72.3699 170.071Z" fill="white"/>
</g>
<g opacity="0.5">
<path opacity="0.5" d="M72.5692 168.516C72.5371 168.372 72.5451 168.229 72.5611 168.094C72.5932 167.959 72.6173 167.823 72.6974 167.696C72.8097 167.521 72.986 167.481 73.0983 167.617C73.1303 167.656 73.1544 167.712 73.1704 167.768C73.2025 167.911 73.1784 168.046 73.1624 168.181C73.1303 168.317 73.1143 168.452 73.0341 168.579C72.9299 168.754 72.7535 168.794 72.6413 168.667C72.6173 168.627 72.5852 168.571 72.5692 168.516Z" fill="white"/>
</g>
<g opacity="0.5">
<path opacity="0.5" d="M72.834 166.954C72.8901 166.398 72.9943 165.843 73.1226 165.295C73.2509 164.747 73.4032 164.208 73.6116 163.676C73.6838 163.493 73.8361 163.398 73.9563 163.462C74.0525 163.509 74.1006 163.652 74.0766 163.795C73.9804 164.343 73.8441 164.882 73.7238 165.422C73.5795 165.962 73.4753 166.501 73.307 167.033C73.2509 167.216 73.1146 167.327 72.9863 167.279C72.8821 167.24 72.826 167.105 72.834 166.954Z" fill="white"/>
</g>
<g opacity="0.5">
<path opacity="0.5" d="M74.0202 162.312C73.9961 162.217 74.0202 162.137 74.0362 162.058C74.0683 161.978 74.1003 161.898 74.1805 161.835C74.3649 161.692 74.5653 161.747 74.6294 161.962V161.97C74.6535 162.066 74.6374 162.145 74.6134 162.225C74.5813 162.304 74.5493 162.376 74.4691 162.439C74.2927 162.583 74.0843 162.535 74.0202 162.32V162.312Z" fill="white"/>
</g>
<g opacity="0.5">
<path opacity="0.5" d="M74.5732 160.717C74.5492 160.621 74.5812 160.542 74.6053 160.462C74.6454 160.383 74.6774 160.311 74.7656 160.247C74.958 160.112 75.1504 160.192 75.2065 160.406V160.414C75.2305 160.51 75.1985 160.589 75.1744 160.669C75.1344 160.741 75.1023 160.82 75.0221 160.876C74.8378 161.011 74.6373 160.947 74.5812 160.733L74.5732 160.717Z" fill="white"/>
</g>
</g>
</g>
<g opacity="0.5">
<g opacity="0.5">
<g opacity="0.5">
<path opacity="0.5" d="M128.853 159.169C128.725 159.05 128.645 158.915 128.565 158.78C128.492 158.637 128.404 158.502 128.372 158.342C128.332 158.16 128.428 158.016 128.589 158.032C128.653 158.04 128.725 158.072 128.789 158.12C128.925 158.231 129.021 158.366 129.11 158.502C129.182 158.645 129.254 158.796 129.286 158.963C129.318 159.154 129.214 159.289 129.054 159.265C128.981 159.257 128.909 159.217 128.853 159.169Z" fill="white"/>
</g>
<g opacity="0.5">
<path opacity="0.5" d="M127.907 157.614C127.771 157.502 127.683 157.375 127.587 157.24C127.498 157.104 127.402 156.977 127.354 156.818C127.298 156.635 127.386 156.492 127.546 156.492C127.611 156.492 127.683 156.524 127.747 156.571C127.891 156.675 127.995 156.802 128.1 156.929C128.18 157.073 128.268 157.208 128.308 157.375C128.356 157.566 128.26 157.709 128.1 157.693C128.035 157.693 127.963 157.661 127.907 157.614Z" fill="white"/>
</g>
<g opacity="0.5">
<path opacity="0.5" d="M126.841 156.119C126.697 156.024 126.601 155.888 126.496 155.769C126.4 155.642 126.296 155.515 126.232 155.363C126.16 155.18 126.24 155.029 126.4 155.029C126.472 155.029 126.544 155.053 126.609 155.093C126.761 155.188 126.873 155.308 126.985 155.435C127.082 155.57 127.17 155.705 127.226 155.865C127.29 156.056 127.202 156.199 127.041 156.199C126.969 156.191 126.897 156.167 126.841 156.119Z" fill="white"/>
</g>
<g opacity="0.5">
<path opacity="0.5" d="M124.677 153.658C124.525 153.578 124.404 153.459 124.284 153.347C124.172 153.228 124.068 153.109 123.987 152.957C123.891 152.79 123.947 152.631 124.108 152.607C124.18 152.599 124.252 152.615 124.324 152.647C124.484 152.727 124.597 152.846 124.725 152.957C124.837 153.085 124.949 153.204 125.022 153.355C125.11 153.53 125.046 153.689 124.877 153.705C124.821 153.713 124.749 153.689 124.677 153.658Z" fill="white"/>
</g>
<g opacity="0.5">
<path opacity="0.5" d="M122.969 152.048C122.857 152.016 122.785 151.96 122.705 151.897C122.632 151.825 122.568 151.762 122.528 151.65C122.456 151.451 122.56 151.308 122.769 151.308C122.793 151.308 122.817 151.316 122.849 151.316C122.961 151.348 123.041 151.412 123.121 151.467C123.194 151.539 123.266 151.61 123.298 151.714C123.37 151.913 123.258 152.064 123.049 152.048C123.017 152.056 122.993 152.056 122.969 152.048Z" fill="white"/>
</g>
<g opacity="0.5">
<path opacity="0.5" d="M121.422 150.776C121.31 150.752 121.229 150.696 121.141 150.64C121.069 150.577 120.989 150.513 120.949 150.41C120.869 150.211 120.965 150.052 121.165 150.06C121.189 150.06 121.213 150.06 121.246 150.068C121.358 150.091 121.446 150.147 121.526 150.203C121.598 150.274 121.678 150.338 121.727 150.434C121.815 150.632 121.71 150.784 121.502 150.784C121.478 150.784 121.446 150.776 121.422 150.776Z" fill="white"/>
</g>
</g>
<g opacity="0.5">
<g opacity="0.5">
<path opacity="0.5" d="M132.164 175.604C132.268 174.286 132.268 172.96 132.228 171.634C132.188 170.308 132.036 168.998 131.835 167.688C131.603 166.385 131.33 165.083 130.905 163.828C130.521 162.558 130 161.327 129.438 160.112C129.35 159.946 129.382 159.779 129.503 159.723C129.623 159.676 129.783 159.763 129.871 159.922C130.489 161.137 131.05 162.383 131.459 163.678C131.899 164.964 132.188 166.282 132.437 167.608C132.637 168.942 132.781 170.276 132.805 171.626C132.829 172.968 132.789 174.31 132.637 175.644C132.621 175.827 132.501 175.97 132.364 175.954C132.244 175.93 132.156 175.779 132.164 175.604Z" fill="white"/>
</g>
<g opacity="0.5">
<path opacity="0.5" d="M132.493 176.565C132.533 176.709 132.525 176.836 132.517 176.971C132.493 177.106 132.477 177.242 132.397 177.369C132.292 177.544 132.116 177.584 132.004 177.464C131.964 177.425 131.94 177.377 131.924 177.313C131.892 177.178 131.9 177.043 131.908 176.908C131.932 176.772 131.948 176.645 132.02 176.518C132.116 176.343 132.292 176.295 132.413 176.414C132.445 176.454 132.477 176.51 132.493 176.565Z" fill="white"/>
</g>
<g opacity="0.5">
<path opacity="0.5" d="M132.284 178.082C132.316 178.225 132.308 178.361 132.292 178.488C132.26 178.623 132.236 178.75 132.156 178.878C132.044 179.053 131.867 179.085 131.755 178.957C131.723 178.917 131.699 178.862 131.683 178.806C131.651 178.663 131.675 178.536 131.691 178.4C131.723 178.273 131.739 178.138 131.819 178.011C131.924 177.835 132.1 177.796 132.212 177.923C132.244 177.971 132.268 178.026 132.284 178.082Z" fill="white"/>
</g>
<g opacity="0.5">
<path opacity="0.5" d="M132.02 179.598C131.964 180.138 131.86 180.678 131.731 181.209C131.603 181.741 131.451 182.265 131.242 182.781C131.17 182.955 131.018 183.051 130.898 182.987C130.801 182.94 130.753 182.805 130.777 182.662C130.874 182.13 131.01 181.606 131.13 181.082C131.274 180.558 131.379 180.035 131.547 179.511C131.603 179.336 131.739 179.225 131.868 179.273C131.972 179.32 132.036 179.447 132.02 179.598Z" fill="white"/>
</g>
<g opacity="0.5">
<path opacity="0.5" d="M130.833 184.117C130.857 184.212 130.833 184.292 130.817 184.371C130.785 184.443 130.753 184.523 130.673 184.586C130.489 184.729 130.288 184.666 130.224 184.459V184.451C130.2 184.356 130.216 184.284 130.24 184.204C130.272 184.133 130.304 184.053 130.384 183.99C130.561 183.846 130.769 183.902 130.833 184.109V184.117Z" fill="white"/>
</g>
<g opacity="0.5">
<path opacity="0.5" d="M130.289 185.673C130.313 185.769 130.281 185.848 130.257 185.928C130.217 185.999 130.185 186.079 130.097 186.135C129.905 186.27 129.712 186.19 129.656 185.984V185.976C129.632 185.88 129.664 185.808 129.688 185.729C129.728 185.657 129.76 185.586 129.84 185.522C130.025 185.387 130.225 185.451 130.281 185.657L130.289 185.673Z" fill="white"/>
</g>
</g>
</g>
<path d="M122.071 33.3501C122.071 33.3501 106.302 67.272 114.712 97.2474C116.884 104.997 123.297 110.675 130.777 107.554C133.583 106.379 135.755 105.093 136.148 103.806C137.39 99.701 128.171 80.2706 129.214 75.9589C130.248 71.6472 138.24 43.5537 135.755 40.6792C133.262 37.8047 122.071 33.3501 122.071 33.3501Z" fill="#3E2344"/>
<path d="M117.95 52.0103L128.789 55.2572L128.388 56.6942L117.429 53.4552L117.95 52.0103Z" fill="#7C4284"/>
<path d="M128.081 36L85.3198 60.9167C84.7919 62.8125 84 71.2083 84 75C84 75 127.817 47.1042 136 40.3333C136 40.3333 131.513 36.8125 128.081 36Z" fill="#FD6141"/>
<path d="M92.253 63.7042L92.24 65.2331L91.8495 65.4703L91.8818 63.8475C91.7679 63.8722 91.6512 63.8814 91.532 63.875C91.4152 63.8672 91.3004 63.829 91.1875 63.7606C91.0747 63.6921 90.9703 63.5791 90.8746 63.4214C90.7271 63.1787 90.6977 62.9431 90.7863 62.7146C90.8733 62.4836 91.0817 62.2679 91.4114 62.0676L92.1552 61.6157L93.7832 64.2955L93.4486 64.4989L92.7736 63.3879L92.253 63.7042ZM91.9961 62.1081L91.5945 62.3521C91.3837 62.4801 91.2441 62.6163 91.1757 62.7606C91.1082 62.901 91.1262 63.0562 91.2295 63.2263C91.3299 63.3915 91.4619 63.486 91.6257 63.5098C91.7895 63.5336 91.9855 63.4762 92.2136 63.3376L92.6003 63.1027L91.9961 62.1081Z" fill="white"/>
<path d="M94.1407 60.4095L94.8993 59.9486C95.2315 59.7468 95.5123 59.6447 95.7417 59.6424C95.972 59.6361 96.1617 59.7555 96.3106 60.0007C96.4064 60.1583 96.4428 60.3161 96.4199 60.4739C96.3955 60.6292 96.3106 60.7715 96.1652 60.901L96.1766 60.9197C96.2988 60.8695 96.4189 60.841 96.5371 60.8343C96.6577 60.8261 96.7706 60.85 96.8759 60.906C96.9812 60.9619 97.0764 61.0599 97.1615 61.2001C97.3089 61.4428 97.3399 61.6809 97.2544 61.9144C97.1713 62.1464 96.9872 62.3491 96.7021 62.5223L95.7687 63.0893L94.1407 60.4095ZM95.1685 61.3472L95.6594 61.049C95.8875 60.9104 96.0216 60.7792 96.0618 60.6554C96.1005 60.5292 96.0758 60.3935 95.9876 60.2483C95.8979 60.1007 95.782 60.0273 95.6399 60.028C95.4987 60.0247 95.3153 60.0915 95.0897 60.2286L94.6509 60.4952L95.1685 61.3472ZM95.3395 61.6287L95.9301 62.6008L96.4656 62.2754C96.7011 62.1323 96.8366 61.9866 96.8721 61.8383C96.9076 61.69 96.8797 61.5408 96.7885 61.3907C96.7034 61.2506 96.5866 61.1673 96.4383 61.141C96.2909 61.1107 96.0944 61.17 95.849 61.3192L95.3395 61.6287Z" fill="white"/>
<path d="M100.039 60.4949L99.2155 59.8597L98.1631 60.499L98.351 61.5205L98.0126 61.7261L97.4152 58.4047L97.7164 58.2217L100.385 60.2848L100.039 60.4949ZM98.9327 59.6204L98.1427 58.9905C98.1231 58.975 98.0887 58.9462 98.0394 58.9042C97.9901 58.8622 97.9401 58.819 97.8893 58.7744C97.8394 58.7259 97.8004 58.6897 97.7723 58.6657C97.8021 58.7538 97.8286 58.8422 97.8519 58.9308C97.8737 59.0169 97.89 59.0857 97.901 59.1373L98.0923 60.131L98.9327 59.6204Z" fill="white"/>
<path d="M104.065 58.0489L100.934 59.9511L99.3062 57.2713L99.6409 57.068L101.087 59.4475L102.146 58.8037L100.701 56.4241L101.035 56.2208L102.481 58.6003L103.545 57.9542L102.099 55.5746L102.437 55.369L104.065 58.0489Z" fill="white"/>
<path d="M106.217 53.0729L107.663 55.4524L108.001 55.2469L108.612 56.2527L108.292 56.447L107.864 55.7414L106.038 56.8507L106.466 57.5563L106.147 57.7506L105.535 56.7447L105.74 56.6205C105.735 56.4111 105.714 56.186 105.676 55.9451C105.641 55.7028 105.59 55.4577 105.524 55.2098C105.457 54.9595 105.379 54.7159 105.289 54.4792C105.2 54.2424 105.1 54.0221 104.99 53.8184L106.217 53.0729ZM106.071 53.578L105.468 53.944C105.546 54.0951 105.621 54.2741 105.693 54.4808C105.766 54.6861 105.832 54.9031 105.89 55.1319C105.948 55.3567 105.995 55.5798 106.031 55.8011C106.07 56.021 106.091 56.2225 106.093 56.4058L107.332 55.6535L106.071 53.578Z" fill="white"/>
<path d="M107.888 52.0576C108.235 51.8467 108.53 51.7619 108.772 51.8031C109.014 51.8444 109.212 51.9901 109.364 52.2403C109.453 52.3879 109.504 52.5471 109.516 52.7179C109.529 52.8847 109.482 53.0555 109.375 53.2305C109.27 53.4039 109.084 53.5712 108.819 53.7324L108.514 53.9177L109.148 54.9611L108.813 55.1644L107.185 52.4846L107.888 52.0576ZM108.034 52.3647L107.696 52.5702L108.339 53.6287L108.606 53.466C108.859 53.3124 109.023 53.1566 109.096 52.9987C109.17 52.8409 109.147 52.6631 109.027 52.4654C108.922 52.2928 108.789 52.197 108.628 52.1782C108.468 52.1594 108.27 52.2216 108.034 52.3647Z" fill="white"/>
<path d="M111.583 49.8131L111.9 52.2461C111.929 52.472 111.938 52.6698 111.93 52.8396C111.922 53.0054 111.881 53.1515 111.809 53.2778C111.735 53.4016 111.613 53.5147 111.445 53.6171C111.375 53.6593 111.307 53.6942 111.239 53.7219C111.173 53.748 111.11 53.7674 111.05 53.78L110.847 53.446C110.91 53.4384 110.975 53.4247 111.041 53.4051C111.106 53.383 111.169 53.3531 111.231 53.3154C111.37 53.2311 111.461 53.1348 111.503 53.0265C111.549 52.9168 111.56 52.7645 111.536 52.5697L109.303 51.198L109.671 50.9744L111.307 51.9998C111.335 52.0173 111.37 52.0408 111.411 52.0703C111.451 52.0973 111.488 52.1245 111.522 52.152L111.537 52.143C111.53 52.1094 111.523 52.0694 111.515 52.0228C111.505 51.9737 111.498 51.9337 111.493 51.9026L111.229 50.0277L111.583 49.8131Z" fill="white"/>
<path d="M113.628 48.5705L113.81 48.8707L112.646 49.5779L114.092 51.9574L113.757 52.1608L112.129 49.481L113.628 48.5705Z" fill="white"/>
</svg>
