<svg width="456" height="588" viewBox="0 0 456 588" fill="none" xmlns="http://www.w3.org/2000/svg">
<path d="M189.272 100.602C189.272 100.602 137.92 120.921 128.837 119.451C119.737 117.998 76.8681 75.4536 76.8681 75.4536C75.2856 73.2967 85.0969 62.0745 88.0562 63.4812L133.6 93.2403C133.6 93.2403 175.14 67.4042 195.095 63.825C215.066 60.2458 207.296 95.7411 189.272 100.602Z" fill="#3E2344"/>
<path d="M88.5632 95.7099L25.3114 103.118L0.529785 30.4242L57.9105 28.4236C58.8125 28.3923 59.6354 28.9081 59.9994 29.7365L88.5632 95.7099Z" fill="#C1C9CB"/>
<path d="M0.513417 30.4288L0.101968 32.5544C-0.0879292 33.5078 -0.00879745 34.4925 0.307699 35.4147L24.6462 105.858L25.295 103.139L0.513417 30.4288Z" fill="#9894A2"/>
<path d="M24.6462 105.853L86.268 98.4607C87.3757 98.32 88.2778 97.476 88.4518 96.382L88.5626 95.7255L25.3109 103.134L24.6462 105.853Z" fill="#75707F"/>
<path d="M83.293 90.6926L27.7321 97.2415L5.87805 33.1281L57.7834 31.315L83.293 90.6926Z" fill="#A4A2A7"/>
<path d="M82.3434 90.802L27.558 97.2727L5.98877 34.0502L57.1978 32.2528L82.3434 90.802Z" fill="white"/>
<path opacity="0.1" d="M56.0268 76.6883C48.2568 66.4664 60.0305 50.946 58.8595 36.1759L57.182 32.2528L50.2191 32.5028C49.0797 49.5549 33.2708 63.9344 21.3389 79.0953L27.5422 97.2727L82.3276 90.8176L76.1401 76.3601C70.8863 81.9243 61.3756 83.9561 56.0268 76.6883Z" fill="#3C8460"/>
<path d="M52.0706 96.2725L52.7353 97.8354C52.846 98.1011 53.1309 98.2574 53.4157 98.2418L63.4961 97.2415C63.9392 97.1946 64.4614 96.8195 64.0816 96.0849L63.322 94.7408C63.2112 94.4751 62.9264 94.3344 62.6416 94.3501L52.3871 95.1628C51.9599 95.2097 51.8965 95.8661 52.0706 96.2725Z" fill="#75707F"/>
<path d="M52.0706 95.8505L52.7353 97.4134C52.8461 97.6791 53.1309 97.8354 53.4157 97.8198L63.4961 96.8195C63.9392 96.7726 64.2241 96.3038 64.0342 95.8974L63.3221 94.3188C63.2113 94.0531 62.9265 93.9125 62.6416 93.9281L52.6087 94.9284C52.1656 94.9909 51.8966 95.4441 52.0706 95.8505Z" fill="white"/>
<path d="M25.1052 46.7109L14.8033 47.2579L12.3979 40.3185L22.7473 39.8184L25.1052 46.7109Z" stroke="#5E8AAF" stroke-width="0.3036" stroke-miterlimit="10"/>
<path d="M28.3176 56.0247L18.079 56.6343L15.6736 49.7417L25.9597 49.1947L28.3176 56.0247Z" stroke="#5E8AAF" stroke-width="0.3036" stroke-miterlimit="10"/>
<path d="M31.4825 65.2628L21.3072 65.9193L18.9335 59.1048L29.1562 58.4796L31.4825 65.2628Z" stroke="#5E8AAF" stroke-width="0.3036" stroke-miterlimit="10"/>
<path d="M34.6318 74.4375L24.5198 75.1408L22.1619 68.3733L32.3214 67.7013L34.6318 74.4375Z" stroke="#5E8AAF" stroke-width="0.3036" stroke-miterlimit="10"/>
<path d="M37.7493 83.5185L27.7005 84.2843L25.3743 77.5793L35.4705 76.8447L37.7493 83.5185Z" stroke="#5E8AAF" stroke-width="0.3036" stroke-miterlimit="10"/>
<path d="M40.8509 92.5368L30.8654 93.3495L28.5392 86.7071L38.588 85.9256L40.8509 92.5368Z" stroke="#5E8AAF" stroke-width="0.3036" stroke-miterlimit="10"/>
<path d="M15.2305 44.6005L17.6042 44.1316L21.1489 46.3199C22.0035 43.5845 23.6176 40.7866 25.564 37.9731C24.0132 41.1774 22.8105 44.96 21.8294 49.0553L15.2305 44.6005Z" fill="#B53333"/>
<path d="M18.4587 54.3851L20.8325 53.9162L24.3772 56.1045C25.2317 53.3691 26.8459 50.5712 28.7923 47.7576C27.2415 50.9619 26.0388 54.7446 25.0577 58.8398L18.4587 54.3851Z" fill="#B53333"/>
<path d="M21.7504 63.2628L24.1241 62.7939L27.6688 64.9822C28.5234 62.2468 30.1375 59.4489 32.084 56.6353C30.5331 59.8397 29.3305 63.6223 28.3493 67.7176L21.7504 63.2628Z" fill="#B53333"/>
<path d="M25.0103 72.4843L27.384 72.0154L30.9287 74.2037C31.7832 71.4683 33.3974 68.6704 35.3438 65.8569C33.793 69.0612 32.5903 72.8438 31.6092 76.9391L25.0103 72.4843Z" fill="#B53333"/>
<path d="M27.2256 81.5028L29.5993 81.0339L33.144 83.2222C33.9986 80.4868 35.6127 77.6889 37.5591 74.8754C36.0083 78.0797 34.8056 81.8623 33.8245 85.9576L27.2256 81.5028Z" fill="#B53333"/>
<path d="M30.4856 90.7087L32.8593 90.2398L36.4041 92.4281C37.2586 89.6927 38.8728 86.8948 40.8192 84.0813C39.2684 87.2856 38.0657 91.0682 37.0846 95.1635L30.4856 90.7087Z" fill="#B53333"/>
<path d="M85.6192 62.9342C85.6192 62.9342 82.4859 55.8226 81.0617 53.9314C79.6375 52.0402 74.2728 49.1174 72.2473 48.7892C70.2217 48.461 68.5759 49.4926 66.582 49.43C64.7621 49.3831 62.8473 49.0705 60.9009 48.4766C60.3154 48.3985 59.7615 48.7736 59.6349 49.3519C59.1443 51.5244 59.1601 56.354 69.652 55.1193L77.8651 70.7491C80.0331 72.8748 87.8031 65.0599 85.6192 62.9342Z" fill="#FFB072"/>
<path d="M161.404 282.72L169.317 305.055C169.317 305.055 172.007 309.354 172.64 310.917C173.273 312.448 174.333 317.325 174.333 317.325C172.956 319.513 166.943 322.436 163.446 322.795L162.639 322.53C162.639 322.53 162.18 323.124 158.192 325.89C154.125 328.719 140.911 334.283 138.284 333.47C138.284 333.47 133.932 327.578 138.901 324.03C151.34 315.152 151.878 310.698 151.15 306.118C150.232 300.351 146.276 286.597 146.276 286.597L161.404 282.72Z" fill="#A1ABAD"/>
<path d="M149.757 312.667C149.757 312.667 153.286 310.792 156.166 311.995C158.888 313.136 161.088 314.152 163.81 312.402C170.788 307.916 168.019 302.273 172.323 303.602L178.543 318.747L137.43 337.331L132.603 325.89L149.757 312.667Z" fill="#3E2344"/>
<path d="M136.654 332.22C136.654 332.22 138.015 333.971 150.913 328.063C163.81 322.17 163.762 318.747 174.128 314.871L175.061 318.622L137.952 337.456L136.654 332.22Z" fill="#7C4284"/>
<path d="M195.602 173.468C170.029 175.219 93.9589 197.554 91.9966 207.369C88.7051 223.906 126.273 279.423 148.982 307.994L170.06 300.257C159.663 273.718 147.004 249.367 132.097 227.203C132.097 227.203 214.702 225.093 228.486 199.632C242.269 174.172 225.115 171.452 195.602 173.468Z" fill="#19323A"/>
<path d="M175.33 201.617C175.33 201.617 118.614 214.793 117.079 217.841C115.544 220.889 156.087 297.162 156.087 297.162" stroke="#234159" stroke-width="0.5" stroke-miterlimit="10"/>
<path opacity="0.2" d="M339.164 574.966C339.164 580.812 278.587 585.563 203.846 585.563C129.106 585.563 68.5284 580.828 68.5284 574.966C68.5284 569.121 129.106 564.369 203.846 564.369C278.571 564.369 339.164 569.105 339.164 574.966Z" fill="#3E2344"/>
<path d="M161.42 328.828C158.287 327.89 159.489 323.952 162.623 324.874L202.295 338.941C206.995 340.332 204.875 347.318 200.175 345.912L161.42 328.828Z" fill="#DD4026"/>
<path d="M169.633 327.718L155.533 332.032C153.397 332.689 151.134 331.501 150.469 329.391L150.074 328.14L171.912 321.451L172.307 322.701C172.956 324.827 171.769 327.062 169.633 327.718Z" fill="#FFBE57"/>
<path d="M164.221 326.609C164.569 327.953 163.73 329.328 162.369 329.656C161.008 330 159.616 329.172 159.284 327.828C158.935 326.484 159.774 325.108 161.135 324.78C162.496 324.452 163.889 325.265 164.221 326.609Z" fill="#7C4284"/>
<path d="M199.447 343.723C198.608 342.614 198.83 341.035 199.953 340.191C201.077 339.363 202.675 339.582 203.53 340.691C204.368 341.801 204.147 343.38 203.023 344.224C201.884 345.052 200.286 344.833 199.447 343.723Z" fill="#7C4284"/>
<path d="M262.03 527.715C282.729 494.795 272.473 451.559 239.124 431.145C205.775 410.731 161.96 420.869 141.262 453.789C120.563 486.709 130.819 529.945 164.168 550.359C197.517 570.773 241.332 560.635 262.03 527.715Z" fill="white"/>
<path d="M253.084 477.381C252.804 477.448 252.529 477.488 252.259 477.502C251.994 477.514 251.771 477.499 251.589 477.457C251.413 477.413 251.314 477.346 251.292 477.254C251.274 477.179 251.288 477.076 251.336 476.945C251.388 476.808 251.441 476.732 251.494 476.719C251.521 476.713 251.603 476.719 251.738 476.738C251.91 476.765 252.08 476.782 252.246 476.787C252.418 476.792 252.609 476.769 252.819 476.719C253.099 476.652 253.324 476.513 253.495 476.301C253.67 476.083 253.713 475.797 253.627 475.442C253.54 475.087 253.381 474.858 253.15 474.753C252.924 474.642 252.622 474.632 252.245 474.722L251.995 474.782C251.93 474.797 251.876 474.787 251.833 474.752C251.795 474.71 251.763 474.638 251.738 474.536L251.712 474.431C251.687 474.329 251.683 474.253 251.699 474.203C251.721 474.153 251.764 474.12 251.829 474.104L252.039 474.054C252.27 473.999 252.45 473.905 252.577 473.772C252.702 473.634 252.78 473.484 252.809 473.324C252.843 473.162 252.843 473.008 252.807 472.863C252.759 472.664 252.649 472.508 252.479 472.395C252.309 472.282 252.068 472.263 251.755 472.338C251.54 472.389 251.367 472.45 251.236 472.521C251.105 472.592 250.985 472.672 250.876 472.761C250.799 472.819 250.747 472.852 250.72 472.858C250.666 472.871 250.587 472.827 250.483 472.727C250.379 472.627 250.317 472.536 250.297 472.455C250.264 472.321 250.4 472.169 250.707 471.999C251.013 471.829 251.33 471.705 251.658 471.627C252.159 471.507 252.588 471.536 252.944 471.712C253.301 471.889 253.535 472.206 253.647 472.663C253.713 472.932 253.694 473.181 253.591 473.41C253.487 473.64 253.329 473.831 253.116 473.985L253.124 474.017C253.425 474.036 253.702 474.155 253.955 474.373C254.212 474.585 254.386 474.879 254.478 475.256C254.571 475.632 254.562 475.97 254.453 476.269C254.343 476.563 254.165 476.804 253.921 476.994C253.675 477.178 253.396 477.307 253.084 477.381Z" fill="black"/>
<path d="M145.069 503.146C144.977 503.168 144.887 503.124 144.797 503.014C144.713 502.904 144.66 502.805 144.639 502.719C144.625 502.66 144.64 502.617 144.684 502.589C145.135 502.288 145.48 501.927 145.718 501.505C145.961 501.077 146.095 500.624 146.121 500.146C145.871 500.382 145.557 500.545 145.181 500.635C144.911 500.699 144.643 500.695 144.374 500.623C144.106 500.55 143.866 500.408 143.654 500.197C143.447 499.979 143.301 499.698 143.217 499.354C143.13 498.999 143.136 498.673 143.234 498.377C143.331 498.075 143.498 497.824 143.734 497.626C143.976 497.426 144.258 497.287 144.581 497.21C145.136 497.077 145.613 497.151 146.012 497.432C146.415 497.705 146.698 498.175 146.862 498.842C147.05 499.611 147.031 500.313 146.804 500.947C146.583 501.581 146.287 502.095 145.917 502.491C145.545 502.881 145.262 503.1 145.069 503.146ZM145.255 499.892C145.551 499.821 145.83 499.666 146.09 499.428C146.062 499.218 146.036 499.065 146.012 498.968C145.896 498.495 145.72 498.184 145.485 498.036C145.253 497.88 144.997 497.836 144.717 497.903C144.572 497.938 144.436 498.013 144.31 498.128C144.189 498.237 144.101 498.377 144.046 498.55C143.991 498.722 143.99 498.913 144.041 499.123C144.123 499.456 144.275 499.685 144.499 499.808C144.723 499.93 144.975 499.959 145.255 499.892Z" fill="black"/>
<path d="M213.565 437.763C213.5 437.779 213.446 437.769 213.404 437.734C213.365 437.692 213.333 437.619 213.308 437.517L213.282 437.412C213.257 437.31 213.253 437.234 213.27 437.185C213.29 437.129 213.333 437.093 213.397 437.078L214.705 436.765L213.694 432.627L212.415 433.164C212.355 433.178 212.297 433.135 212.238 433.035C212.179 432.935 212.137 432.832 212.111 432.724C212.088 432.633 212.128 432.561 212.229 432.508L214.044 431.647C214.109 431.632 214.175 431.636 214.244 431.659C214.311 431.677 214.35 431.71 214.362 431.759L215.537 436.566L216.611 436.309C216.676 436.294 216.728 436.307 216.766 436.349C216.809 436.384 216.843 436.453 216.868 436.555L216.894 436.66C216.919 436.762 216.921 436.841 216.9 436.897C216.884 436.947 216.843 436.979 216.779 436.995L213.565 437.763Z" fill="black"/>
<path d="M239.235 452.32C239.186 452.332 239.131 452.291 239.068 452.198C239.004 452.099 238.96 452.002 238.937 451.905C238.921 451.84 238.921 451.795 238.937 451.768L240.382 448.691C240.517 448.38 240.597 448.15 240.623 448.001C240.65 447.853 240.642 447.692 240.6 447.52C240.541 447.278 240.408 447.108 240.201 447.009C240 446.909 239.757 446.894 239.472 446.962C239.273 447.009 239.108 447.08 238.977 447.174C238.85 447.261 238.724 447.365 238.6 447.486C238.518 447.569 238.463 447.613 238.436 447.619C238.371 447.635 238.288 447.598 238.187 447.508C238.089 447.412 238.031 447.326 238.013 447.251C237.984 447.133 238.038 447.006 238.176 446.87C238.319 446.734 238.5 446.611 238.718 446.502C238.941 446.386 239.152 446.304 239.351 446.257C239.889 446.128 240.343 446.156 240.713 446.341C241.083 446.525 241.322 446.838 241.43 447.279C241.489 447.521 241.507 447.745 241.483 447.949C241.459 448.154 241.382 448.412 241.253 448.722C241.129 449.03 240.91 449.509 240.595 450.159L239.998 451.421L242.186 450.897C242.251 450.882 242.302 450.892 242.339 450.929C242.382 450.964 242.416 451.033 242.441 451.135L242.467 451.24C242.492 451.342 242.494 451.421 242.473 451.477C242.457 451.527 242.417 451.559 242.352 451.575L239.235 452.32Z" fill="black"/>
<path d="M255.193 504.857C254.983 504.907 254.861 504.865 254.828 504.731L254.558 503.626L252.2 504.19C252.152 504.201 252.088 504.151 252.009 504.039C251.931 503.927 251.88 503.825 251.858 503.734C251.846 503.685 251.844 503.654 251.852 503.641L253.535 499.371C253.58 499.275 253.683 499.208 253.845 499.169L253.998 499.133C254.208 499.082 254.33 499.124 254.363 499.259L255.214 502.743L255.691 502.629C255.755 502.614 255.807 502.627 255.846 502.669C255.889 502.704 255.923 502.773 255.948 502.875L255.973 502.98C255.998 503.082 256 503.161 255.98 503.218C255.964 503.267 255.923 503.3 255.858 503.315L255.382 503.429L255.652 504.534C255.685 504.668 255.596 504.761 255.386 504.811L255.193 504.857ZM254.391 502.94L253.955 501.158C253.887 500.878 253.852 500.656 253.852 500.491L253.815 500.482L252.727 503.338L254.391 502.94Z" fill="black"/>
<path d="M239.085 529.436C238.799 529.504 238.532 529.542 238.283 529.551C238.033 529.553 237.831 529.531 237.677 529.482C237.528 529.432 237.444 529.367 237.424 529.287C237.404 529.206 237.421 529.099 237.474 528.967C237.526 528.83 237.582 528.754 237.641 528.74C237.662 528.734 237.694 528.735 237.735 528.743C237.782 528.748 237.821 528.753 237.85 528.758C238.024 528.79 238.191 528.81 238.352 528.817C238.513 528.824 238.699 528.802 238.909 528.752C239.232 528.675 239.478 528.517 239.647 528.277C239.821 528.03 239.865 527.735 239.781 527.391C239.699 527.052 239.525 526.821 239.261 526.696C238.997 526.571 238.644 526.562 238.203 526.667L237.46 526.845C237.368 526.867 237.299 526.863 237.252 526.835C237.209 526.8 237.176 526.733 237.152 526.637L236.714 524.249C236.697 524.156 236.705 524.083 236.737 524.03C236.775 523.975 236.84 523.937 236.931 523.915L239.144 523.386C239.209 523.37 239.26 523.384 239.299 523.426C239.342 523.461 239.376 523.53 239.401 523.632L239.432 523.761C239.455 523.852 239.455 523.923 239.433 523.974C239.417 524.024 239.376 524.056 239.312 524.071L237.6 524.481L237.873 526.02L238.229 525.935C238.789 525.801 239.29 525.824 239.733 526.003C240.179 526.175 240.477 526.567 240.627 527.18C240.782 527.815 240.7 528.318 240.381 528.69C240.066 529.056 239.634 529.305 239.085 529.436Z" fill="black"/>
<path d="M184.547 543.915C184.418 543.946 184.319 543.958 184.249 543.952C184.184 543.945 184.145 543.914 184.132 543.86C184.13 543.85 184.131 543.809 184.137 543.74L185.22 538.486L182.806 539.064C182.741 539.079 182.687 539.069 182.645 539.034C182.606 538.992 182.574 538.92 182.549 538.818L182.523 538.713C182.498 538.611 182.494 538.535 182.511 538.486C182.531 538.429 182.574 538.394 182.638 538.378L185.828 537.615C185.866 537.606 185.921 537.659 185.995 537.772C186.067 537.88 186.114 537.98 186.136 538.071C186.144 538.103 186.146 538.137 186.144 538.172L185.039 543.652C185.018 543.754 184.905 543.829 184.701 543.878L184.547 543.915Z" fill="black"/>
<path d="M160.235 528.827C159.681 528.959 159.206 528.917 158.81 528.698C158.415 528.48 158.152 528.104 158.022 527.572C157.929 527.19 157.933 526.87 158.035 526.612C158.136 526.349 158.306 526.124 158.545 525.936C158.045 525.776 157.728 525.425 157.595 524.882C157.489 524.447 157.552 524.064 157.785 523.735C158.017 523.401 158.372 523.177 158.851 523.062C159.314 522.951 159.725 522.987 160.083 523.169C160.441 523.351 160.672 523.657 160.777 524.087C160.854 524.399 160.848 524.668 160.761 524.894C160.672 525.114 160.524 525.312 160.316 525.487C160.645 525.55 160.921 525.675 161.143 525.861C161.363 526.041 161.523 526.333 161.622 526.737C161.748 527.253 161.686 527.697 161.435 528.07C161.184 528.443 160.784 528.696 160.235 528.827ZM159.573 525.383C159.927 525.036 160.058 524.677 159.968 524.306C159.908 524.064 159.791 523.899 159.616 523.81C159.439 523.716 159.237 523.696 159.011 523.75C158.785 523.804 158.614 523.91 158.499 524.068C158.384 524.227 158.357 524.43 158.417 524.677C158.461 524.855 158.537 524.993 158.647 525.092C158.755 525.185 158.88 525.252 159.021 525.293C159.166 525.326 159.35 525.356 159.573 525.383ZM160.067 528.141C160.342 528.076 160.546 527.933 160.681 527.713C160.819 527.486 160.851 527.222 160.778 526.921C160.725 526.706 160.634 526.543 160.504 526.432C160.38 526.319 160.239 526.245 160.082 526.208C159.924 526.167 159.71 526.13 159.44 526.097C159.411 526.098 159.344 526.092 159.238 526.077C159.064 526.25 158.939 526.439 158.864 526.645C158.794 526.849 158.792 527.086 158.858 527.355C158.937 527.677 159.087 527.906 159.308 528.041C159.529 528.176 159.782 528.21 160.067 528.141Z" fill="black"/>
<path d="M142.171 476.746C142.107 476.761 142.053 476.751 142.01 476.716C141.971 476.674 141.939 476.602 141.914 476.5L141.889 476.395C141.864 476.293 141.859 476.217 141.876 476.167C141.896 476.111 141.939 476.076 142.003 476.06L143.312 475.748L142.298 471.611L141.019 472.146C140.959 472.161 140.9 472.118 140.842 472.018C140.783 471.918 140.741 471.814 140.714 471.707C140.692 471.616 140.731 471.544 140.832 471.491L142.648 470.631C142.712 470.616 142.779 470.62 142.847 470.643C142.914 470.661 142.954 470.695 142.966 470.743L144.144 475.55L145.218 475.293C145.282 475.278 145.334 475.291 145.373 475.333C145.416 475.368 145.45 475.437 145.475 475.539L145.5 475.644C145.525 475.746 145.528 475.825 145.507 475.882C145.491 475.931 145.45 475.963 145.386 475.979L142.171 476.746ZM148.01 475.413C147.654 475.497 147.311 475.468 146.979 475.325C146.647 475.177 146.347 474.907 146.08 474.516C145.812 474.119 145.601 473.606 145.446 472.977C145.292 472.348 145.243 471.799 145.299 471.33C145.354 470.856 145.496 470.481 145.725 470.204C145.952 469.923 146.243 469.739 146.599 469.655C146.954 469.57 147.298 469.601 147.631 469.75C147.967 469.891 148.27 470.161 148.538 470.558C148.81 470.948 149.024 471.458 149.178 472.087C149.332 472.716 149.379 473.268 149.319 473.743C149.263 474.212 149.118 474.588 148.886 474.871C148.657 475.147 148.365 475.328 148.01 475.413ZM147.842 474.727C148.143 474.655 148.347 474.416 148.452 474.01C148.558 473.603 148.52 473.029 148.338 472.287C148.156 471.545 147.924 471.017 147.642 470.703C147.36 470.389 147.068 470.268 146.767 470.34C146.47 470.411 146.27 470.649 146.164 471.056C146.064 471.461 146.105 472.034 146.286 472.776C146.468 473.518 146.697 474.047 146.974 474.362C147.256 474.676 147.545 474.798 147.842 474.727Z" fill="black"/>
<path d="M157.06 452.004C156.995 452.019 156.942 452.009 156.899 451.974C156.86 451.932 156.828 451.86 156.803 451.758L156.777 451.653C156.752 451.551 156.748 451.475 156.764 451.425C156.785 451.369 156.827 451.334 156.892 451.318L158.2 451.006L157.187 446.869L155.907 447.404C155.848 447.419 155.789 447.376 155.73 447.276C155.672 447.176 155.629 447.072 155.603 446.965C155.581 446.874 155.62 446.802 155.721 446.749L157.536 445.889C157.601 445.874 157.668 445.878 157.736 445.901C157.803 445.919 157.843 445.953 157.854 446.001L159.032 450.808L160.106 450.551C160.171 450.536 160.223 450.549 160.262 450.591C160.304 450.626 160.338 450.695 160.363 450.797L160.389 450.902C160.414 451.004 160.416 451.083 160.396 451.14C160.38 451.189 160.339 451.221 160.274 451.237L157.06 452.004ZM161.382 450.973C161.318 450.988 161.264 450.978 161.221 450.943C161.182 450.901 161.15 450.829 161.125 450.727L161.1 450.622C161.075 450.52 161.07 450.444 161.087 450.394C161.107 450.338 161.15 450.302 161.214 450.287L162.523 449.975L161.509 445.838L160.23 446.373C160.17 446.388 160.111 446.345 160.053 446.245C159.994 446.145 159.952 446.041 159.925 445.934C159.903 445.842 159.942 445.77 160.043 445.718L161.859 444.858C161.923 444.843 161.99 444.847 162.058 444.87C162.125 444.888 162.165 444.922 162.177 444.97L163.354 449.777L164.429 449.52C164.493 449.505 164.545 449.518 164.584 449.56C164.627 449.595 164.661 449.664 164.686 449.766L164.711 449.871C164.736 449.973 164.739 450.052 164.718 450.109C164.702 450.158 164.661 450.19 164.597 450.206L161.382 450.973Z" fill="black"/>
<path d="M213.319 543.717C212.77 543.848 212.294 543.777 211.891 543.503C211.492 543.223 211.211 542.749 211.048 542.083C210.86 541.314 210.876 540.613 211.098 539.979C211.319 539.346 211.615 538.834 211.987 538.443C212.358 538.047 212.642 537.825 212.842 537.778C212.928 537.757 213.016 537.804 213.107 537.919C213.196 538.029 213.251 538.124 213.271 538.205C213.285 538.264 213.27 538.307 213.226 538.335C212.776 538.641 212.43 539.006 212.185 539.429C211.941 539.851 211.806 540.302 211.781 540.78C212.036 540.543 212.352 540.379 212.729 540.289C212.998 540.225 213.267 540.229 213.535 540.301C213.804 540.374 214.042 540.519 214.249 540.737C214.46 540.948 214.608 541.226 214.692 541.57C214.779 541.925 214.773 542.253 214.676 542.555C214.578 542.852 214.408 543.1 214.166 543.301C213.93 543.499 213.647 543.638 213.319 543.717ZM213.184 543.023C213.329 542.988 213.463 542.917 213.584 542.808C213.71 542.693 213.8 542.549 213.855 542.376C213.909 542.204 213.911 542.013 213.86 541.803C213.778 541.47 213.626 541.241 213.402 541.118C213.183 540.994 212.934 540.966 212.654 541.033C212.353 541.105 212.072 541.26 211.811 541.499C211.819 541.554 211.829 541.62 211.842 541.696C211.855 541.773 211.874 541.86 211.897 541.956C212.013 542.43 212.187 542.744 212.418 542.899C212.654 543.047 212.909 543.089 213.184 543.023Z" fill="black"/>
<path d="M256.548 526.749C276.682 496.764 268.392 456.337 238.034 436.451C207.675 416.566 166.743 424.753 146.61 454.737C126.476 484.722 134.765 525.149 165.124 545.035C195.483 564.92 236.415 556.733 256.548 526.749Z" stroke="#E2E2E2" stroke-width="1.0306" stroke-miterlimit="10"/>
<path d="M182.51 438.446C182.446 438.462 182.392 438.452 182.349 438.416C182.31 438.374 182.278 438.302 182.253 438.2L182.228 438.095C182.203 437.993 182.198 437.917 182.215 437.868C182.235 437.812 182.278 437.776 182.342 437.761L183.651 437.449L182.637 433.311L181.358 433.847C181.298 433.861 181.24 433.818 181.181 433.719C181.122 433.619 181.08 433.515 181.053 433.408C181.031 433.316 181.07 433.244 181.171 433.192L182.987 432.332C183.051 432.316 183.118 432.32 183.186 432.344C183.254 432.362 183.293 432.395 183.305 432.444L184.483 437.25L185.557 436.994C185.621 436.979 185.673 436.992 185.712 437.034C185.755 437.069 185.789 437.138 185.814 437.24L185.839 437.345C185.864 437.447 185.867 437.526 185.846 437.582C185.83 437.632 185.789 437.664 185.725 437.679L182.51 438.446ZM186.736 437.438C186.687 437.45 186.632 437.409 186.569 437.316C186.505 437.217 186.461 437.12 186.437 437.023C186.421 436.958 186.422 436.913 186.438 436.886L187.881 433.81C188.016 433.499 188.096 433.27 188.123 433.121C188.149 432.973 188.141 432.812 188.099 432.64C188.04 432.398 187.907 432.228 187.7 432.129C187.499 432.029 187.256 432.013 186.97 432.081C186.771 432.129 186.606 432.2 186.475 432.293C186.348 432.381 186.223 432.485 186.099 432.605C186.016 432.688 185.961 432.732 185.934 432.738C185.87 432.754 185.787 432.717 185.685 432.627C185.587 432.531 185.529 432.445 185.511 432.37C185.482 432.252 185.536 432.125 185.674 431.989C185.817 431.853 185.998 431.73 186.216 431.621C186.439 431.505 186.65 431.424 186.849 431.376C187.387 431.248 187.842 431.276 188.212 431.461C188.582 431.646 188.821 431.959 188.929 432.4C188.988 432.641 189.006 432.865 188.982 433.07C188.958 433.275 188.882 433.532 188.752 433.842C188.628 434.15 188.41 434.629 188.096 435.279L187.498 436.539L189.687 436.017C189.752 436.002 189.803 436.012 189.84 436.049C189.883 436.084 189.917 436.153 189.942 436.255L189.968 436.36C189.993 436.462 189.995 436.541 189.975 436.597C189.958 436.647 189.918 436.679 189.853 436.695L186.736 437.438Z" fill="black"/>
<path d="M201.583 490.784V490.769L201.567 490.753" stroke="black" stroke-width="2.7052" stroke-miterlimit="10" stroke-linecap="round" stroke-linejoin="round"/>
<path d="M201.583 490.769L201.567 490.753" stroke="black" stroke-width="2.7052" stroke-miterlimit="10" stroke-linecap="round" stroke-linejoin="round"/>
<path d="M201.583 490.784V490.769" stroke="black" stroke-width="2.7052" stroke-miterlimit="10" stroke-linecap="round" stroke-linejoin="round"/>
<path d="M181.976 410.761C137.24 421.452 109.736 465.934 120.56 510.135C131.384 554.32 176.422 581.485 221.174 570.794C265.911 560.104 293.414 515.621 282.59 471.42C271.766 427.219 226.729 400.07 181.976 410.761ZM217.724 556.759C180.821 565.574 143.68 543.176 134.755 506.728C125.83 470.279 148.507 433.596 185.41 424.781C222.314 415.965 259.454 438.363 268.38 474.812C277.305 511.26 254.628 547.944 217.724 556.759Z" fill="#A1ABAD"/>
<path d="M217.826 501.209C223.671 492.329 221.12 480.451 212.129 474.679C203.139 468.906 191.112 471.426 185.268 480.306C179.423 489.186 181.974 501.064 190.965 506.836C199.956 512.609 211.982 510.089 217.826 501.209Z" fill="#A1ABAD"/>
<path d="M212.847 498.654C217.261 492.507 215.794 483.99 209.57 479.63C203.347 475.271 194.723 476.72 190.309 482.867C185.895 489.014 187.363 497.531 193.586 501.89C199.81 506.25 208.433 504.801 212.847 498.654Z" fill="#3E2344"/>
<path d="M180.694 405.477C132.999 416.871 103.691 464.292 115.227 511.4C126.764 558.508 174.776 587.454 222.472 576.06C270.168 564.666 299.475 517.245 287.939 470.137C276.387 423.045 228.375 394.082 180.694 405.477ZM218.801 561.118C179.46 570.512 139.866 546.629 130.356 507.789C120.845 468.934 145.025 429.828 184.35 420.434C223.69 411.041 263.284 434.923 272.795 473.763C282.305 512.603 258.125 551.725 218.801 561.118Z" fill="#3E2344"/>
<g opacity="0.5">
<g opacity="0.5">
<g opacity="0.5">
<path opacity="0.5" d="M139.328 547.036C139.756 547.271 140.056 547.614 140.389 547.943C140.674 548.302 141.006 548.599 141.227 549.037C141.481 549.521 141.307 549.974 140.848 550.037C140.658 550.068 140.452 550.006 140.246 549.912C139.803 549.693 139.439 549.38 139.123 549.052C138.822 548.693 138.521 548.333 138.331 547.896C138.11 547.38 138.3 546.942 138.759 546.895C138.933 546.864 139.139 546.927 139.328 547.036Z" fill="white"/>
</g>
<g opacity="0.5">
<path opacity="0.5" d="M142.968 550.74C143.411 550.959 143.743 551.272 144.092 551.569C144.424 551.881 144.772 552.178 145.009 552.6C145.294 553.069 145.152 553.538 144.709 553.616C144.519 553.647 144.313 553.616 144.107 553.538C143.648 553.35 143.285 553.053 142.905 552.756C142.588 552.413 142.256 552.084 142.034 551.647C141.781 551.147 141.939 550.693 142.398 550.631C142.572 550.6 142.778 550.646 142.968 550.74Z" fill="white"/>
</g>
<g opacity="0.5">
<path opacity="0.5" d="M146.893 554.21C147.351 554.398 147.7 554.694 148.064 554.96C148.412 555.257 148.776 555.539 149.061 555.929C149.377 556.383 149.282 556.851 148.823 556.976C148.633 557.023 148.428 557.008 148.206 556.93C147.731 556.773 147.351 556.492 146.956 556.226C146.608 555.914 146.26 555.601 146.006 555.179C145.706 554.694 145.848 554.226 146.291 554.132C146.481 554.101 146.687 554.132 146.893 554.21Z" fill="white"/>
</g>
<g opacity="0.5">
<path opacity="0.5" d="M154.457 559.681C154.932 559.807 155.327 560.041 155.739 560.276C156.119 560.541 156.498 560.807 156.799 561.167C157.179 561.573 157.131 562.042 156.704 562.214C156.53 562.277 156.308 562.293 156.087 562.246C155.596 562.121 155.201 561.87 154.789 561.636C154.409 561.37 154.014 561.104 153.697 560.729C153.333 560.291 153.413 559.822 153.84 559.666C154.03 559.619 154.235 559.619 154.457 559.681Z" fill="white"/>
</g>
<g opacity="0.5">
<path opacity="0.5" d="M160.217 563.057C160.534 563.057 160.787 563.182 161.056 563.307C161.293 563.464 161.531 563.605 161.705 563.871C162.037 564.373 161.863 564.858 161.278 564.984C161.214 564.999 161.135 564.999 161.056 564.999C160.724 564.999 160.47 564.858 160.217 564.749C159.98 564.592 159.727 564.451 159.568 564.185C159.236 563.668 159.442 563.182 160.012 563.088C160.059 563.057 160.138 563.057 160.217 563.057Z" fill="white"/>
</g>
<g opacity="0.5">
<path opacity="0.5" d="M165.297 565.589C165.629 565.573 165.882 565.683 166.151 565.777C166.405 565.918 166.642 566.043 166.832 566.294C167.196 566.779 167.038 567.296 166.468 567.422C166.405 567.437 166.326 567.453 166.246 567.453C165.914 567.469 165.661 567.359 165.392 567.249C165.139 567.108 164.885 566.983 164.696 566.717C164.332 566.231 164.506 565.73 165.075 565.604C165.139 565.604 165.218 565.604 165.297 565.589Z" fill="white"/>
</g>
</g>
<g opacity="0.5">
<g opacity="0.5">
<path opacity="0.5" d="M119.088 503.351C119.706 507.102 120.608 510.791 121.62 514.448C122.633 518.105 123.947 521.685 125.387 525.186C126.922 528.655 128.536 532.11 130.546 535.345C132.46 538.643 134.723 541.738 137.065 544.754C137.414 545.161 137.461 545.661 137.16 545.864C136.875 546.067 136.369 545.926 136.021 545.551C133.521 542.566 131.131 539.456 129.137 536.127C127.048 532.844 125.371 529.343 123.788 525.811C122.348 522.232 121.035 518.59 120.038 514.854C119.057 511.135 118.25 507.352 117.759 503.538C117.68 503.007 117.917 502.554 118.281 502.507C118.661 502.491 119.009 502.851 119.088 503.351Z" fill="white"/>
</g>
<g opacity="0.5">
<path opacity="0.5" d="M117.554 500.881C117.348 500.522 117.285 500.131 117.222 499.756C117.19 499.365 117.143 498.99 117.269 498.584C117.428 498.037 117.887 497.802 118.282 498.068C118.409 498.146 118.519 498.287 118.599 498.427C118.789 498.787 118.852 499.162 118.915 499.537C118.947 499.912 118.978 500.303 118.868 500.694C118.725 501.241 118.282 501.491 117.871 501.225C117.744 501.163 117.633 501.022 117.554 500.881Z" fill="white"/>
</g>
<g opacity="0.5">
<path opacity="0.5" d="M117.079 496.505C116.889 496.13 116.842 495.755 116.778 495.364C116.778 494.973 116.763 494.583 116.889 494.192C117.063 493.645 117.538 493.426 117.918 493.707C118.044 493.801 118.139 493.926 118.218 494.082C118.393 494.457 118.44 494.833 118.488 495.208C118.488 495.583 118.519 495.973 118.408 496.364C118.25 496.911 117.791 497.13 117.396 496.864C117.253 496.786 117.158 496.661 117.079 496.505Z" fill="white"/>
</g>
<g opacity="0.5">
<path opacity="0.5" d="M116.762 492.129C116.557 490.582 116.462 489.003 116.446 487.44C116.446 485.877 116.493 484.298 116.699 482.735C116.778 482.203 117.126 481.844 117.49 481.922C117.791 481.985 117.997 482.344 118.028 482.751C118.139 484.298 118.107 485.845 118.155 487.393C118.123 488.94 118.186 490.488 118.092 492.035C118.076 492.567 117.759 492.957 117.379 492.895C117.079 492.864 116.826 492.535 116.762 492.129Z" fill="white"/>
</g>
<g opacity="0.5">
<path opacity="0.5" d="M116.905 478.753C116.763 478.518 116.778 478.283 116.778 478.048C116.826 477.813 116.842 477.578 117.016 477.359C117.411 476.842 117.997 476.873 118.329 477.406L118.345 477.437C118.487 477.672 118.472 477.907 118.472 478.142C118.424 478.377 118.408 478.597 118.234 478.832C117.839 479.349 117.253 479.333 116.921 478.8L116.905 478.753Z" fill="white"/>
</g>
<g opacity="0.5">
<path opacity="0.5" d="M117.333 474.049C117.206 473.798 117.238 473.563 117.238 473.328C117.285 473.093 117.333 472.858 117.523 472.639C117.966 472.138 118.536 472.232 118.82 472.78L118.836 472.811C118.963 473.062 118.931 473.281 118.931 473.516C118.884 473.736 118.836 473.971 118.646 474.174C118.235 474.66 117.649 474.629 117.349 474.08L117.333 474.049Z" fill="white"/>
</g>
</g>
</g>
<g opacity="0.5">
<g opacity="0.5">
<g opacity="0.5">
<path opacity="0.5" d="M264.06 434.548C263.632 434.314 263.332 433.986 263.015 433.673C262.73 433.329 262.398 433.032 262.192 432.61C261.955 432.126 262.113 431.688 262.572 431.626C262.762 431.594 262.968 431.641 263.173 431.735C263.616 431.954 263.965 432.251 264.297 432.563C264.582 432.907 264.882 433.251 265.072 433.689C265.294 434.189 265.088 434.627 264.645 434.658C264.455 434.705 264.249 434.658 264.06 434.548Z" fill="white"/>
</g>
<g opacity="0.5">
<path opacity="0.5" d="M260.436 430.954C259.992 430.751 259.676 430.439 259.328 430.157C258.996 429.86 258.663 429.563 258.41 429.157C258.125 428.688 258.268 428.251 258.727 428.157C258.916 428.126 259.122 428.157 259.328 428.235C259.787 428.422 260.151 428.704 260.515 428.985C260.831 429.313 261.164 429.642 261.369 430.064C261.622 430.548 261.464 431.001 261.005 431.064C260.847 431.079 260.641 431.048 260.436 430.954Z" fill="white"/>
</g>
<g opacity="0.5">
<path opacity="0.5" d="M256.543 427.593C256.084 427.421 255.751 427.124 255.372 426.874C255.023 426.593 254.659 426.327 254.39 425.936C254.074 425.498 254.185 425.03 254.628 424.92C254.818 424.873 255.023 424.889 255.245 424.967C255.72 425.123 256.1 425.389 256.495 425.639C256.843 425.936 257.191 426.249 257.445 426.655C257.729 427.124 257.603 427.577 257.16 427.671C256.954 427.702 256.748 427.687 256.543 427.593Z" fill="white"/>
</g>
<g opacity="0.5">
<path opacity="0.5" d="M249.042 422.313C248.567 422.188 248.171 421.953 247.776 421.734C247.396 421.484 247.016 421.218 246.716 420.858C246.352 420.466 246.383 419.997 246.826 419.841C247 419.778 247.222 419.762 247.444 419.809C247.918 419.919 248.33 420.169 248.725 420.388C249.105 420.654 249.501 420.905 249.801 421.265C250.15 421.687 250.086 422.156 249.643 422.297C249.469 422.375 249.248 422.36 249.042 422.313Z" fill="white"/>
</g>
<g opacity="0.5">
<path opacity="0.5" d="M243.297 419.068C242.981 419.068 242.728 418.943 242.474 418.833C242.237 418.692 242 418.551 241.841 418.285C241.509 417.799 241.683 417.329 242.284 417.204C242.348 417.188 242.427 417.188 242.506 417.188C242.838 417.188 243.092 417.314 243.345 417.439C243.582 417.596 243.819 417.737 243.994 417.987C244.326 418.488 244.104 418.958 243.535 419.052C243.456 419.052 243.376 419.068 243.297 419.068Z" fill="white"/>
</g>
<g opacity="0.5">
<path opacity="0.5" d="M238.249 416.61C237.917 416.625 237.664 416.516 237.41 416.422C237.173 416.281 236.92 416.171 236.73 415.92C236.366 415.435 236.524 414.949 237.094 414.824C237.157 414.808 237.236 414.792 237.316 414.792C237.648 414.777 237.901 414.886 238.17 414.98C238.423 415.121 238.676 415.247 238.866 415.497C239.23 415.967 239.056 416.469 238.487 416.594C238.407 416.594 238.328 416.61 238.249 416.61Z" fill="white"/>
</g>
</g>
<g opacity="0.5">
<g opacity="0.5">
<path opacity="0.5" d="M283.999 477.03C283.397 473.373 282.527 469.778 281.546 466.214C280.565 462.651 279.267 459.181 277.843 455.774C276.339 452.398 274.741 449.037 272.747 445.896C270.864 442.692 268.617 439.691 266.291 436.752C265.943 436.362 265.911 435.877 266.196 435.658C266.481 435.455 266.987 435.596 267.335 435.955C269.82 438.862 272.193 441.863 274.156 445.114C276.213 448.303 277.874 451.71 279.425 455.149C280.85 458.634 282.131 462.182 283.097 465.808C284.046 469.434 284.837 473.107 285.312 476.827C285.391 477.343 285.154 477.796 284.774 477.827C284.426 477.859 284.094 477.499 283.999 477.03Z" fill="white"/>
</g>
<g opacity="0.5">
<path opacity="0.5" d="M285.518 479.422C285.724 479.765 285.771 480.141 285.85 480.516C285.866 480.891 285.913 481.266 285.787 481.657C285.613 482.204 285.17 482.422 284.774 482.157C284.647 482.079 284.537 481.953 284.458 481.813C284.268 481.453 284.204 481.094 284.141 480.734C284.109 480.359 284.078 480 284.189 479.609C284.331 479.078 284.79 478.828 285.186 479.078C285.328 479.156 285.439 479.281 285.518 479.422Z" fill="white"/>
</g>
<g opacity="0.5">
<path opacity="0.5" d="M285.977 483.673C286.167 484.032 286.214 484.407 286.261 484.782C286.261 485.158 286.277 485.533 286.135 485.923C285.945 486.455 285.486 486.674 285.106 486.392C284.98 486.298 284.885 486.173 284.806 486.033C284.632 485.673 284.6 485.298 284.552 484.939C284.552 484.564 284.521 484.204 284.647 483.813C284.821 483.282 285.265 483.063 285.66 483.313C285.787 483.407 285.898 483.532 285.977 483.673Z" fill="white"/>
</g>
<g opacity="0.5">
<path opacity="0.5" d="M286.262 487.955C286.467 489.471 286.531 491.003 286.547 492.519C286.547 494.051 286.483 495.582 286.278 497.099C286.198 497.614 285.85 497.974 285.486 497.896C285.186 497.833 284.98 497.489 284.948 497.099C284.853 495.582 284.885 494.082 284.853 492.566C284.885 491.05 284.837 489.55 284.948 488.034C284.98 487.518 285.296 487.143 285.66 487.19C285.945 487.236 286.198 487.549 286.262 487.955Z" fill="white"/>
</g>
<g opacity="0.5">
<path opacity="0.5" d="M286.04 500.992C286.182 501.227 286.167 501.462 286.167 501.681C286.119 501.9 286.087 502.135 285.913 502.355C285.518 502.856 284.932 502.825 284.6 502.308L284.584 502.276C284.442 502.041 284.458 501.822 284.458 501.587C284.505 501.368 284.537 501.133 284.711 500.913C285.106 500.412 285.692 500.412 286.024 500.929L286.04 500.992Z" fill="white"/>
</g>
<g opacity="0.5">
<path opacity="0.5" d="M285.581 505.587C285.708 505.822 285.676 506.057 285.676 506.292C285.629 506.511 285.581 506.746 285.391 506.966C284.948 507.451 284.378 507.373 284.094 506.84L284.078 506.809C283.967 506.574 283.983 506.355 283.999 506.12C284.046 505.9 284.094 505.681 284.283 505.462C284.695 504.976 285.28 505.007 285.581 505.54V505.587Z" fill="white"/>
</g>
</g>
</g>
<path d="M201.568 292.255V393.193" stroke="black" stroke-width="0.2392" stroke-miterlimit="10"/>
<path d="M201.568 342.724V342.708" stroke="black" stroke-width="1.9133" stroke-miterlimit="10" stroke-linecap="round" stroke-linejoin="round"/>
<path d="M201.568 342.724V342.708" stroke="black" stroke-width="1.9133" stroke-miterlimit="10" stroke-linecap="round" stroke-linejoin="round"/>
<path d="M201.568 284.486C169.016 284.486 142.62 310.557 142.62 342.707C142.62 374.858 169.016 400.929 201.568 400.929C234.119 400.929 260.515 374.858 260.515 342.707C260.515 310.557 234.135 284.486 201.568 284.486ZM201.568 390.738C174.713 390.738 152.954 369.231 152.954 342.723C152.954 316.199 174.729 294.708 201.568 294.708C228.422 294.708 250.181 316.215 250.181 342.723C250.197 369.231 228.422 390.738 201.568 390.738Z" fill="#A1ABAD"/>
<path d="M211.592 351.971C216.767 346.503 216.474 337.928 210.939 332.817C205.403 327.706 196.721 327.995 191.546 333.462C186.371 338.929 186.664 347.505 192.199 352.616C197.735 357.727 206.417 357.438 211.592 351.971Z" fill="#A1ABAD"/>
<path d="M211.347 342.723C211.347 348.053 206.979 352.367 201.583 352.367C196.187 352.367 191.819 348.053 191.819 342.723C191.819 337.394 196.187 333.08 201.583 333.08C206.964 333.064 211.347 337.394 211.347 342.723Z" fill="#3E2344"/>
<path d="M201.568 280.657C166.864 280.657 138.727 308.447 138.727 342.723C138.727 376.999 166.864 404.789 201.568 404.789C236.271 404.789 264.408 376.999 264.408 342.723C264.408 308.447 236.271 280.657 201.568 280.657ZM201.568 393.895C172.94 393.895 149.741 370.982 149.741 342.708C149.741 314.433 172.94 291.52 201.568 291.52C230.195 291.52 253.394 314.433 253.394 342.708C253.394 370.982 230.195 393.895 201.568 393.895Z" fill="#3E2344"/>
<path d="M201.567 495.426C203.34 495.426 204.764 494.004 204.764 492.269V217.388C204.764 215.637 203.324 214.231 201.567 214.231C199.795 214.231 198.371 215.653 198.371 217.388V492.269C198.371 494.02 199.795 495.426 201.567 495.426Z" fill="#FFD25A"/>
<path d="M152.811 212.543C152.811 212.543 183.021 227.203 205.286 227.203C227.552 227.203 250.339 206.259 250.339 206.259C250.339 206.259 250.862 183.753 239.737 183.221C228.612 182.705 220.13 201.023 203.166 203.634C186.201 206.244 167.117 196.303 160.755 199.445C154.394 202.586 152.811 212.543 152.811 212.543Z" fill="#FFD25A"/>
<path d="M153.998 208.213C153.112 210.62 152.811 212.543 152.811 212.543C152.811 212.543 183.021 227.203 205.286 227.203C227.552 227.203 250.339 206.259 250.339 206.259C250.339 206.259 250.387 204.181 250.149 201.274C223.627 222.061 201.631 228.782 153.998 208.213Z" fill="#F99441"/>
<path d="M207.407 342.427C207.407 345.647 204.764 348.257 201.504 348.257C198.244 348.257 195.601 345.647 195.601 342.427C195.601 339.207 198.244 336.596 201.504 336.596C204.764 336.581 207.407 339.191 207.407 342.427Z" fill="#F99441"/>
<path d="M207.407 490.363C207.407 493.583 204.764 496.193 201.504 496.193C198.244 496.193 195.601 493.583 195.601 490.363C195.601 487.143 198.244 484.533 201.504 484.533C204.764 484.533 207.407 487.143 207.407 490.363Z" fill="#F99441"/>
<path d="M202.327 490.395L240.908 484.22L250.624 476.342L238.313 475.78L202.153 489.769C201.805 489.91 201.947 490.457 202.327 490.395Z" fill="#DD4026"/>
<path d="M202.564 489.612L162.433 513.62L152.669 523.185L165.281 517.887L202.992 490.253C203.356 489.956 202.976 489.393 202.564 489.612Z" fill="#DD4026"/>
<path d="M240.449 358.806C243.519 359.963 242.031 363.808 238.961 362.667L199.858 345.693C195.269 343.974 197.88 337.159 202.485 338.894L240.449 358.806Z" fill="#DD4026"/>
<path d="M247.254 358.948L235.306 367.529C233.502 368.826 230.97 368.435 229.657 366.653L228.865 365.59L247.349 352.305L248.14 353.368C249.469 355.15 249.058 357.651 247.254 358.948Z" fill="#FFBE57"/>
<path d="M241.778 359.634C242.538 360.806 242.206 362.354 241.019 363.119C239.832 363.87 238.265 363.541 237.49 362.369C236.73 361.197 237.063 359.65 238.249 358.884C239.436 358.118 241.019 358.462 241.778 359.634Z" fill="#7C4284"/>
<path d="M203.72 341.038C204.479 342.21 204.147 343.758 202.96 344.524C201.773 345.274 200.207 344.946 199.431 343.773C198.656 342.601 199.004 341.054 200.191 340.288C201.378 339.522 202.96 339.866 203.72 341.038Z" fill="#7C4284"/>
<path d="M169.776 172.561C169.776 172.561 169.19 209.651 200.397 210.792C231.603 211.933 230.448 179.407 230.448 179.407L169.776 172.561Z" fill="#19323A"/>
<path d="M225.241 319.591L247.111 334.315C247.111 334.315 250.64 337.972 251.59 339.363C252.523 340.738 254.581 345.287 254.581 345.287C253.694 347.709 248.409 351.789 245.07 352.851L244.231 352.758C244.231 352.758 243.899 353.43 240.576 356.946C237.189 360.541 225.416 368.684 222.678 368.419C222.678 368.419 217.202 363.542 221.317 359.056C231.635 347.834 231.223 343.364 229.562 339.035C227.457 333.58 212.471 330.298 212.471 330.298L225.241 319.591Z" fill="#A1ABAD"/>
<path d="M229.562 345.756C229.562 345.756 232.616 343.209 235.686 343.787C238.598 344.35 240.955 344.897 243.25 342.63C249.137 336.816 245.244 331.861 249.738 332.283L258.98 345.834L222.63 372.389L215.509 362.183L229.562 345.756Z" fill="#3E2344"/>
<path d="M220.826 367.544C220.826 367.544 222.535 368.981 233.913 360.573C245.307 352.179 244.548 348.835 253.884 342.942L255.593 346.428L223.216 372.404L220.826 367.544Z" fill="#7C4284"/>
<path d="M184.429 176.829C169.997 197.741 129.723 265.324 131.875 276.719C134.138 288.754 189.129 323.889 222.361 339.081L236.556 324.108L173.035 268.232C173.035 268.232 242.664 204.759 230.938 178.298C219.212 151.852 201.077 152.68 184.429 176.829Z" fill="#1C3742"/>
<path d="M227.204 183.721C227.204 183.721 201.33 232.814 160.486 269.888C160.486 269.888 157.923 274.452 163.05 279.266C164.189 280.345 227.457 332.736 227.457 332.736" stroke="#234159" stroke-width="0.5" stroke-miterlimit="10"/>
<path d="M227.678 60.7147C225.985 60.7147 194.874 60.2615 188.654 69.2017C182.562 77.9544 169.649 126.188 167.101 174.609C166.326 189.317 204.622 186.41 230.875 183.409C233.518 183.643 235.876 181.705 236.066 179.079C236.73 170.186 239.563 150.43 251.447 133.378C271.181 105.041 275.359 97.6949 274.646 93.131C272.383 78.6109 227.678 60.7147 227.678 60.7147Z" fill="#EFE9DA"/>
<path d="M238.423 41.6151C238.423 41.6151 236.809 49.1018 237.268 55.4475C237.743 61.7932 241.588 67.4824 241.588 67.4824C241.588 67.4824 233.043 75.2348 219.449 74.0313C214.765 70.2958 213.262 66.4196 212.312 63.0905C218.199 58.339 219.703 58.1202 220.652 49.7113C221.475 42.3966 223.754 38.9424 223.754 38.9424L238.423 41.6151Z" fill="#FFB072"/>
<path fill-rule="evenodd" clip-rule="evenodd" d="M237.126 42.4901C237.126 42.4901 236.319 48.1168 233.486 49.883C230.638 51.6648 225.178 56.2912 216.253 53.3216C204.321 49.3516 214.022 31.5024 214.022 31.5024C214.022 31.5024 213.42 23.7187 216.601 18.1858C222.789 7.41684 235.781 6.99484 243.63 15.9507C246.225 18.9204 241.762 33.0341 241.762 33.0341C241.762 33.0341 242.57 31.0178 245.007 33.2685C246.858 34.9722 246.367 37.7855 244.959 40.1925C243.266 43.0997 239.278 44.944 237.126 42.4901Z" fill="#FFB072"/>
<path d="M238.439 41.6149L240.243 39.0673L238.613 37.8482C238.613 37.8482 241.177 32.8937 243.63 35.582C245.655 37.8013 241.209 43.4435 238.439 41.6149Z" fill="#E57E55"/>
<path d="M214.006 31.5182C214.006 31.5182 205.619 39.0831 205.935 46.7261C206.252 54.3847 214.481 59.6675 224.751 57.1824C235.005 54.6973 236.888 47.6013 237.189 42.8968C237.268 41.5995 236.904 37.7233 236.904 37.7233L237.727 34.5817L229.657 45.4757C229.657 45.4757 227.14 39.8802 218.184 38.4579C211.347 37.3794 210.461 41.3181 210.461 41.3181C211.157 38.1609 212.36 34.8943 214.006 31.5182Z" fill="#3E2344"/>
<path fill-rule="evenodd" clip-rule="evenodd" d="M220.985 16.5292C222.061 16.7324 224.593 17.639 224.593 17.639L232.125 17.2482C232.125 17.2482 238.328 18.4204 239.246 20.6399C240.164 22.8593 237.537 28.5173 237.537 28.5173L237.727 34.5973C237.727 34.5973 240.196 31.6433 242.411 31.8152C247.76 32.2059 251.621 22.0622 247.396 14.638C241.462 4.21296 231.983 7.79219 229.957 5.77594C227.932 3.77533 226.776 0.618103 226.776 0.618103C226.776 0.618103 224.608 4.19733 226.349 6.77625C226.349 6.77625 222.868 4.05666 216.791 5.19763C216.791 5.19763 219.101 6.93254 220.541 8.63619C220.541 8.63619 215.05 7.62026 210.129 14.0597L215.62 13.6221C215.62 13.6221 210.983 15.2007 209.1 19.4833C209.1 19.4989 217.74 15.904 220.985 16.5292Z" fill="#3E2344"/>
<path d="M214.797 41.5068C214.829 43.4917 220.146 45.0234 222.852 44.0544C220.036 42.3664 218.184 41.8194 214.797 41.5068Z" fill="white"/>
<path d="M214.861 41.5838C214.987 42.1308 215.62 42.7248 216.269 43.0373C216.918 43.3968 217.63 43.6312 218.358 43.8032C219.798 44.1314 221.365 44.272 222.741 43.8032L222.694 44.2877C221.491 43.5531 220.241 42.9123 218.912 42.4747C218.247 42.2559 217.567 42.084 216.87 41.9589C216.206 41.787 215.43 41.7245 214.861 41.5838ZM214.718 41.4275C215.573 41.4119 216.206 41.5057 216.934 41.5838C217.646 41.6776 218.358 41.8339 219.054 42.0214C220.447 42.4122 221.745 43.0842 222.979 43.8032C223.105 43.8813 223.153 44.0376 223.074 44.1626C223.042 44.2252 222.995 44.2564 222.931 44.272C222.156 44.5534 221.349 44.6003 220.573 44.569C219.782 44.5377 219.007 44.4283 218.247 44.2095C217.488 44.0063 216.76 43.725 216.079 43.3187C215.747 43.1155 215.43 42.8654 215.161 42.5685C214.908 42.2715 214.639 42.0058 214.718 41.4275Z" fill="#E57E55"/>
<path opacity="0.5" d="M218.183 38.443C218.183 38.443 220.7 38.99 220.826 38.3023C220.953 37.6146 215.905 35.5359 215.493 35.9579C215.066 36.3799 217.139 37.8491 218.183 38.443Z" fill="#E57E55"/>
<path d="M220.431 28.0796C220.431 28.0796 220.352 31.3617 219.688 32.3776C219.023 33.3936 216.079 35.316 215.89 35.8317C215.7 36.3475 218.01 38.3168 218.184 38.4418C218.358 38.5669 214.544 36.957 214.988 35.7692C215.415 34.5814 219.165 32.2839 219.434 31.7056C219.672 31.1429 220.431 28.0796 220.431 28.0796Z" fill="#E57E55"/>
<path d="M231.777 29.5679C231.777 29.6774 229.783 28.5051 228.786 28.2707C227.805 28.0363 223.928 27.6768 223.706 27.2392C223.485 26.8015 224.07 24.6447 224.07 24.6447C224.07 24.6447 229.625 25.1292 230.606 25.6449C231.587 26.1763 231.714 28.6458 231.777 29.5679Z" fill="#3E2344"/>
<path d="M227.252 33.3977C227.062 34.1183 226.365 33.993 225.511 33.7736C224.656 33.5387 223.976 33.288 224.166 32.5674C224.356 31.8468 225.21 31.4551 226.065 31.6744C226.919 31.9094 227.441 32.677 227.252 33.3977Z" fill="#3E2344"/>
<path d="M214.322 26.3759C214.291 26.4697 215.525 25.8289 216.221 25.8758C216.918 25.9227 220.082 27.0167 220.336 26.6573C220.605 26.2978 221.032 23.9534 221.032 23.9534C221.032 23.9534 216.554 22.9219 215.778 23.1563C215.003 23.3907 214.623 25.5163 214.322 26.3759Z" fill="#3E2344"/>
<path d="M218.074 31.5999C217.9 32.2892 217.377 32.1169 216.618 31.9446C215.858 31.7566 215.178 31.6469 215.336 30.9576C215.51 30.2683 216.254 29.8453 216.998 30.0333C217.773 30.2056 218.248 30.9106 218.074 31.5999Z" fill="#3E2344"/>
<path d="M453.15 50.5865L453.562 46.3196C453.688 44.9285 452.422 43.7876 451.03 44.0533L380.372 57.5574L370.893 151.946L442.627 143.568C443.624 143.459 444.399 142.662 444.494 141.677L450.982 73.3279L451.852 73.2028C453.134 73.0153 454.115 71.9837 454.242 70.7177L455.983 53.65C456.173 51.9307 454.764 50.5709 453.15 50.5865Z" fill="#DD4026"/>
<path d="M365.955 122.499C365.955 122.499 372.412 124.516 375.434 122.937C378.441 121.358 382.16 105.353 376.59 103.79C371.004 102.212 363.756 108.511 363.044 111.746C362.332 114.981 365.955 122.499 365.955 122.499Z" fill="#FFB072"/>
<path d="M370.893 151.946L440.743 141.224L449.859 45.5693L379.612 61.1991L370.893 151.946Z" fill="white"/>
<path d="M379.96 57.5731L370.893 151.962L435.949 138.942C437.373 138.661 438.433 137.442 438.575 135.957L446.963 43.4594C447.168 41.1149 445.064 39.2863 442.864 39.8958L379.96 57.5731Z" fill="#FD6141"/>
<path d="M390.468 70.3427L388.901 85.1441L430.505 75.7975L431.676 60.0114L390.468 70.3427Z" fill="white"/>
<path d="M362.996 110.042C362.996 110.042 366.335 103.54 367.775 101.852C369.215 100.164 374.406 97.7105 376.337 97.5229C378.251 97.3197 379.739 98.3825 381.606 98.4451C383.315 98.492 385.119 98.32 386.987 97.8668C387.541 97.8199 388.047 98.2106 388.126 98.7577C388.458 100.821 388.174 105.353 378.41 103.603L369.817 117.81C367.68 119.655 360.844 111.902 362.996 110.042Z" fill="#FFB072"/>
<path d="M248.045 110.464C248.045 110.464 289.348 146.788 298.415 148.476C307.467 150.148 366.81 124.234 366.81 124.234C369.041 122.734 364.61 107.76 361.35 108.073L302.941 122.202C302.941 122.202 279.172 88.1138 261.638 78.0482C244.089 67.9826 232.774 99.8517 248.045 110.464Z" fill="#3E2344"/>
<path d="M214.607 60.9961C214.607 60.9961 193.655 96.507 183.163 125.797C172.814 154.697 167.497 177.579 167.497 177.579C167.497 177.579 159.885 107.932 187.531 65.9976C191.392 60.1208 214.607 60.9961 214.607 60.9961Z" fill="#3E2344"/>
<path d="M215.541 70.9685C215.541 70.9685 216.538 76.6576 219.703 77.2359C222.883 77.8298 226.65 72.9222 226.65 72.9222C226.65 72.9222 226.776 69.4838 221.744 68.9524C216.728 68.421 215.541 70.9685 215.541 70.9685Z" fill="#3E2344"/>
<path d="M217.962 57.9671C217.551 61.3431 219.006 64.8286 221.776 69.0017L211.157 78.2076C209.591 72.2683 209.148 66.2978 211.917 60.9524L217.962 57.9671Z" fill="white"/>
<path d="M237.838 56.5415C235.559 62.4496 229.91 66.4196 221.744 68.9672L228.438 81.94C235.433 78.5796 240.481 73.8437 242.475 66.951L237.838 56.5415Z" fill="white"/>
<path d="M218.563 75.1723C218.563 75.1723 191.076 120.374 187.309 163.215L194.715 176.954L204.796 163.59C207.692 133.925 212.835 104.509 221.554 75.9538L218.563 75.1723Z" fill="#3E2344"/>
<path d="M238.439 41.6149L240.243 39.0673L238.613 37.8482C238.613 37.8482 241.177 32.8937 243.63 35.5819C245.655 37.8013 241.209 43.4435 238.439 41.6149Z" fill="#E57E55"/>
<g opacity="0.5">
<g opacity="0.5">
<g opacity="0.5">
<path opacity="0.5" d="M150.026 370.56C150.279 370.795 150.438 371.077 150.596 371.343C150.738 371.625 150.912 371.906 150.976 372.235C151.055 372.611 150.865 372.892 150.548 372.861C150.422 372.845 150.279 372.783 150.153 372.673C149.884 372.439 149.694 372.172 149.52 371.891C149.377 371.593 149.235 371.296 149.172 370.967C149.108 370.576 149.314 370.31 149.631 370.357C149.789 370.388 149.915 370.451 150.026 370.56Z" fill="white"/>
</g>
<g opacity="0.5">
<path opacity="0.5" d="M151.909 373.702C152.178 373.921 152.352 374.187 152.542 374.454C152.716 374.72 152.906 374.986 153.001 375.315C153.112 375.691 152.938 375.989 152.621 375.973C152.495 375.973 152.352 375.911 152.226 375.817C151.941 375.613 151.735 375.347 151.529 375.08C151.371 374.798 151.197 374.516 151.118 374.172C151.023 373.78 151.213 373.498 151.529 373.529C151.656 373.545 151.798 373.608 151.909 373.702Z" fill="white"/>
</g>
<g opacity="0.5">
<path opacity="0.5" d="M154.014 376.718C154.299 376.922 154.489 377.188 154.694 377.423C154.884 377.674 155.09 377.94 155.217 378.253C155.359 378.614 155.201 378.927 154.884 378.927C154.742 378.927 154.599 378.88 154.473 378.802C154.172 378.614 153.951 378.363 153.729 378.112C153.539 377.846 153.365 377.564 153.254 377.235C153.128 376.859 153.302 376.561 153.618 376.561C153.745 376.577 153.887 376.624 154.014 376.718Z" fill="white"/>
</g>
<g opacity="0.5">
<path opacity="0.5" d="M158.271 381.705C158.572 381.877 158.809 382.096 159.046 382.331C159.268 382.582 159.474 382.817 159.632 383.13C159.822 383.475 159.711 383.788 159.395 383.835C159.268 383.851 159.11 383.82 158.967 383.757C158.651 383.6 158.429 383.35 158.176 383.13C157.954 382.88 157.733 382.629 157.591 382.331C157.416 381.971 157.543 381.658 157.875 381.627C157.986 381.595 158.144 381.627 158.271 381.705Z" fill="white"/>
</g>
<g opacity="0.5">
<path opacity="0.5" d="M161.657 384.956C161.879 385.019 162.021 385.144 162.18 385.269C162.322 385.41 162.449 385.551 162.528 385.755C162.67 386.147 162.465 386.46 162.053 386.444C162.006 386.444 161.958 386.429 161.895 386.429C161.673 386.366 161.515 386.241 161.357 386.115C161.214 385.974 161.072 385.833 161.009 385.614C160.866 385.207 161.088 384.909 161.499 384.94C161.547 384.94 161.61 384.956 161.657 384.956Z" fill="white"/>
</g>
<g opacity="0.5">
<path opacity="0.5" d="M164.712 387.534C164.933 387.581 165.091 387.691 165.266 387.8C165.408 387.941 165.566 388.066 165.645 388.27C165.804 388.662 165.614 388.991 165.218 388.991C165.171 388.991 165.123 388.991 165.06 388.975C164.838 388.928 164.664 388.818 164.506 388.693C164.364 388.552 164.205 388.427 164.11 388.223C163.936 387.831 164.142 387.518 164.553 387.518C164.601 387.518 164.664 387.518 164.712 387.534Z" fill="white"/>
</g>
</g>
<g opacity="0.5">
<g opacity="0.5">
<path opacity="0.5" d="M143.491 337.315C143.285 339.988 143.285 342.661 143.364 345.333C143.443 348.006 143.744 350.663 144.139 353.305C144.598 355.93 145.136 358.556 145.975 361.104C146.735 363.683 147.763 366.168 148.871 368.622C149.045 368.95 148.982 369.309 148.744 369.403C148.507 369.497 148.191 369.325 148.016 368.997C146.798 366.543 145.69 364.027 144.883 361.416C144.013 358.822 143.443 356.149 142.953 353.476C142.557 350.788 142.272 348.069 142.225 345.365C142.177 342.645 142.256 339.941 142.557 337.237C142.589 336.862 142.826 336.581 143.095 336.612C143.348 336.659 143.522 336.971 143.491 337.315Z" fill="white"/>
</g>
<g opacity="0.5">
<path opacity="0.5" d="M142.858 335.381C142.779 335.099 142.795 334.833 142.811 334.551C142.858 334.285 142.89 334.003 143.048 333.752C143.254 333.392 143.602 333.314 143.823 333.564C143.903 333.643 143.95 333.752 143.982 333.862C144.045 334.144 144.029 334.41 144.013 334.676C143.966 334.942 143.934 335.209 143.792 335.459C143.602 335.819 143.254 335.913 143.016 335.663C142.953 335.6 142.89 335.506 142.858 335.381Z" fill="white"/>
</g>
<g opacity="0.5">
<path opacity="0.5" d="M143.253 332.319C143.19 332.037 143.206 331.755 143.237 331.489C143.301 331.222 143.348 330.956 143.506 330.705C143.728 330.361 144.076 330.282 144.298 330.549C144.361 330.627 144.408 330.737 144.44 330.846C144.503 331.128 144.456 331.395 144.424 331.661C144.361 331.927 144.329 332.194 144.171 332.444C143.965 332.789 143.617 332.867 143.396 332.617C143.348 332.538 143.285 332.429 143.253 332.319Z" fill="white"/>
</g>
<g opacity="0.5">
<path opacity="0.5" d="M143.775 329.25C143.886 328.156 144.092 327.062 144.345 325.983C144.598 324.905 144.899 323.842 145.31 322.795C145.453 322.436 145.754 322.248 145.991 322.373C146.181 322.467 146.276 322.748 146.228 323.029C146.038 324.108 145.769 325.171 145.532 326.233C145.247 327.296 145.041 328.359 144.709 329.406C144.598 329.766 144.329 329.984 144.076 329.891C143.87 329.812 143.76 329.547 143.775 329.25Z" fill="white"/>
</g>
<g opacity="0.5">
<path opacity="0.5" d="M146.117 320.109C146.07 319.921 146.118 319.765 146.149 319.608C146.212 319.451 146.276 319.295 146.434 319.169C146.798 318.887 147.194 318.997 147.32 319.42V319.436C147.368 319.624 147.336 319.78 147.289 319.937C147.225 320.094 147.162 320.235 147.004 320.36C146.656 320.642 146.244 320.548 146.117 320.125V320.109Z" fill="white"/>
</g>
<g opacity="0.5">
<path opacity="0.5" d="M147.209 316.968C147.162 316.78 147.225 316.623 147.273 316.466C147.352 316.31 147.415 316.169 147.589 316.043C147.969 315.777 148.349 315.934 148.459 316.357V316.372C148.507 316.56 148.444 316.717 148.396 316.874C148.317 317.015 148.254 317.171 148.095 317.281C147.732 317.547 147.336 317.422 147.225 316.999L147.209 316.968Z" fill="white"/>
</g>
</g>
</g>
<g opacity="0.5">
<g opacity="0.5">
<g opacity="0.5">
<path opacity="0.5" d="M254.359 313.923C254.106 313.688 253.948 313.422 253.79 313.155C253.647 312.873 253.473 312.607 253.41 312.294C253.331 311.934 253.521 311.652 253.837 311.683C253.964 311.699 254.106 311.762 254.233 311.856C254.502 312.075 254.692 312.341 254.866 312.607C255.008 312.889 255.151 313.187 255.214 313.516C255.277 313.891 255.071 314.158 254.755 314.111C254.612 314.095 254.47 314.017 254.359 313.923Z" fill="white"/>
</g>
<g opacity="0.5">
<path opacity="0.5" d="M252.492 310.86C252.223 310.641 252.049 310.39 251.859 310.124C251.685 309.857 251.495 309.607 251.4 309.293C251.289 308.933 251.463 308.651 251.78 308.651C251.906 308.651 252.049 308.714 252.175 308.808C252.46 309.011 252.666 309.262 252.872 309.513C253.03 309.795 253.204 310.061 253.283 310.39C253.378 310.766 253.188 311.048 252.872 311.017C252.745 311.017 252.603 310.954 252.492 310.86Z" fill="white"/>
</g>
<g opacity="0.5">
<path opacity="0.5" d="M250.387 307.92C250.102 307.732 249.912 307.466 249.707 307.231C249.517 306.98 249.311 306.73 249.185 306.432C249.042 306.072 249.2 305.774 249.517 305.774C249.659 305.774 249.802 305.821 249.928 305.899C250.229 306.087 250.45 306.322 250.672 306.573C250.862 306.839 251.036 307.106 251.147 307.419C251.273 307.795 251.099 308.077 250.783 308.077C250.64 308.061 250.498 308.014 250.387 307.92Z" fill="white"/>
</g>
<g opacity="0.5">
<path opacity="0.5" d="M246.114 303.075C245.814 302.918 245.576 302.683 245.339 302.464C245.117 302.229 244.912 301.994 244.753 301.697C244.564 301.368 244.674 301.054 244.991 301.007C245.133 300.992 245.276 301.023 245.418 301.086C245.735 301.242 245.956 301.477 246.209 301.697C246.431 301.947 246.652 302.182 246.795 302.48C246.969 302.824 246.842 303.138 246.51 303.169C246.399 303.185 246.257 303.138 246.114 303.075Z" fill="white"/>
</g>
<g opacity="0.5">
<path opacity="0.5" d="M242.744 299.906C242.522 299.843 242.38 299.733 242.222 299.608C242.079 299.467 241.952 299.342 241.873 299.122C241.731 298.731 241.937 298.449 242.348 298.449C242.396 298.449 242.443 298.464 242.506 298.464C242.728 298.527 242.886 298.652 243.044 298.762C243.187 298.903 243.329 299.044 243.393 299.248C243.535 299.639 243.313 299.937 242.902 299.906C242.839 299.921 242.791 299.921 242.744 299.906Z" fill="white"/>
</g>
<g opacity="0.5">
<path opacity="0.5" d="M239.69 297.4C239.468 297.353 239.31 297.243 239.136 297.134C238.993 297.008 238.835 296.883 238.756 296.679C238.598 296.288 238.788 295.974 239.183 295.99C239.231 295.99 239.278 295.99 239.341 296.006C239.563 296.053 239.737 296.162 239.895 296.272C240.038 296.413 240.196 296.538 240.291 296.726C240.465 297.118 240.259 297.416 239.848 297.416C239.8 297.416 239.737 297.4 239.69 297.4Z" fill="white"/>
</g>
</g>
<g opacity="0.5">
<g opacity="0.5">
<path opacity="0.5" d="M260.895 346.271C261.101 343.677 261.101 341.066 261.021 338.456C260.942 335.846 260.642 333.267 260.246 330.688C259.787 328.125 259.249 325.562 258.41 323.092C257.651 320.591 256.622 318.169 255.514 315.777C255.34 315.449 255.404 315.121 255.641 315.012C255.878 314.918 256.195 315.09 256.369 315.402C257.587 317.794 258.695 320.248 259.502 322.795C260.373 325.327 260.942 327.922 261.433 330.532C261.828 333.158 262.113 335.784 262.161 338.441C262.208 341.082 262.129 343.724 261.828 346.349C261.797 346.709 261.559 346.99 261.29 346.959C261.053 346.912 260.879 346.615 260.895 346.271Z" fill="white"/>
</g>
<g opacity="0.5">
<path opacity="0.5" d="M261.544 348.163C261.623 348.445 261.607 348.696 261.591 348.962C261.544 349.229 261.512 349.495 261.354 349.746C261.148 350.09 260.8 350.169 260.578 349.934C260.499 349.855 260.452 349.761 260.42 349.636C260.357 349.37 260.373 349.103 260.388 348.837C260.436 348.571 260.468 348.32 260.61 348.069C260.8 347.725 261.148 347.631 261.385 347.866C261.449 347.944 261.512 348.054 261.544 348.163Z" fill="white"/>
</g>
<g opacity="0.5">
<path opacity="0.5" d="M261.132 351.149C261.195 351.431 261.18 351.697 261.148 351.948C261.085 352.214 261.037 352.465 260.879 352.715C260.657 353.06 260.309 353.123 260.088 352.872C260.024 352.794 259.977 352.684 259.945 352.574C259.882 352.292 259.93 352.042 259.961 351.775C260.025 351.525 260.056 351.258 260.214 351.008C260.42 350.663 260.768 350.585 260.99 350.836C261.053 350.93 261.101 351.039 261.132 351.149Z" fill="white"/>
</g>
<g opacity="0.5">
<path opacity="0.5" d="M260.61 354.133C260.499 355.196 260.294 356.259 260.04 357.306C259.787 358.353 259.487 359.384 259.075 360.4C258.933 360.744 258.632 360.932 258.395 360.807C258.205 360.713 258.11 360.447 258.157 360.166C258.347 359.119 258.616 358.087 258.854 357.056C259.138 356.024 259.344 354.993 259.676 353.961C259.787 353.617 260.056 353.398 260.309 353.492C260.515 353.586 260.642 353.836 260.61 354.133Z" fill="white"/>
</g>
<g opacity="0.5">
<path opacity="0.5" d="M258.268 363.027C258.315 363.215 258.268 363.372 258.236 363.529C258.173 363.67 258.11 363.826 257.951 363.952C257.587 364.234 257.192 364.108 257.065 363.701V363.685C257.018 363.497 257.049 363.356 257.097 363.2C257.16 363.059 257.223 362.902 257.382 362.777C257.73 362.495 258.141 362.604 258.268 363.012V363.027Z" fill="white"/>
</g>
<g opacity="0.5">
<path opacity="0.5" d="M257.192 366.091C257.24 366.279 257.177 366.436 257.129 366.592C257.05 366.733 256.987 366.89 256.813 366.999C256.433 367.266 256.053 367.109 255.942 366.702V366.686C255.895 366.498 255.958 366.357 256.006 366.201C256.085 366.06 256.148 365.919 256.306 365.793C256.67 365.527 257.066 365.652 257.177 366.06L257.192 366.091Z" fill="white"/>
</g>
</g>
</g>
<path d="M240.971 66.2633C240.971 66.2633 209.844 133.034 226.444 192.036C230.733 207.291 243.392 218.466 258.157 212.324C263.696 210.011 267.984 207.479 268.76 204.947C271.212 196.866 253.014 158.62 255.071 150.133C257.113 141.646 272.89 86.3476 267.984 80.6896C263.063 75.0316 240.971 66.2633 240.971 66.2633Z" fill="#3E2344"/>
<path d="M232.837 102.993L254.232 109.386L253.441 112.215L231.809 105.838L232.837 102.993Z" fill="#7C4284"/>
<path d="M250.5 70.5L169.5 116.5C168.5 120 167 135.5 167 142.5C167 142.5 250 91 265.5 78.5C265.5 78.5 257 72 250.5 70.5Z" fill="#FD6141"/>
<path d="M181.854 121.635L181.829 124.525L181.091 124.974L181.152 121.906C180.937 121.952 180.716 121.97 180.491 121.958C180.27 121.943 180.053 121.871 179.84 121.741C179.626 121.612 179.429 121.398 179.248 121.1C178.969 120.641 178.913 120.196 179.081 119.764C179.245 119.327 179.639 118.919 180.263 118.54L181.669 117.686L184.747 122.753L184.114 123.137L182.838 121.037L181.854 121.635ZM181.368 118.617L180.609 119.078C180.21 119.32 179.947 119.578 179.817 119.851C179.69 120.116 179.724 120.409 179.919 120.731C180.109 121.043 180.358 121.222 180.668 121.267C180.978 121.312 181.348 121.204 181.779 120.942L182.511 120.497L181.368 118.617Z" fill="white"/>
<path d="M185.423 115.405L186.857 114.534C187.485 114.152 188.016 113.959 188.45 113.955C188.886 113.943 189.244 114.169 189.526 114.632C189.707 114.93 189.776 115.229 189.732 115.527C189.686 115.821 189.526 116.09 189.251 116.335L189.272 116.37C189.503 116.275 189.731 116.221 189.954 116.209C190.182 116.193 190.395 116.238 190.595 116.344C190.794 116.45 190.974 116.635 191.134 116.9C191.413 117.359 191.472 117.809 191.31 118.251C191.153 118.689 190.805 119.072 190.266 119.4L188.501 120.472L185.423 115.405ZM187.366 117.178L188.294 116.614C188.726 116.352 188.979 116.104 189.055 115.87C189.129 115.632 189.082 115.375 188.915 115.101C188.745 114.822 188.526 114.683 188.258 114.684C187.991 114.678 187.644 114.804 187.217 115.063L186.388 115.567L187.366 117.178ZM187.69 117.71L188.806 119.548L189.819 118.933C190.264 118.663 190.52 118.387 190.587 118.107C190.654 117.826 190.602 117.544 190.429 117.26C190.268 116.996 190.048 116.838 189.767 116.788C189.488 116.731 189.117 116.843 188.653 117.125L187.69 117.71Z" fill="white"/>
<path d="M196.576 115.567L195.018 114.366L193.028 115.575L193.383 117.506L192.744 117.895L191.614 111.615L192.184 111.269L197.229 115.169L196.576 115.567ZM194.483 113.913L192.99 112.722C192.953 112.693 192.888 112.639 192.794 112.559C192.701 112.48 192.607 112.398 192.511 112.314C192.416 112.222 192.343 112.154 192.289 112.108C192.346 112.275 192.396 112.442 192.44 112.61C192.481 112.772 192.512 112.902 192.533 113L192.894 114.879L194.483 113.913Z" fill="white"/>
<path d="M204.188 110.942L198.268 114.539L195.19 109.472L195.822 109.088L198.556 113.587L200.559 112.369L197.826 107.87L198.459 107.486L201.192 111.985L203.203 110.763L200.47 106.264L201.11 105.875L204.188 110.942Z" fill="white"/>
<path d="M208.256 101.534L210.989 106.033L211.629 105.644L212.784 107.546L212.179 107.913L211.369 106.579L207.917 108.677L208.727 110.011L208.123 110.378L206.967 108.476L207.354 108.241C207.344 107.846 207.304 107.42 207.233 106.965C207.166 106.506 207.071 106.043 206.946 105.574C206.819 105.101 206.671 104.64 206.502 104.193C206.333 103.745 206.144 103.329 205.935 102.944L208.256 101.534ZM207.979 102.489L206.84 103.181C206.988 103.467 207.129 103.805 207.264 104.196C207.404 104.584 207.528 104.994 207.637 105.427C207.747 105.852 207.837 106.274 207.905 106.692C207.978 107.108 208.017 107.489 208.022 107.836L210.363 106.413L207.979 102.489Z" fill="white"/>
<path d="M211.415 99.6143C212.072 99.2157 212.629 99.0553 213.087 99.1332C213.545 99.2112 213.918 99.4867 214.205 99.9598C214.375 100.239 214.471 100.54 214.494 100.863C214.519 101.178 214.429 101.501 214.226 101.832C214.027 102.16 213.677 102.476 213.176 102.781L212.599 103.131L213.798 105.104L213.165 105.488L210.087 100.422L211.415 99.6143ZM211.691 100.195L211.051 100.584L212.267 102.585L212.773 102.277C213.251 101.987 213.56 101.692 213.7 101.394C213.839 101.095 213.796 100.759 213.568 100.385C213.37 100.059 213.119 99.878 212.815 99.8425C212.511 99.8069 212.136 99.9244 211.691 100.195Z" fill="white"/>
<path d="M218.401 95.3707L219.001 99.9708C219.055 100.398 219.073 100.772 219.057 101.093C219.042 101.406 218.966 101.683 218.828 101.921C218.688 102.156 218.459 102.369 218.14 102.563C218.009 102.643 217.879 102.709 217.75 102.761C217.626 102.81 217.507 102.847 217.393 102.871L217.01 102.239C217.129 102.225 217.252 102.199 217.377 102.162C217.499 102.12 217.618 102.064 217.736 101.993C217.998 101.833 218.17 101.651 218.251 101.446C218.337 101.239 218.357 100.951 218.313 100.583L214.091 97.9892L214.787 97.5663L217.88 99.5051C217.932 99.5382 217.998 99.5826 218.077 99.6383C218.152 99.6894 218.222 99.7409 218.286 99.7929L218.314 99.7758C218.301 99.7123 218.287 99.6366 218.272 99.5486C218.254 99.4558 218.241 99.38 218.231 99.3213L217.733 95.7765L218.401 95.3707Z" fill="white"/>
<path d="M222.268 93.0213L222.613 93.589L220.412 94.926L223.145 99.425L222.512 99.8094L219.434 94.7427L222.268 93.0213Z" fill="white"/>
</svg>
