<svg width="140" height="179" viewBox="0 0 140 179" fill="none" xmlns="http://www.w3.org/2000/svg">
<path d="M0 155.465L55.0936 4.25119L186.824 0L133.441 166.5L0 155.465Z" fill="#FFD25A"/>
<path d="M171.332 13.8164L169.764 18.724L126.804 152.683L19.1514 143.775L15.4922 143.478L61.4616 17.3487L171.332 13.8164Z" fill="#F99441"/>
<path d="M169.764 18.7241L126.804 152.683L19.1511 143.775L63.8216 21.1311L169.764 18.7241Z" fill="white"/>
<path d="M63.8219 21.1308L50.7534 57.0001C79.9634 54.2025 107.447 39.0264 133.33 19.5522L63.8219 21.1308Z" fill="#EFEFEF"/>
<path d="M126.804 152.683L143.595 100.325C101.11 108.108 59.7824 122.753 23.0322 144.087L126.804 152.683Z" fill="#EFEFEF"/>
<path d="M193.715 12.7536L186.824 0L133.441 166.5L0 155.465L9.47264 166.5L139.476 178.393L193.715 12.7536Z" fill="#F99441"/>
<path opacity="0.5" d="M133.441 166.5L0 155.465L9.47264 166.5L139.476 178.393L133.441 166.5Z" fill="#F99441"/>
<mask id="mask0" mask-type="alpha" maskUnits="userSpaceOnUse" x="15" y="13" width="157" height="140">
<path d="M171.332 13.8164L169.764 18.724L126.804 152.683L19.1514 143.775L15.4922 143.478L61.4616 17.3487L171.332 13.8164Z" fill="#F99441"/>
</mask>
<g mask="url(#mask0)">
<path d="M124.618 196.899C122.59 204.026 71.8213 197.337 62.0001 194.617C52.179 191.897 70.5065 161.561 76.526 153.965C81.1514 148.135 105.53 147.401 115.351 150.12C125.157 152.855 126.646 189.788 124.618 196.899Z" fill="#FFBE57"/>
<path d="M104.58 51.921C111.819 42.012 109.776 40.621 112.659 39.0893C117.743 36.3854 132.586 35.307 138.257 42.3871C149.995 57.063 133.917 85.3208 112.484 79.5692C91.4479 73.9271 101.887 55.6251 104.58 51.921Z" fill="#DD4026"/>
<path d="M119.359 85.9929C119.359 85.9929 92.4933 82.8202 91.9231 90.2128C89.2618 124.676 76.6527 146.15 76.2409 148.307C74.7202 156.372 86.9333 161.311 92.1607 162.624C99.5899 164.499 122.179 165.703 123.478 161.108C124.618 157.122 117.205 145.853 118.203 138.758C119.185 131.677 144.973 109.312 143.104 102.372C139.461 88.9156 119.359 85.9929 119.359 85.9929Z" fill="#EFE9DA"/>
<path d="M128.04 69.0663C128.04 69.0663 126.804 75.2243 127.263 80.4289C127.723 85.6334 129.243 87.6183 130.954 90.2441C132.665 92.8698 117.902 101.638 106.924 101.857C106.924 101.857 102.093 90.9943 106.861 87.0088C111.629 83.0233 114.417 83.3359 115.082 76.4277C115.668 70.4105 115.937 67.0658 115.937 67.0658L128.04 69.0663Z" fill="#FFB072"/>
<path d="M130.558 89.0875C130.558 89.0875 130.558 90.6661 129.83 91.4944C126.709 95.011 117.87 105.967 111.359 123.581C103.328 145.306 104.168 150.605 107.32 153.418C110.472 156.231 123.984 153.23 123.984 153.23C123.984 153.23 121.862 139.336 127.089 128.817C132.317 118.299 145.844 104.67 143.231 97.7774C141.219 92.4791 130.558 89.0875 130.558 89.0875Z" fill="#552F5E"/>
<path d="M109.554 85.0236C109.554 85.0236 100.509 103.31 96.2634 121.565C91.0202 144.071 87.4403 146.963 84.6048 148.119C81.7693 149.276 55.2363 136.194 55.2363 136.194C55.2363 136.194 90.0539 92.4945 92.1607 88.3214C95.3605 81.9446 109.554 85.0236 109.554 85.0236Z" fill="#552F5E"/>
<path d="M101.95 56.7657C101.95 56.7657 91.7963 71.9732 97.2455 81.0695C101.602 88.3372 106.639 94.2451 105.324 100.544C104.009 106.842 117.347 83.664 115.288 77.3653C113.229 71.0354 101.95 56.7657 101.95 56.7657Z" fill="#DD4026"/>
<path d="M111.534 67.7845C110.726 70.5977 108.904 72.567 107.463 72.1763C106.021 71.7699 105.498 69.1598 106.306 66.331C106.845 64.4243 107.859 62.9239 108.904 62.2674C109.237 62.0174 108.999 61.6892 108.667 61.9392C107.542 62.6582 106.481 64.2211 105.91 66.2216C105.039 69.3005 105.673 72.0825 107.352 72.5513C109.047 73.0202 111.043 70.9728 111.93 67.8783C112.389 66.2685 112.484 64.9556 112.183 63.7991C112.104 63.8616 111.898 63.9397 111.803 64.0023C112.025 65.0807 111.946 66.3622 111.534 67.7845Z" fill="white"/>
<path fill-rule="evenodd" clip-rule="evenodd" d="M128.04 69.0662C128.04 69.0662 122.907 80.882 111.47 76.7714C105.736 74.7084 106.116 62.0017 109.253 59.6573C109.253 59.6573 109.918 53.3899 112.357 48.7636C114.797 44.1374 125.347 44.2937 132.665 48.92C132.665 48.92 134.344 51.7176 130.717 61.1265C130.717 61.1265 132.697 59.7824 134.661 61.6735C136.15 63.1114 135.706 65.4089 134.503 67.3469C133.077 69.6913 129.766 71.1293 128.04 69.0662Z" fill="#FFB072"/>
<path d="M129.148 68.3629L130.669 66.3155L129.354 65.2995C129.354 65.2995 131.54 61.2828 133.521 63.5334C135.136 65.3777 131.382 69.9258 129.148 68.3629Z" fill="#E57E55"/>
<path d="M131.73 73.3798C130.923 76.193 129.101 78.1622 127.659 77.7715C126.218 77.3652 125.695 74.7551 126.503 71.9263C127.042 70.0196 128.055 68.5192 129.101 67.8628C129.434 67.6127 129.196 67.2845 128.863 67.5346C127.739 68.2535 126.677 69.8164 126.107 71.8169C125.236 74.8958 125.869 77.6777 127.549 78.1466C129.243 78.6155 131.239 76.5681 132.126 73.4736C132.586 71.8638 132.681 70.5509 132.38 69.3944C132.301 69.4569 132.095 69.5351 132 69.5976C132.206 70.676 132.126 71.9732 131.73 73.3798Z" fill="white"/>
<path d="M110.584 68.2693C110.584 68.2693 111.93 66.5814 117.87 68.9101C116.27 71.9108 110.077 71.8952 110.584 68.2693Z" fill="#FD6141"/>
<path d="M110.583 68.2708C110.583 68.2708 114.274 69.3203 117.87 68.913L110.583 68.2708Z" fill="#E57E55"/>
<path d="M110.583 68.2708C113.023 68.5997 115.415 68.8817 117.87 68.913C116.666 69.2107 115.415 69.2107 114.179 69.1167C112.96 68.9601 111.724 68.7407 110.583 68.2708Z" fill="#E57E55"/>
<path d="M109.348 59.5183C109.237 60.0823 109.95 60.3173 110.853 60.4896C111.756 60.6619 112.5 60.6932 112.611 60.1449C112.722 59.581 112.072 59.0014 111.169 58.8291C110.282 58.6411 109.459 58.9544 109.348 59.5183Z" fill="#3E2344"/>
<path d="M108.16 56.7388C108.112 56.8171 110.71 55.5638 111.249 55.7362C111.803 55.9242 113.656 57.2557 113.942 57.0364C114.227 56.8171 114.607 56.2375 114.607 56.2375C114.607 56.2375 111.851 54.8902 111.185 54.9059C110.52 54.9372 108.588 56.1278 108.16 56.7388Z" fill="#DD4026"/>
<path d="M117.617 61.097C117.506 61.661 118.219 61.896 119.122 62.0683C120.025 62.2406 120.769 62.2719 120.88 61.7236C120.991 61.1597 120.341 60.5801 119.439 60.4078C118.551 60.2198 117.728 60.5331 117.617 61.097Z" fill="#3E2344"/>
<path d="M123.858 59.0842C123.874 59.1624 121.418 57.27 120.674 57.2544C119.929 57.2387 117.379 57.7235 117.157 57.4264C116.92 57.1136 116.761 56.4567 116.761 56.4567C116.761 56.4567 120.325 56.2691 121.117 56.5193C121.878 56.7539 123.652 58.3648 123.858 59.0842Z" fill="#DD4026"/>
<path opacity="0.5" d="M112.564 65.4294C112.564 65.4294 114.623 65.9307 114.734 65.3668C114.845 64.8028 110.742 63.0013 110.393 63.3459C110.061 63.6592 111.724 64.9125 112.564 65.4294Z" fill="#E57E55"/>
<path d="M114.591 56.9581C114.591 56.9581 114.464 59.6464 113.91 60.4748C113.34 61.3031 110.884 62.8192 110.726 63.2412C110.568 63.6632 112.421 65.3199 112.563 65.4293C112.706 65.5387 109.601 64.1477 109.982 63.1786C110.362 62.2096 113.482 60.3966 113.704 59.9277C113.926 59.4588 114.591 56.9581 114.591 56.9581Z" fill="#E57E55"/>
<path d="M128.705 62.6895L128.832 62.2675L122.416 60.9703C122.432 59.3448 121.45 57.8757 119.913 57.438C118.171 56.9535 116.349 57.9694 115.621 59.7356C115.209 59.1885 114.765 58.8603 114.29 58.7978C113.862 58.7509 113.514 58.8916 113.26 59.0479C113.229 57.6256 112.373 56.344 111.011 55.9689C109.316 55.5 107.526 56.5941 107.019 58.4071C106.496 60.2201 107.463 62.0643 109.142 62.5332C110.837 63.0021 112.627 61.908 113.134 60.095C113.181 59.9387 113.197 59.7668 113.229 59.6105C113.26 59.5793 113.688 59.1573 114.242 59.2354C114.686 59.2979 115.082 59.6418 115.446 60.2513C114.939 62.2363 115.985 64.2368 117.838 64.7526C119.723 65.2684 121.719 64.0649 122.289 62.0487C122.353 61.8455 122.385 61.6267 122.4 61.4235L128.705 62.6895ZM109.237 62.1425C107.827 61.7517 107.019 60.2201 107.352 58.6884L109.332 59.126L109.395 58.7353L107.478 58.2977C108.001 56.8285 109.49 55.9533 110.9 56.344C112.373 56.7504 113.197 58.3914 112.738 59.9856C112.278 61.5955 110.71 62.5645 109.237 62.1425ZM117.933 64.3149C116.286 63.8617 115.367 62.0487 115.874 60.267C116.381 58.4852 118.123 57.4068 119.771 57.86C121.418 58.3133 122.337 60.1263 121.83 61.908C121.323 63.6898 119.581 64.7682 117.933 64.3149Z" fill="#7C4284"/>
<path d="M114.116 46.9194C114.116 46.9194 117.664 45.4815 122.749 51.8114C127.834 58.1413 127.311 57.7975 129.481 59.9544L128.214 64.4244L130.748 61.1266C130.748 61.1266 136.593 56.2033 137.306 51.3582C138.225 52.124 121.941 30.6648 114.116 46.9194Z" fill="#DD4026"/>
<path d="M143.484 98.8245C150.929 116.892 153.828 140.477 152.323 157.122C150.343 178.909 138.922 203.776 136.704 206.042C136.102 207.417 123.382 202.572 123.287 200.165C123.287 200.165 133.33 167.453 133.204 155.043C133.109 145.588 128.879 131.459 125.489 113.829C122.369 97.6679 138.478 86.6336 143.484 98.8245Z" fill="#552F5E"/>
<path d="M74.4825 175.205C79.3614 158.966 88.6757 126.91 87.5193 122.581C72.5341 94.1044 48.8525 98.0117 23.7768 113.172C20.2602 116.783 18.2801 159.216 17.694 173.955C14.2091 180.644 10.6291 191.116 8.98165 197.993C7.09662 205.854 70.4749 214.419 72.3599 206.558C74.5617 197.43 75.7022 184.239 74.4825 175.205Z" fill="#DD4026"/>
<path d="M62.8079 93.1688C62.8079 93.1688 58.9269 91.8715 54.9826 84.2601C52.4006 79.2743 52.1154 58.5498 68.8906 58.0966C85.6659 57.6433 87.8361 68.959 86.9173 75.9765C85.9985 82.9941 76.6684 87.4172 72.4706 89.3396C68.257 91.2464 62.8079 93.1688 62.8079 93.1688Z" fill="#3E2344"/>
<path d="M60.812 84.5081C60.812 84.5081 58.8795 90.4628 55.9173 94.886C52.9551 99.3091 50.6582 100.434 47.8702 102.06C45.0823 103.685 52.0997 110.265 61.6357 114.923C61.6357 114.923 75.2428 109.875 70.9342 105.811C67.6235 102.669 65.786 102.669 68.5739 96.2926C71.0134 90.7285 72.4073 87.6652 72.4073 87.6652L60.812 84.5081Z" fill="#FFB072"/>
<path fill-rule="evenodd" clip-rule="evenodd" d="M60.8122 84.508C60.8122 84.508 59.2281 88.8842 60.6063 91.088C62.0003 93.2917 64.2021 98.3244 71.8531 99.1058C79.4883 99.8717 81.9119 83.8203 81.9119 83.8203C81.9119 83.8203 84.3989 78.0062 84.5256 72.9267C84.6523 67.8472 75.3064 63.6898 66.6257 64.7994C66.6257 64.7994 63.7744 66.5812 62.3487 76.3808C62.3487 76.3808 61.2716 74.3958 58.6262 75.2554C56.6144 75.9119 55.8858 78.1313 55.9808 80.3506C56.1075 83.0076 58.2935 85.6333 60.8122 84.508Z" fill="#FFB072"/>
<path d="M60.2103 83.4453L59.8776 81.0071L61.5408 80.6319C61.5408 80.6319 61.5883 76.1775 58.7529 77.381C56.4086 78.3657 57.4699 83.9142 60.2103 83.4453Z" fill="#E57E55"/>
<path d="M73.8808 81.6982C73.7065 82.2308 72.9621 82.1525 72.0908 81.9489C71.2196 81.7296 70.5384 81.4632 70.7127 80.9307C70.8869 80.3981 71.7423 80.1318 72.6136 80.3511C73.4848 80.539 74.055 81.15 73.8808 81.6982Z" fill="#3E2344"/>
<path d="M68.5743 78.1505C68.5268 78.2288 71.3147 77.7745 72.1226 77.9155C72.9305 78.0565 75.8926 79.0278 76.2253 78.7771C76.5579 78.5265 77.0015 77.5552 77.0015 77.5552C77.0015 77.5552 72.8988 76.4899 71.9958 76.5682C71.0771 76.6309 68.9862 77.4925 68.5743 78.1505Z" fill="#3E2344"/>
<path d="M81.912 83.6674C81.7378 84.2 80.9933 84.1217 80.122 83.918C79.2508 83.6987 78.5697 83.4324 78.7439 82.8998C78.9182 82.3672 79.7736 82.1009 80.6448 82.3202C81.5319 82.5238 82.0863 83.1348 81.912 83.6674Z" fill="#3E2344"/>
<path d="M83.5436 81.8233C83.5277 81.9015 82.7515 80.3541 82.213 80.1665C81.6902 79.979 78.9656 79.7758 78.9023 79.432C78.8389 79.0881 79.0923 78.0721 79.0923 78.0721C79.0923 78.0721 82.5932 78.9005 83.0684 79.3225C83.5594 79.7289 83.6545 81.1043 83.5436 81.8233Z" fill="#3E2344"/>
<path opacity="0.5" d="M76.1937 87.5901C76.1937 87.5901 74.1503 87.1985 74.3245 86.6502C74.4988 86.1019 78.9817 86.1959 79.1242 86.6188C79.2668 87.0575 77.1917 87.4805 76.1937 87.5901Z" fill="#E57E55"/>
<path d="M78.5699 79.2566C78.5699 79.2566 77.366 81.6791 77.4452 82.6481C77.5402 83.6015 78.95 85.9615 78.8867 86.3991C78.8233 86.8367 76.3839 87.54 76.2096 87.5869C76.0354 87.6181 79.4252 87.665 79.5678 86.6491C79.7104 85.6333 77.8729 82.7575 77.8887 82.2574C77.9204 81.7572 78.5699 79.2566 78.5699 79.2566Z" fill="#E57E55"/>
<path d="M69.8258 88.0715C70.9663 88.978 72.3761 89.4938 73.7859 89.7751C74.4987 89.9158 75.2274 89.9471 75.9719 89.9939C76.7006 90.0721 77.4134 90.1971 78.0946 90.1659H78.1263C78.1738 90.1659 78.2213 90.1971 78.2213 90.2596C78.2213 90.2909 78.2054 90.3222 78.1896 90.3378C77.4926 90.8848 76.6373 90.791 75.8927 90.7754C75.1482 90.666 74.4037 90.5566 73.6434 90.3691C72.1702 89.994 70.7287 89.3062 69.6991 88.1809C69.6674 88.1497 69.6674 88.1028 69.6991 88.0715C69.7466 88.0403 69.7941 88.0403 69.8258 88.0715Z" fill="#E57E55"/>
<path d="M62.8082 81.0851C63.5527 80.7569 65.4853 77.2872 65.2002 73.6143C64.9467 70.3165 68.0515 68.3941 69.889 68.4879C71.9958 68.5973 78.2211 71.2699 80.914 71.5981C88.264 72.5202 90.4817 70.4884 90.7193 69.4413C90.9569 68.4097 87.7096 69.2068 87.7096 69.2068C87.7096 69.2068 92.6993 65.9871 93.3805 60.6575C93.3805 60.6575 90.2916 62.8769 86.3156 60.7513C82.3396 58.6257 72.4076 55.2967 65.9605 58.4069C61.7311 60.4387 57.1532 68.5035 60.8757 73.583C62.5706 75.8805 61.3984 81.6947 62.8082 81.0851Z" fill="#3E2344"/>
</g>
</svg>
