<svg width="194" height="179" viewBox="0 0 194 179" fill="none" xmlns="http://www.w3.org/2000/svg">
<path d="M0 155.713L55.0936 4.49905L186.824 0.247864L133.441 166.747L0 155.713Z" fill="#FFD25A"/>
<path d="M171.332 14.0642L169.764 18.9718L126.804 152.931L19.1512 144.022L15.4921 143.725L61.4614 17.5965L171.332 14.0642Z" fill="#F99441"/>
<path d="M169.764 18.9719L126.804 152.931L19.1511 144.022L63.8216 21.3789L169.764 18.9719Z" fill="white"/>
<path d="M63.8219 21.3787L50.7534 57.248C79.9634 54.4504 107.447 39.2743 133.33 19.8002L63.8219 21.3787Z" fill="#EFEFEF"/>
<path d="M126.804 152.931L143.595 100.573C101.11 108.356 59.7824 123.001 23.0322 144.335L126.804 152.931Z" fill="#EFEFEF"/>
<path d="M193.715 13.0014L186.824 0.247864L133.441 166.747L0 155.713L9.47264 166.747L139.476 178.641L193.715 13.0014Z" fill="#F99441"/>
<path opacity="0.5" d="M133.441 166.747L0 155.713L9.47264 166.747L139.476 178.641L133.441 166.747Z" fill="#F99441"/>
<mask id="mask0" mask-type="alpha" maskUnits="userSpaceOnUse" x="15" y="14" width="157" height="139">
<path d="M171.332 14.0642L169.764 18.9718L126.804 152.931L19.1512 144.022L15.4921 143.725L61.4614 17.5965L171.332 14.0642Z" fill="#F99441"/>
</mask>
<g mask="url(#mask0)">
<path d="M124.618 197.147C122.59 204.274 71.821 197.584 61.9999 194.865C52.1787 192.145 70.5063 161.809 76.5257 154.213C81.1512 148.383 105.53 147.648 115.351 150.368C125.156 153.103 126.645 190.035 124.618 197.147Z" fill="#FFBE57"/>
<path d="M104.58 52.1687C111.819 42.2597 109.775 40.8687 112.658 39.337C117.743 36.6332 132.586 35.5548 138.257 42.6348C149.995 57.3108 133.916 85.5686 112.484 79.817C91.4477 74.1748 101.887 55.8729 104.58 52.1687Z" fill="#DD4026"/>
<path d="M119.359 86.2407C119.359 86.2407 92.4931 83.0679 91.9228 90.4606C89.2616 124.923 76.6525 146.398 76.2406 148.555C74.7199 156.62 86.933 161.558 92.1604 162.871C99.5897 164.747 122.178 165.95 123.477 161.355C124.618 157.37 117.204 146.101 118.202 139.005C119.184 131.925 144.973 109.56 143.104 102.62C139.46 89.1633 119.359 86.2407 119.359 86.2407Z" fill="#EFE9DA"/>
<path d="M128.039 69.3141C128.039 69.3141 126.804 75.472 127.263 80.6766C127.723 85.8812 129.243 87.8661 130.954 90.4918C132.665 93.1175 117.901 101.886 106.924 102.104C106.924 102.104 102.092 91.242 106.86 87.2565C111.628 83.2711 114.416 83.5836 115.082 76.6755C115.668 70.6582 115.937 67.3135 115.937 67.3135L128.039 69.3141Z" fill="#FFB072"/>
<path d="M130.558 89.3353C130.558 89.3353 130.558 90.9138 129.829 91.7422C126.709 95.2588 117.87 106.215 111.359 123.829C103.328 145.554 104.168 150.852 107.32 153.666C110.472 156.479 123.984 153.478 123.984 153.478C123.984 153.478 121.862 139.584 127.089 129.065C132.316 118.546 145.844 104.918 143.231 98.0252C141.219 92.7268 130.558 89.3353 130.558 89.3353Z" fill="#552F5E"/>
<path d="M109.553 85.2714C109.553 85.2714 100.508 103.558 96.2632 121.813C91.02 144.319 87.44 147.211 84.6045 148.367C81.7691 149.524 55.2361 136.442 55.2361 136.442C55.2361 136.442 90.0537 92.7423 92.1605 88.5692C95.3603 82.1924 109.553 85.2714 109.553 85.2714Z" fill="#552F5E"/>
<path d="M101.95 57.0135C101.95 57.0135 91.7961 72.2209 97.2452 81.3172C101.601 88.5849 106.639 94.4929 105.324 100.792C104.009 107.09 117.347 83.9117 115.288 77.6131C113.228 71.2831 101.95 57.0135 101.95 57.0135Z" fill="#DD4026"/>
<path d="M111.534 68.0323C110.726 70.8455 108.904 72.8148 107.462 72.4241C106.021 72.0177 105.498 69.4076 106.306 66.5788C106.845 64.6721 107.858 63.1717 108.904 62.5152C109.237 62.2652 108.999 61.937 108.666 62.187C107.542 62.906 106.48 64.4689 105.91 66.4694C105.039 69.5483 105.672 72.3303 107.352 72.7991C109.046 73.268 111.042 71.2206 111.93 68.1261C112.389 66.5163 112.484 65.2034 112.183 64.0469C112.104 64.1094 111.898 64.1875 111.803 64.2501C112.025 65.3285 111.945 66.61 111.534 68.0323Z" fill="white"/>
<path fill-rule="evenodd" clip-rule="evenodd" d="M128.039 69.314C128.039 69.314 122.907 81.1298 111.47 77.0192C105.736 74.9562 106.116 62.2495 109.252 59.9051C109.252 59.9051 109.918 53.6377 112.357 49.0115C114.797 44.3852 125.346 44.5415 132.665 49.1678C132.665 49.1678 134.344 51.9654 130.716 61.3743C130.716 61.3743 132.696 60.0302 134.661 61.9213C136.15 63.3592 135.706 65.6567 134.502 67.5947C133.077 69.9391 129.766 71.3771 128.039 69.314Z" fill="#FFB072"/>
<path d="M129.148 68.6107L130.669 66.5633L129.354 65.5473C129.354 65.5473 131.54 61.5306 133.52 63.7812C135.136 65.6255 131.382 70.1736 129.148 68.6107Z" fill="#E57E55"/>
<path d="M131.73 73.6276C130.922 76.4408 129.101 78.41 127.659 78.0193C126.218 77.613 125.695 75.0029 126.503 72.1741C127.041 70.2674 128.055 68.767 129.101 68.1106C129.433 67.8605 129.196 67.5323 128.863 67.7824C127.738 68.5013 126.677 70.0642 126.107 72.0647C125.236 75.1436 125.869 77.9255 127.548 78.3944C129.243 78.8633 131.239 76.8159 132.126 73.7214C132.586 72.1116 132.681 70.7987 132.38 69.6422C132.3 69.7047 132.094 69.7829 131.999 69.8454C132.205 70.9238 132.126 72.221 131.73 73.6276Z" fill="white"/>
<path d="M110.583 68.517C110.583 68.517 111.93 66.8291 117.87 69.1578C116.27 72.1584 110.076 72.1428 110.583 68.517Z" fill="#FD6141"/>
<path d="M110.583 68.5184C110.583 68.5184 114.274 69.568 117.87 69.1607L110.583 68.5184Z" fill="#E57E55"/>
<path d="M110.583 68.5184C113.022 68.8474 115.414 69.1294 117.87 69.1607C116.666 69.4584 115.414 69.4584 114.179 69.3644C112.959 69.2077 111.724 68.9884 110.583 68.5184Z" fill="#E57E55"/>
<path d="M109.347 59.7661C109.236 60.3301 109.949 60.5651 110.852 60.7374C111.755 60.9097 112.5 60.941 112.61 60.3927C112.721 59.8288 112.072 59.2492 111.169 59.0769C110.282 58.8889 109.458 59.2022 109.347 59.7661Z" fill="#3E2344"/>
<path d="M108.159 56.9865C108.112 57.0648 110.71 55.8116 111.248 55.9839C111.803 56.1719 113.656 57.5035 113.941 57.2842C114.226 57.0648 114.606 56.4852 114.606 56.4852C114.606 56.4852 111.85 55.138 111.185 55.1536C110.52 55.185 108.587 56.3756 108.159 56.9865Z" fill="#DD4026"/>
<path d="M117.616 61.3448C117.505 61.9088 118.218 62.1438 119.121 62.3161C120.024 62.4884 120.769 62.5197 120.88 61.9714C120.99 61.4075 120.341 60.8279 119.438 60.6556C118.551 60.4676 117.727 60.7809 117.616 61.3448Z" fill="#3E2344"/>
<path d="M123.857 59.332C123.873 59.4102 121.418 57.5178 120.673 57.5022C119.929 57.4865 117.379 57.9713 117.157 57.6742C116.919 57.3614 116.761 56.7045 116.761 56.7045C116.761 56.7045 120.325 56.5169 121.117 56.7671C121.877 57.0017 123.651 58.6126 123.857 59.332Z" fill="#DD4026"/>
<path opacity="0.5" d="M112.563 65.6772C112.563 65.6772 114.622 66.1785 114.733 65.6145C114.844 65.0506 110.741 63.249 110.393 63.5937C110.06 63.907 111.724 65.1602 112.563 65.6772Z" fill="#E57E55"/>
<path d="M114.591 57.2059C114.591 57.2059 114.464 59.8941 113.909 60.7225C113.339 61.5509 110.884 63.0669 110.726 63.4889C110.567 63.9109 112.42 65.5676 112.563 65.677C112.706 65.7864 109.601 64.3954 109.981 63.4264C110.361 62.4574 113.482 60.6443 113.704 60.1755C113.925 59.7066 114.591 57.2059 114.591 57.2059Z" fill="#E57E55"/>
<path d="M128.705 62.9372L128.831 62.5152L122.416 61.218C122.432 59.5926 121.45 58.1234 119.913 57.6858C118.171 57.2013 116.349 58.2172 115.62 59.9833C115.208 59.4363 114.765 59.1081 114.29 59.0455C113.862 58.9986 113.514 59.1393 113.26 59.2956C113.228 57.8733 112.373 56.5917 111.011 56.2166C109.316 55.7477 107.526 56.8418 107.019 58.6548C106.496 60.4678 107.462 62.3121 109.142 62.7809C110.836 63.2498 112.626 62.1558 113.133 60.3428C113.181 60.1865 113.197 60.0146 113.228 59.8583C113.26 59.827 113.688 59.405 114.242 59.4832C114.686 59.5457 115.082 59.8895 115.446 60.4991C114.939 62.484 115.985 64.4846 117.838 65.0003C119.723 65.5161 121.719 64.3126 122.289 62.2964C122.353 62.0933 122.384 61.8745 122.4 61.6713L128.705 62.9372ZM109.237 62.3902C107.827 61.9995 107.019 60.4678 107.352 58.9361L109.332 59.3738L109.395 58.983L107.478 58.5454C108.001 57.0763 109.49 56.201 110.9 56.5917C112.373 56.9981 113.197 58.6392 112.737 60.2334C112.278 61.8432 110.71 62.8122 109.237 62.3902ZM117.933 64.5627C116.286 64.1094 115.367 62.2964 115.874 60.5147C116.381 58.7329 118.123 57.6545 119.771 58.1078C121.418 58.561 122.337 60.374 121.83 62.1558C121.323 63.9375 119.58 65.0159 117.933 64.5627Z" fill="#7C4284"/>
<path d="M114.115 47.1672C114.115 47.1672 117.664 45.7292 122.749 52.0592C127.833 58.3891 127.311 58.0452 129.481 60.2021L128.214 64.6721L130.748 61.3743C130.748 61.3743 136.593 56.451 137.306 51.6059C138.225 52.3718 121.941 30.9126 114.115 47.1672Z" fill="#DD4026"/>
<path d="M143.484 99.0722C150.929 117.14 153.828 140.725 152.323 157.37C150.343 179.157 138.922 204.023 136.704 206.29C136.102 207.665 123.382 202.82 123.287 200.413C123.287 200.413 133.33 167.701 133.203 155.291C133.108 145.835 128.879 131.706 125.489 114.076C122.368 97.9157 138.478 86.8813 143.484 99.0722Z" fill="#552F5E"/>
<path d="M74.4824 175.453C79.3613 159.214 88.6756 127.158 87.5192 122.829C72.534 94.3522 48.8523 98.2595 23.7767 113.42C20.2601 117.03 18.28 159.464 17.6939 174.203C14.2089 180.892 10.629 191.364 8.98153 198.241C7.0965 206.102 70.4747 214.667 72.3598 206.805C74.5616 197.678 75.7021 184.487 74.4824 175.453Z" fill="#DD4026"/>
<path d="M62.8079 93.4166C62.8079 93.4166 58.9269 92.1193 54.9826 84.5079C52.4006 79.5221 52.1154 58.7976 68.8906 58.3444C85.6659 57.8911 87.8361 69.2068 86.9173 76.2243C85.9985 83.2419 76.6684 87.665 72.4706 89.5874C68.257 91.4942 62.8079 93.4166 62.8079 93.4166Z" fill="#3E2344"/>
<path d="M60.812 84.7558C60.812 84.7558 58.8795 90.7106 55.9173 95.1337C52.9551 99.5568 50.6582 100.682 47.8702 102.308C45.0823 103.933 52.0997 110.513 61.6357 115.171C61.6357 115.171 75.2428 110.122 70.9342 106.059C67.6235 102.917 65.786 102.917 68.5739 96.5403C71.0134 90.9763 72.4073 87.9129 72.4073 87.9129L60.812 84.7558Z" fill="#FFB072"/>
<path fill-rule="evenodd" clip-rule="evenodd" d="M60.8122 84.7558C60.8122 84.7558 59.2281 89.132 60.6063 91.3357C62.0003 93.5394 64.2021 98.5721 71.8531 99.3536C79.4883 100.119 81.9119 84.0681 81.9119 84.0681C81.9119 84.0681 84.3989 78.254 84.5256 73.1744C84.6523 68.0949 75.3064 63.9375 66.6257 65.0472C66.6257 65.0472 63.7744 66.8289 62.3487 76.6285C62.3487 76.6285 61.2716 74.6436 58.6262 75.5032C56.6144 76.1596 55.8858 78.379 55.9808 80.5984C56.1075 83.2554 58.2935 85.8811 60.8122 84.7558Z" fill="#FFB072"/>
<path d="M60.2103 83.693L59.8776 81.2548L61.5408 80.8797C61.5408 80.8797 61.5883 76.4253 58.7529 77.6287C56.4086 78.6134 57.4699 84.1619 60.2103 83.693Z" fill="#E57E55"/>
<path d="M73.8808 81.946C73.7065 82.4786 72.9621 82.4003 72.0908 82.1967C71.2196 81.9774 70.5384 81.711 70.7127 81.1785C70.8869 80.6459 71.7423 80.3796 72.6136 80.5989C73.4848 80.7868 74.055 81.3978 73.8808 81.946Z" fill="#3E2344"/>
<path d="M68.5743 78.3983C68.5268 78.4766 71.3147 78.0223 72.1226 78.1633C72.9305 78.3043 75.8926 79.2756 76.2253 79.0249C76.5579 78.7743 77.0015 77.803 77.0015 77.803C77.0015 77.803 72.8988 76.7377 71.9958 76.816C71.0771 76.8787 68.9862 77.7403 68.5743 78.3983Z" fill="#3E2344"/>
<path d="M81.912 83.9153C81.7378 84.4479 80.9933 84.3695 80.122 84.1659C79.2508 83.9466 78.5697 83.6803 78.7439 83.1477C78.9182 82.615 79.7736 82.3487 80.6448 82.5681C81.5319 82.7717 82.0863 83.3826 81.912 83.9153Z" fill="#3E2344"/>
<path d="M83.5436 82.0711C83.5277 82.1493 82.7515 80.6019 82.213 80.4143C81.6902 80.2268 78.9656 80.0236 78.9023 79.6798C78.8389 79.3359 79.0923 78.3199 79.0923 78.3199C79.0923 78.3199 82.5932 79.1483 83.0684 79.5703C83.5594 79.9767 83.6545 81.3521 83.5436 82.0711Z" fill="#3E2344"/>
<path opacity="0.5" d="M76.1937 87.838C76.1937 87.838 74.1503 87.4463 74.3245 86.898C74.4988 86.3497 78.9817 86.4437 79.1242 86.8666C79.2668 87.3053 77.1917 87.7283 76.1937 87.838Z" fill="#E57E55"/>
<path d="M78.5699 79.5044C78.5699 79.5044 77.366 81.9269 77.4452 82.8959C77.5402 83.8493 78.95 86.2093 78.8867 86.6469C78.8233 87.0845 76.3839 87.7878 76.2096 87.8347C76.0354 87.8659 79.4252 87.9128 79.5678 86.8969C79.7104 85.8811 77.8729 83.0053 77.8887 82.5052C77.9204 82.005 78.5699 79.5044 78.5699 79.5044Z" fill="#E57E55"/>
<path d="M69.8258 88.3193C70.9663 89.2258 72.3761 89.7416 73.7859 90.0229C74.4987 90.1635 75.2274 90.1948 75.9719 90.2417C76.7006 90.3198 77.4134 90.4449 78.0946 90.4136H78.1263C78.1738 90.4136 78.2213 90.4449 78.2213 90.5074C78.2213 90.5386 78.2054 90.5699 78.1896 90.5855C77.4926 91.1326 76.6373 91.0388 75.8927 91.0232C75.1482 90.9138 74.4037 90.8044 73.6434 90.6168C72.1702 90.2417 70.7287 89.554 69.6991 88.4287C69.6674 88.3974 69.6674 88.3505 69.6991 88.3193C69.7466 88.288 69.7941 88.288 69.8258 88.3193Z" fill="#E57E55"/>
<path d="M62.8082 81.3329C63.5527 81.0047 65.4853 77.535 65.2002 73.8621C64.9467 70.5643 68.0515 68.6419 69.889 68.7357C71.9958 68.8451 78.2211 71.5177 80.914 71.8459C88.264 72.768 90.4817 70.7362 90.7193 69.6891C90.9569 68.6575 87.7096 69.4546 87.7096 69.4546C87.7096 69.4546 92.6993 66.2349 93.3805 60.9053C93.3805 60.9053 90.2916 63.1247 86.3156 60.9991C82.3396 58.8735 72.4076 55.5445 65.9605 58.6547C61.7311 60.6865 57.1532 68.7513 60.8757 73.8308C62.5706 76.1284 61.3984 81.9425 62.8082 81.3329Z" fill="#3E2344"/>
</g>
</svg>
