<svg width="916" height="155" fill="none" xmlns="http://www.w3.org/2000/svg"><path d="M129.576 204.951c2.554 1.385-28.353-1.713-65.518-28.334-18.825-13.499-62.273-53.594-57.727-61.074 4.521-7.454 37.318 10.754 73.18 36.141 19.005 13.449 37.625 31.028 50.065 53.267zm8.684.73c.179 2.871-13.793-24.48-11.034-69.713 1.405-22.893 12.337-80.592 21.149-80.844 8.813-.252 10.882 36.795 8.481 80.265-1.277 23.07-6.258 48.003-18.596 70.292z" fill="#FFD25A"/><path d="M125.157 195.582c1.813 2.896-28.174-17.882-50.83-66.439-11.47-24.606-32.67-90.591-23.653-95.679 9.016-5.087 32.082 32.313 54.151 78.83 11.698 24.657 20.562 53.317 20.332 83.288z" fill="#FFD25A"/><path d="M124.467 207.646s-100.69-65.205-105.645-80.064c-4.956-14.884 83.627 51.026 105.645 80.064zm-9.732-18.335S60.278 83.357 63.471 68.044c3.218-15.338 46.82 85.277 51.264 121.267zm19.132 15.262s1.2-110.311 10.524-121.57c9.297-11.257 1.456 90.038-10.524 121.57z" fill="#F99441"/><path d="M684.43 149.958c-1.051 2.642-2.003-27.406 19.458-66.443 10.868-19.777 44.774-66.591 52.712-63.208 7.938 3.382-5.784 37.135-26.143 74.813-10.818 19.926-25.718 40.049-46.027 54.838zm.401 8.421c-2.805.543 22.362-16.395 67.262-19.58 22.762-1.605 81.034 1.382 82.411 9.802 1.378 8.42-34.857 15.185-78.029 18.518-22.863 1.753-48.08.198-71.644-8.74z" fill="#FFD25A"/><path d="M693.095 144.527c-2.63 2.124 13.998-29.333 58.923-57.307 22.762-14.173 85.066-43.037 91.251-35.037 6.185 8-27.696 34.938-70.717 62.073-22.788 14.395-49.883 26.592-79.457 30.271z" fill="#FFD25A"/><path d="M681.125 145.416S732.36 40.479 746.383 33.813c13.998-6.642-39.491 86.739-65.258 111.603zm16.778-11.679s97.386-65.9 112.912-64.814c15.526 1.087-78.004 55.876-112.912 64.814zm-12.571 20.296s108.88-13.111 121.176-5.654c12.32 7.456-88.522 13.036-121.176 5.654z" fill="#F99441"/><path d="M.291 219.997H916c-60.442-25.437-122.021-37.111-184.959-32.445 0 0 21.565-19.019 14.756-30.202-6.809-11.182-30.63 4.469-30.63 4.469s18.15-14.549 9.085-30.201c-9.085-15.671-54.471 12.305-54.471 12.305s73.76-45.873 44.248-74.951c-29.512-29.1-173.617 32.445-173.617 32.445s29.512-79.44-36.301-98.459c-65.813-19.019-147.52 101.806-147.52 101.806S342.973-2.633 287.384 5.183c-55.61 7.835-38.578 82.787-38.578 82.787s-60.142-27.976-77.154-11.182c-17.012 16.774-4.533 50.341-4.533 50.341s-14.756-17.896-24.959-8.958c-10.203 8.958 3.395 27.977 3.395 27.977s-53.334-21.263-61.28-11.183c-7.948 10.061 24.959 30.201 24.959 30.201-57.886 5.828-91.391 25.732-108.943 54.831z" fill="#71BF9D"/><path d="M90.484 219.997h585.028s36.44-26.697 9.844-48.058c-26.597-21.361-84.702.965-84.702.965s62.058-42.723 50.238-57.292c-11.821-14.569-148.718 17.483-148.718 17.483s35.462-85.465-7.887-103.913c-43.35-18.447-143.806 127.223-143.806 127.223s-22.643-125.274-57.127-120.41c-34.464 4.862-9.844 100.998-9.844 100.998s-65.993-51.464-86.679-32.052c-20.686 19.432 10.842 78.653 10.842 78.653s-66.551-15.553-117.189 36.403z" fill="#3C8460"/><path d="M20.338 210.153c18.91-19.451 48.522-31.028 89.894-35.182l29.133-2.933-24.88-15.219c-7.308-4.489-14.616-10.317-18.59-14.589 13.538 1.142 37.3 9.627 45.886 13.053l31.469 12.522-19.569-27.327c-3.913-5.552-6.549-13.506-4.932-14.943l.02-.02m27.695-1.772c-2.835-7.698-7.947-29.965 2.217-39.986 1.597-1.575 5.371-2.48 10.343-2.48 21.625 0 55.17 15.454 55.51 15.612l18.449 8.564-4.452-19.629c-.08-.354-8.007-36.698 6.509-57.37 5.351-7.6 13.099-12.03 23.741-13.526a32.214 32.214 0 014.293-.315c34.384 0 50.358 65.955 53.593 91.372l3.355 26.185 14.856-21.952c18.729-27.662 77.613-99.464 124.577-99.464 4.093 0 8.066.552 11.82 1.635 14.337 4.154 24.101 11.576 29.832 22.739 13.278 25.83.04 62.529-.1 62.903l-7.887 21.46 21.245-9.057c.919-.394 92.989-39.454 141.969-39.454 13.598 0 18.749 3.09 20.626 4.922 3.175 3.13 4.393 6.28 3.954 10.218-1.837 16.104-29.472 38.883-46.464 49.456" stroke="#fff" stroke-miterlimit="10"/></svg>