<svg width="760" height="189" fill="none" xmlns="http://www.w3.org/2000/svg"><path d="M149.725 140.241c1.584.859-17.583-1.063-40.631-17.583-11.674-8.378-38.62-33.26-35.8-37.901 2.804-4.627 23.144 6.673 45.384 22.428 11.785 8.346 23.333 19.255 31.047 33.056zm5.386.453c.111 1.782-8.554-15.192-6.843-43.262.871-14.207 7.651-50.014 13.116-50.17 5.465-.157 6.748 22.834 5.259 49.81-.792 14.317-3.881 29.79-11.532 43.622z" fill="#FFD25A"/><path d="M146.985 134.427c1.125 1.797-17.472-11.097-31.523-41.23-7.112-15.27-20.26-56.22-14.668-59.377 5.592-3.157 19.896 20.053 33.582 48.92 7.255 15.302 12.752 33.088 12.609 51.687z" fill="#FFD25A"/><path d="M146.557 141.913s-62.443-40.464-65.516-49.686c-3.074-9.237 51.862 31.665 65.516 49.686zm-6.035-11.378S106.75 64.782 108.73 55.28c1.996-9.519 29.036 52.921 31.792 75.255zm11.865 9.471s.744-68.456 6.526-75.442c5.766-6.987.903 55.874-6.526 75.442z" fill="#F99441"/><path d="M607.93 156.948c-.665 1.673-1.267-17.348 12.308-42.058 6.875-12.519 28.323-42.152 33.345-40.011 5.021 2.141-3.659 23.506-16.538 47.357-6.843 12.613-16.268 25.35-29.115 34.712zm.254 5.33c-1.774.344 14.145-10.378 42.548-12.394 14.399-1.016 51.26.875 52.131 6.205.871 5.33-22.05 9.612-49.359 11.722-14.463 1.11-30.414.125-45.32-5.533z" fill="#FFD25A"/><path d="M613.411 153.51c-1.663 1.344 8.855-18.568 37.273-36.276 14.399-8.971 53.811-27.241 57.723-22.178 3.913 5.064-17.519 22.116-44.734 39.293-14.415 9.111-31.554 16.832-50.262 19.161z" fill="#FFD25A"/><path d="M605.839 154.073s32.41-66.425 41.281-70.645c8.855-4.204-24.981 54.906-41.281 70.645zm10.614-7.393s61.604-41.715 71.425-41.027c9.821.688-49.344 35.369-71.425 41.027zm-7.953 12.847s68.875-8.299 76.653-3.579c7.794 4.72-55.996 8.253-76.653 3.579z" fill="#F99441"/><path d="M.095 112.733c.158-3.735 14.494-4.767 16.744-4.876 7.999-.391 16.014 1.016 23.697 3.11-1.22-.328-3.152-3.704-3.66-4.892-.902-2.157-.728-5.345 1.316-6.94 2.724-2.11 7.065-.218 9.599 1.266a73.559 73.559 0 0117.029 13.786c-1.458-2.657-2.93-5.393-3.359-8.378-.902-6.36 4.563-11.269 10.867-8.862 6.162 2.345 10.93 9.253 14.478 14.442 3.976 5.845 8.095 12.41 10.756 18.943-2.06-5.049-4.15-10.378-3.453-15.77.697-5.392 5.275-10.722 10.772-10.253 5.575.469 9.029 6.267 10.375 11.644 2.329 9.346 1.077 19.505-3.437 28.023 3.136-.547 6.082-1.782 9.14-2.657 5.085-1.453 15.207-1.297 14.922 6.455-.333 9.034-17.473 9.393-22.684 5.111a188.602 188.602 0 0110.629 9.409c.491.469.792 1.547.111 1.578a6461.891 6461.891 0 00-12.166-9.174c5.782 4.36 6.321 17.192-.142 21.24-7.715 4.83-9.077-6.127-9.14-10.831-.016-1.672-.618-7.893.617-9.096a69.346 69.346 0 01-23.285 14.879c-2.994 1.156-6.543 2.063-9.299.438-5.797-3.408-2.44-10.972 1.11-14.567 3.88-3.939 9.044-6.643 14.525-7.596-7.508 1.313-15.017 2.657-22.525 3.954-4.943.844-12.705 3.064-16.3-1.813-4.119-5.595 3.358-14.222 9.076-15.238-4.546.812-29.67 6.783-26.644-4.111.872-3.126 3.992-5.111 7.05-6.298-2.092.812-7.937-1.391-10.139-1.892-6.62-1.531-13.686-3.641-20.054-6.361-1.283-.547-6.605-2.782-6.526-4.673z" fill="#71BF9D"/><path d="M2.202 113.03c39.823 2.079 78.76 16.692 110.235 40.777.681 1.876 1.314 3.751 1.695 5.736.38 1.985.601 3.985.586 5.955.015 3.688-1.664 10.049-6.495 9.674-2.835-.187-3.374-5.47-3.738-10.659-.143-2.626-.143-5.267-.127-7.267.016-1.97.032-3.314.032-3.314s-3.279 2.344-7.208 5.127c-3.928 2.766-8.459 5.986-11.263 7.502-2.201 1.203-5.021 2.703-7.698 3.547-2.677.829-5.212.969-7.192-.39-4.213-3.064-1.505-9.456 2.376-12.676 1.6-1.328 3.248-2.625 5.56-4.016a43.043 43.043 0 014.087-2.142 50.81 50.81 0 015.608-2.203c-1.204-.125-3.865.14-7.16.547a516.52 516.52 0 01-5.323.687c-1.885.282-3.88.641-5.845.969-1.964.313-3.928.61-5.797.907-1.901.328-3.723.609-5.402.797-1.68.203-3.184.25-4.515.266-1.33.015-2.47-.094-3.326-.407a4.956 4.956 0 01-2.345-1.719c-1.79-2.407-1.33-5.267.618-7.799.903-1.188 2.012-2.126 3.168-2.97.872-.656 6.257-4.454 7.493-4.423-2.344-.297-5.45-.218-8.538.079-3.12.359-6.162.781-8.411.812-1.648.047-4.372.657-6.796.61-1.22 0-2.36-.203-3.295-.61-.95-.406-1.679-1.109-2.043-2.25-.967-2.939 2.201-5.002 4.356-6.111 1.22-.61 2.503-1.048 3.786-1.516.919-.344 2.93-1.626 3.833-1.438 0 0-2.598-.547-5.465-1.141-2.883-.547-6.035-1.016-7.112-1.266a98.212 98.212 0 01-2.852-.672c-.934-.204-1.837-.407-2.724-.594a82.805 82.805 0 01-5.022-1.329c-1.568-.516-3.057-.875-4.45-1.328a73.554 73.554 0 01-3.882-1.344c-2.392-.954-4.403-1.72-5.988-2.485-1.536-.719-2.708-1.407-3.421-1.923z" fill="#3C8460"/><path opacity=".7" d="M113.023 154.307c.016.078.047.157.063.235-9.742-1.72-18.09-7.643-26.438-12.879-15.191-9.518-31.586-17.161-48.678-22.725-2.566-.828-5.243-1.516-7.746-2.391 18.027 2.156 35.705 7.345 52.321 14.519a219.46 219.46 0 0111.358 5.299c4.071 2.047 8.126 4.235 11.595 7.158 3.406 2.86 6.257 6.533 7.525 10.784z" fill="#7D9C8B"/><path d="M74.8 129.675c-11.739-5.298-24.015-9.424-36.577-12.222-12.545-2.891-25.408-4.345-38.223-4.548 12.815.813 25.456 3.017 37.812 6.174a215.262 215.262 0 0135.894 12.941c11.516 5.392 22.462 11.878 32.822 19.161 10.312 7.362 20.054 15.505 29.083 24.445 1.188 1.234 2.123.406.919-.829-8.316-9.706-17.868-18.411-28.307-25.913-10.391-7.58-21.67-13.942-33.424-19.209z" fill="#71BF9D"/><path opacity=".3" d="M100.35 154.964c.143-.094-2.978 2.125-6.685 4.673-1.853 1.266-3.849 2.626-5.686 3.813-1.854 1.204-3.564 2.251-4.816 2.814-5.037 2.266-8.918 3.844-11.928 1.078-2.946-2.829 2.297-9.909 9.52-13.535 0 0-1.568 1.438-2.803 3.298-1.252 1.86-2.186 4.142-1.078 5.751a3.884 3.884 0 002.424 1.595c1.093.218 2.503.093 4.324-.485 1.822-.563 4.087-1.61 6.812-3.079 2.74-1.453 6.004-3.407 9.916-5.923zm-17.678-7.706c-.08.016-.982.157-2.677.407-.84.125-1.853.281-2.962.453-1.109.172-2.329.422-3.58.656l-7.413 1.407c-2.33.485-4.34.922-5.592 1.078-5.006.547-9.98-.187-10.978-2.86-1.204-3.188 3.374-8.58 13.306-11.878 0 0-.443.297-1.109.813a25.53 25.53 0 00-2.423 2.203c-1.743 1.798-3.422 4.158-3.39 6.283.016.938.253 1.688.966 2.204.713.5 1.838.86 3.707.922.934.032 2.043 0 3.374-.093 1.299-.11 2.836-.235 4.657-.376 3.548-.281 8.19-.89 14.114-1.219zm-29.606-12.941s-4.768.485-9.52.688c-2.408.187-4.816.344-6.7.266-1.886-.079-3.248-.36-3.597-.938-1.362-2.407 1.014-4.533 6.717-6.549 0 0-1.648 1-3.137 2.219-1.489 1.204-2.835 2.689-2.392 3.501.444.86 5.006.891 9.568.798 4.515.125 9.06.015 9.06.015zm59.925 26.086s.538 3.313.222 6.658c-.301 3.36-1.473 6.72-4.42 7.236 0 0-.713-.14-1.378-1.563-.697-1.422-1.267-4.204-1.505-9.362 0 0 .57.985 1.347 2.063.792 1.063 1.695 2.376 2.55 2.845.855.484 1.679-1.454 2.249-3.548.602-2.079.935-4.329.935-4.329zm-2.994-18.974c-.032.171.95-3.501 1.774-8.034.412-2.266.792-4.736.998-7.017.19-2.251.222-4.314 0-5.783-.871-5.861-2.17-10.91-7.714-12.691-5.529-1.845-7.762 6.908-6.479 15.207 0 0 .301-3.329 1.14-6.611.856-3.267 2.282-6.486 4.832-6.08 1.267.203 2.487 1.078 3.548 2.548 1.03 1.531 1.901 3.688 2.503 6.361.602 2.688.95 5.876.887 9.58-.095 3.751-.554 7.956-1.489 12.52zM93.65 127.972c.047.078-.46-.938-1.3-2.61-.427-.829-.95-1.829-1.52-2.923-.586-1.079-1.267-2.219-1.98-3.423a183.272 183.272 0 00-4.53-7.268c-1.537-2.219-2.994-4.11-4.008-5.267-4.008-4.704-10.011-7.736-12.974-6.642-3.69 1.375-2.392 8.877 3.2 18.161l-.729-2.032a58.372 58.372 0 01-1.441-4.673c-.935-3.548-1.584-7.518.063-9.018.729-.672 1.759-.75 3.168-.188.697.282 1.49.719 2.376 1.345a29.3 29.3 0 011.41 1.047c.491.422.998.875 1.521 1.391a67.633 67.633 0 013.485 3.61c.634.688 1.283 1.438 1.964 2.22a41.918 41.918 0 012.075 2.563c2.772 3.72 5.988 8.111 9.22 13.707zm-32.854-15.157s-3.96-3.314-8.459-6.486c-4.546-2.954-9.615-5.814-10.977-5.002-2.725 1.579-.966 4.314 3.358 9.159 0 0-.729-2.923 1.061-3.876.444-.234 1.632 0 3.153.5.76.25 1.6.563 2.47.907.872.375 1.759.812 2.646 1.25a137.15 137.15 0 016.748 3.548zm58.769 39.632s3.421.016 6.906-.656c3.469-.688 7.002-2.063 6.78-5.22 0 0-.349-.751-2.123-1.391-1.774-.61-4.926-1.188-10.534-.329 0 0 1.188.407 2.582 1.032 1.41.594 2.915 1.547 3.66 2.376.728.844-1.125 1.86-3.121 2.704-1.996.828-4.15 1.484-4.15 1.484z" fill="#fff"/><path d="M590.838 1.264c-1.758-3.313-15.175 1.782-17.25 2.642-7.398 3.016-14.035 7.658-20.086 12.785.966-.813 1.251-4.69 1.188-5.97-.111-2.33-1.647-5.143-4.198-5.721-3.374-.766-6.478 2.766-8.126 5.189a72.256 72.256 0 00-9.441 19.646c.159-3.017.317-6.111-.586-8.987-1.933-6.142-8.997-8.268-13.67-3.438-4.562 4.72-5.893 12.972-6.844 19.146-1.077 6.955-1.964 14.629-1.536 21.662-.317-5.44-.729-11.128-3.691-15.723-2.962-4.58-9.409-7.471-14.177-4.736-4.847 2.782-5.465 9.471-4.356 14.895 1.932 9.424 7.461 18.099 15.238 23.897-3.073.828-6.273.953-9.425 1.438-5.227.828-14.32 5.22-10.708 12.113 4.198 8.033 19.864 1.14 22.731-4.923a186.945 186.945 0 00-5.528 12.988c-.238.625-.048 1.719.586 1.469 2.344-4.47 4.689-8.956 7.033-13.426-3.342 6.377 1.711 18.208 9.314 19.146 9.061 1.125 5.56-9.362 3.58-13.629-.713-1.531-2.851-7.408-4.498-7.97a70.167 70.167 0 0027.499 3.656c3.215-.218 6.811-.875 8.601-3.516 3.77-5.517-2.534-10.94-7.302-12.707-5.212-1.938-11.041-2.203-16.427-.766 7.366-1.969 14.732-3.923 22.082-5.908 4.831-1.312 12.815-2.563 13.955-8.486 1.315-6.799-9.187-11.457-14.795-9.956 4.451-1.172 29.765-6.361 22.32-14.926-2.139-2.47-5.814-2.939-9.093-2.735 2.25-.141 6.574-4.595 8.348-5.986 5.323-4.189 10.803-9.05 15.381-14.192.919-1.047 4.768-5.298 3.881-6.97z" fill="#71BF9D"/><path d="M589.064 2.426c-35.118 18.646-64.012 48.248-82.07 83.29.206 1.969.444 3.938.935 5.907.507 1.97 1.172 3.86 2.043 5.627 1.584 3.345 5.845 8.393 10.059 6.017 2.487-1.36.697-6.377-1.236-11.206a128.225 128.225 0 00-3.025-6.643l-1.458-2.985s3.976.735 8.729 1.61c4.752.844 10.233 1.86 13.433 2.047 2.518.172 5.702.344 8.49-.03 2.788-.376 5.132-1.314 6.336-3.392 2.487-4.549-2.724-9.19-7.619-10.456-2.028-.516-4.071-1.016-6.764-1.282a44.179 44.179 0 00-4.61-.219c-1.758 0-3.77.094-6.019.375 1.045-.625 3.548-1.5 6.716-2.516a528.44 528.44 0 005.101-1.61c1.822-.547 3.786-1.047 5.703-1.594a986.945 986.945 0 005.639-1.626 89.287 89.287 0 005.227-1.547c1.6-.516 2.978-1.11 4.198-1.657 1.22-.547 2.186-1.125 2.836-1.766a4.979 4.979 0 001.378-2.547c.586-2.923-1.077-5.314-3.929-6.783-1.33-.688-2.74-1.079-4.15-1.344-1.061-.235-7.588-1.392-8.681-.844 1.98-1.25 4.832-2.486 7.762-3.517 2.962-.985 5.909-1.891 7.952-2.798 1.521-.64 4.245-1.25 6.416-2.297 1.093-.516 2.043-1.172 2.708-1.938.682-.766 1.03-1.704.872-2.892-.396-3.063-4.166-3.595-6.59-3.688-1.378-.047-2.709.11-4.087.218-.982.079-3.342-.234-4.087.313 0 0 2.123-1.578 4.451-3.329 2.361-1.704 5.022-3.454 5.893-4.142a98.022 98.022 0 002.297-1.813c.76-.578 1.489-1.14 2.218-1.688a92.924 92.924 0 003.96-3.313c1.204-1.125 2.392-2.079 3.453-3.08a72.893 72.893 0 002.931-2.844c1.742-1.875 3.231-3.407 4.34-4.767 1.061-1.375 1.822-2.485 2.249-3.25z" fill="#3C8460"/><path opacity=".7" d="M506.677 86.398l.048.234c8.079-5.658 13.053-14.535 18.343-22.788a216.567 216.567 0 0134.2-41.042c1.948-1.829 4.087-3.564 5.972-5.424-15.365 9.55-29.115 21.678-41.043 35.15a211.035 211.035 0 00-7.984 9.566c-2.803 3.563-5.512 7.252-7.381 11.363-1.854 4.047-2.852 8.564-2.155 12.94z" fill="#7D9C8B"/><path d="M530.581 48.03c8.332-9.737 17.646-18.63 27.8-26.46 10.091-7.893 21.1-14.63 32.6-20.209-11.231 6.127-21.717 13.457-31.539 21.506a211.94 211.94 0 00-26.865 26.805c-8.079 9.72-15.191 20.193-21.401 31.149-6.146 11.003-11.437 22.475-15.73 34.353-.538 1.61-1.742 1.25-1.188-.375 3.327-12.269 8.19-24.179 14.399-35.354 6.131-11.206 13.576-21.709 21.924-31.415z" fill="#71BF9D"/><path opacity=".3" d="M518.415 81.662c-.174-.016 3.612.656 8.063 1.407 2.233.375 4.625.766 6.796 1.047 2.201.312 4.197.531 5.575.516 5.545-.063 9.727-.282 11.263-4.048 1.442-3.798-6.368-8.003-14.446-8.237 0 0 2.027.64 3.96 1.797 1.932 1.157 3.77 2.813 3.453 4.752-.174.953-.618 1.797-1.505 2.469-.887.657-2.218 1.125-4.118 1.375-1.886.266-4.388.266-7.493.094-3.121-.156-6.907-.562-11.548-1.172zm12.673-14.41c.079-.016.95-.282 2.597-.766.824-.235 1.79-.532 2.868-.844 1.077-.297 2.296-.594 3.532-.907 2.439-.625 5.037-1.281 7.303-1.86 2.312-.531 4.324-.984 5.528-1.375 4.768-1.625 8.934-4.376 8.696-7.205-.285-3.392-6.764-6.346-17.171-5.142 0 0 .523.078 1.347.281.839.204 1.964.516 3.136.97 2.36.89 4.895 2.312 5.798 4.25.396.86.507 1.641.079 2.392-.428.75-1.299 1.547-2.962 2.391-.824.422-1.854.86-3.089 1.344-1.22.453-2.677.985-4.372 1.61-3.327 1.25-7.794 2.657-13.29 4.86zm21.178-24.163s4.531-1.579 8.903-3.376c2.249-.844 4.515-1.72 6.178-2.58 1.663-.859 2.788-1.687 2.851-2.36.19-2.75-2.883-3.672-8.902-3.094 0 0 1.916.22 3.801.688 1.87.469 3.739 1.235 3.675 2.172-.031.954-4.15 2.907-8.316 4.752a267.612 267.612 0 01-8.19 3.798zM509.354 91.9s.951 3.219 2.677 6.126c1.727 2.907 4.23 5.47 7.113 4.673 0 0 .586-.422.57-2 .016-1.579-.665-4.33-2.693-9.097 0 0-.095 1.126-.317 2.438-.253 1.298-.507 2.86-1.077 3.642-.554.797-2.138-.61-3.58-2.25-1.425-1.642-2.693-3.533-2.693-3.533zm-5.512-18.428c.111.14-2.376-2.766-5.085-6.517-1.346-1.876-2.756-3.955-3.944-5.924-1.141-1.953-2.06-3.813-2.503-5.236-1.743-5.673-2.756-10.784 1.489-14.723 4.198-4 9.995 2.986 12.435 11.02 0 0-1.711-2.892-3.897-5.502-2.186-2.595-4.863-4.908-6.986-3.454-1.061.718-1.79 2.016-2.107 3.797-.269 1.813-.11 4.127.492 6.815.617 2.688 1.694 5.72 3.342 9.034 1.711 3.36 3.944 6.955 6.764 10.69zm8.966-19.052c0 .094 0-1.047.047-2.907.032-.938.063-2.048.111-3.282.063-1.235.19-2.548.317-3.939.253-2.766.586-5.783.966-8.471.428-2.657.935-4.97 1.347-6.44 1.599-5.938 5.702-11.221 8.854-11.471 3.929-.297 6.004 7.033 4.959 17.77 0 0-.096-.828-.222-2.14a61.917 61.917 0 00-.713-4.83c-.697-3.595-1.806-7.471-3.96-8.128-.951-.297-1.917.063-2.947 1.157-.506.547-1.029 1.282-1.568 2.22a33.52 33.52 0 00-.823 1.547 39.33 39.33 0 00-.777 1.89 69.124 69.124 0 00-1.6 4.72c-.269.892-.538 1.845-.807 2.83a36.331 36.331 0 00-.761 3.188c-.903 4.533-1.916 9.862-2.423 16.286zm23.159-27.539s2.154-4.657 4.847-9.44c2.835-4.595 6.178-9.315 7.762-9.143 3.152.281 2.74 3.5.919 9.69 0 0-.602-2.954-2.646-3.063-.507-.032-1.473.687-2.629 1.781-.587.547-1.204 1.188-1.854 1.86-.618.704-1.235 1.47-1.853 2.235-2.408 3.048-4.546 6.08-4.546 6.08zM499.961 87.46s-3.089 1.454-6.526 2.314c-3.438.844-7.224 1.094-8.396-1.876 0 0-.016-.828 1.315-2.141 1.33-1.297 3.928-3.142 9.377-4.72 0 0-.903.875-1.9 2.016-1.014 1.125-1.965 2.626-2.281 3.689-.301 1.078 1.821 1.219 3.991 1.125 2.186-.094 4.42-.407 4.42-.407z" fill="#fff"/><path d="M33.55 188.301H760c-47.949-20.193-96.802-29.461-146.731-25.757 0 0 17.107-15.098 11.706-23.976-5.402-8.877-24.3 3.548-24.3 3.548s14.399-11.55 7.208-23.975c-7.208-12.441-43.213 9.768-43.213 9.768s58.515-36.416 35.102-59.5c-23.412-23.1-137.734 25.756-137.734 25.756s23.413-63.064-28.798-78.162C381.03.905 316.21 96.823 316.21 96.823s-10.803-85.259-54.904-79.054c-44.116 6.22-30.604 65.722-30.604 65.722s-47.711-22.21-61.208-8.878c-13.496 13.316-3.595 39.964-3.595 39.964s-11.707-14.207-19.801-7.111c-8.095 7.111 2.693 22.209 2.693 22.209s-42.31-16.879-48.615-8.877c-6.305 7.986 19.801 23.975 19.801 23.975-45.922 4.627-72.503 20.428-86.427 43.528z" fill="#71BF9D"/><path d="M105.102 188.301h464.114s28.909-21.193 7.809-38.151c-21.099-16.958-67.196.766-67.196.766s49.233-33.916 39.855-45.482c-9.377-11.566-117.98 13.879-117.98 13.879s28.133-67.847-6.257-82.492c-34.39-14.644-114.084 100.997-114.084 100.997s-17.964-99.45-45.32-95.589c-27.341 3.86-7.81 80.179-7.81 80.179s-52.353-40.856-68.764-25.445c-16.411 15.426 8.602 62.439 8.602 62.439s-52.797-12.347-92.969 28.899z" fill="#3C8460"/><path d="M49.454 180.486c15.001-15.442 38.493-24.632 71.315-27.929l23.111-2.329-19.737-12.082c-5.798-3.563-11.596-8.189-14.748-11.581 10.74.907 29.59 7.643 36.402 10.362l24.965 9.941-15.524-21.694c-3.105-4.407-5.196-10.722-3.913-11.863l.016-.015m453.722 35.322c3.216-2.094 9.425-5.189 13.005-5.423-.57 2.907-5.195 9.221-10.074 13.519l-17.377 15.348 23.254-1.719a284.408 284.408 0 0120.957-.782c26.01 0 52.416 3.658 78.902 10.925m-540.418-68.597c-2.249-6.111-6.305-23.788 1.758-31.743 1.268-1.25 4.261-1.97 8.206-1.97 17.155 0 43.767 12.27 44.037 12.395l14.636 6.798-3.532-15.582c-.063-.281-6.352-29.133 5.164-45.544 4.245-6.033 10.391-9.55 18.834-10.737a25.54 25.54 0 013.406-.25c27.278 0 39.95 52.358 42.516 72.535l2.661 20.787 11.786-17.426c14.858-21.96 61.572-78.96 98.829-78.96 3.248 0 6.4.438 9.378 1.297 11.373 3.298 19.12 9.19 23.666 18.052 10.534 20.506.031 49.64-.079 49.936l-6.257 17.036 16.854-7.189c.729-.313 73.77-31.322 112.627-31.322 10.787 0 14.874 2.454 16.363 3.908 2.519 2.485 3.485 4.986 3.136 8.111-1.457 12.785-23.38 30.868-36.861 39.261" stroke="#fff" stroke-miterlimit="10"/></svg>