<svg width="611" height="334" fill="none" xmlns="http://www.w3.org/2000/svg"><path d="M29.392 326.858c49.66 30.087 314.848-48.888 337.025-48.888 22.192 0 163.76 62.048 221.863 30.086 50.896-27.992-3.168-90.244-4.23-160.748-.206-13.363 44.37-102.466 16.902-126.91C573.485-4.046 386.186-12.158 280.83 29.79-11.81 146.371-32.64 289.285 29.392 326.858z" fill="#F4F2ED"/><path opacity=".3" d="M566.927 246.649c-55.252 19.661-64.725-44.95-78.934-84.274-11.057-28.086-55.252-25.288-80.518-11.237-59.988 30.899-94.726 87.086-167.34 96.917-36.306 4.22-77.349-12.644-80.518-40.73-7.888-88.493 99.464-147.478 189.438-168.562 33.154-8.425 155.175-32.76 183.228-35.807-71.425-7.002-180.171-1.532-251.437 26.85C-11.809 146.372-32.64 289.286 29.392 326.859c49.66 30.087 314.848-48.888 337.024-48.888 22.193 0 163.76 62.048 221.864 30.086 30.239-16.629 23.428-45.356 12.704-80.71-9.647 7.878-20.926 14.442-34.057 19.303z" fill="#DCE4E5"/><path d="M67.9 326.671c-20.497 0-29.843-3.064-34.073-5.611-18.121-10.972-27.103-31.556-24.616-56.453 3.28-32.885 26.28-70.614 64.772-106.264 48.362-44.778 119.042-85.868 210.078-122.112C330.316 17.803 398.795 7.238 471.947 7.238c67.655 0 113.307 9.128 123.445 18.146 16.696 14.863-1.695 67.206-11.563 95.323-5.212 14.848-7.715 22.194-7.651 26.695.411 26.992 8.284 52.687 15.238 75.349 12.625 41.168 18.518 65.143-7.271 79.319-9.773 5.377-23.333 8.096-40.314 8.096-42.659 0-98.053-17.051-134.692-28.336-23.254-7.158-35.705-10.894-42.707-10.894-6.589 0-24.648 4.283-61.62 13.207-65.928 15.911-176.274 42.528-236.912 42.528zm0 0c.016 0 0 0 0 0z" stroke="#fff" stroke-width=".946" stroke-miterlimit="10"/></svg>