<svg width="166" height="148" fill="none" xmlns="http://www.w3.org/2000/svg"><path d="M165.914 72.89l-104.61 40.95L0 31.254 102.061.494l63.853 72.396z" fill="#F4F2ED"/><path d="M0 31.253V66.31l59.814 81.163 1.49-33.634L0 31.254z" fill="#A1ABAD"/><path d="M61.303 113.839L165.914 72.89l-3.089 33.635-103.01 40.948 1.488-33.634z" fill="#DCE4E5"/><path d="M10.772 80.986l1.853-32.743 101.887-33.604L102.061.495 0 31.253V66.31l10.772 14.676z" fill="#FD6141"/><path d="M77.983 54.62c2.392 3.672 1.648 7.392-.982 10.002l.143.203c5.275-.578 10.407 1.72 13.496 6.44 4.831 7.408.887 13.707-6.495 16.754-5.496 2.267-13.702 4.048-15.381 1.47-.65-1-.729-4.095.428-4.58 1.093-.453 5.37.39 10.486-1.72 3.596-1.484 5.893-4.625 3.184-8.783-2.709-4.157-6.494-4.86-11.738-2.704l-1.837.75c-1.093.454-2.028-.03-3.058-1.61l-.506-.78c-1.03-1.58-.983-2.455.11-2.908l1.41-.578c4.816-1.985 5.212-5.549 3.501-8.174-1.537-2.36-4.467-3.892-8.744-2.126-5.006 2.063-5.608 4.454-6.716 4.908-.983.406-4.166-1.282-4.959-2.501-1.441-2.204 4.056-6.002 9.236-8.143 7.492-3.079 14.62-1.75 18.422 4.08zm41.804-5.096c8.015 12.3 6.431 21.147-2.044 24.648-8.364 3.438-18.422-.61-26.454-12.91-8.015-12.3-6.368-21.178 1.98-24.616 8.491-3.501 18.502.578 26.518 12.878zm-20.736 8.55c6.067 9.299 11.548 12.378 15.334 10.815 3.786-1.563 3.849-6.924-2.218-16.223-6.067-9.3-11.611-12.347-15.397-10.8-3.786 1.563-3.786 6.908 2.281 16.208z" fill="#000"/></svg>