<svg width="166" height="147" fill="none" xmlns="http://www.w3.org/2000/svg"><path d="M165.914 72.395l-104.61 40.949L0 30.759 102.061 0l63.853 72.395z" fill="#F4F2ED"/><path d="M0 30.759v35.056l59.814 81.163 1.49-33.634L0 30.759z" fill="#A1ABAD"/><path d="M61.303 113.344l104.611-40.949-3.089 33.635-103.01 40.949 1.488-33.635z" fill="#DCE4E5"/><path d="M10.772 80.491l1.853-32.743 101.887-33.603L102.061 0 0 30.759v35.056l10.772 14.676z" fill="#FD6141"/><path d="M77.983 54.124c2.392 3.673 1.648 7.393-.982 10.003l.143.204c5.275-.579 10.407 1.719 13.496 6.439 4.831 7.408.887 13.707-6.495 16.755-5.496 2.266-13.702 4.047-15.381 1.469-.65-1-.729-4.095.428-4.58 1.093-.453 5.37.391 10.486-1.719 3.596-1.485 5.893-4.626 3.184-8.784-2.709-4.157-6.494-4.86-11.738-2.704l-1.837.75c-1.093.454-2.028-.03-3.058-1.61l-.506-.78c-1.03-1.58-.983-2.454.11-2.908l1.41-.578c4.816-1.985 5.212-5.548 3.501-8.174-1.537-2.36-4.467-3.892-8.744-2.126-5.006 2.063-5.608 4.455-6.716 4.908-.983.406-4.166-1.282-4.959-2.5-1.441-2.205 4.056-6.002 9.236-8.144 7.492-3.079 14.62-1.75 18.422 4.08zm41.804-5.094c8.015 12.3 6.431 21.146-2.044 24.647-8.364 3.438-18.422-.61-26.454-12.91-8.015-12.3-6.368-21.178 1.98-24.616 8.491-3.501 18.502.578 26.518 12.878zm-20.736 8.549c6.067 9.299 11.548 12.378 15.334 10.815 3.786-1.563 3.849-6.924-2.218-16.223-6.067-9.3-11.611-12.347-15.397-10.8-3.786 1.563-3.786 6.908 2.281 16.208z" fill="#000"/></svg>