<svg width="94" height="116" fill="none" xmlns="http://www.w3.org/2000/svg"><path d="M87.572 32.65l-49.36-21.63a1.893 1.893 0 01-.982-2.501l2.883-6.408a1.939 1.939 0 012.535-.97l49.359 21.631a1.893 1.893 0 01.982 2.501l-2.883 6.408c-.412.954-1.552 1.391-2.534.97zM5.58 83.555l49.36 21.631a1.893 1.893 0 01.982 2.501l-2.883 6.408a1.939 1.939 0 01-2.535.969L1.145 93.433a1.893 1.893 0 01-.982-2.5l2.883-6.409c.412-.953 1.552-1.39 2.535-.969z" fill="#F99441"/><path d="M84.277 43.2l4.752-10.565L37.262 9.94 32.51 20.506c-4.737 10.503 5.575 25.82 11.136 32.963l-2.52 5.595c-9.092.703-27.514 3.438-32.25 13.957L4.122 83.586l51.783 22.679 4.752-10.566c4.737-10.503-5.576-25.82-11.136-32.962l2.519-5.596c9.077-.703 27.5-3.438 32.236-13.94z" fill="#FFD25A"/><path d="M9.113 81.68l3.216-7.159C15.1 68.38 25.967 63.987 41.412 62.784c1.378-.11 2.598-.954 3.152-2.204l2.519-5.595c.57-1.25.38-2.704-.46-3.798-9.456-12.113-13.448-23.022-10.676-29.165l3.216-7.158 44.86 19.662-3.215 7.158c-2.773 6.142-13.64 10.534-29.084 11.738-1.378.11-2.598.953-3.152 2.204l-2.519 5.595c-.57 1.25-.38 2.704.46 3.798C55.969 77.13 59.96 88.04 57.189 94.183l-3.215 7.158L9.113 81.68z" fill="#FFEDD7"/><path d="M46.053 61.22l2.519-5.594a3.79 3.79 0 013.152-2.204c4.736-.375 9.045-1.047 12.815-1.97-11.69-5.954-21.892-14.316-29.4-25.897-.428 6.36 3.643 15.582 11.484 25.632a3.697 3.697 0 01.46 3.798l-2.503 5.58c-.253.578-8.364 11.456-8.855 11.815.776.485.507 1.75 1.315 2.11-.111-.656 8.728-12.613 9.013-13.27z" fill="#E57E55"/><path d="M21.31 67.16c-4.546 1.97-7.667 4.47-8.966 7.361L9.13 81.68l44.86 19.661 1.236-2.75C48.619 82.1 38.576 65.019 21.31 67.16z" fill="#E57E55"/><path opacity=".4" d="M39.733 20.178c-2.012 1.797-3.818 13.926 7.778 24.616 11.579 10.69 29.463-1.313 28.956-3-.507-1.688-12.435 2.422-21.733-5.486-9.314-7.909-13.053-17.88-15.001-16.13zm14.351 74.599c1.98-1.829 3.596-13.973-8.142-24.507s-29.447 1.75-28.909 3.439c.539 1.688 12.403-2.595 21.829 5.173 9.409 7.768 13.29 17.677 15.222 15.895z" fill="#fff"/><path d="M16.146 80.476c-.966 1.235-2.313 1.813-2.994 1.297-.68-.515-.443-1.953.523-3.188s2.313-1.813 2.994-1.297.444 1.938-.523 3.188zM80.269 38.98c-.776 1.36-2.028 2.126-2.772 1.72-.745-.423-.729-1.86.047-3.22s2.028-2.126 2.772-1.72c.76.407.73 1.86-.047 3.22z" fill="#fff"/></svg>