<svg width="231" height="298" fill="none" xmlns="http://www.w3.org/2000/svg"><path d="M95.88 50.795s-26.013 10.323-30.614 9.577c-4.61-.739-26.326-22.353-26.326-22.353-.802-1.096 4.168-6.797 5.667-6.082L67.68 47.055S88.722 33.93 98.83 32.111c10.117-1.818 6.181 16.215-2.95 18.684z" fill="#3E2344"/><path d="M44.865 48.31l-32.042 3.764L.269 15.143l29.068-1.017a1.11 1.11 0 011.058.667l14.47 33.517z" fill="#C1C9CB"/><path d="M.26 15.145l-.208 1.08a2.8 2.8 0 00.104 1.452l12.33 35.788.328-1.381L.26 15.144z" fill="#9894A2"/><path d="M12.485 53.463l31.217-3.755a1.279 1.279 0 001.106-1.056l.056-.334-32.042 3.764-.337 1.381z" fill="#75707F"/><path d="M42.194 45.76l-28.146 3.328-11.07-32.572 26.294-.921L42.194 45.76z" fill="#A4A2A7"/><path d="M41.714 45.816L13.96 49.103 3.034 16.983l25.941-.912 12.739 29.745z" fill="#fff"/><path opacity=".1" d="M28.382 38.646c-3.936-5.194 2.028-13.078 1.435-20.582l-.85-1.993-3.527.127c-.577 8.663-8.586 15.968-14.63 23.67l3.142 9.235 27.753-3.28-3.134-7.344c-2.661 2.827-7.48 3.859-10.189.167z" fill="#3C8460"/><path d="M26.378 48.595l.337.794a.35.35 0 00.344.206l5.107-.508c.224-.023.489-.214.297-.587l-.385-.682c-.056-.135-.2-.207-.345-.199l-5.195.413c-.216.024-.248.357-.16.563z" fill="#75707F"/><path d="M26.378 48.381l.336.794c.056.135.2.214.345.206l5.107-.508a.334.334 0 00.272-.468l-.36-.802c-.057-.135-.201-.206-.345-.198l-5.083.508a.34.34 0 00-.272.468z" fill="#fff"/><path d="M12.718 23.415l-5.219.278-1.218-3.524 5.242-.254 1.195 3.5zm1.627 4.731l-5.187.31-1.218-3.5 5.21-.278 1.195 3.468zm1.603 4.694l-5.154.334-1.203-3.46 5.179-.318 1.178 3.444zm1.596 4.662l-5.123.357-1.194-3.437 5.146-.341 1.17 3.42zm1.579 4.613l-5.09.389-1.179-3.405 5.114-.373 1.155 3.389zm1.571 4.582l-5.058.412-1.179-3.373 5.09-.397 1.147 3.358z" stroke="#5E8AAF" stroke-width=".304" stroke-miterlimit="10"/><path d="M7.716 22.344l1.202-.239 1.796 1.112c.433-1.39 1.25-2.81 2.236-4.24-.785 1.628-1.394 3.55-1.892 5.63l-3.342-2.263zm1.634 4.972l1.203-.239 1.796 1.112c.433-1.39 1.25-2.811 2.237-4.24-.786 1.627-1.395 3.55-1.892 5.63L9.35 27.316zm1.668 4.51l1.203-.239 1.796 1.112c.432-1.39 1.25-2.81 2.236-4.24-.786 1.628-1.395 3.55-1.892 5.63l-3.343-2.263zm1.652 4.684l1.202-.238 1.796 1.112c.433-1.39 1.25-2.811 2.237-4.24-.786 1.628-1.395 3.55-1.892 5.63L12.67 36.51zm1.122 4.582l1.203-.238 1.795 1.112c.433-1.39 1.251-2.811 2.237-4.24-.786 1.627-1.395 3.549-1.892 5.63l-3.343-2.264zm1.652 4.678l1.202-.239 1.796 1.112c.433-1.39 1.25-2.811 2.236-4.24-.785 1.627-1.395 3.549-1.892 5.63l-3.342-2.264z" fill="#B53333"/><path d="M43.373 31.659s-1.587-3.613-2.309-4.574c-.721-.96-3.439-2.446-4.465-2.612-1.026-.167-1.86.357-2.87.325a10.815 10.815 0 01-2.878-.484.576.576 0 00-.641.445c-.248 1.103-.24 3.557 5.074 2.93l4.161 7.94c1.098 1.08 5.034-2.89 3.928-3.97z" fill="#FFB072"/><path d="M81.764 143.318l4.008 11.347s1.363 2.184 1.684 2.978c.32.778.858 3.255.858 3.255-.698 1.112-3.744 2.597-5.516 2.78l-.409-.135s-.232.301-2.252 1.707c-2.06 1.437-8.754 4.264-10.085 3.851 0 0-2.205-2.994.313-4.796 6.3-4.51 6.573-6.773 6.204-9.1-.465-2.93-2.469-9.918-2.469-9.918l7.664-1.969z" fill="#A1ABAD"/><path d="M75.864 158.532s1.788-.953 3.247-.341c1.379.579 2.493 1.096 3.872.206 3.535-2.279 2.132-5.145 4.313-4.47l3.15 7.694-20.827 9.441-2.445-5.812 8.69-6.718z" fill="#3E2344"/><path d="M69.226 168.466s.69.889 7.223-2.112c6.534-2.994 6.51-4.733 11.76-6.702l.473 1.906-18.798 9.568-.658-2.66z" fill="#7C4284"/><path d="M99.088 87.814c-12.955.89-51.49 12.236-52.484 17.223-1.668 8.401 17.363 36.606 28.867 51.121l10.678-3.931c-5.267-13.483-11.68-25.854-19.231-37.113 0 0 41.846-1.072 48.828-14.008 6.982-12.935-1.707-14.316-16.658-13.292z" fill="#19323A"/><path d="M88.819 102.115s-28.731 6.694-29.509 8.242c-.778 1.548 19.76 40.298 19.76 40.298" stroke="#234159" stroke-width=".5" stroke-miterlimit="10"/><path opacity=".2" d="M171.813 291.79c0 2.969-30.687 5.383-68.549 5.383-37.862 0-68.549-2.406-68.549-5.383 0-2.97 30.687-5.384 68.549-5.384 37.854 0 68.549 2.406 68.549 5.384z" fill="#3E2344"/><path d="M81.772 166.742c-1.587-.477-.978-2.478.61-2.009l20.097 7.146c2.38.707 1.306 4.256-1.075 3.542l-19.632-8.679z" fill="#DD4026"/><path d="M85.933 166.179l-7.143 2.191a2.054 2.054 0 01-2.565-1.342l-.2-.635 11.062-3.398.2.635a2.04 2.04 0 01-1.354 2.549z" fill="#FFBE57"/><path d="M83.19 165.614a1.273 1.273 0 01-.937 1.548 1.287 1.287 0 01-1.563-.929 1.272 1.272 0 01.938-1.548c.689-.166 1.394.246 1.563.929zm17.846 8.695a1.28 1.28 0 01.256-1.794 1.31 1.31 0 011.812.254 1.28 1.28 0 01-.257 1.794 1.305 1.305 0 01-1.811-.254z" fill="#7C4284"/><path d="M132.813 267.738c10.504-16.713 5.315-38.654-11.591-49.006-16.905-10.353-39.125-5.197-49.629 11.516-10.504 16.713-5.314 38.654 11.591 49.007 16.906 10.353 39.125 5.196 49.629-11.517z" fill="#fff"/><path d="M130.135 245.828c-.28.067-.555.107-.825.121a2.51 2.51 0 01-.669-.045c-.176-.043-.275-.11-.297-.202-.019-.075-.004-.178.044-.309.052-.138.104-.213.158-.226.027-.006.109 0 .244.018.172.028.341.044.508.05.172.004.363-.019.573-.069.28-.067.505-.207.676-.418.174-.219.218-.505.132-.86-.087-.355-.246-.584-.476-.689-.227-.11-.528-.121-.905-.031l-.251.06c-.064.016-.118.006-.161-.029a.508.508 0 01-.095-.217l-.026-.104a.451.451 0 01-.013-.228c.022-.051.065-.084.13-.099l.21-.05c.232-.056.411-.15.538-.283a.898.898 0 00.232-.448 1.024 1.024 0 00-.001-.461.761.761 0 00-.328-.468c-.17-.113-.411-.132-.723-.057a2.111 2.111 0 00-.519.184 2.358 2.358 0 00-.361.24.635.635 0 01-.155.097c-.054.013-.133-.031-.238-.131-.104-.1-.166-.191-.185-.272-.033-.134.103-.286.409-.456.306-.17.624-.295.952-.373.501-.12.929-.092 1.286.084.356.177.59.494.702.951.065.269.047.518-.057.748a1.414 1.414 0 01-.475.574l.008.033c.301.019.578.137.83.356.257.212.431.506.523.882.092.376.084.714-.026 1.014-.11.294-.288.535-.532.725a2.264 2.264 0 01-.837.388zm-55.089 13.161c-.091.022-.182-.021-.271-.131a.848.848 0 01-.157-.295c-.015-.059 0-.103.045-.131.45-.301.795-.662 1.034-1.084.243-.428.377-.882.403-1.36-.25.236-.563.399-.94.49a1.62 1.62 0 01-.806-.012 1.584 1.584 0 01-.72-.426 1.82 1.82 0 01-.436-.843 1.734 1.734 0 01.018-.977c.097-.302.264-.553.5-.752.242-.2.524-.339.847-.416.554-.133 1.031-.059 1.43.221.403.273.686.743.849 1.41.187.769.168 1.471-.06 2.106-.22.634-.517 1.149-.887 1.545-.372.39-.655.609-.849.655zm.189-3.255c.296-.071.574-.226.835-.465a4.987 4.987 0 00-.078-.459c-.116-.473-.291-.784-.527-.933a.932.932 0 00-1.174.094.925.925 0 00-.264.422 1.048 1.048 0 00-.005.573c.08.333.233.561.457.684s.476.151.756.084zm34.212-29.903c-.064.016-.118.006-.161-.03a.48.48 0 01-.095-.216l-.026-.105a.447.447 0 01-.013-.227c.02-.056.063-.092.128-.107l1.308-.313-1.012-4.138-1.279.537c-.059.014-.118-.029-.177-.129a1.158 1.158 0 01-.127-.311c-.022-.091.017-.163.118-.216l1.816-.861a.358.358 0 01.199.012c.067.018.107.051.118.1l1.176 4.807 1.074-.257c.064-.015.116-.002.155.04.043.035.076.104.101.206l.026.105a.429.429 0 01.007.237c-.017.05-.057.082-.122.098l-3.214.768zm12.956 7.407c-.048.012-.104-.029-.166-.122a.982.982 0 01-.132-.293c-.015-.065-.015-.11.001-.137l1.444-3.077c.135-.311.216-.541.242-.69a1.151 1.151 0 00-.023-.481.725.725 0 00-.399-.511c-.201-.1-.444-.115-.729-.047-.2.047-.365.118-.496.212a2.902 2.902 0 00-.376.312c-.083.082-.137.127-.164.133-.065.016-.148-.021-.25-.111a.605.605 0 01-.174-.257c-.029-.118.026-.245.164-.381.143-.136.324-.259.542-.368.222-.116.433-.198.632-.245.539-.129.993-.101 1.363.084.37.184.609.497.717.938.059.242.076.465.052.67-.024.205-.1.463-.23.772-.124.309-.343.788-.657 1.438l-.598 1.261 2.189-.523c.065-.015.116-.005.153.032.043.035.077.104.102.206l.025.105c.025.102.028.181.007.237-.016.05-.057.082-.121.098l-3.118.745zm9.294 26.411c-.21.05-.332.008-.365-.126l-.27-1.105-2.358.563c-.048.012-.112-.038-.19-.15a.932.932 0 01-.152-.306c-.012-.048-.014-.079-.006-.092l1.683-4.27c.045-.096.148-.163.31-.202l.153-.037c.21-.05.332-.008.365.127l.851 3.484.477-.114c.064-.015.116-.002.155.04.043.035.077.104.102.206l.025.105a.429.429 0 01.007.237c-.016.05-.057.082-.122.098l-.476.114.27 1.105c.033.134-.056.226-.265.277l-.194.046zm-.802-1.917l-.436-1.783a2.994 2.994 0 01-.103-.666l-.036-.009-1.089 2.856 1.664-.398zm-7.903 14.555a4.04 4.04 0 01-.802.114c-.25.003-.452-.02-.606-.068-.149-.05-.233-.115-.253-.196-.02-.08-.003-.187.05-.319.052-.138.107-.213.167-.228a.255.255 0 01.094.003l.115.016c.174.032.341.052.502.059.161.007.347-.015.557-.065.323-.077.569-.236.738-.475.174-.247.218-.542.134-.886-.082-.339-.256-.571-.52-.695-.264-.125-.617-.134-1.058-.029l-.743.178c-.092.022-.161.018-.208-.01-.043-.036-.076-.102-.1-.199l-.438-2.388c-.017-.092-.009-.165.023-.219.038-.054.103-.092.194-.114l2.213-.529c.065-.016.116-.003.155.039.043.036.077.104.102.207l.031.129c.023.091.023.162.001.213-.016.049-.057.082-.121.097l-1.712.41.273 1.539.356-.085c.56-.134 1.061-.111 1.504.067.446.173.744.565.894 1.178.155.635.073 1.138-.246 1.51-.315.366-.747.614-1.296.746zm-28.003 7.424c-.13.031-.23.043-.299.037-.064-.007-.103-.038-.116-.091a.706.706 0 01.004-.121l1.084-5.253-2.415.577c-.064.015-.118.005-.161-.03a.499.499 0 01-.096-.216l-.025-.105a.442.442 0 01-.013-.227.169.169 0 01.128-.108l3.19-.762c.037-.009.093.043.166.156a.97.97 0 01.141.299.34.34 0 01.008.101l-1.105 5.48c-.02.102-.133.177-.338.226l-.153.037zm-11.805-7.766c-.555.133-1.03.09-1.425-.129-.395-.218-.658-.594-.788-1.126-.094-.382-.09-.702.013-.959.1-.264.27-.489.51-.677-.5-.16-.817-.511-.95-1.054-.107-.435-.043-.818.19-1.146.231-.335.587-.559 1.066-.674.463-.11.873-.075 1.231.107.358.182.59.488.695.918.076.312.07.581-.017.807a1.51 1.51 0 01-.445.593c.33.063.605.188.827.374.22.181.38.473.48.876.125.516.063.961-.188 1.334-.25.373-.65.625-1.2.756zm-.663-3.444c.354-.347.486-.705.395-1.076-.059-.242-.176-.408-.352-.497a.836.836 0 00-.604-.06.846.846 0 00-.512.319c-.115.158-.143.361-.082.608a.79.79 0 00.23.415.98.98 0 00.373.201c.145.033.33.063.552.09zm.495 2.758a.937.937 0 00.613-.428c.139-.227.171-.49.097-.791-.052-.216-.143-.379-.273-.49a.927.927 0 00-.422-.223 4.843 4.843 0 00-.643-.111 1.597 1.597 0 01-.201-.021c-.175.173-.3.362-.374.568-.07.204-.072.441-.007.71.08.323.23.551.45.686.222.135.475.169.76.1z" fill="#000"/><path d="M73.283 245.635c-.065.015-.118.006-.161-.03a.501.501 0 01-.096-.216l-.026-.105a.442.442 0 01-.013-.227.165.165 0 01.128-.107l1.309-.313-1.014-4.137-1.28.536c-.059.014-.118-.029-.176-.129a1.134 1.134 0 01-.128-.311c-.022-.091.017-.163.118-.216l1.816-.859a.343.343 0 01.2.012c.066.018.106.051.118.099l1.177 4.807 1.075-.256c.064-.016.116-.002.155.04.043.035.076.104.102.206l.025.105a.423.423 0 01.007.237c-.016.049-.057.082-.121.097l-3.215.767zm3.896 9.411a1.597 1.597 0 01-1.03-.087c-.333-.149-.633-.418-.9-.81-.268-.397-.479-.91-.633-1.539-.154-.629-.203-1.178-.147-1.647.055-.474.197-.849.425-1.125.227-.282.519-.466.874-.55.356-.085.7-.053 1.032.095.337.142.64.411.908.808.272.39.485.9.64 1.529.153.629.2 1.181.14 1.656-.056.469-.2.845-.433 1.128-.229.276-.52.457-.876.542zm-.168-.686c.302-.072.505-.311.61-.717.106-.407.068-.981-.114-1.723-.181-.742-.413-1.27-.696-1.584-.282-.314-.573-.435-.875-.363-.296.071-.497.309-.603.716-.1.405-.059.979.123 1.721.182.741.411 1.27.688 1.585.282.314.571.436.867.365zm3.814-21.295c-.064.016-.118.006-.16-.03a.499.499 0 01-.097-.216l-.025-.105a.443.443 0 01-.013-.227.166.166 0 01.127-.107l1.309-.312-1.014-4.138-1.28.536c-.059.014-.117-.029-.176-.128a1.166 1.166 0 01-.128-.311c-.022-.092.017-.164.118-.216l1.816-.86a.343.343 0 01.2.012c.067.018.106.051.118.1l1.178 4.806 1.074-.256c.064-.015.116-.002.155.04.043.035.077.104.102.206l.025.105a.425.425 0 01.007.237c-.016.05-.057.082-.121.097l-3.215.767zm2.38 9.713c-.064.015-.118.005-.16-.03a.5.5 0 01-.097-.216l-.025-.105a.442.442 0 01-.013-.227.169.169 0 01.127-.108l1.309-.312-1.014-4.137-1.28.536c-.059.014-.118-.029-.176-.129a1.153 1.153 0 01-.128-.311c-.022-.091.017-.163.118-.216l1.816-.86a.352.352 0 01.2.013c.066.018.106.051.118.099l1.178 4.807 1.074-.256c.064-.016.116-.002.155.039.043.036.077.105.102.207l.025.105a.423.423 0 01.007.237c-.016.049-.057.082-.121.097l-3.215.767zm26.857 36.73c-.549.132-1.025.06-1.428-.213-.399-.28-.68-.754-.843-1.421-.188-.769-.172-1.47.049-2.103.222-.634.518-1.146.89-1.536.37-.396.655-.618.855-.665.086-.021.174.026.265.141.089.11.144.205.164.285.014.059-.001.103-.045.131-.45.306-.796.671-1.041 1.094a2.977 2.977 0 00-.404 1.351c.255-.237.571-.401.948-.491.269-.065.538-.06.806.012.269.072.507.218.714.435.211.212.359.49.443.834.086.355.081.683-.016.985a1.598 1.598 0 01-.51.745 2.017 2.017 0 01-.847.416zm-.135-.693a.928.928 0 00.4-.215.98.98 0 00.271-.432c.054-.172.056-.364.005-.573-.082-.334-.234-.562-.458-.685-.219-.124-.468-.153-.748-.086a1.9 1.9 0 00-.843.467c.008.055.018.121.031.197.013.077.031.163.055.26.116.473.289.787.521.943.236.148.491.19.766.124z" fill="#000"/><path d="M129.962 267.293c10.199-15.233 6-35.772-9.379-45.874-15.379-10.103-36.114-5.943-46.314 9.29-10.199 15.233-6 35.772 9.38 45.874 15.379 10.103 36.114 5.943 46.313-9.29z" stroke="#E2E2E2" stroke-width="1.031" stroke-miterlimit="10"/><path d="M93.718 226.178c-.065.015-.118.005-.161-.03a.499.499 0 01-.096-.216l-.025-.105a.446.446 0 01-.014-.228c.021-.056.064-.091.128-.107l1.309-.312-1.014-4.137-1.28.535c-.059.015-.118-.028-.176-.128a1.16 1.16 0 01-.128-.311c-.022-.092.017-.164.118-.216l1.816-.86a.36.36 0 01.2.012c.066.018.106.052.118.1l1.177 4.807 1.075-.257c.064-.015.116-.002.155.04.043.035.076.104.102.206l.025.105a.428.428 0 01.007.238c-.016.049-.057.081-.121.097l-3.215.767zm2.283 9.735c-.048.012-.104-.029-.167-.122a.96.96 0 01-.131-.293c-.016-.064-.016-.11 0-.137l1.444-3.076c.134-.311.215-.54.241-.689a1.162 1.162 0 00-.024-.481.724.724 0 00-.398-.511c-.201-.1-.445-.116-.73-.047-.2.047-.365.118-.495.212a2.937 2.937 0 00-.377.311c-.083.083-.137.127-.164.133-.065.016-.148-.021-.25-.111a.594.594 0 01-.174-.257c-.029-.118.026-.245.163-.38.144-.137.325-.26.543-.369a2.83 2.83 0 01.632-.245c.539-.128.993-.1 1.363.085s.61.498.718.939c.059.242.077.465.053.67-.024.205-.1.462-.23.772-.124.308-.343.787-.657 1.437l-.597 1.26 2.189-.522c.064-.015.115-.005.153.032.043.035.077.104.102.206l.025.105a.424.424 0 01.007.237c-.016.05-.057.082-.121.098l-3.118.743z" fill="#000"/><path d="M102.118 249.022v-.008l-.008-.008m.009.009l-.009-.009m.009.018v-.009" stroke="#000" stroke-width="2.705" stroke-miterlimit="10" stroke-linecap="round" stroke-linejoin="round"/><path d="M92.185 208.367c-22.662 5.432-36.595 28.03-31.112 50.486 5.484 22.448 28.298 36.248 50.969 30.817 22.663-5.431 36.596-28.03 31.112-50.486-5.483-22.455-28.298-36.248-50.969-30.817zm18.11 74.172c-18.695 4.479-37.51-6.9-42.03-25.417-4.522-18.517 6.965-37.154 25.66-41.632 18.694-4.479 37.509 6.9 42.03 25.417 4.522 18.518-6.966 37.154-25.66 41.632z" fill="#A1ABAD"/><path d="M110.346 254.318c2.961-4.511 1.669-10.546-2.886-13.478-4.554-2.933-10.646-1.653-13.607 2.858-2.96 4.512-1.669 10.546 2.886 13.479 4.554 2.933 10.647 1.653 13.607-2.859z" fill="#A1ABAD"/><path d="M107.824 253.02c2.236-3.123 1.493-7.45-1.66-9.665-3.153-2.214-7.521-1.478-9.757 1.645-2.236 3.122-1.493 7.45 1.66 9.664 3.153 2.215 7.521 1.479 9.757-1.644z" fill="#3E2344"/><path d="M91.536 205.681c-24.162 5.788-39.008 29.88-33.164 53.813 5.844 23.932 30.166 38.638 54.328 32.849 24.161-5.788 39.008-29.88 33.164-53.812-5.852-23.925-30.174-38.639-54.328-32.85zm19.304 79.071c-19.93 4.773-39.987-7.36-44.805-27.093-4.817-19.74 7.432-39.607 27.353-44.379 19.929-4.772 39.986 7.361 44.804 27.093 4.818 19.732-7.431 39.607-27.352 44.379z" fill="#3E2344"/><path opacity=".5" d="M70.58 277.6c.217.119.37.294.538.46.144.183.312.334.425.556.128.246.04.476-.193.508a.54.54 0 01-.304-.064 2.088 2.088 0 01-.57-.436c-.152-.183-.304-.365-.4-.588-.113-.261-.016-.484.216-.507a.444.444 0 01.289.071zm1.844 1.881c.225.111.393.27.57.421.168.158.344.309.464.523.145.239.073.477-.152.516a.6.6 0 01-.305-.039c-.232-.096-.416-.246-.609-.397-.16-.175-.328-.341-.44-.564-.129-.254-.049-.484.184-.516a.488.488 0 01.288.056zm1.988 1.762c.233.095.41.246.593.381.177.151.361.294.506.492.16.23.112.468-.12.532a.534.534 0 01-.313-.024c-.24-.079-.433-.222-.634-.357-.176-.159-.352-.318-.48-.532-.153-.246-.08-.484.144-.532.096-.016.2 0 .304.04zm3.833 2.781c.24.064.44.183.649.302.192.135.385.27.537.453.193.206.168.444-.048.532a.591.591 0 01-.313.015c-.248-.063-.449-.19-.657-.309-.192-.135-.393-.27-.553-.461-.184-.222-.144-.46.072-.54a.617.617 0 01.313.008zm2.917 1.715c.16 0 .289.064.425.127.12.08.24.151.329.287.168.254.08.501-.216.565-.032.007-.073.007-.113.007-.168 0-.296-.071-.425-.127-.12-.079-.248-.151-.328-.286-.169-.263-.064-.509.224-.557.024-.016.064-.016.104-.016zm2.574 1.286c.168-.008.296.048.432.096.129.071.249.135.345.262.185.247.105.51-.184.573a.475.475 0 01-.112.016c-.169.008-.297-.048-.433-.103-.129-.072-.257-.136-.353-.271-.184-.246-.096-.501.192-.565.032 0 .073 0 .113-.008zm-23.408-31.619c.312 1.906.77 3.78 1.282 5.638.513 1.858 1.179 3.677 1.908 5.455.778 1.763 1.595 3.518 2.614 5.162.97 1.675 2.116 3.247 3.302 4.78.177.206.2.46.048.563-.144.104-.4.032-.577-.158-1.266-1.517-2.477-3.097-3.487-4.788-1.058-1.668-1.908-3.447-2.71-5.241-.729-1.819-1.394-3.669-1.9-5.566-.496-1.89-.905-3.812-1.154-5.749-.04-.27.08-.501.265-.524.192-.008.369.174.409.428zm-.777-1.255c-.104-.182-.136-.381-.168-.571-.016-.199-.04-.389.024-.596.08-.277.313-.397.513-.262.064.04.12.112.16.183.097.183.129.373.16.563.017.191.033.389-.023.588-.072.278-.297.405-.505.27a.427.427 0 01-.16-.175zm-.241-2.223c-.096-.191-.12-.381-.152-.58 0-.198-.008-.397.056-.595.088-.278.329-.389.521-.246a.52.52 0 01.152.191c.088.19.112.38.137.571 0 .19.016.389-.04.587-.08.278-.313.389-.514.254a.398.398 0 01-.16-.182zm-.16-2.224a19.702 19.702 0 01-.161-2.382c0-.794.024-1.596.128-2.39.04-.27.217-.453.401-.413.152.032.257.214.273.421.056.786.04 1.572.064 2.358-.016.786.016 1.572-.032 2.359-.008.27-.169.468-.361.436-.152-.016-.28-.182-.313-.389zm.072-6.795c-.072-.12-.064-.239-.064-.358.024-.12.032-.239.12-.351.2-.262.497-.246.665.024l.008.016c.072.12.065.239.065.358-.025.12-.033.231-.12.35-.201.263-.498.255-.666-.016l-.008-.023zm.216-2.389c-.064-.128-.048-.247-.048-.366.024-.12.048-.239.145-.35.224-.255.513-.207.657.071l.008.016c.064.127.048.239.048.358-.024.111-.048.231-.144.334-.209.247-.505.231-.658-.048l-.008-.015zm74.329-20.068c-.217-.12-.369-.286-.529-.445-.145-.175-.313-.325-.417-.54-.12-.246-.04-.468.192-.5a.532.532 0 01.305.056c.224.111.401.262.569.421.144.174.297.349.393.571.112.254.008.476-.217.492-.096.024-.2 0-.296-.055zm-1.836-1.826c-.224-.104-.385-.262-.561-.405-.168-.151-.337-.302-.465-.508-.144-.238-.072-.46.16-.508a.588.588 0 01.305.04c.232.095.417.238.601.381.16.166.329.333.433.547.128.246.048.476-.184.508a.587.587 0 01-.289-.055zm-1.972-1.708c-.232-.087-.401-.238-.593-.365-.177-.143-.361-.278-.497-.476-.161-.223-.104-.461.12-.516a.536.536 0 01.313.024c.24.079.433.214.633.341.176.151.353.309.481.516.144.238.08.468-.144.516a.542.542 0 01-.313-.04zm-3.8-2.684c-.24-.063-.441-.182-.641-.294-.192-.127-.385-.262-.537-.445-.184-.198-.168-.437.056-.516.088-.032.2-.04.313-.016.24.056.449.183.649.294.192.135.393.262.545.445.177.215.144.453-.08.525a.5.5 0 01-.305.007zm-2.91-1.647c-.16 0-.289-.064-.417-.12-.12-.071-.24-.143-.32-.278-.169-.247-.081-.485.224-.549.032-.008.072-.008.112-.008.169 0 .297.064.425.127.12.08.241.151.329.279.168.254.056.493-.233.541-.04 0-.08.008-.12.008zm-2.557-1.249c-.169.008-.297-.048-.425-.095-.12-.072-.249-.128-.345-.255-.184-.246-.104-.493.185-.557a.472.472 0 01.112-.016c.168-.008.296.048.433.096.128.071.256.135.352.262.185.239.097.494-.192.557-.04 0-.08.008-.12.008zm23.175 30.697c-.304-1.859-.745-3.685-1.242-5.495-.497-1.811-1.155-3.574-1.876-5.305-.762-1.715-1.571-3.422-2.581-5.018-.954-1.628-2.093-3.152-3.271-4.645-.176-.199-.192-.445-.048-.556.144-.103.401-.032.577.151 1.259 1.477 2.461 3.001 3.455 4.653 1.042 1.62 1.884 3.351 2.67 5.098.721 1.771 1.37 3.573 1.859 5.415.481 1.842.882 3.708 1.123 5.598.04.262-.08.493-.273.509-.176.015-.344-.167-.393-.405zm.77 1.214c.104.175.128.365.168.556.008.19.033.381-.032.579-.088.278-.312.389-.513.254a.48.48 0 01-.16-.174c-.096-.183-.128-.365-.16-.548-.016-.19-.032-.373.024-.571.072-.27.304-.397.505-.27a.44.44 0 01.168.174zm.232 2.16c.097.183.121.373.145.564 0 .19.008.381-.064.579-.097.27-.329.381-.521.238a.562.562 0 01-.153-.182c-.088-.183-.104-.373-.128-.556 0-.191-.016-.373.048-.571.088-.27.313-.381.513-.254.064.047.12.111.16.182zm.145 2.176c.104.77.136 1.548.144 2.318 0 .779-.032 1.557-.136 2.327-.04.262-.217.445-.401.405-.152-.032-.257-.207-.273-.405-.048-.77-.032-1.533-.048-2.303.016-.77-.008-1.532.048-2.302.016-.262.177-.453.361-.429.144.024.273.182.305.389zm-.112 6.623c.072.119.064.238.064.35-.024.111-.04.23-.129.342-.2.254-.497.238-.665-.024l-.008-.016c-.072-.119-.064-.231-.064-.35.024-.111.04-.231.128-.342.201-.255.497-.255.665.008l.009.032zm-.233 2.334c.064.12.048.239.048.358-.024.112-.048.231-.144.342-.225.247-.513.207-.657-.063l-.008-.016c-.057-.12-.049-.231-.041-.35.025-.112.049-.223.145-.334.208-.247.505-.231.657.039v.024z" fill="#fff"/><path d="M102.11 148.162v51.28" stroke="#000" stroke-width=".239" stroke-miterlimit="10"/><path d="M102.11 173.803v-.009m0 .009v-.009" stroke="#000" stroke-width="1.913" stroke-miterlimit="10" stroke-linecap="round" stroke-linejoin="round"/><path d="M102.11 144.215c-16.49 0-29.861 13.244-29.861 29.578s13.371 29.578 29.861 29.578c16.49 0 29.862-13.244 29.862-29.578s-13.364-29.578-29.862-29.578zm0 53.979c-13.604 0-24.627-10.926-24.627-24.393 0-13.475 11.031-24.393 24.627-24.393 13.604 0 24.627 10.926 24.627 24.393.008 13.467-11.023 24.393-24.627 24.393z" fill="#A1ABAD"/><path d="M107.188 178.5a6.839 6.839 0 00-.33-9.731c-2.805-2.597-7.203-2.45-9.824.328a6.838 6.838 0 00.33 9.73c2.805 2.597 7.203 2.45 9.824-.327z" fill="#A1ABAD"/><path d="M107.064 173.802c0 2.707-2.213 4.899-4.946 4.899-2.734 0-4.946-2.192-4.946-4.899 0-2.708 2.212-4.9 4.946-4.9 2.725-.007 4.946 2.192 4.946 4.9z" fill="#3E2344"/><path d="M102.11 142.27c-17.58 0-31.834 14.118-31.834 31.532 0 17.413 14.254 31.531 31.834 31.531s31.833-14.118 31.833-31.531c0-17.414-14.253-31.532-31.833-31.532zm0 57.529c-14.502 0-26.254-11.641-26.254-26.005 0-14.365 11.752-26.005 26.254-26.005s26.254 11.64 26.254 26.005c0 14.364-11.752 26.005-26.254 26.005z" fill="#3E2344"/><path d="M102.11 251.38c.898 0 1.619-.722 1.619-1.604V110.127c0-.89-.729-1.604-1.619-1.604-.898 0-1.62.722-1.62 1.604v139.649c0 .89.722 1.604 1.62 1.604z" fill="#FFD25A"/><path d="M77.41 107.665s15.304 7.449 26.584 7.449c11.279 0 22.823-10.641 22.823-10.641s.264-11.434-5.371-11.704c-5.636-.262-9.933 9.044-18.527 10.37-8.593 1.326-18.261-3.724-21.484-2.128-3.222 1.596-4.024 6.654-4.024 6.654z" fill="#FFD25A"/><path d="M78.012 105.466c-.449 1.223-.601 2.199-.601 2.199s15.303 7.448 26.583 7.448c11.279 0 22.823-10.64 22.823-10.64s.024-1.056-.097-2.533c-13.435 10.561-24.578 13.975-48.708 3.526zm27.056 68.185c0 1.636-1.339 2.962-2.99 2.962-1.652 0-2.99-1.326-2.99-2.962 0-1.636 1.338-2.962 2.99-2.962a2.966 2.966 0 012.99 2.962zm0 75.157c0 1.636-1.339 2.962-2.99 2.962-1.652 0-2.99-1.326-2.99-2.962 0-1.636 1.338-2.962 2.99-2.962 1.651 0 2.99 1.326 2.99 2.962z" fill="#F99441"/><path d="M102.495 248.824l19.544-3.137 4.922-4.002-6.237-.286-18.318 7.107c-.176.072-.104.35.089.318z" fill="#DD4026"/><path d="M102.615 248.427l-20.33 12.196-4.946 4.86 6.389-2.692 19.103-14.039c.185-.151-.008-.437-.216-.325zm19.192-66.454c1.555.587.801 2.54-.754 1.961l-19.809-8.624c-2.325-.873-1.002-4.335 1.331-3.454l19.232 10.117z" fill="#DD4026"/><path d="M125.254 182.044l-6.053 4.36a2.063 2.063 0 01-2.862-.445l-.401-.54 9.364-6.749.401.54a2.01 2.01 0 01-.449 2.834z" fill="#FFBE57"/><path d="M122.48 182.391a1.275 1.275 0 01-.385 1.77 1.303 1.303 0 01-1.788-.381 1.275 1.275 0 01.385-1.77 1.296 1.296 0 011.788.381zm-19.28-9.446a1.274 1.274 0 01-.385 1.77 1.302 1.302 0 01-1.787-.381 1.267 1.267 0 01.385-1.77 1.294 1.294 0 011.787.381z" fill="#7C4284"/><path d="M86.005 87.353s-.297 18.843 15.512 19.423c15.809.58 15.223-15.945 15.223-15.945l-30.735-3.478z" fill="#19323A"/><path d="M114.103 162.05l11.078 7.48s1.788 1.858 2.269 2.565c.473.698 1.515 3.009 1.515 3.009-.449 1.231-3.126 3.303-4.818 3.843l-.425-.047s-.168.341-1.851 2.128c-1.716 1.826-7.68 5.963-9.067 5.828 0 0-2.774-2.477-.689-4.756 5.226-5.702 5.018-7.973 4.176-10.172-1.066-2.771-8.658-4.439-8.658-4.439l6.47-5.439z" fill="#A1ABAD"/><path d="M116.291 175.343s1.547-1.295 3.102-1.001c1.475.286 2.67.564 3.832-.587 2.982-2.954 1.01-5.471 3.287-5.257l4.682 6.884-18.414 13.491-3.608-5.185 7.119-8.345z" fill="#3E2344"/><path d="M111.866 186.411s.866.731 6.63-3.541c5.772-4.264 5.387-5.963 10.116-8.957l.866 1.771-16.402 13.197-1.21-2.47z" fill="#7C4284"/><path d="M93.428 89.521c-7.311 10.625-27.713 44.959-26.623 50.748 1.147 6.114 29.004 23.964 45.839 31.683l7.19-7.607-32.178-28.388s35.273-32.246 29.333-45.69c-5.941-13.435-15.128-13.014-23.56-.746z" fill="#1C3742"/><path d="M115.097 93.023s-13.107 24.941-33.798 43.776c0 0-1.299 2.319 1.299 4.764.577.548 32.627 27.165 32.627 27.165" stroke="#234159" stroke-width=".5" stroke-miterlimit="10"/><path d="M115.337 30.531c-.858 0-16.618-.23-19.769 4.312-3.086 4.447-9.627 28.951-10.918 53.55-.393 7.473 19.007 5.996 32.306 4.471 1.339.12 2.534-.865 2.63-2.2.337-4.517 1.772-14.554 7.792-23.217C137.375 53.05 139.491 49.318 139.13 47c-1.146-7.377-23.793-16.469-23.793-16.469z" fill="#EFE9DA"/><path d="M120.78 20.828s-.817 3.803-.585 7.027c.241 3.224 2.189 6.114 2.189 6.114s-4.329 3.939-11.215 3.328c-2.373-1.898-3.135-3.867-3.616-5.559 2.982-2.414 3.744-2.525 4.225-6.797.417-3.716 1.571-5.47 1.571-5.47l7.431 1.357z" fill="#FFB072"/><path fill-rule="evenodd" clip-rule="evenodd" d="M120.123 21.272s-.409 2.858-1.844 3.755c-1.443.906-4.208 3.256-8.73 1.747-6.044-2.017-1.13-11.085-1.13-11.085s-.305-3.954 1.307-6.765c3.134-5.47 9.716-5.685 13.692-1.135 1.315 1.508-.946 8.679-.946 8.679s.409-1.025 1.643.119c.938.865.69 2.294-.024 3.517-.858 1.477-2.878 2.414-3.968 1.168z" fill="#FFB072"/><path d="M120.788 20.826l.914-1.293-.825-.62s1.298-2.515 2.541-1.15c1.026 1.127-1.227 3.992-2.63 3.063z" fill="#E57E55"/><path d="M108.411 15.698s-4.249 3.844-4.088 7.726c.16 3.891 4.329 6.575 9.531 5.313 5.195-1.263 6.149-4.868 6.301-7.258.04-.659-.144-2.628-.144-2.628l.417-1.596-4.088 5.534s-1.275-2.842-5.812-3.565c-3.464-.548-3.912 1.453-3.912 1.453.352-1.604.961-3.264 1.795-4.979z" fill="#3E2344"/><path fill-rule="evenodd" clip-rule="evenodd" d="M111.947 8.083c.545.104 1.827.564 1.827.564l3.816-.198s3.143.595 3.608 1.723c.465 1.127-.866 4.002-.866 4.002l.096 3.089s1.251-1.501 2.373-1.414c2.71.199 4.666-4.955 2.525-8.726-3.006-5.297-7.808-3.478-8.834-4.503-1.026-1.016-1.611-2.62-1.611-2.62s-1.099 1.818-.217 3.129c0 0-1.763-1.382-4.842-.802 0 0 1.171.881 1.9 1.746 0 0-2.782-.516-5.275 2.756l2.782-.223s-2.349.802-3.303 2.978c0 .008 4.377-1.818 6.021-1.5z" fill="#3E2344"/><path d="M108.813 20.773c.016 1.008 2.71 1.786 4.08 1.294-1.427-.857-2.364-1.135-4.08-1.294z" fill="#fff"/><path d="M108.845 20.812c.064.278.384.58.713.738.329.183.69.302 1.058.39.73.166 1.523.237 2.221 0l-.024.245c-.609-.373-1.243-.698-1.916-.92a7.62 7.62 0 00-1.034-.262c-.337-.088-.73-.12-1.018-.191zm-.072-.08c.432-.007.753.04 1.122.08.361.048.721.127 1.074.222.705.199 1.363.54 1.988.905.064.04.088.12.048.183a.102.102 0 01-.072.055c-.393.143-.802.167-1.194.151a4.933 4.933 0 01-1.179-.183 4.269 4.269 0 01-1.098-.452 2.12 2.12 0 01-.465-.38c-.128-.152-.265-.287-.224-.58z" fill="#E57E55"/><path opacity=".5" d="M110.527 19.216s1.275.278 1.339-.072c.064-.349-2.493-1.404-2.702-1.19-.216.214.834.96 1.363 1.262z" fill="#E57E55"/><path d="M111.667 13.95s-.04 1.668-.377 2.184c-.337.516-1.828 1.493-1.924 1.755-.096.262 1.074 1.262 1.162 1.326.089.063-1.843-.755-1.619-1.358.216-.604 2.116-1.77 2.253-2.064.12-.286.505-1.843.505-1.843z" fill="#E57E55"/><path d="M117.414 14.706c0 .056-1.01-.54-1.516-.659-.497-.119-2.461-.301-2.573-.523-.112-.223.185-1.318.185-1.318s2.813.246 3.31.508c.497.27.562 1.524.594 1.992zm-2.292 1.945c-.097.366-.449.302-.882.19-.433-.118-.778-.246-.682-.612.097-.366.53-.564.962-.453.433.12.698.51.602.875zm-6.551-3.566c-.016.048.61-.278.962-.254.353.024 1.956.58 2.085.397.136-.182.352-1.373.352-1.373s-2.268-.524-2.661-.405c-.393.12-.585 1.199-.738 1.635zm1.901 2.653c-.088.35-.353.263-.738.175-.385-.095-.729-.151-.649-.501.088-.35.465-.565.842-.47.392.088.633.446.545.796z" fill="#3E2344"/><path d="M229.556 25.385l.209-2.168a1.083 1.083 0 00-1.283-1.151l-35.794 6.86-4.802 47.953 36.339-4.256a1.07 1.07 0 00.946-.96l3.287-34.725.441-.063a1.422 1.422 0 001.21-1.263l.882-8.67c.096-.874-.617-1.565-1.435-1.557z" fill="#DD4026"/><path d="M185.385 61.92s3.271 1.024 4.802.222c1.523-.802 3.407-8.933.585-9.727-2.829-.802-6.501 2.398-6.862 4.042-.36 1.644 1.475 5.463 1.475 5.463z" fill="#FFB072"/><path d="M187.886 76.879l35.385-5.448 4.618-48.595-35.585 7.94-4.418 46.103z" fill="#fff"/><path d="M192.48 28.935l-4.594 47.953 32.956-6.615c.722-.142 1.259-.762 1.331-1.516l4.249-46.992c.104-1.191-.962-2.12-2.076-1.81l-31.866 8.98z" fill="#FD6141"/><path d="M197.803 35.423l-.794 7.52 21.076-4.75.593-8.019-20.875 5.249z" fill="#fff"/><path d="M183.886 55.591s1.692-3.303 2.421-4.16c.73-.858 3.359-2.105 4.337-2.2.97-.103 1.724.437 2.67.469.865.023 1.779-.064 2.725-.294a.537.537 0 01.577.452c.169 1.049.024 3.351-4.922 2.462l-4.353 7.218c-1.082.937-4.545-3.002-3.455-3.947z" fill="#FFB072"/><path d="M125.654 55.806s20.923 18.454 25.517 19.311c4.585.85 34.647-12.316 34.647-12.316 1.131-.762-1.114-8.369-2.765-8.21l-29.589 7.178s-12.041-17.318-20.923-22.432c-8.891-5.113-14.623 11.077-6.887 16.469zm-16.939-25.132S98.102 48.715 92.787 63.596c-5.243 14.682-7.937 26.306-7.937 26.306S80.994 54.52 95 33.215c1.955-2.986 13.715-2.54 13.715-2.54zm.473 5.066s.506 2.89 2.109 3.183c1.611.301 3.519-2.19 3.519-2.19s.064-1.747-2.485-2.017c-2.541-.27-3.143 1.024-3.143 1.024z" fill="#3E2344"/><path d="M110.415 29.135c-.208 1.715.529 3.486 1.932 5.606l-5.379 4.677c-.794-3.017-1.018-6.05.385-8.766l3.062-1.517z" fill="#fff"/><path d="M120.484 28.411c-1.155 3.002-4.016 5.018-8.153 6.313l3.391 6.59c3.543-1.707 6.101-4.113 7.111-7.614l-2.349-5.289z" fill="#fff"/><path d="M110.72 37.876S96.795 60.84 94.887 82.606l3.752 6.979 5.106-6.79c1.467-15.07 4.073-30.014 8.49-44.522l-1.515-.397z" fill="#3E2344"/><path d="M120.788 20.826l.914-1.293-.825-.62s1.298-2.515 2.541-1.15c1.026 1.127-1.227 3.992-2.63 3.063z" fill="#E57E55"/><path opacity=".5" d="M76 187.944c.129.119.209.262.289.397.072.143.16.286.192.453.04.191-.056.334-.216.318a.384.384 0 01-.2-.095 1.648 1.648 0 01-.321-.398 1.947 1.947 0 01-.177-.469c-.032-.198.073-.333.233-.31.08.016.144.048.2.104zm.954 1.595c.137.112.225.247.32.382.09.135.185.27.233.438.056.19-.032.342-.192.334a.355.355 0 01-.2-.08c-.145-.103-.249-.239-.353-.374-.08-.143-.168-.286-.209-.461-.048-.199.049-.342.209-.326a.381.381 0 01.192.087zm1.066 1.532c.145.103.24.239.345.358.096.127.2.262.265.422.072.183-.008.342-.169.342a.398.398 0 01-.208-.064c-.153-.095-.265-.223-.377-.35a1.689 1.689 0 01-.24-.446c-.065-.19.024-.342.184-.342a.424.424 0 01.2.08zm2.157 2.535c.152.087.273.199.393.318.112.127.216.247.296.406.097.175.04.334-.12.358a.433.433 0 01-.216-.04c-.16-.08-.273-.207-.401-.318-.112-.128-.225-.255-.297-.406-.088-.183-.024-.342.145-.358a.27.27 0 01.2.04zm1.715 1.651c.112.032.185.096.265.16a.691.691 0 01.176.246c.072.199-.032.358-.24.35-.024 0-.048-.008-.08-.008a.765.765 0 01-.273-.159.582.582 0 01-.176-.254c-.072-.207.04-.358.248-.343.024 0 .056.008.08.008zm1.548 1.31c.112.024.192.08.28.135.072.072.153.136.193.239.08.199-.016.366-.217.366-.024 0-.048 0-.08-.008a.68.68 0 01-.28-.143c-.073-.072-.153-.135-.201-.239-.088-.199.016-.358.224-.358.025 0 .057 0 .08.008zm-10.75-25.513c-.105 1.358-.105 2.716-.065 4.074.04 1.358.193 2.707.393 4.049.233 1.334.505 2.668.93 3.963.385 1.31.906 2.572 1.467 3.819.088.167.056.349-.064.397-.12.048-.28-.04-.369-.206-.617-1.247-1.178-2.525-1.587-3.852-.44-1.318-.73-2.675-.978-4.033-.2-1.366-.345-2.748-.369-4.121a32.28 32.28 0 01.169-4.129c.016-.191.136-.334.272-.318.128.024.217.183.2.357zm-.32-.983c-.04-.143-.032-.278-.024-.421.024-.136.04-.279.12-.406.104-.183.28-.223.393-.095a.34.34 0 01.08.151c.032.143.024.278.016.413-.024.135-.04.271-.112.398-.096.183-.273.23-.393.103a.306.306 0 01-.08-.143zm.2-1.555a1.248 1.248 0 01-.009-.422c.032-.135.056-.271.136-.398.113-.175.289-.215.401-.079a.432.432 0 01.072.151c.032.143.008.278-.008.413-.032.136-.048.271-.128.398-.104.175-.28.215-.393.088a.683.683 0 01-.072-.151zm.264-1.562c.056-.556.16-1.111.289-1.659.128-.548.28-1.087.489-1.619.072-.183.224-.278.344-.214.096.047.145.19.12.333-.096.548-.232 1.087-.352 1.627-.145.54-.249 1.079-.417 1.611-.056.183-.192.294-.32.246-.105-.039-.161-.174-.153-.325zm1.186-4.642c-.024-.095 0-.175.016-.254.032-.08.064-.16.144-.223.185-.143.385-.088.45.127v.008a.453.453 0 01-.017.255.463.463 0 01-.144.214c-.176.144-.385.096-.449-.119v-.008zm.553-1.595c-.024-.096.008-.175.032-.255.04-.079.072-.151.16-.215.193-.135.385-.055.442.159v.008c.024.096-.008.175-.033.255-.04.072-.072.151-.152.207-.184.135-.385.071-.44-.143l-.009-.016zm54.28-1.548c-.128-.119-.208-.254-.288-.389-.073-.143-.161-.278-.193-.438-.04-.182.056-.326.217-.31a.44.44 0 01.2.088c.136.111.232.246.321.382.072.143.144.294.176.461.032.191-.072.326-.232.302a.389.389 0 01-.201-.096zm-.946-1.555c-.136-.112-.224-.239-.32-.374-.089-.136-.185-.263-.233-.422-.056-.183.032-.326.192-.326a.36.36 0 01.201.079c.144.104.248.231.353.358.08.144.168.279.208.446.048.191-.048.334-.208.318a.318.318 0 01-.193-.079zm-1.066-1.495c-.144-.095-.24-.231-.345-.35-.096-.127-.2-.254-.264-.406-.072-.183.008-.334.168-.334.072 0 .144.024.209.064.152.095.264.215.376.342.097.135.185.27.241.43.064.191-.024.334-.185.334a.367.367 0 01-.2-.08zm-2.164-2.461c-.152-.08-.273-.199-.393-.311a1.802 1.802 0 01-.297-.39c-.096-.167-.04-.326.121-.35a.416.416 0 01.216.04c.16.08.273.199.401.31.112.128.224.247.297.398.088.175.024.334-.145.35a.413.413 0 01-.2-.047zm-1.708-1.61a.728.728 0 01-.264-.151c-.073-.072-.137-.135-.177-.247-.072-.199.032-.342.241-.342.024 0 .048.008.08.008.112.032.192.096.272.151.073.072.145.143.177.247.072.199-.04.35-.249.334a.136.136 0 01-.08 0zm-1.547-1.272c-.112-.024-.193-.08-.281-.136-.072-.063-.152-.127-.192-.23-.08-.199.016-.358.216-.35a.31.31 0 01.081.008c.112.023.2.079.28.135.072.071.152.135.201.231.088.198-.017.35-.225.35-.024 0-.056-.008-.08-.008zm10.742 24.828c.104-1.318.104-2.644.064-3.97-.04-1.326-.192-2.636-.393-3.946-.232-1.303-.505-2.605-.93-3.86-.384-1.27-.905-2.501-1.467-3.716-.088-.166-.056-.333.065-.389.12-.047.28.04.368.199.618 1.215 1.179 2.461 1.588 3.756.44 1.286.729 2.604.978 3.93.2 1.334.344 2.668.368 4.018a30.631 30.631 0 01-.168 4.018c-.016.183-.136.326-.273.31-.12-.024-.208-.175-.2-.35zm.329.961c.04.144.032.271.024.406-.024.135-.04.271-.12.398-.105.175-.281.215-.393.095a.301.301 0 01-.08-.151c-.032-.135-.024-.27-.016-.405.024-.136.04-.263.112-.39.096-.175.272-.223.393-.104.032.04.064.096.08.151zm-.209 1.517c.032.143.024.279.008.406-.032.135-.056.262-.136.39-.112.175-.289.207-.401.079a.44.44 0 01-.072-.151c-.032-.143-.008-.27.008-.406.032-.127.048-.262.128-.389.105-.176.281-.215.393-.088a.571.571 0 01.072.159zm-.264 1.516c-.056.54-.16 1.08-.289 1.611a11.02 11.02 0 01-.489 1.572c-.072.174-.224.27-.344.206-.097-.047-.145-.182-.121-.325.097-.532.233-1.056.353-1.58.144-.524.249-1.047.417-1.571.056-.175.192-.286.321-.238.104.047.168.174.152.325zm-1.187 4.519c.024.095 0 .175-.016.254-.032.072-.064.152-.144.215-.184.143-.385.08-.449-.127v-.008a.427.427 0 01.016-.247c.032-.071.064-.151.144-.214.177-.144.385-.088.449.119v.008zm-.544 1.556c.024.096-.008.175-.032.255-.04.071-.072.151-.16.207-.192.135-.385.055-.441-.151v-.008c-.024-.096.008-.168.032-.247.04-.072.072-.143.152-.207.185-.135.385-.071.441.135l.008.016z" fill="#fff"/><path d="M122.071 33.35s-15.769 33.922-7.359 63.897c2.172 7.75 8.585 13.428 16.065 10.307 2.806-1.175 4.978-2.461 5.371-3.748 1.242-4.105-7.977-23.535-6.934-27.847 1.034-4.312 9.026-32.405 6.541-35.28-2.493-2.874-13.684-7.329-13.684-7.329z" fill="#3E2344"/><path d="M117.95 52.01l10.839 3.247-.401 1.437-10.959-3.239.521-1.445z" fill="#7C4284"/><path d="M128.081 36L85.32 60.917C84.792 62.812 84 71.208 84 75c0 0 43.817-27.896 52-34.667 0 0-4.487-3.52-7.919-4.333z" fill="#FD6141"/><path d="M92.253 63.704l-.013 1.53-.39.236.032-1.623c-.114.025-.23.034-.35.028a.758.758 0 01-.344-.114.978.978 0 01-.313-.34c-.148-.242-.177-.478-.089-.706.087-.231.296-.447.625-.647l.744-.452 1.628 2.68-.334.203-.675-1.111-.521.316zm-.257-1.596l-.401.244c-.211.128-.35.264-.42.409-.067.14-.049.295.055.465.1.166.232.26.396.284.163.024.36-.034.588-.172l.386-.235-.604-.995zm2.144-1.698l.76-.461c.331-.202.612-.304.842-.307.23-.006.42.113.569.359a.7.7 0 01.109.473.723.723 0 01-.255.427l.012.019c.122-.05.242-.079.36-.086a.618.618 0 01.339.072c.105.056.2.154.285.294.148.243.179.48.093.714-.083.232-.267.435-.552.608l-.933.567-1.628-2.68zm1.028.937l.491-.298c.228-.139.363-.27.403-.394.038-.126.014-.261-.074-.407-.09-.147-.206-.22-.348-.22-.141-.003-.325.064-.55.2l-.44.267.518.852zm.171.282l.591.972.536-.326c.235-.143.37-.288.406-.437a.579.579 0 00-.084-.447.5.5 0 00-.35-.25c-.147-.03-.344.029-.589.178l-.51.31zm4.7-1.134l-.823-.635-1.053.639.188 1.021-.338.206-.598-3.321.301-.183 2.669 2.063-.346.21zm-1.106-.875l-.79-.63a13.318 13.318 0 01-.253-.216 2.67 2.67 0 00-.118-.108 4.01 4.01 0 01.129.471l.191.994.84-.51zm5.132-1.571l-3.131 1.902-1.628-2.68.335-.203 1.446 2.38 1.059-.644-1.445-2.38.334-.203 1.446 2.38 1.064-.647-1.446-2.38.338-.205 1.628 2.68zm2.152-4.976l1.446 2.38.338-.206.611 1.006-.32.194-.428-.706-1.826 1.11.428.705-.319.195-.612-1.006.205-.124a5.132 5.132 0 00-.064-.676 6.435 6.435 0 00-.152-.735 7.539 7.539 0 00-.235-.73 5.353 5.353 0 00-.299-.662l1.227-.745zm-.146.505l-.603.366c.078.151.153.33.225.537a7.626 7.626 0 01.338 1.32c.039.22.06.421.062.605l1.239-.752-1.261-2.076zm1.817-1.52c.347-.211.642-.296.884-.255.242.041.44.187.592.437.089.148.14.307.152.478a.849.849 0 01-.141.512c-.105.174-.291.341-.556.502l-.305.186.634 1.043-.335.203-1.628-2.68.703-.426zm.146.307l-.338.205.643 1.059.267-.163c.253-.154.417-.31.49-.467.074-.158.051-.336-.069-.534-.105-.172-.238-.268-.399-.287-.16-.019-.358.044-.594.187zm3.549-2.552l.317 2.433c.029.226.038.424.03.594a.966.966 0 01-.121.438 1.043 1.043 0 01-.364.34 1.66 1.66 0 01-.206.104 1.17 1.17 0 01-.189.058l-.203-.334a1.18 1.18 0 00.194-.04.959.959 0 00.19-.09.614.614 0 00.272-.29c.046-.11.057-.262.033-.456l-2.233-1.372.368-.224L111.307 52c.028.017.063.04.104.07.04.027.077.054.111.082l.015-.009a3.645 3.645 0 01-.022-.12l-.022-.12-.264-1.875.354-.215zm2.045-1.243l.182.3-1.164.708 1.446 2.38-.335.203-1.628-2.68 1.499-.91z" fill="#fff"/></svg>