<svg width="456" height="588" fill="none" xmlns="http://www.w3.org/2000/svg"><path d="M189.272 100.602s-51.352 20.319-60.435 18.849c-9.1-1.453-51.969-43.997-51.969-43.997-1.582-2.157 8.229-13.38 11.188-11.973l45.544 29.76s41.54-25.837 61.495-29.416c19.971-3.58 12.201 31.916-5.823 36.777z" fill="#3E2344"/><path d="M88.563 95.71l-63.252 7.408L.53 30.424l57.38-2A2.19 2.19 0 0160 29.737L88.562 95.71z" fill="#C1C9CB"/><path d="M.513 30.429l-.411 2.125a5.5 5.5 0 00.206 2.86l24.338 70.444.649-2.719L.513 30.429z" fill="#9894A2"/><path d="M24.646 105.853l61.622-7.392c1.108-.141 2.01-.985 2.184-2.079l.11-.657-63.251 7.409-.665 2.719z" fill="#75707F"/><path d="M83.293 90.693l-55.56 6.549L5.877 33.127l51.905-1.813 25.51 59.378z" fill="#A4A2A7"/><path d="M82.343 90.802l-54.785 6.47L5.988 34.05l51.21-1.797 25.145 58.549z" fill="#fff"/><path opacity=".1" d="M56.027 76.688c-7.77-10.222 4.004-25.742 2.832-40.512l-1.677-3.923-6.963.25c-1.14 17.052-16.948 31.431-28.88 46.592l6.203 18.178 54.786-6.455L76.14 76.36c-5.254 5.564-14.764 7.596-20.113.328z" fill="#3C8460"/><path d="M52.07 96.272l.665 1.563a.696.696 0 00.68.407l10.081-1c.443-.047.965-.422.586-1.157l-.76-1.344c-.11-.266-.396-.407-.68-.39l-10.255.812c-.427.047-.49.703-.316 1.11z" fill="#75707F"/><path d="M52.07 95.85l.665 1.563a.696.696 0 00.68.407l10.081-1c.443-.047.728-.516.538-.923l-.712-1.578c-.11-.266-.396-.407-.68-.39l-10.033 1a.67.67 0 00-.538.921z" fill="#fff"/><path d="M25.105 46.71l-10.302.548-2.405-6.94 10.35-.5 2.357 6.893zm3.213 9.315l-10.239.61-2.405-6.893 10.286-.547 2.358 6.83zm3.165 9.238l-10.176.656-2.373-6.814 10.222-.625 2.327 6.783zm3.149 9.175l-10.112.703-2.358-6.768 10.16-.672 2.31 6.737zm3.118 9.081l-10.05.765-2.326-6.705 10.097-.734 2.278 6.674zm3.1 9.018l-9.985.813-2.326-6.643 10.049-.781 2.263 6.61z" stroke="#5E8AAF" stroke-width=".304" stroke-miterlimit="10"/><path d="M15.23 44.6l2.374-.468 3.545 2.188c.854-2.736 2.469-5.533 4.415-8.347-1.55 3.204-2.753 6.987-3.735 11.082L15.23 44.6zm3.229 9.785l2.373-.469 3.545 2.189c.855-2.736 2.469-5.534 4.415-8.347-1.55 3.204-2.753 6.987-3.734 11.082l-6.6-4.455zm3.291 8.878l2.374-.47 3.545 2.19c.854-2.736 2.468-5.534 4.415-8.348-1.55 3.205-2.754 6.987-3.735 11.083l-6.599-4.455zm3.26 9.221l2.374-.469 3.545 2.189c.854-2.736 2.468-5.534 4.415-8.347-1.551 3.204-2.754 6.987-3.735 11.082l-6.599-4.455zm2.216 9.019l2.373-.47 3.545 2.19c.855-2.736 2.469-5.534 4.415-8.348-1.55 3.205-2.753 6.987-3.734 11.083l-6.6-4.455zm3.26 9.206l2.373-.47 3.545 2.19c.855-2.736 2.469-5.534 4.415-8.348-1.55 3.205-2.753 6.987-3.734 11.082l-6.6-4.454z" fill="#B53333"/><path d="M85.62 62.934s-3.134-7.111-4.558-9.003c-1.424-1.89-6.79-4.814-8.815-5.142-2.025-.328-3.671.704-5.665.641-1.82-.047-3.735-.36-5.681-.953a1.136 1.136 0 00-1.266.875c-.49 2.172-.475 7.002 10.017 5.767l8.213 15.63c2.168 2.126 9.938-5.69 7.754-7.815z" fill="#FFB072"/><path d="M161.404 282.72l7.913 22.335s2.69 4.299 3.323 5.862c.633 1.531 1.693 6.408 1.693 6.408-1.377 2.188-7.39 5.111-10.887 5.47l-.807-.265s-.459.594-4.447 3.36c-4.067 2.829-17.281 8.393-19.908 7.58 0 0-4.352-5.892.617-9.44 12.439-8.878 12.977-13.332 12.249-17.912-.918-5.767-4.874-19.521-4.874-19.521l15.128-3.877z" fill="#A1ABAD"/><path d="M149.757 312.667s3.529-1.875 6.409-.672c2.722 1.141 4.922 2.157 7.644.407 6.978-4.486 4.209-10.129 8.513-8.8l6.22 15.145-41.113 18.584-4.827-11.441 17.154-13.223z" fill="#3E2344"/><path d="M136.654 332.22s1.361 1.751 14.259-4.157c12.897-5.893 12.849-9.316 23.215-13.192l.933 3.751-37.109 18.834-1.298-5.236z" fill="#7C4284"/><path d="M195.602 173.468c-25.573 1.751-101.643 24.086-103.605 33.901-3.292 16.537 34.276 72.054 56.985 100.625l21.078-7.737c-10.397-26.539-23.056-50.89-37.963-73.054 0 0 82.605-2.11 96.389-27.571 13.783-25.46-3.371-28.18-32.884-26.164z" fill="#19323A"/><path d="M175.33 201.617s-56.716 13.176-58.251 16.224c-1.535 3.048 39.008 79.321 39.008 79.321" stroke="#234159" stroke-width=".5" stroke-miterlimit="10"/><path opacity=".2" d="M339.164 574.966c0 5.846-60.577 10.597-135.318 10.597-74.74 0-135.318-4.735-135.318-10.597 0-5.845 60.578-10.597 135.318-10.597 74.725 0 135.318 4.736 135.318 10.597z" fill="#3E2344"/><path d="M161.42 328.828c-3.133-.938-1.931-4.876 1.203-3.954l39.672 14.067c4.7 1.391 2.58 8.377-2.12 6.971l-38.755-17.084z" fill="#DD4026"/><path d="M169.633 327.718l-14.1 4.314c-2.136.657-4.399-.531-5.064-2.641l-.395-1.251 21.838-6.689.395 1.25a4.012 4.012 0 01-2.674 5.017z" fill="#FFBE57"/><path d="M164.221 326.609c.348 1.344-.491 2.719-1.852 3.047-1.361.344-2.753-.484-3.085-1.828-.349-1.344.49-2.72 1.851-3.048 1.361-.328 2.754.485 3.086 1.829zm35.226 17.114a2.515 2.515 0 01.506-3.532 2.59 2.59 0 013.577.5 2.516 2.516 0 01-.507 3.533c-1.139.828-2.737.609-3.576-.501z" fill="#7C4284"/><path d="M262.03 527.715c20.699-32.92 10.443-76.156-22.906-96.57-33.349-20.414-77.164-10.276-97.862 22.644-20.699 32.92-10.443 76.156 22.906 96.57 33.349 20.414 77.164 10.276 97.862-22.644z" fill="#fff"/><path d="M253.084 477.381c-.28.067-.555.107-.825.121a2.52 2.52 0 01-.67-.045c-.176-.044-.275-.111-.297-.203-.018-.075-.004-.178.044-.309.052-.137.105-.213.158-.226.027-.006.109 0 .244.019.172.027.342.044.508.049.172.005.363-.018.573-.068a1.2 1.2 0 00.676-.418c.175-.218.218-.504.132-.859-.087-.355-.246-.584-.477-.689-.226-.111-.528-.121-.905-.031l-.25.06c-.065.015-.119.005-.162-.03a.509.509 0 01-.095-.216l-.026-.105a.45.45 0 01-.013-.228c.022-.05.065-.083.13-.099l.21-.05c.231-.055.411-.149.538-.282a.906.906 0 00.232-.448 1.023 1.023 0 00-.002-.461.757.757 0 00-.328-.468c-.17-.113-.411-.132-.724-.057a2.145 2.145 0 00-.519.183 2.3 2.3 0 00-.36.24.586.586 0 01-.156.097c-.054.013-.133-.031-.237-.131-.104-.1-.166-.191-.186-.272-.033-.134.103-.286.41-.456.306-.17.623-.294.951-.372.501-.12.93-.091 1.286.085.357.177.591.494.703.951.066.269.047.518-.056.747-.104.23-.262.421-.475.575l.008.032c.301.019.578.138.831.356.257.212.431.506.523.883.093.376.084.714-.025 1.013-.11.294-.288.535-.532.725a2.246 2.246 0 01-.837.387zm-108.015 25.765c-.092.022-.182-.022-.272-.132a.842.842 0 01-.158-.295c-.014-.059.001-.102.045-.13a3.19 3.19 0 001.034-1.084c.243-.428.377-.881.403-1.359-.25.236-.564.399-.94.489-.27.064-.538.06-.807-.012a1.611 1.611 0 01-.72-.426 1.826 1.826 0 01-.437-.843 1.743 1.743 0 01.017-.977c.097-.302.264-.553.5-.751.242-.2.524-.339.847-.416.555-.133 1.032-.059 1.431.222.403.273.686.743.85 1.41.188.769.169 1.471-.058 2.105-.221.634-.517 1.148-.887 1.544-.372.39-.655.609-.848.655zm.186-3.254c.296-.071.575-.226.835-.464a4.7 4.7 0 00-.078-.46c-.116-.473-.292-.784-.527-.932a.931.931 0 00-.768-.133.924.924 0 00-.407.225.935.935 0 00-.264.422 1.047 1.047 0 00-.005.573c.082.333.234.562.458.685.224.122.476.151.756.084zm68.31-62.129c-.065.016-.119.006-.161-.029a.501.501 0 01-.096-.217l-.026-.105c-.025-.102-.029-.178-.012-.227a.165.165 0 01.127-.107l1.308-.313-1.011-4.138-1.279.537c-.06.014-.118-.029-.177-.129a1.127 1.127 0 01-.127-.311c-.023-.091.017-.163.118-.216l1.815-.861a.362.362 0 01.2.012c.067.018.106.051.118.1l1.175 4.807 1.074-.257c.065-.015.117-.002.155.04.043.035.077.104.102.206l.026.105a.417.417 0 01.006.237c-.016.05-.057.082-.121.098l-3.214.768zm25.67 14.557c-.049.012-.104-.029-.167-.122a.943.943 0 01-.131-.293c-.016-.065-.016-.11 0-.137l1.445-3.077c.135-.311.215-.541.241-.69a1.151 1.151 0 00-.023-.481.723.723 0 00-.399-.511c-.201-.1-.444-.115-.729-.047a1.39 1.39 0 00-.495.212 2.843 2.843 0 00-.377.312c-.082.083-.137.127-.164.133-.065.016-.148-.021-.249-.111a.587.587 0 01-.174-.257c-.029-.118.025-.245.163-.381.143-.136.324-.259.542-.368a2.76 2.76 0 01.633-.245c.538-.129.992-.101 1.362.084.37.184.609.497.717.938.059.242.077.466.053.67-.024.205-.101.463-.23.773-.124.308-.343.787-.658 1.437l-.597 1.262 2.188-.524c.065-.015.116-.005.153.032.043.035.077.104.102.206l.026.105a.417.417 0 01.006.237c-.016.05-.056.082-.121.098l-3.117.745zm15.958 52.537c-.21.05-.332.008-.365-.126l-.27-1.105-2.358.564c-.048.011-.112-.039-.191-.151a.944.944 0 01-.151-.305c-.012-.049-.014-.08-.006-.093l1.683-4.27c.045-.096.148-.163.31-.202l.153-.036c.21-.051.332-.009.365.126l.851 3.484.477-.114c.064-.015.116-.002.155.04.043.035.077.104.102.206l.025.105a.432.432 0 01.007.238c-.016.049-.057.082-.122.097l-.476.114.27 1.105c.033.134-.056.227-.266.277l-.193.046zm-.802-1.917l-.436-1.782a3.01 3.01 0 01-.103-.667l-.037-.009-1.088 2.856 1.664-.398zm-15.306 26.496a4.12 4.12 0 01-.802.115c-.25.002-.452-.02-.606-.069-.149-.05-.233-.115-.253-.195-.02-.081-.003-.188.05-.32.052-.137.108-.213.167-.227a.218.218 0 01.094.003 1.9 1.9 0 01.115.015c.174.032.341.052.502.059.161.007.347-.015.557-.065.323-.077.569-.235.738-.475.174-.247.218-.542.134-.886-.082-.339-.256-.57-.52-.695s-.617-.134-1.058-.029l-.743.178c-.092.022-.161.018-.208-.01-.043-.035-.076-.102-.1-.198l-.438-2.388c-.017-.093-.009-.166.023-.219.038-.055.103-.093.194-.115l2.213-.529c.065-.016.116-.002.155.04.043.035.077.104.102.206l.031.129c.023.091.023.162.001.213-.016.05-.057.082-.121.097l-1.712.41.273 1.539.356-.085c.56-.134 1.061-.111 1.504.068.446.172.744.564.894 1.177.155.635.073 1.138-.246 1.51-.315.366-.747.615-1.296.746zm-54.538 14.479a1.001 1.001 0 01-.298.037c-.065-.007-.104-.038-.117-.092a.75.75 0 01.005-.12l1.083-5.254-2.414.578c-.065.015-.119.005-.161-.03a.496.496 0 01-.096-.216l-.026-.105c-.025-.102-.029-.178-.012-.227.02-.057.063-.092.127-.108l3.19-.763c.038-.009.093.044.167.157a.96.96 0 01.141.299c.008.032.01.066.008.101l-1.105 5.48c-.021.102-.134.177-.338.226l-.154.037zm-24.312-15.088c-.554.132-1.029.09-1.425-.129-.395-.218-.658-.594-.788-1.126-.093-.382-.089-.702.013-.96.101-.263.271-.488.51-.676-.5-.16-.817-.511-.95-1.054-.106-.435-.043-.818.19-1.147.232-.334.587-.558 1.066-.673.463-.111.874-.075 1.232.107s.589.488.694.918c.077.312.071.581-.016.807a1.52 1.52 0 01-.445.593c.329.063.605.188.827.374.22.18.38.472.479.876.126.516.064.96-.187 1.333s-.651.626-1.2.757zm-.662-3.444c.354-.347.485-.706.395-1.077-.06-.242-.177-.407-.352-.496a.837.837 0 00-.605-.06.85.85 0 00-.512.318c-.115.159-.142.362-.082.609.044.178.12.316.23.415a.99.99 0 00.374.201c.145.033.329.063.552.09zm.494 2.758a.94.94 0 00.614-.428c.138-.227.17-.491.097-.792-.053-.215-.144-.378-.274-.489a.937.937 0 00-.422-.224 5.17 5.17 0 00-.642-.111 1.512 1.512 0 01-.202-.02 1.547 1.547 0 00-.374.568c-.07.204-.072.441-.006.71.079.322.229.551.45.686s.474.169.759.1zm-17.896-51.395c-.064.015-.118.005-.161-.03a.496.496 0 01-.096-.216l-.025-.105c-.025-.102-.03-.178-.013-.228.02-.056.063-.091.127-.107l1.309-.312-1.014-4.137-1.279.535c-.06.015-.119-.028-.177-.128a1.175 1.175 0 01-.128-.311c-.022-.091.017-.163.118-.216l1.816-.86a.358.358 0 01.199.012c.067.018.107.052.119.1l1.178 4.807 1.074-.257c.064-.015.116-.002.155.04.043.035.077.104.102.206l.025.105a.423.423 0 01.007.238c-.016.049-.057.081-.121.097l-3.215.767zm5.839-1.333a1.607 1.607 0 01-1.031-.088c-.332-.148-.632-.418-.899-.809-.268-.397-.479-.91-.634-1.539-.154-.629-.203-1.178-.147-1.647.055-.474.197-.849.426-1.126.227-.281.518-.465.874-.549a1.567 1.567 0 011.032.095c.336.141.639.411.907.808.272.39.486.9.64 1.529.154.629.201 1.181.141 1.656-.056.469-.201.845-.433 1.128a1.59 1.59 0 01-.876.542zm-.168-.686c.301-.072.505-.311.61-.717.106-.407.068-.981-.114-1.723-.182-.742-.414-1.27-.696-1.584-.282-.314-.574-.435-.875-.363-.297.071-.497.309-.603.716-.1.405-.059.978.122 1.72.182.742.411 1.271.688 1.586.282.314.571.436.868.365zm9.218-22.723c-.065.015-.118.005-.161-.03a.496.496 0 01-.096-.216l-.026-.105a.45.45 0 01-.013-.228c.021-.056.063-.091.128-.107l1.308-.312-1.013-4.137-1.28.535c-.059.015-.118-.028-.177-.128a1.172 1.172 0 01-.127-.311c-.022-.091.017-.163.118-.216l1.815-.86a.361.361 0 01.2.012c.067.018.107.052.118.1l1.178 4.807 1.074-.257c.065-.015.117-.002.156.04.042.035.076.104.101.206l.026.105a.432.432 0 01.007.238c-.016.049-.057.081-.122.097l-3.214.767zm4.322-1.031c-.064.015-.118.005-.161-.03a.496.496 0 01-.096-.216l-.025-.105c-.025-.102-.03-.178-.013-.228a.165.165 0 01.127-.107l1.309-.312-1.014-4.137-1.279.535c-.06.015-.119-.028-.177-.128a1.175 1.175 0 01-.128-.311c-.022-.092.017-.164.118-.216l1.816-.86a.358.358 0 01.199.012c.067.018.107.052.119.1l1.177 4.807 1.075-.257c.064-.015.116-.002.155.04.043.035.077.104.102.206l.025.105a.423.423 0 01.007.238c-.016.049-.057.081-.121.097l-3.215.767zm51.937 92.744c-.549.131-1.025.06-1.428-.214-.399-.28-.68-.754-.843-1.42-.188-.769-.172-1.47.05-2.104.221-.633.517-1.145.889-1.536.371-.396.655-.618.855-.665.086-.021.174.026.265.141.089.11.144.205.164.286.014.059-.001.102-.045.13-.45.306-.796.671-1.041 1.094a2.977 2.977 0 00-.404 1.351c.255-.237.571-.401.948-.491.269-.064.538-.06.806.012.269.073.507.218.714.436.211.211.359.489.443.833.087.355.081.683-.016.985a1.605 1.605 0 01-.51.746 2.04 2.04 0 01-.847.416zm-.135-.694a.912.912 0 00.4-.215.97.97 0 00.271-.432c.054-.172.056-.363.005-.573-.082-.333-.234-.562-.458-.685-.219-.124-.468-.152-.748-.085a1.897 1.897 0 00-.843.466 4.01 4.01 0 00.086.457c.116.474.29.788.521.943.236.148.491.19.766.124z" fill="#000"/><path d="M256.548 526.749c20.134-29.985 11.844-70.412-18.514-90.298-30.359-19.885-71.291-11.698-91.424 18.286-20.134 29.985-11.845 70.412 18.514 90.298 30.359 19.885 71.291 11.698 91.424-18.286z" stroke="#E2E2E2" stroke-width="1.031" stroke-miterlimit="10"/><path d="M182.51 438.446c-.064.016-.118.006-.161-.03a.496.496 0 01-.096-.216l-.025-.105c-.025-.102-.03-.178-.013-.227a.165.165 0 01.127-.107l1.309-.312-1.014-4.138-1.279.536c-.06.014-.118-.029-.177-.128a1.175 1.175 0 01-.128-.311c-.022-.092.017-.164.118-.216l1.816-.86a.341.341 0 01.199.012c.068.018.107.051.119.1l1.178 4.806 1.074-.256c.064-.015.116-.002.155.04.043.035.077.104.102.206l.025.105c.025.102.028.181.007.237-.016.05-.057.082-.121.097l-3.215.767zm4.226-1.008c-.049.012-.104-.029-.167-.122a.97.97 0 01-.132-.293c-.016-.065-.015-.11.001-.137l1.443-3.076c.135-.311.215-.54.242-.689a1.17 1.17 0 00-.024-.481.723.723 0 00-.399-.511c-.201-.1-.444-.116-.73-.048a1.426 1.426 0 00-.495.212 3 3 0 00-.376.312c-.083.083-.138.127-.165.133-.064.016-.147-.021-.249-.111a.587.587 0 01-.174-.257c-.029-.118.025-.245.163-.381.143-.136.324-.259.542-.368.223-.116.434-.197.633-.245.538-.128.993-.1 1.363.085s.609.498.717.939c.059.241.077.465.053.67-.024.205-.1.462-.23.772-.124.308-.342.787-.656 1.437l-.598 1.26 2.189-.522c.065-.015.116-.005.153.032.043.035.077.104.102.206l.026.105a.429.429 0 01.007.237c-.017.05-.057.082-.122.098l-3.117.743z" fill="#000"/><path d="M201.583 490.784v-.015l-.016-.016m.016.016l-.016-.016m.016.031v-.015" stroke="#000" stroke-width="2.705" stroke-miterlimit="10" stroke-linecap="round" stroke-linejoin="round"/><path d="M181.976 410.761c-44.736 10.691-72.24 55.173-61.416 99.374 10.824 44.185 55.862 71.35 100.614 60.659 44.737-10.69 72.24-55.173 61.416-99.374-10.824-44.201-55.861-71.35-100.614-60.659zm35.748 145.998c-36.903 8.815-74.044-13.583-82.969-50.031-8.925-36.449 13.752-73.132 50.655-81.947 36.904-8.816 74.044 13.582 82.97 50.031 8.925 36.448-13.752 73.132-50.656 81.947z" fill="#A1ABAD"/><path d="M217.826 501.209c5.845-8.88 3.294-20.758-5.697-26.53-8.99-5.773-21.017-3.253-26.861 5.627-5.845 8.88-3.294 20.758 5.697 26.53 8.991 5.773 21.017 3.253 26.861-5.627z" fill="#A1ABAD"/><path d="M212.847 498.654c4.414-6.147 2.947-14.664-3.277-19.024-6.223-4.359-14.847-2.91-19.261 3.237s-2.946 14.664 3.277 19.023c6.224 4.36 14.847 2.911 19.261-3.236z" fill="#3E2344"/><path d="M180.694 405.477c-47.695 11.394-77.003 58.815-65.467 105.923 11.537 47.108 59.549 76.054 107.245 64.66 47.696-11.394 77.003-58.815 65.467-105.923-11.552-47.092-59.564-76.055-107.245-64.66zm38.107 155.641c-39.341 9.394-78.935-14.489-88.445-53.329-9.511-38.855 14.669-77.961 53.994-87.355 39.34-9.393 78.934 14.489 88.445 53.329 9.51 38.84-14.67 77.962-53.994 87.355z" fill="#3E2344"/><path opacity=".5" d="M139.328 547.036c.428.235.728.578 1.061.907.285.359.617.656.838 1.094.254.484.08.937-.379 1-.19.031-.396-.031-.602-.125-.443-.219-.807-.532-1.123-.86-.301-.359-.602-.719-.792-1.156-.221-.516-.031-.954.428-1.001.174-.031.38.032.569.141zm3.64 3.704c.443.219.775.532 1.124.829.332.312.68.609.917 1.031.285.469.143.938-.3 1.016-.19.031-.396 0-.602-.078-.459-.188-.822-.485-1.202-.782-.317-.343-.649-.672-.871-1.109-.253-.5-.095-.954.364-1.016.174-.031.38.015.57.109zm3.925 3.47c.458.188.807.484 1.171.75.348.297.712.579.997.969.316.454.221.922-.238 1.047-.19.047-.395.032-.617-.046-.475-.157-.855-.438-1.25-.704-.348-.312-.696-.625-.95-1.047-.3-.485-.158-.953.285-1.047.19-.031.396 0 .602.078zm7.564 5.471c.475.126.87.36 1.282.595.38.265.759.531 1.06.891.38.406.332.875-.095 1.047a1.151 1.151 0 01-.617.032c-.491-.125-.886-.376-1.298-.61-.38-.266-.775-.532-1.092-.907-.364-.438-.284-.907.143-1.063.19-.047.395-.047.617.015zm5.76 3.376c.317 0 .57.125.839.25.237.157.475.298.649.564.332.502.158.987-.427 1.113-.064.015-.143.015-.222.015-.332 0-.586-.141-.839-.25-.237-.157-.49-.298-.649-.564-.332-.517-.126-1.003.444-1.097.047-.031.126-.031.205-.031zm5.08 2.532c.332-.016.585.094.854.188.254.141.491.266.681.517.364.485.206 1.002-.364 1.128a.974.974 0 01-.222.031c-.332.016-.585-.094-.854-.204-.253-.141-.507-.266-.696-.532-.364-.486-.19-.987.379-1.113.064 0 .143 0 .222-.015zm-46.209-62.238c.618 3.751 1.52 7.44 2.532 11.097 1.013 3.657 2.327 7.237 3.767 10.738 1.535 3.469 3.149 6.924 5.159 10.159 1.914 3.298 4.177 6.393 6.519 9.409.349.407.396.907.095 1.11-.285.203-.791.062-1.139-.313-2.5-2.985-4.89-6.095-6.884-9.424-2.089-3.283-3.766-6.784-5.349-10.316-1.44-3.579-2.753-7.221-3.75-10.957-.981-3.719-1.788-7.502-2.279-11.316-.079-.531.158-.984.522-1.031.38-.016.728.344.807.844zm-1.534-2.47c-.206-.359-.269-.75-.332-1.125-.032-.391-.079-.766.047-1.172.159-.547.618-.782 1.013-.516.127.078.237.219.317.359.19.36.253.735.316 1.11.032.375.063.766-.047 1.157-.143.547-.586.797-.997.531-.127-.062-.238-.203-.317-.344zm-.475-4.376c-.19-.375-.237-.75-.301-1.141 0-.391-.015-.781.111-1.172.174-.547.649-.766 1.029-.485.126.094.221.219.3.375.175.375.222.751.27 1.126 0 .375.031.765-.08 1.156-.158.547-.617.766-1.012.5-.143-.078-.238-.203-.317-.359zm-.317-4.376a38.856 38.856 0 01-.316-4.689c0-1.563.047-3.142.253-4.705.079-.532.427-.891.791-.813.301.063.507.422.538.829.111 1.547.079 3.094.127 4.642-.032 1.547.031 3.095-.063 4.642-.016.532-.333.922-.713.86-.3-.031-.553-.36-.617-.766zm.143-13.376c-.142-.235-.127-.47-.127-.705.048-.235.064-.47.238-.689.395-.517.981-.486 1.313.047l.016.031c.142.235.127.47.127.705-.048.235-.064.455-.238.69-.395.517-.981.501-1.313-.032l-.016-.047zm.428-4.704c-.127-.251-.095-.486-.095-.721.047-.235.095-.47.285-.689.443-.501 1.013-.407 1.297.141l.016.031c.127.251.095.47.095.705-.047.22-.095.455-.285.658-.411.486-.997.455-1.297-.094l-.016-.031zm146.727-39.501c-.428-.234-.728-.562-1.045-.875-.285-.344-.617-.641-.823-1.063-.237-.484-.079-.922.38-.984.19-.032.396.015.601.109.443.219.792.516 1.124.828.285.344.585.688.775 1.126.222.5.016.938-.427.969-.19.047-.396 0-.585-.11zm-3.624-3.594c-.444-.203-.76-.515-1.108-.797-.332-.297-.665-.594-.918-1-.285-.469-.142-.906.317-1 .189-.031.395 0 .601.078.459.187.823.469 1.187.75.316.328.649.657.854 1.079.253.484.095.937-.364 1a1.151 1.151 0 01-.569-.11zm-3.893-3.361c-.459-.172-.792-.469-1.171-.719-.349-.281-.713-.547-.982-.938-.316-.438-.205-.906.238-1.016.19-.047.395-.031.617.047.475.156.855.422 1.25.672.348.297.696.61.95 1.016.284.469.158.922-.285 1.016a1.062 1.062 0 01-.617-.078zm-7.501-5.28c-.475-.125-.871-.36-1.266-.579-.38-.25-.76-.516-1.06-.876-.364-.392-.333-.861.11-1.017.174-.063.396-.079.618-.032.474.11.886.36 1.281.579.38.266.776.517 1.076.877.349.422.285.891-.158 1.032-.174.078-.395.063-.601.016zm-5.745-3.245c-.316 0-.569-.125-.823-.235-.237-.141-.474-.282-.633-.548-.332-.486-.158-.956.443-1.081.064-.016.143-.016.222-.016.332 0 .586.126.839.251.237.157.474.298.649.548.332.501.11.971-.459 1.065-.079 0-.159.016-.238.016zm-5.048-2.458c-.332.015-.585-.094-.839-.188-.237-.141-.49-.251-.68-.502-.364-.485-.206-.971.364-1.096a.92.92 0 01.222-.032c.332-.015.585.094.854.188.253.141.506.267.696.517.364.47.19.972-.379 1.097-.08 0-.159.016-.238.016zm45.75 60.42c-.602-3.657-1.472-7.252-2.453-10.816-.981-3.563-2.279-7.033-3.703-10.44-1.504-3.376-3.102-6.737-5.096-9.878-1.883-3.204-4.13-6.205-6.456-9.144-.348-.39-.38-.875-.095-1.094.285-.203.791-.062 1.139.297 2.485 2.907 4.858 5.908 6.821 9.159 2.057 3.189 3.718 6.596 5.269 10.035 1.425 3.485 2.706 7.033 3.672 10.659.949 3.626 1.74 7.299 2.215 11.019.079.516-.158.969-.538 1-.348.032-.68-.328-.775-.797zm1.519 2.392c.206.343.253.719.332 1.094.016.375.063.75-.063 1.141-.174.547-.617.765-1.013.5a.955.955 0 01-.316-.344c-.19-.36-.254-.719-.317-1.079-.032-.375-.063-.734.048-1.125.142-.531.601-.781.997-.531a.872.872 0 01.332.344zm.459 4.251c.19.359.237.734.284 1.109 0 .376.016.751-.126 1.141-.19.532-.649.751-1.029.469a1.125 1.125 0 01-.3-.359c-.174-.36-.206-.735-.254-1.094 0-.375-.031-.735.095-1.126.174-.531.618-.75 1.013-.5.127.094.238.219.317.36zm.285 4.282c.205 1.516.269 3.048.285 4.564 0 1.532-.064 3.063-.269 4.58-.08.515-.428.875-.792.797-.3-.063-.506-.407-.538-.797-.095-1.517-.063-3.017-.095-4.533.032-1.516-.016-3.016.095-4.532.032-.516.348-.891.712-.844.285.046.538.359.602.765zm-.222 13.037c.142.235.127.47.127.689-.048.219-.08.454-.254.674-.395.501-.981.47-1.313-.047l-.016-.032c-.142-.235-.126-.454-.126-.689.047-.219.079-.454.253-.674.395-.501.981-.501 1.313.016l.016.063zm-.459 4.595c.127.235.095.47.095.705-.047.219-.095.454-.285.674-.443.485-1.013.407-1.297-.126l-.016-.031c-.111-.235-.095-.454-.079-.689.047-.22.095-.439.284-.658.412-.486.997-.455 1.298.078v.047z" fill="#fff"/><path d="M201.568 292.255v100.938" stroke="#000" stroke-width=".239" stroke-miterlimit="10"/><path d="M201.568 342.724v-.016m0 .016v-.016" stroke="#000" stroke-width="1.913" stroke-miterlimit="10" stroke-linecap="round" stroke-linejoin="round"/><path d="M201.568 284.486c-32.552 0-58.948 26.071-58.948 58.221 0 32.151 26.396 58.222 58.948 58.222 32.551 0 58.947-26.071 58.947-58.222 0-32.15-26.38-58.221-58.947-58.221zm0 106.252c-26.855 0-48.614-21.507-48.614-48.015 0-26.524 21.775-48.015 48.614-48.015 26.854 0 48.613 21.507 48.613 48.015.016 26.508-21.759 48.015-48.613 48.015z" fill="#A1ABAD"/><path d="M211.592 351.971a13.435 13.435 0 00-.653-19.154c-5.536-5.111-14.218-4.822-19.393.645a13.435 13.435 0 00.653 19.154c5.536 5.111 14.218 4.822 19.393-.645z" fill="#A1ABAD"/><path d="M211.347 342.723c0 5.33-4.368 9.644-9.764 9.644-5.396 0-9.764-4.314-9.764-9.644 0-5.329 4.368-9.643 9.764-9.643 5.381-.016 9.764 4.314 9.764 9.643z" fill="#3E2344"/><path d="M201.568 280.657c-34.704 0-62.841 27.79-62.841 62.066s28.137 62.066 62.841 62.066c34.703 0 62.84-27.79 62.84-62.066s-28.137-62.066-62.84-62.066zm0 113.238c-28.628 0-51.827-22.913-51.827-51.187 0-28.275 23.199-51.188 51.827-51.188 28.627 0 51.826 22.913 51.826 51.188 0 28.274-23.199 51.187-51.826 51.187z" fill="#3E2344"/><path d="M201.567 495.426c1.773 0 3.197-1.422 3.197-3.157V217.388c0-1.751-1.44-3.157-3.197-3.157-1.772 0-3.196 1.422-3.196 3.157v274.881c0 1.751 1.424 3.157 3.196 3.157z" fill="#FFD25A"/><path d="M152.811 212.543s30.21 14.66 52.475 14.66c22.266 0 45.053-20.944 45.053-20.944s.523-22.506-10.602-23.038c-11.125-.516-19.607 17.802-36.571 20.413-16.965 2.61-36.049-7.331-42.411-4.189-6.361 3.141-7.944 13.098-7.944 13.098z" fill="#FFD25A"/><path d="M153.998 208.213c-.886 2.407-1.187 4.33-1.187 4.33s30.21 14.66 52.475 14.66c22.266 0 45.053-20.944 45.053-20.944s.048-2.078-.19-4.985c-26.522 20.787-48.518 27.508-96.151 6.939zm53.409 134.214c0 3.22-2.643 5.83-5.903 5.83s-5.903-2.61-5.903-5.83 2.643-5.831 5.903-5.831c3.26-.015 5.903 2.595 5.903 5.831zm0 147.936c0 3.22-2.643 5.83-5.903 5.83s-5.903-2.61-5.903-5.83 2.643-5.83 5.903-5.83 5.903 2.61 5.903 5.83z" fill="#F99441"/><path d="M202.327 490.395l38.581-6.175 9.716-7.878-12.311-.562-36.16 13.989c-.348.141-.206.688.174.626z" fill="#DD4026"/><path d="M202.564 489.612l-40.131 24.008-9.764 9.565 12.612-5.298 37.711-27.634c.364-.297-.016-.86-.428-.641zm37.885-130.806c3.07 1.157 1.582 5.002-1.488 3.861l-39.103-16.974c-4.589-1.719-1.978-8.534 2.627-6.799l37.964 19.912z" fill="#DD4026"/><path d="M247.254 358.948l-11.948 8.581c-1.804 1.297-4.336.906-5.649-.876l-.792-1.063 18.484-13.285.791 1.063c1.329 1.782.918 4.283-.886 5.58z" fill="#FFBE57"/><path d="M241.778 359.634a2.505 2.505 0 01-.759 3.485 2.575 2.575 0 01-3.529-.75 2.506 2.506 0 01.759-3.485 2.558 2.558 0 013.529.75zm-38.058-18.596a2.507 2.507 0 01-.76 3.486 2.575 2.575 0 01-3.529-.751c-.775-1.172-.427-2.719.76-3.485a2.558 2.558 0 013.529.75z" fill="#7C4284"/><path d="M169.776 172.561s-.586 37.09 30.621 38.231c31.206 1.141 30.051-31.385 30.051-31.385l-60.672-6.846z" fill="#19323A"/><path d="M225.241 319.591l21.87 14.724s3.529 3.657 4.479 5.048c.933 1.375 2.991 5.924 2.991 5.924-.887 2.422-6.172 6.502-9.511 7.564l-.839-.093s-.332.672-3.655 4.188c-3.387 3.595-15.16 11.738-17.898 11.473 0 0-5.476-4.877-1.361-9.363 10.318-11.222 9.906-15.692 8.245-20.021-2.105-5.455-17.091-8.737-17.091-8.737l12.77-10.707z" fill="#A1ABAD"/><path d="M229.562 345.756s3.054-2.547 6.124-1.969c2.912.563 5.269 1.11 7.564-1.157 5.887-5.814 1.994-10.769 6.488-10.347l9.242 13.551-36.35 26.555-7.121-10.206 14.053-16.427z" fill="#3E2344"/><path d="M220.826 367.544s1.709 1.437 13.087-6.971c11.394-8.394 10.635-11.738 19.971-17.631l1.709 3.486-32.377 25.976-2.39-4.86z" fill="#7C4284"/><path d="M184.429 176.829c-14.432 20.912-54.706 88.495-52.554 99.89 2.263 12.035 57.254 47.17 90.486 62.362l14.195-14.973-63.521-55.876s69.629-63.473 57.903-89.934c-11.726-26.446-29.861-25.618-46.509-1.469z" fill="#1C3742"/><path d="M227.204 183.721s-25.874 49.093-66.718 86.167c0 0-2.563 4.564 2.564 9.378 1.139 1.079 64.407 53.47 64.407 53.47" stroke="#234159" stroke-width=".5" stroke-miterlimit="10"/><path d="M227.678 60.715c-1.693 0-32.804-.454-39.024 8.487-6.092 8.752-19.005 56.986-21.553 105.407-.775 14.708 37.521 11.801 63.774 8.8 2.643.234 5.001-1.704 5.191-4.33.664-8.893 3.497-28.649 15.381-45.701 19.734-28.337 23.912-35.683 23.199-40.247-2.263-14.52-46.968-32.416-46.968-32.416z" fill="#EFE9DA"/><path d="M238.423 41.615s-1.614 7.487-1.155 13.832c.475 6.346 4.32 12.035 4.32 12.035s-8.545 7.753-22.139 6.55c-4.684-3.736-6.187-7.612-7.137-10.941 5.887-4.752 7.391-4.97 8.34-13.38.823-7.314 3.102-10.769 3.102-10.769l14.669 2.673z" fill="#FFB072"/><path fill-rule="evenodd" clip-rule="evenodd" d="M237.126 42.49s-.807 5.627-3.64 7.393c-2.848 1.782-8.308 6.408-17.233 3.439-11.932-3.97-2.231-21.82-2.231-21.82s-.602-7.783 2.579-13.316c6.188-10.77 19.18-11.191 27.029-2.235 2.595 2.97-1.868 17.083-1.868 17.083s.808-2.016 3.245.235c1.851 1.703 1.36 4.517-.048 6.924-1.693 2.907-5.681 4.751-7.833 2.297z" fill="#FFB072"/><path d="M238.439 41.615l1.804-2.548-1.63-1.219s2.564-4.954 5.017-2.266c2.025 2.22-2.421 7.861-5.191 6.033z" fill="#E57E55"/><path d="M214.006 31.518s-8.387 7.565-8.071 15.208c.317 7.659 8.546 12.941 18.816 10.456 10.254-2.485 12.137-9.58 12.438-14.285.079-1.297-.285-5.174-.285-5.174l.823-3.141-8.07 10.894s-2.517-5.596-11.473-7.018c-6.837-1.079-7.723 2.86-7.723 2.86.696-3.157 1.899-6.424 3.545-9.8z" fill="#3E2344"/><path fill-rule="evenodd" clip-rule="evenodd" d="M220.985 16.53c1.076.202 3.608 1.109 3.608 1.109l7.532-.39s6.203 1.171 7.121 3.39c.918 2.22-1.709 7.878-1.709 7.878l.19 6.08s2.469-2.954 4.684-2.782c5.349.39 9.21-9.753 4.985-17.177-5.934-10.425-15.413-6.846-17.439-8.862-2.025-2-3.181-5.158-3.181-5.158s-2.168 3.58-.427 6.158c0 0-3.481-2.72-9.558-1.578 0 0 2.31 1.735 3.75 3.438 0 0-5.491-1.016-10.412 5.424l5.491-.438s-4.637 1.579-6.52 5.861c0 .016 8.64-3.579 11.885-2.954z" fill="#3E2344"/><path d="M214.797 41.507c.032 1.985 5.349 3.516 8.055 2.547-2.816-1.688-4.668-2.235-8.055-2.547z" fill="#fff"/><path d="M214.861 41.584c.126.547.759 1.14 1.408 1.453.649.36 1.361.594 2.089.766 1.44.328 3.007.469 4.383 0l-.047.485c-1.203-.735-2.453-1.376-3.782-1.813a15.002 15.002 0 00-2.042-.516c-.664-.172-1.44-.235-2.009-.375zm-.143-.157c.855-.015 1.488.079 2.216.157.712.094 1.424.25 2.12.437 1.393.391 2.691 1.063 3.925 1.782.126.078.174.235.095.36a.201.201 0 01-.143.109c-.775.281-1.582.328-2.358.297a9.752 9.752 0 01-2.326-.36 8.46 8.46 0 01-2.168-.89 4.188 4.188 0 01-.918-.75c-.253-.297-.522-.563-.443-1.142z" fill="#E57E55"/><path opacity=".5" d="M218.183 38.443s2.517.547 2.643-.14c.127-.688-4.921-2.767-5.333-2.345-.427.422 1.646 1.891 2.69 2.485z" fill="#E57E55"/><path d="M220.431 28.08s-.079 3.282-.743 4.298c-.665 1.016-3.609 2.938-3.798 3.454-.19.515 2.12 2.485 2.294 2.61.174.125-3.64-1.485-3.196-2.673.427-1.188 4.177-3.485 4.446-4.063.238-.563.997-3.626.997-3.626z" fill="#E57E55"/><path d="M231.777 29.568c0 .11-1.994-1.063-2.991-1.297-.981-.235-4.858-.594-5.08-1.032-.221-.438.364-2.594.364-2.594s5.555.484 6.536 1c.981.531 1.108 3 1.171 3.923zm-4.525 3.83c-.19.72-.887.595-1.741.376-.855-.235-1.535-.486-1.345-1.207.19-.72 1.044-1.112 1.899-.893.854.235 1.376 1.003 1.187 1.724zm-12.93-7.022c-.031.094 1.203-.547 1.899-.5.697.047 3.861 1.14 4.115.781.269-.36.696-2.704.696-2.704s-4.478-1.031-5.254-.797c-.775.235-1.155 2.36-1.456 3.22zm3.752 5.224c-.174.69-.697.517-1.456.345-.76-.188-1.44-.298-1.282-.987.174-.69.918-1.113 1.662-.925.775.173 1.25.878 1.076 1.567z" fill="#3E2344"/><path d="M453.15 50.587l.412-4.267c.126-1.392-1.14-2.532-2.532-2.267l-70.658 13.504-9.479 94.389 71.734-8.378a2.108 2.108 0 001.867-1.891l6.488-68.35.87-.124a2.804 2.804 0 002.39-2.485l1.741-17.068c.19-1.72-1.219-3.08-2.833-3.063z" fill="#DD4026"/><path d="M365.955 122.499s6.457 2.017 9.479.438c3.007-1.579 6.726-17.584 1.156-19.147-5.586-1.578-12.834 4.721-13.546 7.956-.712 3.235 2.911 10.753 2.911 10.753z" fill="#FFB072"/><path d="M370.893 151.946l69.85-10.722 9.116-95.655-70.247 15.63-8.719 90.747z" fill="#fff"/><path d="M379.96 57.573l-9.067 94.389 65.056-13.02c1.424-.281 2.484-1.5 2.626-2.985l8.388-92.498c.205-2.344-1.899-4.173-4.099-3.563L379.96 57.573z" fill="#FD6141"/><path d="M390.468 70.343l-1.567 14.801 41.604-9.347 1.171-15.786-41.208 10.332z" fill="#fff"/><path d="M362.996 110.042s3.339-6.502 4.779-8.19c1.44-1.688 6.631-4.142 8.562-4.33 1.914-.202 3.402.86 5.269.923a20.402 20.402 0 005.381-.578 1.06 1.06 0 011.139.89c.332 2.064.048 6.596-9.716 4.846l-8.593 14.207c-2.137 1.845-8.973-5.908-6.821-7.768z" fill="#FFB072"/><path d="M248.045 110.464s41.303 36.324 50.37 38.012c9.052 1.672 68.395-24.242 68.395-24.242 2.231-1.5-2.2-16.474-5.46-16.161l-58.409 14.129s-23.769-34.088-41.303-44.154c-17.549-10.065-28.864 21.804-13.593 32.416zm-33.438-49.468s-20.952 35.511-31.444 64.801c-10.349 28.9-15.666 51.782-15.666 51.782s-7.612-69.647 20.034-111.581c3.861-5.877 27.076-5.002 27.076-5.002zm.934 9.973s.997 5.689 4.162 6.267c3.18.594 6.947-4.314 6.947-4.314s.126-3.438-4.906-3.97c-5.016-.531-6.203 2.017-6.203 2.017z" fill="#3E2344"/><path d="M217.962 57.967c-.411 3.376 1.044 6.862 3.814 11.035l-10.619 9.206c-1.566-5.94-2.009-11.91.76-17.256l6.045-2.985z" fill="#fff"/><path d="M237.838 56.541c-2.279 5.909-7.928 9.879-16.094 12.426l6.694 12.973c6.995-3.36 12.043-8.096 14.037-14.989l-4.637-10.41z" fill="#fff"/><path d="M218.563 75.172s-27.487 45.202-31.254 88.043l7.406 13.739 10.081-13.364c2.896-29.665 8.039-59.081 16.758-87.636l-2.991-.782z" fill="#3E2344"/><path d="M238.439 41.615l1.804-2.548-1.63-1.219s2.564-4.954 5.017-2.266c2.025 2.22-2.421 7.861-5.191 6.033z" fill="#E57E55"/><path opacity=".5" d="M150.026 370.56c.253.235.412.517.57.783.142.282.316.563.38.892.079.376-.111.657-.428.626a.764.764 0 01-.395-.188 3.281 3.281 0 01-.633-.782c-.143-.298-.285-.595-.348-.924-.064-.391.142-.657.459-.61a.74.74 0 01.395.203zm1.883 3.142c.269.219.443.485.633.752.174.266.364.532.459.861.111.376-.063.674-.38.658a.702.702 0 01-.395-.156c-.285-.204-.491-.47-.697-.737-.158-.282-.332-.564-.411-.908-.095-.392.095-.674.411-.643a.762.762 0 01.38.173zm2.105 3.016c.285.204.475.47.68.705.19.251.396.517.523.83.142.361-.016.674-.333.674a.79.79 0 01-.411-.125c-.301-.188-.522-.439-.744-.69a3.352 3.352 0 01-.475-.877c-.126-.376.048-.674.364-.674a.846.846 0 01.396.157zm4.257 4.987c.301.172.538.391.775.626.222.251.428.486.586.799.19.345.079.658-.237.705a.855.855 0 01-.428-.078c-.316-.157-.538-.407-.791-.627-.222-.25-.443-.501-.585-.799-.175-.36-.048-.673.284-.704.111-.032.269 0 .396.078zm3.386 3.251c.222.063.364.188.523.313.142.141.269.282.348.486.142.392-.063.705-.475.689-.047 0-.095-.015-.158-.015-.222-.063-.38-.188-.538-.314-.143-.141-.285-.282-.348-.501-.143-.407.079-.705.49-.674.048 0 .111.016.158.016zm3.055 2.578c.221.047.379.157.554.266.142.141.3.266.379.47.159.392-.031.721-.427.721-.047 0-.095 0-.158-.016a1.325 1.325 0 01-.554-.282c-.142-.141-.301-.266-.396-.47-.174-.392.032-.705.443-.705.048 0 .111 0 .159.016zm-21.221-50.219c-.206 2.673-.206 5.346-.127 8.018.079 2.673.38 5.33.775 7.972.459 2.625.997 5.251 1.836 7.799.76 2.579 1.788 5.064 2.896 7.518.174.328.111.687-.127.781-.237.094-.553-.078-.728-.406-1.218-2.454-2.326-4.97-3.133-7.581-.87-2.594-1.44-5.267-1.93-7.94-.396-2.688-.681-5.407-.728-8.111-.048-2.72.031-5.424.332-8.128.032-.375.269-.656.538-.625.253.047.427.359.396.703zm-.633-1.934c-.079-.282-.063-.548-.047-.83.047-.266.079-.548.237-.799.206-.36.554-.438.775-.188.08.079.127.188.159.298.063.282.047.548.031.814-.047.266-.079.533-.221.783-.19.36-.538.454-.776.204a.613.613 0 01-.158-.282zm.395-3.062c-.063-.282-.047-.564-.016-.83.064-.267.111-.533.269-.784.222-.344.57-.423.792-.156a.88.88 0 01.142.297c.063.282.016.549-.016.815-.063.266-.095.533-.253.783-.206.345-.554.423-.775.173a1.31 1.31 0 01-.143-.298zm.522-3.069a25.76 25.76 0 01.57-3.267c.253-1.078.554-2.141.965-3.188.143-.359.444-.547.681-.422.19.094.285.375.237.656-.19 1.079-.459 2.142-.696 3.204-.285 1.063-.491 2.126-.823 3.173-.111.36-.38.578-.633.485-.206-.079-.316-.344-.301-.641zm2.342-9.141c-.047-.188.001-.344.032-.501.063-.157.127-.313.285-.439.364-.282.76-.172.886.251v.016a.885.885 0 01-.031.501c-.064.157-.127.298-.285.423-.348.282-.76.188-.887-.235v-.016zm1.092-3.141c-.047-.188.016-.345.064-.502.079-.156.142-.297.316-.423.38-.266.76-.109.87.314v.015c.048.188-.015.345-.063.502-.079.141-.142.297-.301.407-.363.266-.759.141-.87-.282l-.016-.031zm107.15-3.045c-.253-.235-.411-.501-.569-.768-.143-.282-.317-.548-.38-.861-.079-.36.111-.642.427-.611a.882.882 0 01.396.173c.269.219.459.485.633.751.142.282.285.58.348.909.063.375-.143.642-.459.595a.777.777 0 01-.396-.188zm-1.867-3.063c-.269-.219-.443-.47-.633-.736-.174-.267-.364-.517-.459-.831-.111-.36.063-.642.38-.642.126 0 .269.063.395.157.285.203.491.454.697.705.158.282.332.548.411.877.095.376-.095.658-.411.627a.623.623 0 01-.38-.157zm-2.105-2.94c-.285-.188-.475-.454-.68-.689-.19-.251-.396-.501-.522-.799-.143-.36.015-.658.332-.658a.79.79 0 01.411.125c.301.188.522.423.744.674.19.266.364.533.475.846.126.376-.048.658-.364.658a.733.733 0 01-.396-.157zm-4.273-4.845c-.3-.157-.538-.392-.775-.611-.222-.235-.427-.47-.586-.767-.189-.329-.079-.643.238-.69a.833.833 0 01.427.079c.317.156.538.391.791.611.222.25.443.485.586.783.174.344.047.658-.285.689-.111.016-.253-.031-.396-.094zm-3.37-3.169c-.222-.063-.364-.173-.522-.298-.143-.141-.27-.266-.349-.486-.142-.391.064-.673.475-.673.048 0 .095.015.158.015.222.063.38.188.538.298.143.141.285.282.349.486.142.391-.08.689-.491.658a.281.281 0 01-.158 0zm-3.054-2.506c-.222-.047-.38-.157-.554-.266-.143-.126-.301-.251-.38-.455-.158-.391.032-.705.427-.689.048 0 .095 0 .158.016.222.047.396.156.554.266.143.141.301.266.396.454.174.392-.032.69-.443.69-.048 0-.111-.016-.158-.016zm21.205 48.871c.206-2.594.206-5.205.126-7.815-.079-2.61-.379-5.189-.775-7.768-.459-2.563-.997-5.126-1.836-7.596-.759-2.501-1.788-4.923-2.896-7.315-.174-.328-.11-.656.127-.765.237-.094.554.078.728.39 1.218 2.392 2.326 4.846 3.133 7.393.871 2.532 1.44 5.127 1.931 7.737.395 2.626.68 5.252.728 7.909.047 2.641-.032 5.283-.333 7.908-.031.36-.269.641-.538.61-.237-.047-.411-.344-.395-.688zm.649 1.892c.079.282.063.533.047.799-.047.267-.079.533-.237.784-.206.344-.554.423-.776.188a.612.612 0 01-.158-.298c-.063-.266-.047-.533-.032-.799.048-.266.08-.517.222-.768.19-.344.538-.438.775-.203a.89.89 0 01.159.297zm-.412 2.986c.063.282.048.548.016.799-.063.266-.111.517-.269.767-.222.345-.57.408-.791.157a.86.86 0 01-.143-.298c-.063-.282-.015-.532.016-.799.064-.25.095-.517.253-.767.206-.345.554-.423.776-.172.063.094.111.203.142.313zm-.522 2.984a24.155 24.155 0 01-.57 3.173c-.253 1.047-.553 2.078-.965 3.094-.142.344-.443.532-.68.407-.19-.094-.285-.36-.238-.641.19-1.047.459-2.079.697-3.11.284-1.032.49-2.063.822-3.095.111-.344.38-.563.633-.469.206.094.333.344.301.641zm-2.342 8.894c.047.188 0 .345-.032.502-.063.141-.126.297-.285.423-.364.282-.759.156-.886-.251v-.016c-.047-.188-.016-.329.032-.485.063-.141.126-.298.285-.423.348-.282.759-.173.886.235v.015zm-1.076 3.064c.048.188-.015.345-.063.501-.079.141-.142.298-.316.407-.38.267-.76.11-.871-.297v-.016c-.047-.188.016-.329.064-.485.079-.141.142-.282.3-.408.364-.266.76-.141.871.267l.015.031z" fill="#fff"/><path d="M240.971 66.263s-31.127 66.771-14.527 125.773c4.289 15.255 16.948 26.43 31.713 20.288 5.539-2.313 9.827-4.845 10.603-7.377 2.452-8.081-15.746-46.327-13.689-54.814 2.042-8.487 17.819-63.785 12.913-69.443-4.921-5.658-27.013-14.427-27.013-14.427z" fill="#3E2344"/><path d="M232.837 102.993l21.395 6.393-.791 2.829-21.632-6.377 1.028-2.845z" fill="#7C4284"/><path d="M250.5 70.5l-81 46c-1 3.5-2.5 19-2.5 26 0 0 83-51.5 98.5-64 0 0-8.5-6.5-15-8z" fill="#FD6141"/><path d="M181.854 121.635l-.025 2.89-.738.449.061-3.068a2.511 2.511 0 01-.661.052 1.426 1.426 0 01-.651-.217c-.214-.129-.411-.343-.592-.641-.279-.459-.335-.904-.167-1.336.164-.437.558-.845 1.182-1.224l1.406-.854 3.078 5.067-.633.384-1.276-2.1-.984.598zm-.486-3.018l-.759.461c-.399.242-.662.5-.792.773-.127.265-.093.558.102.88.19.312.439.491.749.536.31.045.68-.063 1.111-.325l.732-.445-1.143-1.88zm4.055-3.212l1.434-.871c.628-.382 1.159-.575 1.593-.579.436-.012.794.214 1.076.677.181.298.25.597.206.895-.046.294-.206.563-.481.808l.021.035c.231-.095.459-.149.682-.161.228-.016.441.029.641.135.199.106.379.291.539.556.279.459.338.909.176 1.351-.157.438-.505.821-1.044 1.149l-1.765 1.072-3.078-5.067zm1.943 1.773l.928-.564c.432-.262.685-.51.761-.744.074-.238.027-.495-.14-.769-.17-.279-.389-.418-.657-.417-.267-.006-.614.12-1.041.379l-.829.504.978 1.611zm.324.532l1.116 1.838 1.013-.615c.445-.27.701-.546.768-.826.067-.281.015-.563-.158-.847-.161-.264-.381-.422-.662-.472-.279-.057-.65.055-1.114.337l-.963.585zm8.886-2.143l-1.558-1.201-1.99 1.209.355 1.931-.639.389-1.13-6.28.57-.346 5.045 3.9-.653.398zm-2.093-1.654l-1.493-1.191a25.707 25.707 0 01-.479-.408 5.123 5.123 0 00-.222-.206 7.194 7.194 0 01.244.892l.361 1.879 1.589-.966zm9.705-2.971l-5.92 3.597-3.078-5.067.632-.384 2.734 4.499 2.003-1.218-2.733-4.499.633-.384 2.733 4.499 2.011-1.222-2.733-4.499.64-.389 3.078 5.067zm4.068-9.408l2.733 4.499.64-.389 1.155 1.902-.605.367-.81-1.334-3.452 2.098.81 1.334-.604.367-1.156-1.902.387-.235a9.94 9.94 0 00-.121-1.276 12.283 12.283 0 00-.287-1.391 14.64 14.64 0 00-.444-1.381 10.047 10.047 0 00-.567-1.249l2.321-1.41zm-.277.955l-1.139.692c.148.286.289.624.424 1.015.14.388.264.798.373 1.231.11.425.2.847.268 1.265.073.416.112.797.117 1.144l2.341-1.423-2.384-3.924zm3.436-2.875c.657-.398 1.214-.559 1.672-.48.458.077.831.353 1.118.826.17.279.266.58.289.903.025.315-.065.638-.268.969-.199.328-.549.644-1.05.949l-.577.35 1.199 1.973-.633.384-3.078-5.066 1.328-.808zm.276.581l-.64.389 1.216 2.001.506-.308c.478-.29.787-.585.927-.883.139-.299.096-.635-.132-1.009-.198-.326-.449-.507-.753-.543-.304-.035-.679.082-1.124.353zm6.71-4.825l.6 4.6c.054.428.072.802.056 1.123a1.8 1.8 0 01-.229.828c-.14.235-.369.448-.688.642-.131.08-.261.146-.39.198a2.222 2.222 0 01-.357.11l-.383-.632c.119-.014.242-.04.367-.077.122-.042.241-.098.359-.169.262-.16.434-.342.515-.547.086-.207.106-.495.062-.863l-4.222-2.594.696-.423 3.093 1.94a5.175 5.175 0 01.406.287l.028-.017a7.11 7.11 0 01-.042-.227 9.646 9.646 0 01-.041-.228l-.498-3.544.668-.406zm3.867-2.349l.345.568-2.201 1.337 2.733 4.499-.633.384-3.078-5.066 2.834-1.722z" fill="#fff"/></svg>