<svg width="140" height="179" fill="none" xmlns="http://www.w3.org/2000/svg"><path d="M0 155.465L55.094 4.251 186.824 0l-53.383 166.5L0 155.465z" fill="#FFD25A"/><path d="M171.332 13.816l-1.568 4.908-42.96 133.959-107.653-8.908-3.659-.297 45.97-126.13 109.87-3.532z" fill="#F99441"/><path d="M169.764 18.724l-42.96 133.959-107.653-8.908 44.67-122.644 105.943-2.407z" fill="#fff"/><path d="M63.822 21.13L50.753 57c29.21-2.797 56.694-17.974 82.577-37.448l-69.508 1.579zm62.982 131.553l16.791-52.358c-42.485 7.783-83.813 22.428-120.563 43.762l103.772 8.596z" fill="#EFEFEF"/><path d="M193.715 12.754L186.824 0l-53.383 166.5L0 155.465 9.473 166.5l130.003 11.893 54.239-165.64z" fill="#F99441"/><path opacity=".5" d="M133.441 166.5L0 155.465 9.473 166.5l130.003 11.893-6.035-11.893z" fill="#F99441"/><mask id="a" maskUnits="userSpaceOnUse" x="15" y="13" width="157" height="140"><path d="M171.332 13.816l-1.568 4.908-42.96 133.959-107.653-8.908-3.659-.297 45.97-126.13 109.87-3.532z" fill="#F99441"/></mask><g mask="url(#a)"><path d="M124.618 196.899c-2.028 7.127-52.797.438-62.618-2.282-9.821-2.72 8.507-33.056 14.526-40.652 4.625-5.83 29.004-6.564 38.825-3.845 9.806 2.735 11.295 39.668 9.267 46.779z" fill="#FFBE57"/><path d="M104.58 51.921c7.239-9.909 5.196-11.3 8.079-12.832 5.084-2.704 19.927-3.782 25.598 3.298 11.738 14.676-4.34 42.934-25.773 37.182-21.036-5.642-10.597-23.944-7.904-27.648z" fill="#DD4026"/><path d="M119.359 85.993s-26.866-3.173-27.436 4.22c-2.661 34.463-15.27 55.937-15.682 58.094-1.52 8.065 10.692 13.004 15.92 14.317 7.429 1.875 30.018 3.079 31.317-1.516 1.14-3.986-6.273-15.255-5.275-22.35.982-7.081 26.77-29.446 24.901-36.386-3.643-13.456-23.745-16.38-23.745-16.38z" fill="#EFE9DA"/><path d="M128.04 69.066s-1.236 6.158-.777 11.363c.46 5.204 1.98 7.19 3.691 9.815 1.711 2.626-13.052 11.394-24.03 11.613 0 0-4.831-10.863-.063-14.848 4.768-3.986 7.556-3.673 8.221-10.581.586-6.017.855-9.362.855-9.362l12.103 2z" fill="#FFB072"/><path d="M130.558 89.088s0 1.578-.728 2.406c-3.121 3.517-11.96 14.473-18.471 32.087-8.031 21.725-7.191 27.024-4.039 29.837 3.152 2.813 16.664-.188 16.664-.188s-2.122-13.894 3.105-24.413c5.228-10.518 18.755-24.147 16.142-31.04-2.012-5.298-12.673-8.69-12.673-8.69zm-21.004-4.064s-9.045 18.286-13.29 36.541c-5.244 22.506-8.824 25.398-11.66 26.554-2.835 1.157-29.368-11.925-29.368-11.925s34.818-43.7 36.925-47.873c3.2-6.376 17.393-3.297 17.393-3.297z" fill="#552F5E"/><path d="M101.95 56.766S91.796 71.973 97.246 81.07c4.356 7.267 9.393 13.175 8.078 19.474-1.315 6.298 12.023-16.88 9.964-23.179-2.059-6.33-13.338-20.6-13.338-20.6z" fill="#DD4026"/><path d="M111.534 67.784c-.808 2.814-2.63 4.783-4.071 4.392-1.442-.406-1.965-3.016-1.157-5.845.539-1.907 1.553-3.407 2.598-4.064.333-.25.095-.578-.237-.328-1.125.72-2.186 2.282-2.757 4.283-.871 3.079-.237 5.86 1.442 6.33 1.695.468 3.691-1.58 4.578-4.674.459-1.61.554-2.922.253-4.079-.079.063-.285.14-.38.203.222 1.079.143 2.36-.269 3.782z" fill="#fff"/><path fill-rule="evenodd" clip-rule="evenodd" d="M128.04 69.066s-5.133 11.816-16.57 7.705c-5.734-2.063-5.354-14.77-2.217-17.114 0 0 .665-6.267 3.104-10.893 2.44-4.627 12.99-4.47 20.308.156 0 0 1.679 2.798-1.948 12.206 0 0 1.98-1.344 3.944.547 1.489 1.438 1.045 3.736-.158 5.674-1.426 2.344-4.737 3.782-6.463 1.72z" fill="#FFB072"/><path d="M129.148 68.363l1.521-2.047-1.315-1.017s2.186-4.016 4.167-1.766c1.615 1.845-2.139 6.393-4.373 4.83z" fill="#E57E55"/><path d="M131.73 73.38c-.807 2.813-2.629 4.782-4.071 4.392-1.441-.407-1.964-3.017-1.156-5.846.539-1.906 1.552-3.407 2.598-4.063.333-.25.095-.579-.238-.328-1.124.719-2.186 2.281-2.756 4.282-.871 3.079-.238 5.86 1.442 6.33 1.694.468 3.69-1.579 4.577-4.673.46-1.61.555-2.923.254-4.08-.079.063-.285.141-.38.204.206 1.078.126 2.375-.27 3.782z" fill="#fff"/><path d="M110.584 68.27s1.346-1.689 7.286.64c-1.6 3-7.793 2.985-7.286-.64z" fill="#FD6141"/><path d="M110.583 68.27s3.691 1.05 7.287.643l-7.287-.642z" fill="#E57E55"/><path d="M110.583 68.27c2.44.33 4.832.612 7.287.643-1.204.298-2.455.298-3.691.204-1.219-.157-2.455-.376-3.596-.846z" fill="#E57E55"/><path d="M109.348 59.518c-.111.564.602.8 1.505.972.903.172 1.647.203 1.758-.345.111-.564-.539-1.144-1.442-1.316-.887-.188-1.71.125-1.821.69z" fill="#3E2344"/><path d="M108.16 56.739c-.048.078 2.55-1.175 3.089-1.003.554.188 2.407 1.52 2.693 1.3.285-.219.665-.799.665-.799s-2.756-1.347-3.422-1.331c-.665.031-2.597 1.222-3.025 1.833z" fill="#DD4026"/><path d="M117.617 61.097c-.111.564.602.799 1.505.971.903.173 1.647.204 1.758-.344.111-.564-.539-1.144-1.441-1.316-.888-.188-1.711.125-1.822.689z" fill="#3E2344"/><path d="M123.858 59.084c.016.078-2.44-1.814-3.184-1.83-.745-.015-3.295.47-3.517.172-.237-.312-.396-.97-.396-.97s3.564-.187 4.356.063c.761.235 2.535 1.846 2.741 2.565z" fill="#DD4026"/><path opacity=".5" d="M112.564 65.43s2.059.5 2.17-.063c.111-.564-3.992-2.366-4.341-2.021-.332.313 1.331 1.566 2.171 2.083z" fill="#E57E55"/><path d="M114.591 56.958s-.127 2.688-.681 3.517c-.57.828-3.026 2.344-3.184 2.766-.158.422 1.695 2.079 1.837 2.188.143.11-2.962-1.281-2.581-2.25.38-.97 3.5-2.782 3.722-3.251.222-.47.887-2.97.887-2.97z" fill="#E57E55"/><path d="M128.705 62.69l.127-.422-6.416-1.298c.016-1.625-.966-3.094-2.503-3.532-1.742-.485-3.564.531-4.292 2.298-.412-.547-.856-.876-1.331-.938a1.604 1.604 0 00-1.03.25c-.031-1.422-.887-2.704-2.249-3.08-1.695-.468-3.485.626-3.992 2.44-.523 1.812.444 3.656 2.123 4.125 1.695.47 3.485-.625 3.992-2.438.047-.156.063-.328.095-.484.031-.032.459-.454 1.013-.376.444.063.84.407 1.204 1.016-.507 1.985.539 3.986 2.392 4.502 1.885.515 3.881-.688 4.451-2.704.064-.203.096-.422.111-.626l6.305 1.267zm-19.468-.547c-1.41-.391-2.218-1.923-1.885-3.455l1.98.438.063-.39-1.917-.438c.523-1.47 2.012-2.345 3.422-1.954 1.473.406 2.297 2.047 1.838 3.642-.46 1.61-2.028 2.579-3.501 2.157zm8.696 2.172c-1.647-.453-2.566-2.266-2.059-4.048.507-1.782 2.249-2.86 3.897-2.407 1.647.453 2.566 2.266 2.059 4.048-.507 1.782-2.249 2.86-3.897 2.407z" fill="#7C4284"/><path d="M114.116 46.92s3.548-1.439 8.633 4.891c5.085 6.33 4.562 5.986 6.732 8.143l-1.267 4.47 2.534-3.297s5.845-4.924 6.558-9.769c.919.766-15.365-20.693-23.19-4.439z" fill="#DD4026"/><path d="M143.484 98.825c7.445 18.067 10.344 41.652 8.839 58.297-1.98 21.787-13.401 46.654-15.619 48.92-.602 1.375-13.322-3.47-13.417-5.877 0 0 10.043-32.712 9.917-45.122-.095-9.455-4.325-23.584-7.715-41.214-3.12-16.161 12.989-27.195 17.995-15.004z" fill="#552F5E"/><path d="M74.483 175.205c4.878-16.239 14.193-48.295 13.036-52.624-14.985-28.477-38.667-24.57-63.742-9.409-3.517 3.611-5.497 46.044-6.083 60.783-3.485 6.689-7.065 17.161-8.712 24.038-1.885 7.861 61.493 16.426 63.378 8.565 2.202-9.128 3.342-22.319 2.123-31.353z" fill="#DD4026"/><path d="M62.808 93.169s-3.881-1.297-7.825-8.909C52.4 79.274 52.115 58.55 68.89 58.097c16.775-.454 18.945 10.862 18.026 17.88C86 82.993 76.668 87.416 72.471 89.34c-4.214 1.906-9.663 3.829-9.663 3.829z" fill="#3E2344"/><path d="M60.812 84.508s-1.932 5.955-4.895 10.378c-2.962 4.423-5.259 5.548-8.047 7.174-2.788 1.625 4.23 8.205 13.766 12.863 0 0 13.607-5.048 9.298-9.112-3.31-3.142-5.148-3.142-2.36-9.518 2.44-5.565 3.833-8.628 3.833-8.628l-11.595-3.157z" fill="#FFB072"/><path fill-rule="evenodd" clip-rule="evenodd" d="M60.812 84.508s-1.584 4.376-.206 6.58c1.394 2.204 3.596 7.236 11.247 8.018 7.635.766 10.059-15.286 10.059-15.286s2.487-5.814 2.614-10.893c.126-5.08-9.22-9.237-17.9-8.128 0 0-2.852 1.782-4.277 11.582 0 0-1.077-1.985-3.723-1.126-2.012.657-2.74 2.876-2.645 5.096.127 2.657 2.313 5.282 4.831 4.157z" fill="#FFB072"/><path d="M60.21 83.445l-.332-2.438 1.663-.375s.047-4.455-2.788-3.251c-2.344.985-1.283 6.533 1.457 6.064z" fill="#E57E55"/><path d="M73.88 81.698c-.173.533-.918.455-1.79.25-.87-.218-1.552-.485-1.377-1.017.174-.533 1.03-.8 1.9-.58.872.188 1.442.799 1.268 1.347zm-5.306-3.548c-.047.079 2.74-.376 3.549-.235.807.141 3.77 1.113 4.102.862.333-.25.776-1.222.776-1.222s-4.102-1.065-5.005-.987c-.919.063-3.01.925-3.422 1.582zm13.338 5.517c-.174.533-.919.455-1.79.251-.871-.22-1.552-.486-1.378-1.018.174-.533 1.03-.8 1.9-.58.888.204 1.442.815 1.268 1.347zm1.632-1.844c-.016.079-.793-1.469-1.331-1.656-.523-.188-3.247-.391-3.31-.735-.064-.344.19-1.36.19-1.36s3.5.828 3.975 1.25c.491.407.587 1.782.476 2.501z" fill="#3E2344"/><path opacity=".5" d="M76.194 87.59s-2.044-.392-1.87-.94c.175-.548 4.658-.454 4.8-.031.143.439-1.932.862-2.93.971z" fill="#E57E55"/><path d="M78.57 79.257s-1.204 2.422-1.125 3.391c.095.954 1.505 3.314 1.442 3.751-.064.438-2.503 1.141-2.677 1.188-.175.031 3.215.078 3.358-.938.142-1.016-1.695-3.892-1.68-4.392.032-.5.682-3 .682-3zm-8.744 8.815c1.14.906 2.55 1.422 3.96 1.703.713.14 1.441.172 2.186.219.729.078 1.441.203 2.123.172h.031c.048 0 .095.031.095.094a.119.119 0 01-.031.078c-.697.547-1.553.453-2.297.437-.745-.109-1.49-.218-2.25-.406-1.473-.375-2.914-1.063-3.944-2.188a.075.075 0 010-.11c.048-.03.095-.03.127 0z" fill="#E57E55"/><path d="M62.808 81.085c.745-.328 2.677-3.798 2.392-7.47-.253-3.298 2.852-5.22 4.689-5.127 2.107.11 8.332 2.782 11.025 3.11 7.35.922 9.568-1.11 9.805-2.157.238-1.031-3.01-.234-3.01-.234s4.99-3.22 5.671-8.55c0 0-3.088 2.22-7.064.094-3.976-2.125-13.908-5.454-20.356-2.344-4.229 2.032-8.807 10.097-5.084 15.176 1.695 2.297.522 8.112 1.932 7.502z" fill="#3E2344"/></g></svg>