<svg width="194" height="179" fill="none" xmlns="http://www.w3.org/2000/svg"><path d="M0 155.713L55.094 4.499 186.824.248l-53.383 166.499L0 155.713z" fill="#FFD25A"/><path d="M171.332 14.064l-1.568 4.908-42.96 133.959-107.653-8.909-3.659-.297 45.97-126.129 109.87-3.532z" fill="#F99441"/><path d="M169.764 18.972l-42.96 133.959-107.653-8.909 44.67-122.643 105.943-2.407z" fill="#fff"/><path d="M63.822 21.379L50.753 57.248c29.21-2.798 56.694-17.974 82.577-37.448l-69.508 1.58zm62.982 131.552l16.791-52.358c-42.485 7.783-83.813 22.428-120.563 43.762l103.772 8.596z" fill="#EFEFEF"/><path d="M193.715 13.001L186.824.248l-53.383 166.499L0 155.713l9.473 11.034 130.003 11.894 54.239-165.64z" fill="#F99441"/><path opacity=".5" d="M133.441 166.747L0 155.713l9.473 11.034 130.003 11.894-6.035-11.894z" fill="#F99441"/><mask id="a" maskUnits="userSpaceOnUse" x="15" y="14" width="157" height="139"><path d="M171.332 14.064l-1.568 4.908-42.96 133.959-107.653-8.909-3.659-.297 45.97-126.129 109.87-3.532z" fill="#F99441"/></mask><g mask="url(#a)"><path d="M124.618 197.147c-2.028 7.127-52.797.437-62.618-2.282-9.821-2.72 8.506-33.056 14.526-40.652 4.625-5.83 29.004-6.565 38.825-3.845 9.805 2.735 11.294 39.667 9.267 46.779z" fill="#FFBE57"/><path d="M104.58 52.169c7.239-9.91 5.195-11.3 8.078-12.832 5.085-2.704 19.928-3.782 25.599 3.298 11.738 14.676-4.341 42.934-25.773 37.182-21.036-5.642-10.597-23.944-7.904-27.648z" fill="#DD4026"/><path d="M119.359 86.24s-26.866-3.172-27.436 4.22c-2.661 34.463-15.27 55.938-15.682 58.095-1.521 8.065 10.692 13.003 15.92 14.316 7.429 1.876 30.017 3.079 31.316-1.516 1.141-3.985-6.273-15.254-5.275-22.35.982-7.08 26.771-29.445 24.902-36.385-3.644-13.457-23.745-16.38-23.745-16.38z" fill="#EFE9DA"/><path d="M128.039 69.314s-1.235 6.158-.776 11.363c.46 5.204 1.98 7.19 3.691 9.815 1.711 2.626-13.053 11.394-24.03 11.612 0 0-4.832-10.862-.064-14.847 4.768-3.986 7.556-3.673 8.222-10.582.586-6.017.855-9.361.855-9.361l12.102 2z" fill="#FFB072"/><path d="M130.558 89.335s0 1.579-.729 2.407c-3.12 3.517-11.959 14.473-18.47 32.087-8.031 21.725-7.191 27.023-4.039 29.837 3.152 2.813 16.664-.188 16.664-.188s-2.122-13.894 3.105-24.413 18.755-24.147 16.142-31.04c-2.012-5.298-12.673-8.69-12.673-8.69zm-21.005-4.064s-9.045 18.287-13.29 36.542c-5.243 22.506-8.823 25.398-11.659 26.554-2.835 1.157-29.368-11.925-29.368-11.925s34.818-43.7 36.925-47.873c3.2-6.377 17.392-3.298 17.392-3.298z" fill="#552F5E"/><path d="M101.95 57.014S91.796 72.22 97.245 81.317c4.356 7.268 9.394 13.176 8.079 19.475-1.315 6.298 12.023-16.88 9.964-23.179-2.06-6.33-13.338-20.6-13.338-20.6z" fill="#DD4026"/><path d="M111.534 68.032c-.808 2.814-2.63 4.783-4.072 4.392-1.441-.406-1.964-3.016-1.156-5.845.539-1.907 1.552-3.407 2.598-4.064.333-.25.095-.578-.238-.328-1.124.719-2.186 2.282-2.756 4.282-.871 3.08-.238 5.861 1.442 6.33 1.694.469 3.69-1.578 4.578-4.673.459-1.61.554-2.923.253-4.08-.079.063-.285.141-.38.204.222 1.079.142 2.36-.269 3.782z" fill="#fff"/><path fill-rule="evenodd" clip-rule="evenodd" d="M128.039 69.314s-5.132 11.816-16.569 7.705c-5.734-2.063-5.354-14.77-2.218-17.114 0 0 .666-6.267 3.105-10.894 2.44-4.626 12.989-4.47 20.308.157 0 0 1.679 2.797-1.949 12.206 0 0 1.98-1.344 3.945.547 1.489 1.438 1.045 3.736-.159 5.674-1.425 2.344-4.736 3.782-6.463 1.719z" fill="#FFB072"/><path d="M129.148 68.61l1.521-2.047-1.315-1.016s2.186-4.016 4.166-1.766c1.616 1.845-2.138 6.393-4.372 4.83z" fill="#E57E55"/><path d="M131.73 73.628c-.808 2.813-2.629 4.782-4.071 4.391-1.441-.406-1.964-3.016-1.156-5.845.538-1.907 1.552-3.407 2.598-4.063.332-.25.095-.579-.238-.329-1.125.72-2.186 2.282-2.756 4.283-.871 3.079-.238 5.86 1.441 6.33 1.695.468 3.691-1.58 4.578-4.674.46-1.61.555-2.922.254-4.079-.08.063-.286.14-.381.203.206 1.079.127 2.376-.269 3.783z" fill="#fff"/><path d="M110.583 68.517s1.347-1.688 7.287.64c-1.6 3.001-7.794 2.986-7.287-.64z" fill="#FD6141"/><path d="M110.583 68.518s3.691 1.05 7.287.643l-7.287-.643z" fill="#E57E55"/><path d="M110.583 68.518c2.439.33 4.831.611 7.287.643-1.204.297-2.456.297-3.691.203-1.22-.156-2.455-.376-3.596-.846z" fill="#E57E55"/><path d="M109.347 59.766c-.111.564.602.8 1.505.971.903.173 1.648.204 1.758-.344.111-.564-.538-1.144-1.441-1.316-.887-.188-1.711.125-1.822.69z" fill="#3E2344"/><path d="M108.159 56.986c-.047.079 2.551-1.174 3.089-1.002.555.188 2.408 1.52 2.693 1.3.285-.22.665-.799.665-.799s-2.756-1.347-3.421-1.331c-.665.031-2.598 1.222-3.026 1.832z" fill="#DD4026"/><path d="M117.616 61.345c-.111.564.602.799 1.505.971.903.172 1.648.204 1.759-.345.11-.563-.539-1.143-1.442-1.315-.887-.188-1.711.125-1.822.689z" fill="#3E2344"/><path d="M123.857 59.332c.016.078-2.439-1.814-3.184-1.83-.744-.016-3.294.47-3.516.172-.238-.313-.396-.97-.396-.97s3.564-.187 4.356.063c.76.235 2.534 1.846 2.74 2.565z" fill="#DD4026"/><path opacity=".5" d="M112.563 65.677s2.059.501 2.17-.063c.111-.563-3.992-2.365-4.34-2.02-.333.313 1.331 1.566 2.17 2.083z" fill="#E57E55"/><path d="M114.591 57.206s-.127 2.688-.682 3.516c-.57.829-3.025 2.345-3.183 2.767-.159.422 1.694 2.079 1.837 2.188.143.11-2.962-1.282-2.582-2.25.38-.97 3.501-2.783 3.723-3.252.221-.468.887-2.97.887-2.97z" fill="#E57E55"/><path d="M128.705 62.937l.126-.422-6.415-1.297c.016-1.625-.966-3.095-2.503-3.532-1.742-.485-3.564.531-4.293 2.297-.412-.547-.855-.875-1.33-.938a1.604 1.604 0 00-1.03.25c-.032-1.422-.887-2.703-2.249-3.078-1.695-.47-3.485.625-3.992 2.438-.523 1.813.443 3.657 2.123 4.126 1.694.469 3.484-.625 3.991-2.438.048-.157.064-.328.095-.485.032-.031.46-.453 1.014-.375.444.063.84.407 1.204 1.016-.507 1.985.539 3.986 2.392 4.501 1.885.516 3.881-.687 4.451-2.704a2.85 2.85 0 00.111-.625l6.305 1.266zm-19.468-.547c-1.41-.39-2.218-1.922-1.885-3.454l1.98.438.063-.391-1.917-.438c.523-1.469 2.012-2.344 3.422-1.953 1.473.406 2.297 2.047 1.837 3.641-.459 1.61-2.027 2.58-3.5 2.157zm8.696 2.173c-1.647-.454-2.566-2.267-2.059-4.048.507-1.782 2.249-2.86 3.897-2.407 1.647.453 2.566 2.266 2.059 4.048-.507 1.782-2.25 2.86-3.897 2.407z" fill="#7C4284"/><path d="M114.115 47.167s3.549-1.438 8.634 4.892c5.084 6.33 4.562 5.986 6.732 8.143l-1.267 4.47 2.534-3.298s5.845-4.923 6.558-9.768c.919.766-15.365-20.693-23.191-4.439z" fill="#DD4026"/><path d="M143.484 99.072c7.445 18.068 10.344 41.653 8.839 58.298-1.98 21.787-13.401 46.653-15.619 48.92-.602 1.375-13.322-3.47-13.417-5.877 0 0 10.043-32.712 9.916-45.122-.095-9.456-4.324-23.585-7.714-41.215-3.121-16.16 12.989-27.195 17.995-15.004z" fill="#552F5E"/><path d="M74.482 175.453c4.88-16.239 14.194-48.295 13.037-52.624-14.985-28.477-38.667-24.57-63.742-9.409-3.517 3.61-5.497 46.044-6.083 60.783-3.485 6.689-7.065 17.161-8.712 24.038-1.885 7.861 61.493 16.426 63.378 8.564 2.202-9.127 3.342-22.318 2.122-31.352z" fill="#DD4026"/><path d="M62.808 93.417s-3.881-1.298-7.825-8.91c-2.582-4.985-2.868-25.71 13.908-26.163 16.775-.453 18.945 10.863 18.026 17.88C86 83.242 76.668 87.665 72.471 89.587c-4.214 1.907-9.663 3.83-9.663 3.83z" fill="#3E2344"/><path d="M60.812 84.756s-1.932 5.955-4.895 10.378c-2.962 4.423-5.259 5.548-8.047 7.174-2.788 1.625 4.23 8.205 13.766 12.863 0 0 13.607-5.049 9.298-9.112-3.31-3.142-5.148-3.142-2.36-9.519a776.71 776.71 0 013.833-8.627l-11.595-3.157z" fill="#FFB072"/><path fill-rule="evenodd" clip-rule="evenodd" d="M60.812 84.756s-1.584 4.376-.206 6.58c1.394 2.203 3.596 7.236 11.247 8.018 7.635.765 10.059-15.286 10.059-15.286s2.487-5.814 2.614-10.894c.126-5.08-9.22-9.237-17.9-8.127 0 0-2.852 1.782-4.277 11.582 0 0-1.077-1.985-3.723-1.126-2.012.657-2.74 2.876-2.645 5.095.127 2.657 2.313 5.283 4.831 4.158z" fill="#FFB072"/><path d="M60.21 83.693l-.332-2.438 1.663-.375s.047-4.455-2.788-3.251c-2.344.984-1.283 6.533 1.457 6.064z" fill="#E57E55"/><path d="M73.88 81.946c-.173.533-.918.454-1.79.25-.87-.219-1.552-.485-1.377-1.017.174-.533 1.03-.8 1.9-.58.872.188 1.442.799 1.268 1.347zm-5.306-3.548c-.047.079 2.74-.376 3.549-.235.807.141 3.77 1.113 4.102.862.333-.25.776-1.222.776-1.222s-4.102-1.065-5.005-.987c-.919.063-3.01.924-3.422 1.582zm13.338 5.517c-.174.533-.919.454-1.79.25-.871-.218-1.552-.485-1.378-1.017.174-.533 1.03-.8 1.9-.58.888.204 1.442.815 1.268 1.347zm1.632-1.844c-.016.078-.793-1.47-1.331-1.657-.523-.187-3.247-.39-3.31-.734-.064-.344.19-1.36.19-1.36s3.5.828 3.975 1.25c.491.407.587 1.782.476 2.501z" fill="#3E2344"/><path opacity=".5" d="M76.194 87.838s-2.044-.392-1.87-.94c.175-.548 4.658-.454 4.8-.031.143.438-1.932.861-2.93.971z" fill="#E57E55"/><path d="M78.57 79.504s-1.204 2.423-1.125 3.392c.095.953 1.505 3.313 1.442 3.75-.064.439-2.503 1.142-2.677 1.189-.175.03 3.215.078 3.358-.938.142-1.016-1.695-3.892-1.68-4.392.032-.5.682-3 .682-3zm-8.744 8.816c1.14.906 2.55 1.422 3.96 1.703.713.14 1.441.172 2.186.219.729.078 1.441.203 2.123.172h.031c.048 0 .095.03.095.093a.119.119 0 01-.031.078c-.697.548-1.553.454-2.297.438-.745-.11-1.49-.219-2.25-.406-1.473-.375-2.914-1.063-3.944-2.188a.075.075 0 010-.11c.048-.031.095-.031.127 0z" fill="#E57E55"/><path d="M62.808 81.333c.745-.328 2.677-3.798 2.392-7.47-.253-3.299 2.852-5.221 4.689-5.127 2.107.11 8.332 2.782 11.025 3.11 7.35.922 9.568-1.11 9.805-2.157.238-1.031-3.01-.234-3.01-.234s4.99-3.22 5.671-8.55c0 0-3.088 2.22-7.064.094-3.976-2.126-13.908-5.455-20.356-2.344-4.229 2.032-8.807 10.096-5.084 15.176 1.695 2.297.522 8.111 1.932 7.502z" fill="#3E2344"/></g></svg>